<svg xmlns="http://www.w3.org/2000/svg" xmlns:xlink="http://www.w3.org/1999/xlink" contentStyleType="text/css" height="2082.5px" preserveAspectRatio="none" style="width:1318px;height:2082px;background:#FFFFFF;" version="1.1" viewBox="0 0 1318 2082" width="1318.75px" zoomAndPan="magnify"><defs/><g><text fill="#000000" font-family="Segoe UI" font-size="30" font-weight="bold" lengthAdjust="spacing" textLength="1005" x="148.6625" y="40.3467">Access Control Model - Document Classification &amp; Clearance</text><!--cluster Classification Hierarchy--><g id="cluster_Classification Hierarchy"><path d="M957.5,121.4094 L1190,121.4094 A4.6875,4.6875 0 0 1 1193.125,124.5344 L1201.875,149.2805 L1296.25,149.2805 A3.125,3.125 0 0 1 1299.375,152.4055 L1299.375,2071.4719 A3.125,3.125 0 0 1 1296.25,2074.5969 L957.5,2074.5969 A3.125,3.125 0 0 1 954.375,2071.4719 L954.375,124.5344 A3.125,3.125 0 0 1 957.5,121.4094 " fill="none" style="stroke:#000000;stroke-width:1.875;"/><line style="stroke:#000000;stroke-width:1.875;" x1="954.375" x2="1201.875" y1="149.2805" y2="149.2805"/><text fill="#000000" font-family="Segoe UI" font-size="17.5" font-weight="bold" lengthAdjust="spacing" textLength="231.25" x="959.375" y="140.1533">Classification Hierarchy</text></g><!--class TopSecret--><g id="elem_TopSecret"><rect codeLine="15" fill="#FF0000" height="276.9531" id="TopSecret" rx="3.125" ry="3.125" style="stroke:#181818;stroke-width:0.625;" width="290" x="974.375" y="165.1594"/><ellipse cx="1036.5625" cy="191.7805" fill="#ADD1B2" rx="13.75" ry="13.75" style="stroke:#181818;stroke-width:1.25;"/><path d="M1040.2734,198.8313 Q1039.5508,199.2023 1038.75,199.3781 Q1037.9492,199.5734 1037.0703,199.5734 Q1033.9453,199.5734 1032.2852,197.5227 Q1030.6445,195.4523 1030.6445,191.5461 Q1030.6445,187.6398 1032.2852,185.5695 Q1033.9453,183.4992 1037.0703,183.4992 Q1037.9492,183.4992 1038.75,183.6945 Q1039.5703,183.8898 1040.2734,184.2609 L1040.2734,187.6594 Q1039.4922,186.9367 1038.75,186.6047 Q1038.0078,186.2531 1037.2266,186.2531 Q1035.5469,186.2531 1034.6875,187.6008 Q1033.8281,188.9289 1033.8281,191.5461 Q1033.8281,194.1633 1034.6875,195.5109 Q1035.5469,196.8391 1037.2266,196.8391 Q1038.0078,196.8391 1038.75,196.507 Q1039.4922,196.1555 1040.2734,195.4328 L1040.2734,198.8313 Z " fill="#000000"/><text fill="#000000" font-family="Segoe UI" font-size="17.5" font-weight="bold" lengthAdjust="spacing" textLength="120" x="1079.6875" y="187.6533">TOP SECRET</text><text fill="#000000" font-family="Segoe UI" font-size="17.5" lengthAdjust="spacing" textLength="155" x="1062.1875" y="208.0244">(Level 5 - Highest)</text><line style="stroke:#181818;stroke-width:0.625;" x1="975.625" x2="1263.125" y1="218.4016" y2="218.4016"/><text fill="#000000" font-family="Segoe UI" font-size="17.5" font-weight="bold" lengthAdjust="spacing" textLength="275" x="981.875" y="239.6455">Exceptionally grave damage</text><text fill="#000000" font-family="Segoe UI" font-size="17.5" lengthAdjust="spacing" textLength="162.5" x="981.875" y="260.0166">to national security</text><line style="stroke:#181818;stroke-width:1.25;" x1="975.625" x2="1263.125" y1="269.1438" y2="269.1438"/><text fill="#000000" font-family="Segoe UI" font-size="17.5" font-weight="bold" lengthAdjust="spacing" textLength="222.5" x="981.875" y="290.3876">Access Requirements:</text><text fill="#000000" font-family="Segoe UI" font-size="17.5" lengthAdjust="spacing" textLength="198.75" x="981.875" y="310.7587">&#8226; Top Secret clearance</text><text fill="#000000" font-family="Segoe UI" font-size="17.5" lengthAdjust="spacing" textLength="185" x="981.875" y="331.1298">&#8226; Strict need-to-know</text><text fill="#000000" font-family="Segoe UI" font-size="17.5" lengthAdjust="spacing" textLength="190" x="981.875" y="351.5009">&#8226; MFA always required</text><text fill="#000000" font-family="Segoe UI" font-size="17.5" lengthAdjust="spacing" textLength="193.75" x="981.875" y="371.872">&#8226; Internal network only</text><text fill="#000000" font-family="Segoe UI" font-size="17.5" lengthAdjust="spacing" textLength="178.75" x="981.875" y="392.2431">&#8226; No external access</text><text fill="#000000" font-family="Segoe UI" font-size="17.5" lengthAdjust="spacing" textLength="193.75" x="981.875" y="412.6142">&#8226; Download prohibited</text><text fill="#000000" font-family="Segoe UI" font-size="17.5" lengthAdjust="spacing" textLength="146.25" x="981.875" y="432.9853">&#8226; Print prohibited</text></g><!--class Secret--><g id="elem_Secret"><rect codeLine="28" fill="#FFA500" height="256.582" id="Secret" rx="3.125" ry="3.125" style="stroke:#181818;stroke-width:0.625;" width="305" x="974.375" y="728.9219"/><ellipse cx="1084.6875" cy="755.543" fill="#ADD1B2" rx="13.75" ry="13.75" style="stroke:#181818;stroke-width:1.25;"/><path d="M1088.3984,762.5938 Q1087.6758,762.9648 1086.875,763.1406 Q1086.0742,763.3359 1085.1953,763.3359 Q1082.0703,763.3359 1080.4102,761.2852 Q1078.7695,759.2148 1078.7695,755.3086 Q1078.7695,751.4023 1080.4102,749.332 Q1082.0703,747.2617 1085.1953,747.2617 Q1086.0742,747.2617 1086.875,747.457 Q1087.6953,747.6523 1088.3984,748.0234 L1088.3984,751.4219 Q1087.6172,750.6992 1086.875,750.3672 Q1086.1328,750.0156 1085.3516,750.0156 Q1083.6719,750.0156 1082.8125,751.3633 Q1081.9531,752.6914 1081.9531,755.3086 Q1081.9531,757.9258 1082.8125,759.2734 Q1083.6719,760.6016 1085.3516,760.6016 Q1086.1328,760.6016 1086.875,760.2695 Q1087.6172,759.918 1088.3984,759.1953 L1088.3984,762.5938 Z " fill="#000000"/><text fill="#000000" font-family="Segoe UI" font-size="17.5" font-weight="bold" lengthAdjust="spacing" textLength="73.75" x="1110.3125" y="751.4158">SECRET</text><text fill="#000000" font-family="Segoe UI" font-size="17.5" lengthAdjust="spacing" textLength="72.5" x="1110.9375" y="771.7869">(Level 4)</text><line style="stroke:#181818;stroke-width:0.625;" x1="975.625" x2="1278.125" y1="782.1641" y2="782.1641"/><text fill="#000000" font-family="Segoe UI" font-size="17.5" font-weight="bold" lengthAdjust="spacing" textLength="158.75" x="981.875" y="803.408">Serious damage</text><text fill="#000000" font-family="Segoe UI" font-size="17.5" lengthAdjust="spacing" textLength="162.5" x="981.875" y="823.7791">to national security</text><line style="stroke:#181818;stroke-width:1.25;" x1="975.625" x2="1278.125" y1="832.9063" y2="832.9063"/><text fill="#000000" font-family="Segoe UI" font-size="17.5" font-weight="bold" lengthAdjust="spacing" textLength="222.5" x="981.875" y="854.1501">Access Requirements:</text><text fill="#000000" font-family="Segoe UI" font-size="17.5" lengthAdjust="spacing" textLength="243.75" x="981.875" y="874.5212">&#8226; Secret clearance minimum</text><text fill="#000000" font-family="Segoe UI" font-size="17.5" lengthAdjust="spacing" textLength="187.5" x="981.875" y="894.8923">&#8226; Need-to-know basis</text><text fill="#000000" font-family="Segoe UI" font-size="17.5" lengthAdjust="spacing" textLength="128.75" x="981.875" y="915.2634">&#8226; MFA required</text><text fill="#000000" font-family="Segoe UI" font-size="17.5" lengthAdjust="spacing" textLength="290" x="981.875" y="935.6345">&#8226; VPN access allowed (controlled)</text><text fill="#000000" font-family="Segoe UI" font-size="17.5" lengthAdjust="spacing" textLength="188.75" x="981.875" y="956.0056">&#8226; Download restricted</text><text fill="#000000" font-family="Segoe UI" font-size="17.5" lengthAdjust="spacing" textLength="223.75" x="981.875" y="976.3767">&#8226; Watermarked prints only</text></g><!--class Confidential--><g id="elem_Confidential"><rect codeLine="40" fill="#FFFF00" height="236.2109" id="Confidential" rx="3.125" ry="3.125" style="stroke:#181818;stroke-width:0.625;" width="275" x="974.375" y="1177.0719"/><ellipse cx="1036.5625" cy="1203.693" fill="#ADD1B2" rx="13.75" ry="13.75" style="stroke:#181818;stroke-width:1.25;"/><path d="M1040.2734,1210.7438 Q1039.5508,1211.1148 1038.75,1211.2906 Q1037.9492,1211.4859 1037.0703,1211.4859 Q1033.9453,1211.4859 1032.2852,1209.4352 Q1030.6445,1207.3648 1030.6445,1203.4586 Q1030.6445,1199.5523 1032.2852,1197.482 Q1033.9453,1195.4117 1037.0703,1195.4117 Q1037.9492,1195.4117 1038.75,1195.607 Q1039.5703,1195.8023 1040.2734,1196.1734 L1040.2734,1199.5719 Q1039.4922,1198.8492 1038.75,1198.5172 Q1038.0078,1198.1656 1037.2266,1198.1656 Q1035.5469,1198.1656 1034.6875,1199.5133 Q1033.8281,1200.8414 1033.8281,1203.4586 Q1033.8281,1206.0758 1034.6875,1207.4234 Q1035.5469,1208.7516 1037.2266,1208.7516 Q1038.0078,1208.7516 1038.75,1208.4195 Q1039.4922,1208.068 1040.2734,1207.3453 L1040.2734,1210.7438 Z " fill="#000000"/><text fill="#000000" font-family="Segoe UI" font-size="17.5" font-weight="bold" lengthAdjust="spacing" textLength="140" x="1062.1875" y="1199.5658">CONFIDENTIAL</text><text fill="#000000" font-family="Segoe UI" font-size="17.5" lengthAdjust="spacing" textLength="72.5" x="1095.9375" y="1219.9369">(Level 3)</text><line style="stroke:#181818;stroke-width:0.625;" x1="975.625" x2="1248.125" y1="1230.3141" y2="1230.3141"/><text fill="#000000" font-family="Segoe UI" font-size="17.5" font-weight="bold" lengthAdjust="spacing" textLength="105" x="981.875" y="1251.558">Damage to</text><text fill="#000000" font-family="Segoe UI" font-size="17.5" lengthAdjust="spacing" textLength="260" x="981.875" y="1271.9291">national security or operations</text><line style="stroke:#181818;stroke-width:1.25;" x1="975.625" x2="1248.125" y1="1281.0563" y2="1281.0563"/><text fill="#000000" font-family="Segoe UI" font-size="17.5" font-weight="bold" lengthAdjust="spacing" textLength="222.5" x="981.875" y="1302.3001">Access Requirements:</text><text fill="#000000" font-family="Segoe UI" font-size="17.5" lengthAdjust="spacing" textLength="205" x="981.875" y="1322.6712">&#8226; Confidential clearance</text><text fill="#000000" font-family="Segoe UI" font-size="17.5" lengthAdjust="spacing" textLength="230" x="981.875" y="1343.0423">&#8226; Department-level access</text><text fill="#000000" font-family="Segoe UI" font-size="17.5" lengthAdjust="spacing" textLength="257.5" x="981.875" y="1363.4134">&#8226; MFA for sensitive operations</text><text fill="#000000" font-family="Segoe UI" font-size="17.5" lengthAdjust="spacing" textLength="255" x="981.875" y="1383.7845">&#8226; Download requires approval</text><text fill="#000000" font-family="Segoe UI" font-size="17.5" lengthAdjust="spacing" textLength="170" x="981.875" y="1404.1556">&#8226; All access audited</text></g><!--class Internal--><g id="elem_Internal"><rect codeLine="51" fill="#90EE90" height="236.2109" id="Internal" rx="3.125" ry="3.125" style="stroke:#181818;stroke-width:0.625;" width="303.75" x="975" y="1528.2844"/><ellipse cx="1052.8125" cy="1554.9055" fill="#ADD1B2" rx="13.75" ry="13.75" style="stroke:#181818;stroke-width:1.25;"/><path d="M1056.5234,1561.9563 Q1055.8008,1562.3273 1055,1562.5031 Q1054.1992,1562.6984 1053.3203,1562.6984 Q1050.1953,1562.6984 1048.5352,1560.6477 Q1046.8945,1558.5773 1046.8945,1554.6711 Q1046.8945,1550.7648 1048.5352,1548.6945 Q1050.1953,1546.6242 1053.3203,1546.6242 Q1054.1992,1546.6242 1055,1546.8195 Q1055.8203,1547.0148 1056.5234,1547.3859 L1056.5234,1550.7844 Q1055.7422,1550.0617 1055,1549.7297 Q1054.2578,1549.3781 1053.4766,1549.3781 Q1051.7969,1549.3781 1050.9375,1550.7258 Q1050.0781,1552.0539 1050.0781,1554.6711 Q1050.0781,1557.2883 1050.9375,1558.6359 Q1051.7969,1559.9641 1053.4766,1559.9641 Q1054.2578,1559.9641 1055,1559.632 Q1055.7422,1559.2805 1056.5234,1558.5578 L1056.5234,1561.9563 Z " fill="#000000"/><text fill="#000000" font-family="Segoe UI" font-size="17.5" font-weight="bold" lengthAdjust="spacing" textLength="137.5" x="1078.4375" y="1550.7783">INTERNAL USE</text><text fill="#000000" font-family="Segoe UI" font-size="17.5" lengthAdjust="spacing" textLength="72.5" x="1110.9375" y="1571.1494">(Level 2)</text><line style="stroke:#181818;stroke-width:0.625;" x1="976.25" x2="1277.5" y1="1581.5266" y2="1581.5266"/><text fill="#000000" font-family="Segoe UI" font-size="17.5" font-weight="bold" lengthAdjust="spacing" textLength="288.75" x="982.5" y="1602.7705">Internal business information</text><text fill="#000000" font-family="Segoe UI" font-size="17.5" lengthAdjust="spacing" textLength="182.5" x="982.5" y="1623.1416">Not for public release</text><line style="stroke:#181818;stroke-width:1.25;" x1="976.25" x2="1277.5" y1="1632.2688" y2="1632.2688"/><text fill="#000000" font-family="Segoe UI" font-size="17.5" font-weight="bold" lengthAdjust="spacing" textLength="222.5" x="982.5" y="1653.5126">Access Requirements:</text><text fill="#000000" font-family="Segoe UI" font-size="17.5" lengthAdjust="spacing" textLength="158.75" x="982.5" y="1673.8837">&#8226; Employee status</text><text fill="#000000" font-family="Segoe UI" font-size="17.5" lengthAdjust="spacing" textLength="232.5" x="982.5" y="1694.2548">&#8226; Department membership</text><text fill="#000000" font-family="Segoe UI" font-size="17.5" lengthAdjust="spacing" textLength="221.25" x="982.5" y="1714.6259">&#8226; Standard authentication</text><text fill="#000000" font-family="Segoe UI" font-size="17.5" lengthAdjust="spacing" textLength="171.25" x="982.5" y="1734.997">&#8226; Download allowed</text><text fill="#000000" font-family="Segoe UI" font-size="17.5" lengthAdjust="spacing" textLength="208.75" x="982.5" y="1755.3681">&#8226; Standard audit logging</text></g><!--class Public--><g id="elem_Public"><rect codeLine="62" fill="#ADD8E6" height="175.0977" id="Public" rx="3.125" ry="3.125" style="stroke:#181818;stroke-width:0.625;" width="291.25" x="973.75" y="1879.4969"/><ellipse cx="1039.0625" cy="1906.118" fill="#ADD1B2" rx="13.75" ry="13.75" style="stroke:#181818;stroke-width:1.25;"/><path d="M1042.7734,1913.1688 Q1042.0508,1913.5398 1041.25,1913.7156 Q1040.4492,1913.9109 1039.5703,1913.9109 Q1036.4453,1913.9109 1034.7852,1911.8602 Q1033.1445,1909.7898 1033.1445,1905.8836 Q1033.1445,1901.9773 1034.7852,1899.907 Q1036.4453,1897.8367 1039.5703,1897.8367 Q1040.4492,1897.8367 1041.25,1898.032 Q1042.0703,1898.2273 1042.7734,1898.5984 L1042.7734,1901.9969 Q1041.9922,1901.2742 1041.25,1900.9422 Q1040.5078,1900.5906 1039.7266,1900.5906 Q1038.0469,1900.5906 1037.1875,1901.9383 Q1036.3281,1903.2664 1036.3281,1905.8836 Q1036.3281,1908.5008 1037.1875,1909.8484 Q1038.0469,1911.1766 1039.7266,1911.1766 Q1040.5078,1911.1766 1041.25,1910.8445 Q1041.9922,1910.493 1042.7734,1909.7703 L1042.7734,1913.1688 Z " fill="#000000"/><text fill="#000000" font-family="Segoe UI" font-size="17.5" font-weight="bold" lengthAdjust="spacing" textLength="68.75" x="1105.3125" y="1901.9908">PUBLIC</text><text fill="#000000" font-family="Segoe UI" font-size="17.5" lengthAdjust="spacing" textLength="150" x="1064.6875" y="1922.3619">(Level 1 - Lowest)</text><line style="stroke:#181818;stroke-width:0.625;" x1="975" x2="1263.75" y1="1932.7391" y2="1932.7391"/><text fill="#000000" font-family="Segoe UI" font-size="17.5" font-weight="bold" lengthAdjust="spacing" textLength="276.25" x="981.25" y="1953.983">Approved for public release</text><line style="stroke:#181818;stroke-width:1.25;" x1="975" x2="1263.75" y1="1963.1102" y2="1963.1102"/><text fill="#000000" font-family="Segoe UI" font-size="17.5" font-weight="bold" lengthAdjust="spacing" textLength="222.5" x="981.25" y="1984.3541">Access Requirements:</text><text fill="#000000" font-family="Segoe UI" font-size="17.5" lengthAdjust="spacing" textLength="251.25" x="981.25" y="2004.7251">&#8226; Basic authentication (if any)</text><text fill="#000000" font-family="Segoe UI" font-size="17.5" lengthAdjust="spacing" textLength="140" x="981.25" y="2025.0962">&#8226; No restrictions</text><text fill="#000000" font-family="Segoe UI" font-size="17.5" lengthAdjust="spacing" textLength="156.25" x="981.25" y="2045.4673">&#8226; Freely shareable</text></g><!--class Clearance--><g id="elem_Clearance"><rect codeLine="77" fill="#E6E6FA" height="344.8242" id="Clearance" rx="3.125" ry="3.125" style="stroke:#181818;stroke-width:0.625;" width="480" x="11.875" y="131.2219"/><ellipse cx="135.9375" cy="151.2219" fill="#ADD1B2" rx="13.75" ry="13.75" style="stroke:#181818;stroke-width:1.25;"/><path d="M139.6484,158.2727 Q138.9258,158.6437 138.125,158.8195 Q137.3242,159.0148 136.4453,159.0148 Q133.3203,159.0148 131.6602,156.9641 Q130.0195,154.8937 130.0195,150.9875 Q130.0195,147.0812 131.6602,145.0109 Q133.3203,142.9406 136.4453,142.9406 Q137.3242,142.9406 138.125,143.1359 Q138.9453,143.3312 139.6484,143.7023 L139.6484,147.1008 Q138.8672,146.3781 138.125,146.0461 Q137.3828,145.6945 136.6016,145.6945 Q134.9219,145.6945 134.0625,147.0422 Q133.2031,148.3703 133.2031,150.9875 Q133.2031,153.6047 134.0625,154.9523 Q134.9219,156.2805 136.6016,156.2805 Q137.3828,156.2805 138.125,155.9484 Q138.8672,155.5969 139.6484,154.8742 L139.6484,158.2727 Z " fill="#000000"/><text fill="#000000" font-family="Segoe UI" font-size="17.5" font-weight="bold" lengthAdjust="spacing" textLength="221.25" x="161.5625" y="157.2802">User Clearance Levels</text><line style="stroke:#181818;stroke-width:0.625;" x1="13.125" x2="490.625" y1="171.2219" y2="171.2219"/><text fill="#000000" font-family="Segoe UI" font-size="17.5" font-weight="bold" lengthAdjust="spacing" textLength="266.25" x="19.375" y="192.4658">Assigned Clearance Levels</text><line style="stroke:#181818;stroke-width:1.25;" x1="13.125" x2="490.625" y1="201.593" y2="201.593"/><text fill="#000000" font-family="Segoe UI" font-size="17.5" lengthAdjust="spacing" textLength="188.75" x="19.375" y="222.8369">&#8226; Public          (Level 1)</text><text fill="#000000" font-family="Segoe UI" font-size="17.5" lengthAdjust="spacing" textLength="210" x="19.375" y="243.208">&#8226; Internal Use    (Level 2)</text><text fill="#000000" font-family="Segoe UI" font-size="17.5" lengthAdjust="spacing" textLength="208.75" x="19.375" y="263.5791">&#8226; Confidential    (Level 3)</text><text fill="#000000" font-family="Segoe UI" font-size="17.5" lengthAdjust="spacing" textLength="193.75" x="19.375" y="283.9501">&#8226; Secret          (Level 4)</text><text fill="#000000" font-family="Segoe UI" font-size="17.5" lengthAdjust="spacing" textLength="212.5" x="19.375" y="304.3212">&#8226; Top Secret      (Level 5)</text><line style="stroke:#181818;stroke-width:1.25;" x1="13.125" x2="490.625" y1="313.4484" y2="313.4484"/><text fill="#000000" font-family="Segoe UI" font-size="17.5" font-weight="bold" lengthAdjust="spacing" textLength="103.75" x="19.375" y="334.6923">Core Rule:</text><text fill="#000000" font-family="Segoe UI" font-size="17.5" lengthAdjust="spacing" textLength="465" x="19.375" y="355.0634">user.clearance_level &gt;= document.classification_level</text><line style="stroke:#181818;stroke-width:1.25;" x1="13.125" x2="490.625" y1="364.1906" y2="364.1906"/><text fill="#000000" font-family="Segoe UI" font-size="17.5" font-weight="bold" lengthAdjust="spacing" textLength="195" x="19.375" y="385.4345">Additional Controls:</text><text fill="#000000" font-family="Segoe UI" font-size="17.5" lengthAdjust="spacing" textLength="305" x="19.375" y="405.8056">&#8226; Background check        (Level 3+)</text><text fill="#000000" font-family="Segoe UI" font-size="17.5" lengthAdjust="spacing" textLength="302.5" x="19.375" y="426.1767">&#8226; Annual security training(Level 4+)</text><text fill="#000000" font-family="Segoe UI" font-size="17.5" lengthAdjust="spacing" textLength="328.75" x="19.375" y="446.5478">&#8226; Polygraph &amp; reinvestigation (Level 5)</text><text fill="#000000" font-family="Segoe UI" font-size="17.5" lengthAdjust="spacing" textLength="280" x="19.375" y="466.9189">&#8226; Re-certification every 1-5 years</text></g><!--class AutoControls--><g id="elem_AutoControls"><rect codeLine="96" fill="#F08080" height="467.4219" id="AutoControls" rx="3.125" ry="3.125" style="stroke:#181818;stroke-width:0.625;" width="395" x="535.625" y="69.9219"/><ellipse cx="554.375" cy="89.9219" fill="#ADD1B2" rx="13.75" ry="13.75" style="stroke:#181818;stroke-width:1.25;"/><path d="M558.0859,96.9727 Q557.3633,97.3438 556.5625,97.5195 Q555.7617,97.7148 554.8828,97.7148 Q551.7578,97.7148 550.0977,95.6641 Q548.457,93.5938 548.457,89.6875 Q548.457,85.7813 550.0977,83.7109 Q551.7578,81.6406 554.8828,81.6406 Q555.7617,81.6406 556.5625,81.8359 Q557.3828,82.0313 558.0859,82.4023 L558.0859,85.8008 Q557.3047,85.0781 556.5625,84.7461 Q555.8203,84.3945 555.0391,84.3945 Q553.3594,84.3945 552.5,85.7422 Q551.6406,87.0703 551.6406,89.6875 Q551.6406,92.3047 552.5,93.6523 Q553.3594,94.9805 555.0391,94.9805 Q555.8203,94.9805 556.5625,94.6484 Q557.3047,94.2969 558.0859,93.5742 L558.0859,96.9727 Z " fill="#000000"/><text fill="#000000" font-family="Segoe UI" font-size="17.5" font-weight="bold" lengthAdjust="spacing" textLength="355" x="571.875" y="95.9802">Automatic Controls by Classification</text><line style="stroke:#181818;stroke-width:0.625;" x1="536.875" x2="929.375" y1="109.9219" y2="109.9219"/><text fill="#000000" font-family="Segoe UI" font-size="17.5" font-weight="bold" lengthAdjust="spacing" textLength="120" x="543.125" y="131.1658">TOP SECRET</text><text fill="#000000" font-family="Segoe UI" font-size="17.5" lengthAdjust="spacing" textLength="267.5" x="543.125" y="151.5369">&#8226; Air-gapped / isolated network</text><text fill="#000000" font-family="Segoe UI" font-size="17.5" lengthAdjust="spacing" textLength="271.25" x="543.125" y="171.908">&#8226; Geo-fencing + device binding</text><text fill="#000000" font-family="Segoe UI" font-size="17.5" lengthAdjust="spacing" textLength="257.5" x="543.125" y="192.2791">&#8226; Business-hours access only</text><text fill="#000000" font-family="Segoe UI" font-size="17.5" lengthAdjust="spacing" textLength="316.25" x="543.125" y="212.6501">&#8226; Screen capture / clipboard blocked</text><text fill="#000000" font-family="Segoe UI" font-size="17.5" lengthAdjust="spacing" textLength="183.75" x="543.125" y="233.0212">&#8226; Issued devices only</text><text fill="#000000" font-family="Segoe UI" font-size="17.5" lengthAdjust="spacing" textLength="5" x="543.125" y="253.3923">&#160;</text><text fill="#000000" font-family="Segoe UI" font-size="17.5" font-weight="bold" lengthAdjust="spacing" textLength="73.75" x="543.125" y="273.7634">SECRET</text><text fill="#000000" font-family="Segoe UI" font-size="17.5" lengthAdjust="spacing" textLength="188.75" x="543.125" y="294.1345">&#8226; VPN + MFA required</text><text fill="#000000" font-family="Segoe UI" font-size="17.5" lengthAdjust="spacing" textLength="210" x="543.125" y="314.5056">&#8226; Dynamic watermarking</text><text fill="#000000" font-family="Segoe UI" font-size="17.5" lengthAdjust="spacing" textLength="213.75" x="543.125" y="334.8767">&#8226; Expiring access tokens</text><text fill="#000000" font-family="Segoe UI" font-size="17.5" lengthAdjust="spacing" textLength="256.25" x="543.125" y="355.2478">&#8226; Restricted removable media</text><text fill="#000000" font-family="Segoe UI" font-size="17.5" lengthAdjust="spacing" textLength="5" x="543.125" y="375.6189">&#160;</text><text fill="#000000" font-family="Segoe UI" font-size="17.5" font-weight="bold" lengthAdjust="spacing" textLength="140" x="543.125" y="395.99">CONFIDENTIAL</text><text fill="#000000" font-family="Segoe UI" font-size="17.5" lengthAdjust="spacing" textLength="191.25" x="543.125" y="416.3611">&#8226; MFA where sensitive</text><text fill="#000000" font-family="Segoe UI" font-size="17.5" lengthAdjust="spacing" textLength="323.75" x="543.125" y="436.7322">&#8226; Download / share approval workflow</text><text fill="#000000" font-family="Segoe UI" font-size="17.5" lengthAdjust="spacing" textLength="178.75" x="543.125" y="457.1033">&#8226; Full access logging</text><text fill="#000000" font-family="Segoe UI" font-size="17.5" lengthAdjust="spacing" textLength="5" x="543.125" y="477.4744">&#160;</text><text fill="#000000" font-family="Segoe UI" font-size="17.5" font-weight="bold" lengthAdjust="spacing" textLength="181.25" x="543.125" y="497.8455">INTERNAL / PUBLIC</text><text fill="#000000" font-family="Segoe UI" font-size="17.5" lengthAdjust="spacing" textLength="261.25" x="543.125" y="518.2166">&#8226; Standard enterprise controls</text><line style="stroke:#181818;stroke-width:0.625;" x1="536.875" x2="929.375" y1="527.3438" y2="527.3438"/></g><g id="elem_GMN14"><path d="M7.5,652.3469 L7.5,1062.0832 A0,0 0 0 0 7.5,1062.0832 L496.25,1062.0832 A0,0 0 0 0 496.25,1062.0832 L496.25,664.8469 L483.75,652.3469 L256.875,652.3469 L251.875,476.5969 L246.875,652.3469 L7.5,652.3469 A0,0 0 0 0 7.5,652.3469 " fill="#F8F8F8" style="stroke:#AAAAAA;stroke-width:0.625;"/><path d="M483.75,652.3469 L483.75,664.8469 L496.25,664.8469 L483.75,652.3469 " fill="#F8F8F8" style="stroke:#AAAAAA;stroke-width:0.625;"/><text fill="#000000" font-family="Segoe UI" font-size="16.25" font-weight="bold" lengthAdjust="spacing" textLength="277.5" x="15" y="673.6805">Classification Change Process</text><text fill="#000000" font-family="Segoe UI" font-size="16.25" lengthAdjust="spacing" textLength="5" x="15" y="692.5965">&#160;</text><text fill="#000000" font-family="Segoe UI" font-size="16.25" font-weight="bold" lengthAdjust="spacing" textLength="247.5" x="15" y="711.5125">Upgrade (&#8593; classification):</text><text fill="#000000" font-family="Segoe UI" font-size="16.25" lengthAdjust="spacing" textLength="351.25" x="15" y="730.4285">&#8226; Requires owner + security admin approval</text><text fill="#000000" font-family="Segoe UI" font-size="16.25" lengthAdjust="spacing" textLength="246.25" x="15" y="749.3446">&#8226; Immediate access restriction</text><text fill="#000000" font-family="Segoe UI" font-size="16.25" lengthAdjust="spacing" textLength="345" x="15" y="768.2606">&#8226; Automated notification to current holders</text><text fill="#000000" font-family="Segoe UI" font-size="16.25" lengthAdjust="spacing" textLength="303.75" x="15" y="787.1766">&#8226; Revocation of insufficient clearances</text><text fill="#000000" font-family="Segoe UI" font-size="16.25" lengthAdjust="spacing" textLength="121.25" x="15" y="806.0926">&#8226; Full audit trail</text><text fill="#000000" font-family="Segoe UI" font-size="16.25" lengthAdjust="spacing" textLength="5" x="15" y="825.0086">&#160;</text><text fill="#000000" font-family="Segoe UI" font-size="16.25" font-weight="bold" lengthAdjust="spacing" textLength="273.75" x="15" y="843.9246">Downgrade (&#8595; classification):</text><text fill="#000000" font-family="Segoe UI" font-size="16.25" lengthAdjust="spacing" textLength="385" x="15" y="862.8406">&#8226; Requires senior security / compliance approval</text><text fill="#000000" font-family="Segoe UI" font-size="16.25" lengthAdjust="spacing" textLength="251.25" x="15" y="881.7567">&#8226; Formal declassification review</text><text fill="#000000" font-family="Segoe UI" font-size="16.25" lengthAdjust="spacing" textLength="242.5" x="15" y="900.6727">&#8226; Security impact assessment</text><text fill="#000000" font-family="Segoe UI" font-size="16.25" lengthAdjust="spacing" textLength="216.25" x="15" y="919.5887">&#8226; Mandatory human review</text><text fill="#000000" font-family="Segoe UI" font-size="16.25" lengthAdjust="spacing" textLength="247.5" x="15" y="938.5047">&#8226; Comprehensive audit logging</text><text fill="#000000" font-family="Segoe UI" font-size="16.25" lengthAdjust="spacing" textLength="5" x="15" y="957.4207">&#160;</text><text fill="#000000" font-family="Segoe UI" font-size="16.25" font-weight="bold" lengthAdjust="spacing" textLength="223.75" x="15" y="976.3367">Auto-Classification Aids:</text><text fill="#000000" font-family="Segoe UI" font-size="16.25" lengthAdjust="spacing" textLength="243.75" x="15" y="995.2528">&#8226; Keyword &amp; pattern matching</text><text fill="#000000" font-family="Segoe UI" font-size="16.25" lengthAdjust="spacing" textLength="243.75" x="15" y="1014.1688">&#8226; Metadata + context analysis</text><text fill="#000000" font-family="Segoe UI" font-size="16.25" lengthAdjust="spacing" textLength="265" x="15" y="1033.0848">&#8226; ML-based content classification</text><text fill="#000000" font-family="Segoe UI" font-size="16.25" lengthAdjust="spacing" textLength="10" x="15" y="1052.0008">&#8226;</text><text fill="#000000" font-family="Segoe UI" font-size="16.25" font-weight="bold" lengthAdjust="spacing" textLength="233.75" x="30" y="1052.0008">Mandatory human review</text><text fill="#000000" font-family="Segoe UI" font-size="16.25" lengthAdjust="spacing" textLength="208.75" x="268.75" y="1052.0008">for TOP SECRET &amp; SECRET</text></g><!--link TopSecret to Secret--><g id="link_TopSecret_Secret"><path codeLine="72" d="M1121.25,442.5219 C1122.4375,530.1844 1123.6695,620.4614 1124.832,706.0614 " fill="none" id="TopSecret-to-Secret" style="stroke:#181818;stroke-width:1.25;"/><polygon fill="none" points="1125.1375,728.5594,1132.3313,705.9596,1117.3327,706.1633,1125.1375,728.5594" style="stroke:#181818;stroke-width:1.25;"/><text fill="#000000" font-family="Segoe UI" font-size="16.25" lengthAdjust="spacing" textLength="132.5" x="1151.075" y="591.1805">higher clearance</text><text fill="#000000" font-family="Segoe UI" font-size="16.25" lengthAdjust="spacing" textLength="185" x="1124.825" y="610.0965">can access lower levels</text></g><!--link Secret to Confidential--><g id="link_Secret_Confidential"><path codeLine="73" d="M1122.5,985.5844 C1120.4125,1045.9594 1118.7259,1095.1728 1116.6884,1154.2228 " fill="none" id="Secret-to-Confidential" style="stroke:#181818;stroke-width:1.25;"/><polygon fill="none" points="1115.9125,1176.7094,1124.1839,1154.4814,1109.1929,1153.9641,1115.9125,1176.7094" style="stroke:#181818;stroke-width:1.25;"/><text fill="#000000" font-family="Segoe UI" font-size="16.25" lengthAdjust="spacing" textLength="132.5" x="1145.975" y="1115.9055">higher clearance</text><text fill="#000000" font-family="Segoe UI" font-size="16.25" lengthAdjust="spacing" textLength="185" x="1119.725" y="1134.8215">can access lower levels</text></g><!--link Confidential to Internal--><g id="link_Confidential_Internal"><path codeLine="74" d="M1116.9125,1413.5219 C1118.5,1450.3219 1119.2684,1468.4678 1120.8559,1505.2928 " fill="none" id="Confidential-to-Internal" style="stroke:#181818;stroke-width:1.25;"/><polygon fill="none" points="1121.825,1527.7719,1128.349,1504.9697,1113.3629,1505.6158,1121.825,1527.7719" style="stroke:#181818;stroke-width:1.25;"/><text fill="#000000" font-family="Segoe UI" font-size="16.25" lengthAdjust="spacing" textLength="132.5" x="1147.325" y="1467.118">higher clearance</text><text fill="#000000" font-family="Segoe UI" font-size="16.25" lengthAdjust="spacing" textLength="185" x="1121.075" y="1486.034">can access lower levels</text></g><!--link Internal to Public--><g id="link_Internal_Public"><path codeLine="75" d="M1124.1125,1764.7594 C1123.225,1802.6719 1122.784,1821.5282 1121.9465,1856.8032 " fill="none" id="Internal-to-Public" style="stroke:#181818;stroke-width:1.25;"/><polygon fill="none" points="1121.4125,1879.2969,1129.4444,1856.9812,1114.4487,1856.6252,1121.4125,1879.2969" style="stroke:#181818;stroke-width:1.25;"/><text fill="#000000" font-family="Segoe UI" font-size="16.25" lengthAdjust="spacing" textLength="132.5" x="1150.625" y="1818.3305">higher clearance</text><text fill="#000000" font-family="Segoe UI" font-size="16.25" lengthAdjust="spacing" textLength="185" x="1124.375" y="1837.2465">can access lower levels</text></g><!--SRC=[hLVRQYD747tNLtHi2BQCugnt5yAoCSYol6kYrGhBJWWiXDPCITEeftlItIEjSe4yvJta3_9f-oKvtNFHpCWXCKH-CQhgkfmwTT5dCIs58dOt7jqFfsycOnP9RcslPzT2PTpmbALQwIWnEYMsvD9IGsGJ7kkjKAi3IPm9zkpYo-OtjEIvT3TQkIc7hQCvhJInXzkZXjAzS9AyobpyHEpYHKCqrOwkUBHU6PshUAIbDknu-PN_wsff4vCfDNZuz7hEMsR3A29hsGWUZ9RidOv9iW6xrb6Uad9iv9CNIn5n9xHYd-CBWbqLKQ-NmJbV8V2Eqbj1XfiesHsndtizre3owFNYylxzZCt7exln_UlpnUK7TJAX3No-XDUtOfMGTQT7Z5jshxCvHOOSExwZ69OOFlt- -6D4cNV3fTonbU4ROZ5F4KU__q4vpHGlfCnIb1lXTk7X09_IGfdo7VsO2qC-I_kgtm_2Jx_zvVsoqd5Kvre9vyw8o35550-S7goLtjQoTpT3nkMMxompXUsubjqgHyO7fSXjjLaphUIkbaureu-b0W_HrQ9hlLLIyvXbHYTY8Lp3wCm8LAWb-FKGxqUmVb4WNC7x7ZcYZ1N2Sp92v_R_HRMBA4k54ccUxZ5eGCeMt0hR0lO0qMzdqn8hW2xr5XGvYGeMIufF3m4qO9OlNiF6TnoWfzoioUCBC6rLbqTm7BsVtjnUZwVtjyD92ytd1PfeeQM8aRS0IiVVam-gnlGwOCcSzd0UOCdGbpf3q_ZlxHEHRVazPEmrOGuu_seWGxWTWdbmb_1lILdX1Bgf4qa7n104CC_0kmsNjSfGoheUUVpFTBoTte_lfiC9UvYFMp1U533MdN8ymJHmRmoHgc6iXOlSOaZ3br08FWtXUcWnxK8sMRwG8aAumCFI4n4TfvdKEo9c7NUvVGHAbbAw86CJaJL60rSnDp7ITualHp4D3p4iwVhOG-36f5wji40UHs_sS3Mv7RLmUuR1EO71QcxEYjGB-Avalc_iOQWPk7w8K9dzVyVe2XqQTL9b9sB9kDgTDWTRrNOjFjsWgfZUs9Q6-49II1RfxcV-OF3BPJKq_ESLI_noC7k6Vr0HLnNbFAA61OBRNlqi66drnrFCj1u6KpNzdcAcVXHCbDLXJqwgroR2WuMetiKiKC5wNXIpg1OSJx0W5RP_O07AYaMzKk10zsseRLd_i5oQWU9JiUsqrzbeYAGXlwZaBVJsykULl57RflqNbRonXflobwVxCFlzaJQur7991JLpWF95ZUKFnRox_9h5vJNpHTGwL0g5fhrXZ0uiPdDv4PMaBoXVtLeiIYXQTo9_VbQ5FbGgRqvtPpYMdLfLATQACortk62o17UL8Q4sw1MnAdkfaQ_NlQD1HCRjhoo8pOuz6xnaEoHiVVkqAJBCdVQJCQfpOOjTvw2h6UELQxLYTW1SP57GPd-qrN0CXHcii0R0fNCch9POfd5rtvGwRqWFbgGYVn2VuU3T2F1j8LHS3BY0QZd91udEZQseNwxXG9Geh828Pov7jS_HB29RQ3ym5r97wp190oEjpH51uQKq4OBl1EulXxFkKH4cz4xn571jgxDW7-NuOoQCpwACp-arXNbMbAQwB60nnLR4HCE6Y0Kl_3SlXpeAxt-BtgVzvkrr5iLvCI3hNSiyiaiPJiumHVFzpgssHd1OxzXpLYoCsckzQyYtBsuUD6zvDGK6AVnQO0ljm1ocburZ7rcqZ_nH4ex6cT7UFnn0vI43csDY9vz-_uErU-tKzr41Ldb184jCfRDzc_0OD-7-i0WbJGECYAbCix5DWaB9SKyytUWD7AmmQlocJhJ4zBEbxuqkDP2SK3PVuedmQlNKA3GBQCC-zjqhVNQ-BdL-V_vhVYYh27TLcHw8gt5OY31pMrdU-0j6WhXjaqXs8sZRAwTbOKMa-DNbqB4MSFYP5iJlV5MTnZn8yfItNexWr53YEORRhdrY82aFuA1Jsg68RPNEDxG3ws8Cg8mxF_4Pu8uI_peu9iVXcQEEdaRu5OC3WCkTFz-3V3B0BO_o16d0kUagwFJxZuVVxuT3PJzw44JnJmyRpHUS_WO0]--></g></svg>