<svg xmlns="http://www.w3.org/2000/svg" xmlns:xlink="http://www.w3.org/1999/xlink" contentStyleType="text/css" height="451px" preserveAspectRatio="none" style="width:1206px;height:451px;background:#FFFFFF;" version="1.1" viewBox="0 0 1206 451" width="1206px" zoomAndPan="magnify"><defs/><g><text fill="#000000" font-family="sans-serif" font-size="14" font-weight="bold" lengthAdjust="spacing" textLength="313" x="439.75" y="22.9951">Access Control Model - Policy Examples</text><!--class P1--><g id="elem_P1"><rect codeLine="3" fill="#F1F1F1" height="170.0781" id="P1" rx="2.5" ry="2.5" style="stroke:#181818;stroke-width:0.5;" width="384" x="7" y="44.2969"/><ellipse cx="185.75" cy="60.2969" fill="#ADD1B2" rx="11" ry="11" style="stroke:#181818;stroke-width:1.0;"/><path d="M188.7188,65.9375 Q188.1406,66.2344 187.5,66.375 Q186.8594,66.5313 186.1563,66.5313 Q183.6563,66.5313 182.3281,64.8906 Q181.0156,63.2344 181.0156,60.1094 Q181.0156,56.9844 182.3281,55.3281 Q183.6563,53.6719 186.1563,53.6719 Q186.8594,53.6719 187.5,53.8281 Q188.1563,53.9844 188.7188,54.2813 L188.7188,57 Q188.0938,56.4219 187.5,56.1563 Q186.9063,55.875 186.2813,55.875 Q184.9375,55.875 184.25,56.9531 Q183.5625,58.0156 183.5625,60.1094 Q183.5625,62.2031 184.25,63.2813 Q184.9375,64.3438 186.2813,64.3438 Q186.9063,64.3438 187.5,64.0781 Q188.0938,63.7969 188.7188,63.2188 L188.7188,65.9375 Z " fill="#000000"/><text fill="#000000" font-family="sans-serif" font-size="14" lengthAdjust="spacing" textLength="18" x="206.25" y="65.1436">P1</text><line style="stroke:#181818;stroke-width:0.5;" x1="8" x2="390" y1="76.2969" y2="76.2969"/><text fill="#000000" font-family="sans-serif" font-size="14" lengthAdjust="spacing" textLength="254" x="13" y="93.292">Rule: Classification_Clearance_Match</text><line style="stroke:#181818;stroke-width:1.0;" x1="8" x2="390" y1="100.5938" y2="100.5938"/><text fill="#000000" font-family="sans-serif" font-size="14" lengthAdjust="spacing" textLength="71" x="13" y="117.5889">Condition:</text><text fill="#000000" font-family="sans-serif" font-size="14" lengthAdjust="spacing" textLength="372" x="13" y="133.8857">user.clearance_level &gt;= document.classification_level</text><text fill="#000000" font-family="sans-serif" font-size="14" lengthAdjust="spacing" textLength="338" x="13" y="150.1826">AND user.department == document.department</text><text fill="#000000" font-family="sans-serif" font-size="14" lengthAdjust="spacing" textLength="286" x="13" y="166.4795">AND user.employment_status == ACTIVE</text><line style="stroke:#181818;stroke-width:1.0;" x1="8" x2="390" y1="173.7813" y2="173.7813"/><text fill="#000000" font-family="sans-serif" font-size="14" lengthAdjust="spacing" textLength="214" x="13" y="190.7764">Action: PERMIT document.read</text><text fill="#000000" font-family="sans-serif" font-size="14" lengthAdjust="spacing" textLength="89" x="13" y="207.0732">Priority: HIGH</text></g><!--class P2--><g id="elem_P2"><rect codeLine="15" fill="#F1F1F1" height="170.0781" id="P2" rx="2.5" ry="2.5" style="stroke:#181818;stroke-width:0.5;" width="201" x="426.5" y="44.2969"/><ellipse cx="513.75" cy="60.2969" fill="#ADD1B2" rx="11" ry="11" style="stroke:#181818;stroke-width:1.0;"/><path d="M516.7188,65.9375 Q516.1406,66.2344 515.5,66.375 Q514.8594,66.5313 514.1563,66.5313 Q511.6563,66.5313 510.3281,64.8906 Q509.0156,63.2344 509.0156,60.1094 Q509.0156,56.9844 510.3281,55.3281 Q511.6563,53.6719 514.1563,53.6719 Q514.8594,53.6719 515.5,53.8281 Q516.1563,53.9844 516.7188,54.2813 L516.7188,57 Q516.0938,56.4219 515.5,56.1563 Q514.9063,55.875 514.2813,55.875 Q512.9375,55.875 512.25,56.9531 Q511.5625,58.0156 511.5625,60.1094 Q511.5625,62.2031 512.25,63.2813 Q512.9375,64.3438 514.2813,64.3438 Q514.9063,64.3438 515.5,64.0781 Q516.0938,63.7969 516.7188,63.2188 L516.7188,65.9375 Z " fill="#000000"/><text fill="#000000" font-family="sans-serif" font-size="14" lengthAdjust="spacing" textLength="18" x="534.25" y="65.1436">P2</text><line style="stroke:#181818;stroke-width:0.5;" x1="427.5" x2="626.5" y1="76.2969" y2="76.2969"/><text fill="#000000" font-family="sans-serif" font-size="14" lengthAdjust="spacing" textLength="189" x="432.5" y="93.292">Rule: Business_Hours_Only</text><line style="stroke:#181818;stroke-width:1.0;" x1="427.5" x2="626.5" y1="100.5938" y2="100.5938"/><text fill="#000000" font-family="sans-serif" font-size="14" lengthAdjust="spacing" textLength="71" x="432.5" y="117.5889">Condition:</text><text fill="#000000" font-family="sans-serif" font-size="14" lengthAdjust="spacing" textLength="175" x="432.5" y="133.8857">classification &gt;= SECRET</text><text fill="#000000" font-family="sans-serif" font-size="14" lengthAdjust="spacing" textLength="189" x="432.5" y="150.1826">AND time NOT 08:00-18:00</text><text fill="#000000" font-family="sans-serif" font-size="14" lengthAdjust="spacing" textLength="169" x="432.5" y="166.4795">AND role != SuperAdmin</text><line style="stroke:#181818;stroke-width:1.0;" x1="427.5" x2="626.5" y1="173.7813" y2="173.7813"/><text fill="#000000" font-family="sans-serif" font-size="14" lengthAdjust="spacing" textLength="109" x="432.5" y="190.7764">Action: DENY all</text><text fill="#000000" font-family="sans-serif" font-size="14" lengthAdjust="spacing" textLength="89" x="432.5" y="207.0732">Priority: HIGH</text></g><!--class P3--><g id="elem_P3"><rect codeLine="27" fill="#F1F1F1" height="170.0781" id="P3" rx="2.5" ry="2.5" style="stroke:#181818;stroke-width:0.5;" width="236" x="663" y="44.2969"/><ellipse cx="767.75" cy="60.2969" fill="#ADD1B2" rx="11" ry="11" style="stroke:#181818;stroke-width:1.0;"/><path d="M770.7188,65.9375 Q770.1406,66.2344 769.5,66.375 Q768.8594,66.5313 768.1563,66.5313 Q765.6563,66.5313 764.3281,64.8906 Q763.0156,63.2344 763.0156,60.1094 Q763.0156,56.9844 764.3281,55.3281 Q765.6563,53.6719 768.1563,53.6719 Q768.8594,53.6719 769.5,53.8281 Q770.1563,53.9844 770.7188,54.2813 L770.7188,57 Q770.0938,56.4219 769.5,56.1563 Q768.9063,55.875 768.2813,55.875 Q766.9375,55.875 766.25,56.9531 Q765.5625,58.0156 765.5625,60.1094 Q765.5625,62.2031 766.25,63.2813 Q766.9375,64.3438 768.2813,64.3438 Q768.9063,64.3438 769.5,64.0781 Q770.0938,63.7969 770.7188,63.2188 L770.7188,65.9375 Z " fill="#000000"/><text fill="#000000" font-family="sans-serif" font-size="14" lengthAdjust="spacing" textLength="18" x="788.25" y="65.1436">P3</text><line style="stroke:#181818;stroke-width:0.5;" x1="664" x2="898" y1="76.2969" y2="76.2969"/><text fill="#000000" font-family="sans-serif" font-size="14" lengthAdjust="spacing" textLength="192" x="669" y="93.292">Rule: Internal_Network_Only</text><line style="stroke:#181818;stroke-width:1.0;" x1="664" x2="898" y1="100.5938" y2="100.5938"/><text fill="#000000" font-family="sans-serif" font-size="14" lengthAdjust="spacing" textLength="71" x="669" y="117.5889">Condition:</text><text fill="#000000" font-family="sans-serif" font-size="14" lengthAdjust="spacing" textLength="211" x="669" y="133.8857">classification == TOP_SECRET</text><text fill="#000000" font-family="sans-serif" font-size="14" lengthAdjust="spacing" textLength="224" x="669" y="150.1826">AND network_zone != INTERNAL</text><text fill="#000000" font-family="sans-serif" font-size="14" lengthAdjust="spacing" textLength="207" x="669" y="166.4795">AND device.trusted == FALSE</text><line style="stroke:#181818;stroke-width:1.0;" x1="664" x2="898" y1="173.7813" y2="173.7813"/><text fill="#000000" font-family="sans-serif" font-size="14" lengthAdjust="spacing" textLength="109" x="669" y="190.7764">Action: DENY all</text><text fill="#000000" font-family="sans-serif" font-size="14" lengthAdjust="spacing" textLength="116" x="669" y="207.0732">Priority: CRITICAL</text></g><!--class P4--><g id="elem_P4"><rect codeLine="39" fill="#F1F1F1" height="170.0781" id="P4" rx="2.5" ry="2.5" style="stroke:#181818;stroke-width:0.5;" width="265" x="66.5" y="274.3769"/><ellipse cx="185.75" cy="290.3769" fill="#ADD1B2" rx="11" ry="11" style="stroke:#181818;stroke-width:1.0;"/><path d="M188.7188,296.0175 Q188.1406,296.3144 187.5,296.455 Q186.8594,296.6113 186.1563,296.6113 Q183.6563,296.6113 182.3281,294.9706 Q181.0156,293.3144 181.0156,290.1894 Q181.0156,287.0644 182.3281,285.4081 Q183.6563,283.7519 186.1563,283.7519 Q186.8594,283.7519 187.5,283.9081 Q188.1563,284.0644 188.7188,284.3613 L188.7188,287.08 Q188.0938,286.5019 187.5,286.2363 Q186.9063,285.955 186.2813,285.955 Q184.9375,285.955 184.25,287.0331 Q183.5625,288.0956 183.5625,290.1894 Q183.5625,292.2831 184.25,293.3613 Q184.9375,294.4238 186.2813,294.4238 Q186.9063,294.4238 187.5,294.1581 Q188.0938,293.8769 188.7188,293.2988 L188.7188,296.0175 Z " fill="#000000"/><text fill="#000000" font-family="sans-serif" font-size="14" lengthAdjust="spacing" textLength="18" x="206.25" y="295.2236">P4</text><line style="stroke:#181818;stroke-width:0.5;" x1="67.5" x2="330.5" y1="306.3769" y2="306.3769"/><text fill="#000000" font-family="sans-serif" font-size="14" lengthAdjust="spacing" textLength="250" x="72.5" y="323.372">Rule: MFA_For_Sensitive_Operations</text><line style="stroke:#181818;stroke-width:1.0;" x1="67.5" x2="330.5" y1="330.6738" y2="330.6738"/><text fill="#000000" font-family="sans-serif" font-size="14" lengthAdjust="spacing" textLength="71" x="72.5" y="347.6689">Condition:</text><text fill="#000000" font-family="sans-serif" font-size="14" lengthAdjust="spacing" textLength="223" x="72.5" y="363.9657">action IN delete/share/download</text><text fill="#000000" font-family="sans-serif" font-size="14" lengthAdjust="spacing" textLength="253" x="72.5" y="380.2626">AND classification &gt;= CONFIDENTIAL</text><text fill="#000000" font-family="sans-serif" font-size="14" lengthAdjust="spacing" textLength="189" x="72.5" y="396.5595">AND mfa_verified == FALSE</text><line style="stroke:#181818;stroke-width:1.0;" x1="67.5" x2="330.5" y1="403.8613" y2="403.8613"/><text fill="#000000" font-family="sans-serif" font-size="14" lengthAdjust="spacing" textLength="245" x="72.5" y="420.8564">Action: DENY with MFA_CHALLENGE</text><text fill="#000000" font-family="sans-serif" font-size="14" lengthAdjust="spacing" textLength="89" x="72.5" y="437.1532">Priority: HIGH</text></g><!--class P5--><g id="elem_P5"><rect codeLine="51" fill="#F1F1F1" height="153.7813" id="P5" rx="2.5" ry="2.5" style="stroke:#181818;stroke-width:0.5;" width="263" x="366.5" y="282.5269"/><ellipse cx="484.75" cy="298.5269" fill="#ADD1B2" rx="11" ry="11" style="stroke:#181818;stroke-width:1.0;"/><path d="M487.7188,304.1675 Q487.1406,304.4644 486.5,304.605 Q485.8594,304.7613 485.1563,304.7613 Q482.6563,304.7613 481.3281,303.1206 Q480.0156,301.4644 480.0156,298.3394 Q480.0156,295.2144 481.3281,293.5581 Q482.6563,291.9019 485.1563,291.9019 Q485.8594,291.9019 486.5,292.0581 Q487.1563,292.2144 487.7188,292.5113 L487.7188,295.23 Q487.0938,294.6519 486.5,294.3863 Q485.9063,294.105 485.2813,294.105 Q483.9375,294.105 483.25,295.1831 Q482.5625,296.2456 482.5625,298.3394 Q482.5625,300.4331 483.25,301.5113 Q483.9375,302.5738 485.2813,302.5738 Q485.9063,302.5738 486.5,302.3081 Q487.0938,302.0269 487.7188,301.4488 L487.7188,304.1675 Z " fill="#000000"/><text fill="#000000" font-family="sans-serif" font-size="14" lengthAdjust="spacing" textLength="18" x="505.25" y="303.3736">P5</text><line style="stroke:#181818;stroke-width:0.5;" x1="367.5" x2="628.5" y1="314.5269" y2="314.5269"/><text fill="#000000" font-family="sans-serif" font-size="14" lengthAdjust="spacing" textLength="251" x="372.5" y="331.522">Rule: Project_Membership_Required</text><line style="stroke:#181818;stroke-width:1.0;" x1="367.5" x2="628.5" y1="338.8238" y2="338.8238"/><text fill="#000000" font-family="sans-serif" font-size="14" lengthAdjust="spacing" textLength="71" x="372.5" y="355.8189">Condition:</text><text fill="#000000" font-family="sans-serif" font-size="14" lengthAdjust="spacing" textLength="229" x="372.5" y="372.1157">project NOT IN assigned_projects</text><text fill="#000000" font-family="sans-serif" font-size="14" lengthAdjust="spacing" textLength="230" x="372.5" y="388.4126">AND role NOT Admin/SuperAdmin</text><line style="stroke:#181818;stroke-width:1.0;" x1="367.5" x2="628.5" y1="395.7144" y2="395.7144"/><text fill="#000000" font-family="sans-serif" font-size="14" lengthAdjust="spacing" textLength="91" x="372.5" y="412.7095">Action: DENY</text><text fill="#000000" font-family="sans-serif" font-size="14" lengthAdjust="spacing" textLength="112" x="372.5" y="429.0064">Priority: MEDIUM</text></g><!--class P6--><g id="elem_P6"><rect codeLine="62" fill="#F1F1F1" height="153.7813" id="P6" rx="2.5" ry="2.5" style="stroke:#181818;stroke-width:0.5;" width="265" x="934.5" y="52.4469"/><ellipse cx="1053.75" cy="68.4469" fill="#ADD1B2" rx="11" ry="11" style="stroke:#181818;stroke-width:1.0;"/><path d="M1056.7188,74.0875 Q1056.1406,74.3844 1055.5,74.525 Q1054.8594,74.6813 1054.1563,74.6813 Q1051.6563,74.6813 1050.3281,73.0406 Q1049.0156,71.3844 1049.0156,68.2594 Q1049.0156,65.1344 1050.3281,63.4781 Q1051.6563,61.8219 1054.1563,61.8219 Q1054.8594,61.8219 1055.5,61.9781 Q1056.1563,62.1344 1056.7188,62.4313 L1056.7188,65.15 Q1056.0938,64.5719 1055.5,64.3063 Q1054.9063,64.025 1054.2813,64.025 Q1052.9375,64.025 1052.25,65.1031 Q1051.5625,66.1656 1051.5625,68.2594 Q1051.5625,70.3531 1052.25,71.4313 Q1052.9375,72.4938 1054.2813,72.4938 Q1054.9063,72.4938 1055.5,72.2281 Q1056.0938,71.9469 1056.7188,71.3688 L1056.7188,74.0875 Z " fill="#000000"/><text fill="#000000" font-family="sans-serif" font-size="14" lengthAdjust="spacing" textLength="18" x="1074.25" y="73.2936">P6</text><line style="stroke:#181818;stroke-width:0.5;" x1="935.5" x2="1198.5" y1="84.4469" y2="84.4469"/><text fill="#000000" font-family="sans-serif" font-size="14" lengthAdjust="spacing" textLength="209" x="940.5" y="101.442">Rule: Download_Logging_Alert</text><line style="stroke:#181818;stroke-width:1.0;" x1="935.5" x2="1198.5" y1="108.7438" y2="108.7438"/><text fill="#000000" font-family="sans-serif" font-size="14" lengthAdjust="spacing" textLength="71" x="940.5" y="125.7389">Condition:</text><text fill="#000000" font-family="sans-serif" font-size="14" lengthAdjust="spacing" textLength="164" x="940.5" y="142.0357">download_count &gt;= 10</text><text fill="#000000" font-family="sans-serif" font-size="14" lengthAdjust="spacing" textLength="253" x="940.5" y="158.3326">AND classification &gt;= CONFIDENTIAL</text><line style="stroke:#181818;stroke-width:1.0;" x1="935.5" x2="1198.5" y1="165.6344" y2="165.6344"/><text fill="#000000" font-family="sans-serif" font-size="14" lengthAdjust="spacing" textLength="168" x="940.5" y="182.6295">Action: PERMIT + ALERT</text><text fill="#000000" font-family="sans-serif" font-size="14" lengthAdjust="spacing" textLength="112" x="940.5" y="198.9264">Priority: MEDIUM</text></g><g id="elem_GMN8"><path d="M976,293.8869 L976,424.9494 A0,0 0 0 0 976,424.9494 L1158,424.9494 A0,0 0 0 0 1158,424.9494 L1158,303.8869 L1148,293.8869 L1071,293.8869 L1067,206.6069 L1063,293.8869 L976,293.8869 A0,0 0 0 0 976,293.8869 " fill="#FEFFDD" style="stroke:#181818;stroke-width:0.5;"/><path d="M1148,293.8869 L1148,303.8869 L1158,303.8869 L1148,293.8869 " fill="#FEFFDD" style="stroke:#181818;stroke-width:0.5;"/><text fill="#000000" font-family="sans-serif" font-size="13" lengthAdjust="spacing" textLength="150" x="982" y="310.9538">Policy Evaluation Order:</text><text fill="#000000" font-family="sans-serif" font-size="13" lengthAdjust="spacing" textLength="71" x="982" y="326.0866">1. CRITICAL</text><text fill="#000000" font-family="sans-serif" font-size="13" lengthAdjust="spacing" textLength="49" x="982" y="341.2194">2. HIGH</text><text fill="#000000" font-family="sans-serif" font-size="13" lengthAdjust="spacing" textLength="69" x="982" y="356.3522">3. MEDIUM</text><text fill="#000000" font-family="sans-serif" font-size="13" lengthAdjust="spacing" textLength="44" x="982" y="371.485">4. LOW</text><text fill="#000000" font-family="sans-serif" font-size="13" lengthAdjust="spacing" textLength="4" x="982" y="386.6178">&#160;</text><text fill="#000000" font-family="sans-serif" font-size="13" lengthAdjust="spacing" textLength="97" x="982" y="401.7506">First DENY wins</text><text fill="#000000" font-family="sans-serif" font-size="13" lengthAdjust="spacing" textLength="161" x="982" y="416.8835">Default DENY if no match</text></g><!--SRC=[ZPHTRzCm58RlyolCDMhMRWEXIaCAQRf6oaUL1H1NbcUVjWR7BhRJhI3-EqwQhYcKqXjBENvz_Bpd7CToAm05b88nA5JIQYLGgXW8D41p9JZTekYPL6i1nlEe84us7w6V7a95BM2CmYR45vmIovN4eG2YYQI0KsBfoia60xUup8mtWh7xg0redxu81MpSRU_l45Eqha1QdnxdR0NkN91DTcSPh8csZHJTzOuTmdqnE7QrRQBOM69hqvm9mZB-5Etf0jgYeNbKf75vIAY1CBSzrrnfRhTZD8llPzwlbpfSz-hmeJPSkYBYcQgrmRaKsvFcZxqrjX-Yi8ZA3jdo2b2MbsZuRZmS3aRDscsvpW1wvVJr6dJ0AYx_v9z4sHT4X3Z7VDDZZgK5BOd06TWdfRzTJEqgMEPpV4Gkknm_b6mnuwoCYYn8kcq66qx1jxes5bYJOHea3z555i8YBkFGfJhOkEtPIAS1dYgD7q0QHxm1dBiAjQJcf1lINkO87PK02rTcHJHSCVKaXMfRtX3_tQampwQn8opZ5rlLWk0DQ2VxdwadRbSjQZWBaYJAxgDpRNhJypVNwYjGYrEe7a6R5L_Z0hxNN0CxQM-zqxTZv3msBfOI6ExYfZzFZQQTfQlpOtN4caQJ-6FQettRevrqLSI9MYwvNE90WBOdGVS5nrJLxYsx2e-6bnR_rCDzZO8aAif_i4fb0JqgQrNbxVzi6oBgtGsvPg37tiW_JDkrl-lAZR_FSkkZ9F_iULEkZTstrGtP11Qa5bs4Bv1Kg6f_Vo0PQkxz3G00]--></g></svg>