<svg xmlns="http://www.w3.org/2000/svg" xmlns:xlink="http://www.w3.org/1999/xlink" contentStyleType="text/css" height="801px" preserveAspectRatio="none" style="width:1467px;height:801px;background:#FFFFFF;" version="1.1" viewBox="0 0 1467 801" width="1467px" zoomAndPan="magnify"><defs/><g><text fill="#000000" font-family="sans-serif" font-size="14" font-weight="bold" lengthAdjust="spacing" textLength="497" x="478" y="22.9951">Access Control Model - Attribute-Based Access Control (ABAC)</text><!--cluster ABAC Policy Engine--><g id="cluster_ABAC Policy Engine"><path d="M8.5,43.2969 L161.5,43.2969 A3.75,3.75 0 0 1 164,45.7969 L171,65.5938 L1029.5,65.5938 A2.5,2.5 0 0 1 1032,68.0938 L1032,791.5169 A2.5,2.5 0 0 1 1029.5,794.0169 L8.5,794.0169 A2.5,2.5 0 0 1 6,791.5169 L6,45.7969 A2.5,2.5 0 0 1 8.5,43.2969 " fill="none" style="stroke:#000000;stroke-width:1.5;"/><line style="stroke:#000000;stroke-width:1.5;" x1="6" x2="171" y1="65.5938" y2="65.5938"/><text fill="#000000" font-family="sans-serif" font-size="14" font-weight="bold" lengthAdjust="spacing" textLength="152" x="10" y="58.292">ABAC Policy Engine</text></g><!--entity Subject--><g id="elem_Subject"><rect fill="#FFFFE0" height="223.5625" rx="2.5" ry="2.5" style="stroke:#181818;stroke-width:0.5;" width="156" x="22" y="78.2969"/><text fill="#000000" font-family="sans-serif" font-size="14" lengthAdjust="spacing" textLength="123" x="32" y="101.292">Subject Attributes</text><text fill="#000000" font-family="sans-serif" font-size="14" lengthAdjust="spacing" textLength="4" x="32" y="117.5889">&#160;</text><text fill="#000000" font-family="sans-serif" font-size="14" font-weight="bold" lengthAdjust="spacing" textLength="121" x="32" y="133.8857">User Attributes</text><line style="stroke:#181818;stroke-width:1.0;" x1="23" x2="177" y1="137.1875" y2="137.1875"/><text fill="#000000" font-family="sans-serif" font-size="14" lengthAdjust="spacing" textLength="50" x="32" y="154.1826">user_id</text><text fill="#000000" font-family="sans-serif" font-size="14" lengthAdjust="spacing" textLength="26" x="32" y="170.4795">role</text><text fill="#000000" font-family="sans-serif" font-size="14" lengthAdjust="spacing" textLength="105" x="32" y="186.7764">clearance_level</text><text fill="#000000" font-family="sans-serif" font-size="14" lengthAdjust="spacing" textLength="81" x="32" y="203.0732">department</text><text fill="#000000" font-family="sans-serif" font-size="14" lengthAdjust="spacing" textLength="54" x="32" y="219.3701">team_id</text><text fill="#000000" font-family="sans-serif" font-size="14" lengthAdjust="spacing" textLength="136" x="32" y="235.667">employment_status</text><text fill="#000000" font-family="sans-serif" font-size="14" lengthAdjust="spacing" textLength="81" x="32" y="251.9639">mfa_verified</text><text fill="#000000" font-family="sans-serif" font-size="14" lengthAdjust="spacing" textLength="75" x="32" y="268.2607">ip_address</text><text fill="#000000" font-family="sans-serif" font-size="14" lengthAdjust="spacing" textLength="102" x="32" y="284.5576">device_trusted</text></g><!--entity Resource--><g id="elem_Resource"><rect fill="#ADD8E6" height="223.5625" rx="2.5" ry="2.5" style="stroke:#181818;stroke-width:0.5;" width="184" x="213" y="78.2969"/><text fill="#000000" font-family="sans-serif" font-size="14" lengthAdjust="spacing" textLength="138" x="223" y="101.292">Resource Attributes</text><text fill="#000000" font-family="sans-serif" font-size="14" lengthAdjust="spacing" textLength="4" x="223" y="117.5889">&#160;</text><text fill="#000000" font-family="sans-serif" font-size="14" font-weight="bold" lengthAdjust="spacing" textLength="164" x="223" y="133.8857">Document Attributes</text><line style="stroke:#181818;stroke-width:1.0;" x1="214" x2="396" y1="137.1875" y2="137.1875"/><text fill="#000000" font-family="sans-serif" font-size="14" lengthAdjust="spacing" textLength="90" x="223" y="154.1826">document_id</text><text fill="#000000" font-family="sans-serif" font-size="14" lengthAdjust="spacing" textLength="125" x="223" y="170.4795">classification_level</text><text fill="#000000" font-family="sans-serif" font-size="14" lengthAdjust="spacing" textLength="62" x="223" y="186.7764">owner_id</text><text fill="#000000" font-family="sans-serif" font-size="14" lengthAdjust="spacing" textLength="81" x="223" y="203.0732">department</text><text fill="#000000" font-family="sans-serif" font-size="14" lengthAdjust="spacing" textLength="67" x="223" y="219.3701">project_id</text><text fill="#000000" font-family="sans-serif" font-size="14" lengthAdjust="spacing" textLength="67" x="223" y="235.667">sensitivity</text><text fill="#000000" font-family="sans-serif" font-size="14" lengthAdjust="spacing" textLength="114" x="223" y="251.9639">retention_period</text><text fill="#000000" font-family="sans-serif" font-size="14" lengthAdjust="spacing" textLength="111" x="223" y="268.2607">encryption_level</text><text fill="#000000" font-family="sans-serif" font-size="14" lengthAdjust="spacing" textLength="30" x="223" y="284.5576">tags</text></g><!--entity Action--><g id="elem_Action"><rect fill="#90EE90" height="166.375" rx="2.5" ry="2.5" style="stroke:#181818;stroke-width:0.5;" width="275" x="432.5" y="106.8869"/><text fill="#000000" font-family="sans-serif" font-size="14" lengthAdjust="spacing" textLength="114" x="442.5" y="129.882">Action Attributes</text><text fill="#000000" font-family="sans-serif" font-size="14" lengthAdjust="spacing" textLength="4" x="442.5" y="146.1789">&#160;</text><text fill="#000000" font-family="sans-serif" font-size="14" font-weight="bold" lengthAdjust="spacing" textLength="162" x="442.5" y="162.4757">Operation Attributes</text><line style="stroke:#181818;stroke-width:1.0;" x1="433.5" x2="706.5" y1="165.7775" y2="165.7775"/><text fill="#000000" font-family="sans-serif" font-size="14" lengthAdjust="spacing" textLength="255" x="442.5" y="182.7726">action_type (read/write/delete/share)</text><line style="stroke:#181818;stroke-width:1.0;" x1="433.5" x2="706.5" y1="190.0744" y2="190.0744"/><text fill="#000000" font-family="sans-serif" font-size="14" lengthAdjust="spacing" textLength="73" x="442.5" y="207.0695">timestamp</text><text fill="#000000" font-family="sans-serif" font-size="14" lengthAdjust="spacing" textLength="88" x="442.5" y="223.3664">day_of_week</text><text fill="#000000" font-family="sans-serif" font-size="14" lengthAdjust="spacing" textLength="81" x="442.5" y="239.6632">time_of_day</text><text fill="#000000" font-family="sans-serif" font-size="14" lengthAdjust="spacing" textLength="99" x="442.5" y="255.9601">request_origin</text></g><!--entity Environment--><g id="elem_Environment"><rect fill="#F08080" height="174.6719" rx="2.5" ry="2.5" style="stroke:#181818;stroke-width:0.5;" width="273" x="742.5" y="102.7469"/><text fill="#000000" font-family="sans-serif" font-size="14" lengthAdjust="spacing" textLength="158" x="752.5" y="125.742">Environment Attributes</text><text fill="#000000" font-family="sans-serif" font-size="14" lengthAdjust="spacing" textLength="4" x="752.5" y="142.0389">&#160;</text><text fill="#000000" font-family="sans-serif" font-size="14" font-weight="bold" lengthAdjust="spacing" textLength="169" x="752.5" y="158.3357">Contextual Attributes</text><line style="stroke:#181818;stroke-width:1.0;" x1="743.5" x2="1014.5" y1="161.6375" y2="161.6375"/><text fill="#000000" font-family="sans-serif" font-size="14" lengthAdjust="spacing" textLength="87" x="752.5" y="178.6326">current_time</text><text fill="#000000" font-family="sans-serif" font-size="14" lengthAdjust="spacing" textLength="54" x="752.5" y="194.9295">location</text><text fill="#000000" font-family="sans-serif" font-size="14" lengthAdjust="spacing" textLength="253" x="752.5" y="211.2264">network_zone (internal/external/vpn)</text><text fill="#000000" font-family="sans-serif" font-size="14" lengthAdjust="spacing" textLength="79" x="752.5" y="227.5232">threat_level</text><text fill="#000000" font-family="sans-serif" font-size="14" lengthAdjust="spacing" textLength="86" x="752.5" y="243.8201">system_load</text><text fill="#000000" font-family="sans-serif" font-size="14" lengthAdjust="spacing" textLength="126" x="752.5" y="260.117">compliance_mode</text></g><!--entity PDP--><g id="elem_PDP"><rect fill="#FFA500" height="133.7813" rx="2.5" ry="2.5" style="stroke:#181818;stroke-width:0.5;" width="209" x="465.5" y="393.8569"/><text fill="#000000" font-family="sans-serif" font-size="14" lengthAdjust="spacing" textLength="185" x="475.5" y="416.852">Policy Decision Point (PDP)</text><text fill="#000000" font-family="sans-serif" font-size="14" lengthAdjust="spacing" textLength="4" x="475.5" y="433.1489">&#160;</text><text fill="#000000" font-family="sans-serif" font-size="14" font-weight="bold" lengthAdjust="spacing" textLength="189" x="475.5" y="449.4457">Policy Evaluation Engine</text><line style="stroke:#181818;stroke-width:1.0;" x1="466.5" x2="673.5" y1="452.7475" y2="452.7475"/><text fill="#000000" font-family="sans-serif" font-size="14" lengthAdjust="spacing" textLength="154" x="475.5" y="469.7426">Evaluates all attributes</text><text fill="#000000" font-family="sans-serif" font-size="14" lengthAdjust="spacing" textLength="162" x="475.5" y="486.0395">against defined policies</text><line style="stroke:#181818;stroke-width:1.0;" x1="466.5" x2="673.5" y1="493.3413" y2="493.3413"/><text fill="#000000" font-family="sans-serif" font-size="14" lengthAdjust="spacing" textLength="168" x="475.5" y="510.3364">Returns: PERMIT / DENY</text></g><!--entity PolicyStore--><g id="elem_PolicyStore"><rect fill="#808080" height="158.375" rx="2.5" ry="2.5" style="stroke:#181818;stroke-width:0.5;" width="205" x="467.5" y="619.6369"/><text fill="#000000" font-family="sans-serif" font-size="14" lengthAdjust="spacing" textLength="80" x="477.5" y="642.632">Policy Store</text><text fill="#000000" font-family="sans-serif" font-size="14" lengthAdjust="spacing" textLength="4" x="477.5" y="658.9289">&#160;</text><text fill="#000000" font-family="sans-serif" font-size="14" font-weight="bold" lengthAdjust="spacing" textLength="185" x="477.5" y="675.2257">Access Control Policies</text><line style="stroke:#181818;stroke-width:1.0;" x1="468.5" x2="671.5" y1="678.5275" y2="678.5275"/><text fill="#000000" font-family="sans-serif" font-size="14" lengthAdjust="spacing" textLength="175" x="477.5" y="695.5226">Classification-based rules</text><text fill="#000000" font-family="sans-serif" font-size="14" lengthAdjust="spacing" textLength="163" x="477.5" y="711.8195">Time-based restrictions</text><text fill="#000000" font-family="sans-serif" font-size="14" lengthAdjust="spacing" textLength="166" x="477.5" y="728.1164">Location-based controls</text><text fill="#000000" font-family="sans-serif" font-size="14" lengthAdjust="spacing" textLength="165" x="477.5" y="744.4132">Department boundaries</text><text fill="#000000" font-family="sans-serif" font-size="14" lengthAdjust="spacing" textLength="139" x="477.5" y="760.7101">Project access rules</text></g><g id="elem_GMN15"><path d="M1048,395.2169 L1048,456.7469 L674.87,460.7469 L1048,464.7469 L1048,526.2794 A0,0 0 0 0 1048,526.2794 L1460,526.2794 A0,0 0 0 0 1460,526.2794 L1460,405.2169 L1450,395.2169 L1048,395.2169 A0,0 0 0 0 1048,395.2169 " fill="#FEFFDD" style="stroke:#181818;stroke-width:0.5;"/><path d="M1450,395.2169 L1450,405.2169 L1460,405.2169 L1450,395.2169 " fill="#FEFFDD" style="stroke:#181818;stroke-width:0.5;"/><text fill="#000000" font-family="sans-serif" font-size="13" lengthAdjust="spacing" textLength="152" x="1054" y="412.2838">ABAC Decision Process:</text><text fill="#000000" font-family="sans-serif" font-size="13" lengthAdjust="spacing" textLength="4" x="1054" y="427.4166">&#160;</text><text fill="#000000" font-family="sans-serif" font-size="13" lengthAdjust="spacing" textLength="391" x="1054" y="442.5494">1. Collect attributes (Subject, Resource, Action, Environment)</text><text fill="#000000" font-family="sans-serif" font-size="13" lengthAdjust="spacing" textLength="119" x="1054" y="457.6822">2. Retrieve policies</text><text fill="#000000" font-family="sans-serif" font-size="13" lengthAdjust="spacing" textLength="140" x="1054" y="472.815">3. Evaluate conditions</text><text fill="#000000" font-family="sans-serif" font-size="13" lengthAdjust="spacing" textLength="148" x="1054" y="487.9478">4. Apply deny-first logic</text><text fill="#000000" font-family="sans-serif" font-size="13" lengthAdjust="spacing" textLength="163" x="1054" y="503.0806">5. Return PERMIT or DENY</text><text fill="#000000" font-family="sans-serif" font-size="13" lengthAdjust="spacing" textLength="95" x="1054" y="518.2135">6. Log decision</text></g><!--link Subject to PDP--><g id="link_Subject_PDP"><path d="M178.49,288.4869 C183.86,293.2569 189.37,297.7569 195,301.8569 C277.32,361.9069 380.2328,402.5654 459.3628,428.2354 " fill="none" id="Subject-to-PDP" style="stroke:#181818;stroke-width:1.0;"/><polygon fill="#181818" points="465.07,430.0869,457.7435,423.5049,460.314,428.544,455.2749,431.1145,465.07,430.0869" style="stroke:#181818;stroke-width:1.0;"/><text fill="#000000" font-family="sans-serif" font-size="13" lengthAdjust="spacing" textLength="48" x="298.6" y="344.9238">Subject</text><text fill="#000000" font-family="sans-serif" font-size="13" lengthAdjust="spacing" textLength="63" x="291.1" y="360.0566">Attributes</text></g><!--link Resource to PDP--><g id="link_Resource_PDP"><path d="M397.31,284.6669 C432.71,320.5669 468.1268,356.465 500.4868,389.275 " fill="none" id="Resource-to-PDP" style="stroke:#181818;stroke-width:1.0;"/><polygon fill="#181818" points="504.7,393.5469,501.228,384.3303,501.189,389.987,495.5322,389.948,504.7,393.5469" style="stroke:#181818;stroke-width:1.0;"/><text fill="#000000" font-family="sans-serif" font-size="13" lengthAdjust="spacing" textLength="59" x="472.03" y="344.9238">Resource</text><text fill="#000000" font-family="sans-serif" font-size="13" lengthAdjust="spacing" textLength="63" x="470.03" y="360.0566">Attributes</text></g><!--link Action to PDP--><g id="link_Action_PDP"><path d="M570,273.5169 C570,312.0769 570,351.3869 570,387.6569 " fill="none" id="Action-to-PDP" style="stroke:#181818;stroke-width:1.0;"/><polygon fill="#181818" points="570,393.6569,574,384.6569,570,388.6569,566,384.6569,570,393.6569" style="stroke:#181818;stroke-width:1.0;"/><text fill="#000000" font-family="sans-serif" font-size="13" lengthAdjust="spacing" textLength="40" x="582.5" y="344.9238">Action</text><text fill="#000000" font-family="sans-serif" font-size="13" lengthAdjust="spacing" textLength="63" x="571" y="360.0566">Attributes</text></g><!--link Environment to PDP--><g id="link_Environment_PDP"><path d="M779.53,277.5669 C736.31,315.1469 690.9973,354.5394 650.7773,389.5194 " fill="none" id="Environment-to-PDP" style="stroke:#181818;stroke-width:1.0;"/><polygon fill="#181818" points="646.25,393.4569,655.6659,390.5689,650.0227,390.1757,650.416,384.5325,646.25,393.4569" style="stroke:#181818;stroke-width:1.0;"/><text fill="#000000" font-family="sans-serif" font-size="13" lengthAdjust="spacing" textLength="81" x="716.23" y="344.9238">Environment</text><text fill="#000000" font-family="sans-serif" font-size="13" lengthAdjust="spacing" textLength="63" x="725.23" y="360.0566">Attributes</text></g><!--link PDP to PolicyStore--><g id="link_PDP_PolicyStore"><path d="M570,528.1369 C570,556.5069 570,583.8269 570,613.4069 " fill="none" id="PDP-to-PolicyStore" style="stroke:#181818;stroke-width:1.0;"/><polygon fill="#181818" points="570,619.4069,574,610.4069,570,614.4069,566,610.4069,570,619.4069" style="stroke:#181818;stroke-width:1.0;"/><text fill="#000000" font-family="sans-serif" font-size="13" lengthAdjust="spacing" textLength="38" x="575.5" y="570.7038">Query</text><text fill="#000000" font-family="sans-serif" font-size="13" lengthAdjust="spacing" textLength="47" x="571" y="585.8366">Policies</text></g><!--link PDP to PDP--><g id="link_PDP_PDP"><path d="M674.94,440.5569 C695.17,442.9369 709.5,449.6669 709.5,460.7469 C709.5,471.8269 701.1289,477.8558 680.8989,480.2358 " fill="none" id="PDP-to-PDP" style="stroke:#181818;stroke-width:1.0;"/><polygon fill="#181818" points="674.94,480.9369,684.3457,483.8579,679.9058,480.3527,683.411,475.9127,674.94,480.9369" style="stroke:#181818;stroke-width:1.0;"/><text fill="#000000" font-family="sans-serif" font-size="13" lengthAdjust="spacing" textLength="55" x="721.5" y="457.8138">Evaluate</text><text fill="#000000" font-family="sans-serif" font-size="13" lengthAdjust="spacing" textLength="67" x="715.5" y="472.9466">Conditions</text></g><!--SRC=[RLJ1RkCs4BtpAuZaaWInZUwsFUHGm8c3HO7ihflT7XOG833KM6533xL3ogvQzDyx92LBoiOdQ-Pn-DxC6mOJBCYrrk2zl7COo5dvqLLWvKAkGo3pr0POt2eFrMlOnVfsVNSfHAFqYwf1diLlkNNMw4xUOsqGpkI_GX3eeB3cUyw-j4z_yTTOsHTOuDNLdnve4howAd31lm9RJfIcAf0lX0Ar1KKADPGM3c0BhA1H5FQ0eS00Qf-mi6-iwsAmz465bY_PxrHv038x0mmmJQcgYbXCh70mN2zGwmDKPr9vER0yVp3rS_W6rhhZJCOZUDUIXXzqR9nkuxrlQgdwPEAehVAUwMWLZCD1ZZjYhtSgh24N-QIu1_Gcc8C97JS50WFY-OQrkIWTDNNDj6HGjK-gJgIph5lRmapKMiTZFqZwpANLgyoeIQL3PUWQa1S4gbeToGHOiO6Osye_AuBB0HpC7dWW-uRbgQvqk_88y9BZyOk3KTFtbb6b8yCEIinxPfdt1mB06V5xF1Xo-AhlcNtqAlmTMcNVfAzReZYHoA10w_8q2aG8HqSlvJyEMPVX6eJAhhXI_dDea5M5PrOSXaRxZWsqBwrJSRoEFMYIK_UyJKd6b6VMSkT8sPcMVdise8sFchUEBvSNsytsCWiQrkkWR9l7aZTjrDIdm4jbhLIJXgXQ6VH1Lh3Z4vLiOYqJC_da8uIMqD_8xVtZnz-_ofNSt7_wbhWp0Nd-cLUlXhVuVWcE81DyzKXi-pj6VdSpvo-UqjD2hOqyll8SXWYRW4oQF2SUt0okStLER4vx8fzSoxwY96YRLqQgp2QLpq8IuSHNddyWrOd_X1WMVh7uBIcz6Pw00aVNYDC2ZR0XDCFrTXrHEJ33JBqm0YVH6Lh4T89DsD_8FreWtfYXnICg5-jzm1rtM9dKI27G1P0KpIVTBY95UhL7mv6B7RiHugSb3z7QrCKJ5NdHT-RwfFswrtSzfNyftYqPmSTuEKv64- -N9rfnXWEhdvTotJIsOsTYjzWPOfDQLnijVabLs9M39nqbKufVb_B1rNmWynQ0bOpQ_WS0]--></g></svg>