<svg xmlns="http://www.w3.org/2000/svg" xmlns:xlink="http://www.w3.org/1999/xlink" contentStyleType="text/css" height="759px" preserveAspectRatio="none" style="width:339px;height:759px;background:#FFFFFF;" version="1.1" viewBox="0 0 339 759" width="339px" zoomAndPan="magnify"><defs/><g><text fill="#000000" font-family="sans-serif" font-size="14" font-weight="bold" lengthAdjust="spacing" textLength="311" x="10" y="22.9951">Access Control Model - RBAC Hierarchy</text><!--class SuperAdmin--><g id="elem_SuperAdmin"><rect codeLine="3" fill="#F1F1F1" height="129.4844" id="SuperAdmin" rx="2.5" ry="2.5" style="stroke:#181818;stroke-width:0.5;" width="183" x="81" y="44.2969"/><ellipse cx="126.25" cy="60.2969" fill="#ADD1B2" rx="11" ry="11" style="stroke:#181818;stroke-width:1.0;"/><path d="M129.2188,65.9375 Q128.6406,66.2344 128,66.375 Q127.3594,66.5313 126.6563,66.5313 Q124.1563,66.5313 122.8281,64.8906 Q121.5156,63.2344 121.5156,60.1094 Q121.5156,56.9844 122.8281,55.3281 Q124.1563,53.6719 126.6563,53.6719 Q127.3594,53.6719 128,53.8281 Q128.6563,53.9844 129.2188,54.2813 L129.2188,57 Q128.5938,56.4219 128,56.1563 Q127.4063,55.875 126.7813,55.875 Q125.4375,55.875 124.75,56.9531 Q124.0625,58.0156 124.0625,60.1094 Q124.0625,62.2031 124.75,63.2813 Q125.4375,64.3438 126.7813,64.3438 Q127.4063,64.3438 128,64.0781 Q128.5938,63.7969 129.2188,63.2188 L129.2188,65.9375 Z " fill="#000000"/><text fill="#000000" font-family="sans-serif" font-size="14" lengthAdjust="spacing" textLength="84" x="146.75" y="65.1436">SuperAdmin</text><line style="stroke:#181818;stroke-width:0.5;" x1="82" x2="263" y1="76.2969" y2="76.2969"/><text fill="#000000" font-family="sans-serif" font-size="14" lengthAdjust="spacing" textLength="157" x="101" y="93.292">All system permissions</text><ellipse cx="92" cy="106.2422" fill="none" rx="3" ry="3" style="stroke:#038048;stroke-width:1.0;"/><text fill="#000000" font-family="sans-serif" font-size="14" lengthAdjust="spacing" textLength="145" x="101" y="109.5889">System configuration</text><ellipse cx="92" cy="122.5391" fill="none" rx="3" ry="3" style="stroke:#038048;stroke-width:1.0;"/><text fill="#000000" font-family="sans-serif" font-size="14" lengthAdjust="spacing" textLength="121" x="101" y="125.8857">Key management</text><ellipse cx="92" cy="138.8359" fill="none" rx="3" ry="3" style="stroke:#038048;stroke-width:1.0;"/><text fill="#000000" font-family="sans-serif" font-size="14" lengthAdjust="spacing" textLength="112" x="101" y="142.1826">Backup/Restore</text><ellipse cx="92" cy="155.1328" fill="none" rx="3" ry="3" style="stroke:#038048;stroke-width:1.0;"/><text fill="#000000" font-family="sans-serif" font-size="14" lengthAdjust="spacing" textLength="131" x="101" y="158.4795">Emergency access</text><line style="stroke:#181818;stroke-width:0.5;" x1="82" x2="263" y1="165.7813" y2="165.7813"/></g><!--class Admin--><g id="elem_Admin"><rect codeLine="11" fill="#F1F1F1" height="113.1875" id="Admin" rx="2.5" ry="2.5" style="stroke:#181818;stroke-width:0.5;" width="173" x="86" y="233.7869"/><ellipse cx="146.75" cy="249.7869" fill="#ADD1B2" rx="11" ry="11" style="stroke:#181818;stroke-width:1.0;"/><path d="M149.7188,255.4275 Q149.1406,255.7244 148.5,255.865 Q147.8594,256.0213 147.1563,256.0213 Q144.6563,256.0213 143.3281,254.3806 Q142.0156,252.7244 142.0156,249.5994 Q142.0156,246.4744 143.3281,244.8181 Q144.6563,243.1619 147.1563,243.1619 Q147.8594,243.1619 148.5,243.3181 Q149.1563,243.4744 149.7188,243.7713 L149.7188,246.49 Q149.0938,245.9119 148.5,245.6463 Q147.9063,245.365 147.2813,245.365 Q145.9375,245.365 145.25,246.4431 Q144.5625,247.5056 144.5625,249.5994 Q144.5625,251.6931 145.25,252.7713 Q145.9375,253.8338 147.2813,253.8338 Q147.9063,253.8338 148.5,253.5681 Q149.0938,253.2869 149.7188,252.7088 L149.7188,255.4275 Z " fill="#000000"/><text fill="#000000" font-family="sans-serif" font-size="14" lengthAdjust="spacing" textLength="43" x="167.25" y="254.6336">Admin</text><line style="stroke:#181818;stroke-width:0.5;" x1="87" x2="258" y1="265.7869" y2="265.7869"/><text fill="#000000" font-family="sans-serif" font-size="14" lengthAdjust="spacing" textLength="128" x="106" y="282.782">User management</text><ellipse cx="97" cy="295.7322" fill="none" rx="3" ry="3" style="stroke:#038048;stroke-width:1.0;"/><text fill="#000000" font-family="sans-serif" font-size="14" lengthAdjust="spacing" textLength="147" x="106" y="299.0789">Organization settings</text><ellipse cx="97" cy="312.0291" fill="none" rx="3" ry="3" style="stroke:#038048;stroke-width:1.0;"/><text fill="#000000" font-family="sans-serif" font-size="14" lengthAdjust="spacing" textLength="113" x="106" y="315.3757">Audit log access</text><ellipse cx="97" cy="328.3259" fill="none" rx="3" ry="3" style="stroke:#038048;stroke-width:1.0;"/><text fill="#000000" font-family="sans-serif" font-size="14" lengthAdjust="spacing" textLength="116" x="106" y="331.6726">Role assignment</text><line style="stroke:#181818;stroke-width:0.5;" x1="87" x2="258" y1="338.9744" y2="338.9744"/></g><!--class Manager--><g id="elem_Manager"><rect codeLine="18" fill="#F1F1F1" height="80.5938" id="Manager" rx="2.5" ry="2.5" style="stroke:#181818;stroke-width:0.5;" width="196" x="74.5" y="406.9769"/><ellipse cx="138.25" cy="422.9769" fill="#ADD1B2" rx="11" ry="11" style="stroke:#181818;stroke-width:1.0;"/><path d="M141.2188,428.6175 Q140.6406,428.9144 140,429.055 Q139.3594,429.2112 138.6563,429.2112 Q136.1563,429.2112 134.8281,427.5706 Q133.5156,425.9144 133.5156,422.7894 Q133.5156,419.6644 134.8281,418.0081 Q136.1563,416.3519 138.6563,416.3519 Q139.3594,416.3519 140,416.5081 Q140.6563,416.6644 141.2188,416.9612 L141.2188,419.68 Q140.5938,419.1019 140,418.8362 Q139.4063,418.555 138.7813,418.555 Q137.4375,418.555 136.75,419.6331 Q136.0625,420.6956 136.0625,422.7894 Q136.0625,424.8831 136.75,425.9612 Q137.4375,427.0237 138.7813,427.0237 Q139.4063,427.0237 140,426.7581 Q140.5938,426.4769 141.2188,425.8987 L141.2188,428.6175 Z " fill="#000000"/><text fill="#000000" font-family="sans-serif" font-size="14" lengthAdjust="spacing" textLength="60" x="158.75" y="427.8236">Manager</text><line style="stroke:#181818;stroke-width:0.5;" x1="75.5" x2="269.5" y1="438.9769" y2="438.9769"/><text fill="#000000" font-family="sans-serif" font-size="14" lengthAdjust="spacing" textLength="170" x="94.5" y="455.972">Team user management</text><ellipse cx="85.5" cy="468.9222" fill="none" rx="3" ry="3" style="stroke:#038048;stroke-width:1.0;"/><text fill="#000000" font-family="sans-serif" font-size="14" lengthAdjust="spacing" textLength="126" x="94.5" y="472.2689">Report generation</text><line style="stroke:#181818;stroke-width:0.5;" x1="75.5" x2="269.5" y1="479.5706" y2="479.5706"/></g><!--class User--><g id="elem_User"><rect codeLine="23" fill="#F1F1F1" height="80.5938" id="User" rx="2.5" ry="2.5" style="stroke:#181818;stroke-width:0.5;" width="181" x="82" y="547.5669"/><ellipse cx="152.25" cy="563.5669" fill="#ADD1B2" rx="11" ry="11" style="stroke:#181818;stroke-width:1.0;"/><path d="M155.2188,569.2075 Q154.6406,569.5044 154,569.645 Q153.3594,569.8013 152.6563,569.8013 Q150.1563,569.8013 148.8281,568.1606 Q147.5156,566.5044 147.5156,563.3794 Q147.5156,560.2544 148.8281,558.5981 Q150.1563,556.9419 152.6563,556.9419 Q153.3594,556.9419 154,557.0981 Q154.6563,557.2544 155.2188,557.5513 L155.2188,560.27 Q154.5938,559.6919 154,559.4263 Q153.4063,559.145 152.7813,559.145 Q151.4375,559.145 150.75,560.2231 Q150.0625,561.2856 150.0625,563.3794 Q150.0625,565.4731 150.75,566.5513 Q151.4375,567.6138 152.7813,567.6138 Q153.4063,567.6138 154,567.3481 Q154.5938,567.0669 155.2188,566.4888 L155.2188,569.2075 Z " fill="#000000"/><text fill="#000000" font-family="sans-serif" font-size="14" lengthAdjust="spacing" textLength="32" x="172.75" y="568.4136">User</text><line style="stroke:#181818;stroke-width:0.5;" x1="83" x2="262" y1="579.5669" y2="579.5669"/><ellipse cx="93" cy="593.2153" fill="none" rx="3" ry="3" style="stroke:#038048;stroke-width:1.0;"/><text fill="#000000" font-family="sans-serif" font-size="14" lengthAdjust="spacing" textLength="122" x="102" y="596.562">Upload/Download</text><line style="stroke:#181818;stroke-width:0.5;" x1="83" x2="262" y1="603.8638" y2="603.8638"/><text fill="#000000" font-family="sans-serif" font-size="14" lengthAdjust="spacing" textLength="169" x="88" y="620.8589">Own documents (CRUD)</text></g><!--class ReadOnly--><g id="elem_ReadOnly"><rect codeLine="28" fill="#F1F1F1" height="64.2969" id="ReadOnly" rx="2.5" ry="2.5" style="stroke:#181818;stroke-width:0.5;" width="183" x="81" y="688.1569"/><ellipse cx="135.25" cy="704.1569" fill="#ADD1B2" rx="11" ry="11" style="stroke:#181818;stroke-width:1.0;"/><path d="M138.2188,709.7975 Q137.6406,710.0944 137,710.235 Q136.3594,710.3913 135.6563,710.3913 Q133.1563,710.3913 131.8281,708.7506 Q130.5156,707.0944 130.5156,703.9694 Q130.5156,700.8444 131.8281,699.1881 Q133.1563,697.5319 135.6563,697.5319 Q136.3594,697.5319 137,697.6881 Q137.6563,697.8444 138.2188,698.1413 L138.2188,700.86 Q137.5938,700.2819 137,700.0163 Q136.4063,699.735 135.7813,699.735 Q134.4375,699.735 133.75,700.8131 Q133.0625,701.8756 133.0625,703.9694 Q133.0625,706.0631 133.75,707.1413 Q134.4375,708.2038 135.7813,708.2038 Q136.4063,708.2038 137,707.9381 Q137.5938,707.6569 138.2188,707.0788 L138.2188,709.7975 Z " fill="#000000"/><text fill="#000000" font-family="sans-serif" font-size="14" lengthAdjust="spacing" textLength="66" x="155.75" y="709.0036">ReadOnly</text><line style="stroke:#181818;stroke-width:0.5;" x1="82" x2="263" y1="720.1569" y2="720.1569"/><text fill="#000000" font-family="sans-serif" font-size="14" lengthAdjust="spacing" textLength="171" x="87" y="737.152">Read shared documents</text><line style="stroke:#181818;stroke-width:0.5;" x1="82" x2="263" y1="744.4538" y2="744.4538"/></g><!--link SuperAdmin to Admin--><g id="link_SuperAdmin_Admin"><path codeLine="32" d="M172.5,174.2769 C172.5,193.5769 172.5,196.5869 172.5,215.3169 " fill="none" id="SuperAdmin-to-Admin" style="stroke:#181818;stroke-width:1.0;"/><polygon fill="none" points="172.5,233.3169,178.5,215.3169,166.5,215.3169,172.5,233.3169" style="stroke:#181818;stroke-width:1.0;"/></g><!--link Admin to Manager--><g id="link_Admin_Manager"><path codeLine="33" d="M172.5,347.2969 C172.5,367.0569 172.5,370.8469 172.5,388.9369 " fill="none" id="Admin-to-Manager" style="stroke:#181818;stroke-width:1.0;"/><polygon fill="none" points="172.5,406.9369,178.5,388.9369,166.5,388.9369,172.5,406.9369" style="stroke:#181818;stroke-width:1.0;"/></g><!--link Manager to User--><g id="link_Manager_User"><path codeLine="34" d="M172.5,487.9869 C172.5,506.5469 172.5,510.5869 172.5,529.1469 " fill="none" id="Manager-to-User" style="stroke:#181818;stroke-width:1.0;"/><polygon fill="none" points="172.5,547.1469,178.5,529.1469,166.5,529.1469,172.5,547.1469" style="stroke:#181818;stroke-width:1.0;"/></g><!--link User to ReadOnly--><g id="link_User_ReadOnly"><path codeLine="35" d="M172.5,628.3569 C172.5,647.3969 172.5,651.9369 172.5,669.8069 " fill="none" id="User-to-ReadOnly" style="stroke:#181818;stroke-width:1.0;"/><polygon fill="none" points="172.5,687.8069,178.5,669.8069,166.5,669.8069,172.5,687.8069" style="stroke:#181818;stroke-width:1.0;"/></g><!--SRC=[RL7RQiCm37ttL-XnOvJ-GI5D1uDH0kdw0SRMN3DR3hP3oIx_FbjjcZBsPXtfN2Hdcnr2enIc16sW78E3VT3eO0NzjcdXnMAKKPqc8PIJPUem3XWRxIt1bm1ed8CqfOmU2kvjIZPGAeqdE5nW5UZTcZ7AN3hSUCK9l2Hfq2DbXhPIVOp3kiUKGqI6dZr6WwGca9nF_CmH5lTZmlXNgej6alraEqYOioLp2TICscPmmSoA5Un3kK1HjOPOukQoPzd8FcyeFOp_cFKuX9YXvCJhWZS-PwlaxaoWWnehAS53snztZqm-3Yv8lTw5CzN7GkrHwexSnFHQG3h9Y7gHgRDtFx5QVMykPn5tm7K3CM_2O8qbE1kNizKl]--></g></svg>