<svg xmlns="http://www.w3.org/2000/svg" xmlns:xlink="http://www.w3.org/1999/xlink" contentStyleType="text/css" height="1886px" preserveAspectRatio="none" style="width:1598px;height:1886px;background:#FFFFFF;" version="1.1" viewBox="0 0 1598 1886" width="1598px" zoomAndPan="magnify"><defs/><g><text fill="#000000" font-family="sans-serif" font-size="14" font-weight="bold" lengthAdjust="spacing" textLength="412" x="600.25" y="27.9951">Access Control Model - Emergency Access Override</text><rect fill="#FFFFFF" height="1167.668" style="stroke:#181818;stroke-width:1.0;" width="10" x="528" y="182.2891"/><rect fill="#FFFFFF" height="784.3125" style="stroke:#181818;stroke-width:1.0;" width="10" x="782" y="359.4844"/><rect fill="#FFFFFF" height="29.1328" style="stroke:#181818;stroke-width:1.0;" width="10" x="1024" y="536.6797"/><rect fill="#FFFFFF" height="146.9297" style="stroke:#181818;stroke-width:1.0;" width="10" x="1156.5" y="937.4688"/><rect fill="#FFFFFF" height="192.3281" style="stroke:#181818;stroke-width:1.0;" width="10" x="1390.5" y="655.4766"/><line style="stroke:#181818;stroke-width:0.5;stroke-dasharray:5.0,5.0;" x1="327" x2="327" y1="120.8906" y2="1791.9766"/><line style="stroke:#181818;stroke-width:0.5;stroke-dasharray:5.0,5.0;" x1="533" x2="533" y1="120.8906" y2="1791.9766"/><line style="stroke:#181818;stroke-width:0.5;stroke-dasharray:5.0,5.0;" x1="787" x2="787" y1="120.8906" y2="1791.9766"/><line style="stroke:#181818;stroke-width:0.5;stroke-dasharray:5.0,5.0;" x1="1028.5" x2="1028.5" y1="120.8906" y2="1791.9766"/><line style="stroke:#181818;stroke-width:0.5;stroke-dasharray:5.0,5.0;" x1="1161.5" x2="1161.5" y1="120.8906" y2="1791.9766"/><line style="stroke:#181818;stroke-width:0.5;stroke-dasharray:5.0,5.0;" x1="1395.5" x2="1395.5" y1="120.8906" y2="1791.9766"/><text fill="#000000" font-family="sans-serif" font-size="14" lengthAdjust="spacing" textLength="84" x="282" y="117.5889">SuperAdmin</text><ellipse cx="327" cy="53.0938" fill="#E2E2F0" rx="8" ry="8" style="stroke:#181818;stroke-width:0.5;"/><path d="M327,61.0938 L327,88.0938 M314,69.0938 L340,69.0938 M327,88.0938 L314,103.0938 M327,88.0938 L340,103.0938 " fill="none" style="stroke:#181818;stroke-width:0.5;"/><text fill="#000000" font-family="sans-serif" font-size="14" lengthAdjust="spacing" textLength="84" x="282" y="1803.9717">SuperAdmin</text><ellipse cx="327" cy="1815.7734" fill="#E2E2F0" rx="8" ry="8" style="stroke:#181818;stroke-width:0.5;"/><path d="M327,1823.7734 L327,1850.7734 M314,1831.7734 L340,1831.7734 M327,1850.7734 L314,1865.7734 M327,1850.7734 L340,1865.7734 " fill="none" style="stroke:#181818;stroke-width:0.5;"/><rect fill="#E2E2F0" height="46.5938" rx="2.5" ry="2.5" style="stroke:#181818;stroke-width:0.5;" width="146" x="460" y="73.2969"/><text fill="#000000" font-family="sans-serif" font-size="14" lengthAdjust="spacing" textLength="132" x="467" y="93.292">Emergency Access</text><text fill="#000000" font-family="sans-serif" font-size="14" lengthAdjust="spacing" textLength="39" x="513.5" y="109.5889">Portal</text><rect fill="#E2E2F0" height="46.5938" rx="2.5" ry="2.5" style="stroke:#181818;stroke-width:0.5;" width="146" x="460" y="1790.9766"/><text fill="#000000" font-family="sans-serif" font-size="14" lengthAdjust="spacing" textLength="132" x="467" y="1810.9717">Emergency Access</text><text fill="#000000" font-family="sans-serif" font-size="14" lengthAdjust="spacing" textLength="39" x="513.5" y="1827.2686">Portal</text><rect fill="#E2E2F0" height="30.2969" rx="2.5" ry="2.5" style="stroke:#181818;stroke-width:0.5;" width="136" x="719" y="89.5938"/><text fill="#000000" font-family="sans-serif" font-size="14" lengthAdjust="spacing" textLength="122" x="726" y="109.5889">Override Manager</text><rect fill="#E2E2F0" height="30.2969" rx="2.5" ry="2.5" style="stroke:#181818;stroke-width:0.5;" width="136" x="719" y="1790.9766"/><text fill="#000000" font-family="sans-serif" font-size="14" lengthAdjust="spacing" textLength="122" x="726" y="1810.9717">Override Manager</text><rect fill="#E2E2F0" height="30.2969" rx="2.5" ry="2.5" style="stroke:#181818;stroke-width:0.5;" width="101" x="978.5" y="89.5938"/><text fill="#000000" font-family="sans-serif" font-size="14" lengthAdjust="spacing" textLength="87" x="985.5" y="109.5889">Audit Logger</text><rect fill="#E2E2F0" height="30.2969" rx="2.5" ry="2.5" style="stroke:#181818;stroke-width:0.5;" width="101" x="978.5" y="1790.9766"/><text fill="#000000" font-family="sans-serif" font-size="14" lengthAdjust="spacing" textLength="87" x="985.5" y="1810.9717">Audit Logger</text><rect fill="#E2E2F0" height="30.2969" rx="2.5" ry="2.5" style="stroke:#181818;stroke-width:0.5;" width="144" x="1089.5" y="89.5938"/><text fill="#000000" font-family="sans-serif" font-size="14" lengthAdjust="spacing" textLength="130" x="1096.5" y="109.5889">Notification Service</text><rect fill="#E2E2F0" height="30.2969" rx="2.5" ry="2.5" style="stroke:#181818;stroke-width:0.5;" width="144" x="1089.5" y="1790.9766"/><text fill="#000000" font-family="sans-serif" font-size="14" lengthAdjust="spacing" textLength="130" x="1096.5" y="1810.9717">Notification Service</text><text fill="#000000" font-family="sans-serif" font-size="14" lengthAdjust="spacing" textLength="104" x="1340.5" y="101.292">Access Control</text><text fill="#000000" font-family="sans-serif" font-size="14" lengthAdjust="spacing" textLength="52" x="1366.5" y="117.5889">Policies</text><path d="M1377.5,52.2969 C1377.5,42.2969 1395.5,42.2969 1395.5,42.2969 C1395.5,42.2969 1413.5,42.2969 1413.5,52.2969 L1413.5,78.2969 C1413.5,88.2969 1395.5,88.2969 1395.5,88.2969 C1395.5,88.2969 1377.5,88.2969 1377.5,78.2969 L1377.5,52.2969 " fill="#E2E2F0" style="stroke:#181818;stroke-width:1.5;"/><path d="M1377.5,52.2969 C1377.5,62.2969 1395.5,62.2969 1395.5,62.2969 C1395.5,62.2969 1413.5,62.2969 1413.5,52.2969 " fill="none" style="stroke:#181818;stroke-width:1.5;"/><text fill="#000000" font-family="sans-serif" font-size="14" lengthAdjust="spacing" textLength="104" x="1340.5" y="1803.9717">Access Control</text><text fill="#000000" font-family="sans-serif" font-size="14" lengthAdjust="spacing" textLength="52" x="1366.5" y="1820.2686">Policies</text><path d="M1377.5,1833.5703 C1377.5,1823.5703 1395.5,1823.5703 1395.5,1823.5703 C1395.5,1823.5703 1413.5,1823.5703 1413.5,1833.5703 L1413.5,1859.5703 C1413.5,1869.5703 1395.5,1869.5703 1395.5,1869.5703 C1395.5,1869.5703 1377.5,1869.5703 1377.5,1859.5703 L1377.5,1833.5703 " fill="#E2E2F0" style="stroke:#181818;stroke-width:1.5;"/><path d="M1377.5,1833.5703 C1377.5,1843.5703 1395.5,1843.5703 1395.5,1843.5703 C1395.5,1843.5703 1413.5,1843.5703 1413.5,1833.5703 " fill="none" style="stroke:#181818;stroke-width:1.5;"/><rect fill="#FFFFFF" height="1167.668" style="stroke:#181818;stroke-width:1.0;" width="10" x="528" y="182.2891"/><rect fill="#FFFFFF" height="784.3125" style="stroke:#181818;stroke-width:1.0;" width="10" x="782" y="359.4844"/><rect fill="#FFFFFF" height="29.1328" style="stroke:#181818;stroke-width:1.0;" width="10" x="1024" y="536.6797"/><rect fill="#FFFFFF" height="146.9297" style="stroke:#181818;stroke-width:1.0;" width="10" x="1156.5" y="937.4688"/><rect fill="#FFFFFF" height="192.3281" style="stroke:#181818;stroke-width:1.0;" width="10" x="1390.5" y="655.4766"/><polygon fill="#181818" points="516,178.2891,526,182.2891,516,186.2891,520,182.2891" style="stroke:#181818;stroke-width:1.0;"/><line style="stroke:#181818;stroke-width:1.0;" x1="327" x2="522" y1="182.2891" y2="182.2891"/><text fill="#000000" font-family="sans-serif" font-size="13" lengthAdjust="spacing" textLength="177" x="334" y="146.9575">Emergency Access Request</text><text fill="#000000" font-family="sans-serif" font-size="13" lengthAdjust="spacing" textLength="133" x="334" y="162.0903">+ Credentials + MFA</text><text fill="#000000" font-family="sans-serif" font-size="13" lengthAdjust="spacing" textLength="87" x="334" y="177.2231">+ Justification</text><line style="stroke:#181818;stroke-width:1.0;stroke-dasharray:2.0,2.0;" x1="538" x2="580" y1="271.9531" y2="271.9531"/><line style="stroke:#181818;stroke-width:1.0;stroke-dasharray:2.0,2.0;" x1="580" x2="580" y1="271.9531" y2="284.9531"/><line style="stroke:#181818;stroke-width:1.0;stroke-dasharray:2.0,2.0;" x1="539" x2="580" y1="284.9531" y2="284.9531"/><polygon fill="#181818" points="549,280.9531,539,284.9531,549,288.9531,545,284.9531" style="stroke:#181818;stroke-width:1.0;"/><text fill="#000000" font-family="sans-serif" font-size="13" lengthAdjust="spacing" textLength="164" x="545" y="206.356">Enhanced Authentication:</text><ellipse cx="550.5" cy="217.0547" fill="#000000" rx="2.5" ry="2.5" style="stroke:#000000;stroke-width:0.0;"/><text fill="#000000" font-family="sans-serif" font-size="13" lengthAdjust="spacing" textLength="60" x="557" y="221.4888">Password</text><ellipse cx="550.5" cy="232.1875" fill="#000000" rx="2.5" ry="2.5" style="stroke:#000000;stroke-width:0.0;"/><text fill="#000000" font-family="sans-serif" font-size="13" lengthAdjust="spacing" textLength="32" x="557" y="236.6216">TOTP</text><ellipse cx="550.5" cy="247.3203" fill="#000000" rx="2.5" ry="2.5" style="stroke:#000000;stroke-width:0.0;"/><text fill="#000000" font-family="sans-serif" font-size="13" lengthAdjust="spacing" textLength="126" x="557" y="251.7544">Biometric (optional)</text><ellipse cx="550.5" cy="262.4531" fill="#000000" rx="2.5" ry="2.5" style="stroke:#000000;stroke-width:0.0;"/><text fill="#000000" font-family="sans-serif" font-size="13" lengthAdjust="spacing" textLength="118" x="557" y="266.8872">Security questions</text><polygon fill="#181818" points="770,355.4844,780,359.4844,770,363.4844,774,359.4844" style="stroke:#181818;stroke-width:1.0;"/><line style="stroke:#181818;stroke-width:1.0;" x1="538" x2="776" y1="359.4844" y2="359.4844"/><text fill="#000000" font-family="sans-serif" font-size="13" lengthAdjust="spacing" textLength="110" x="545" y="309.02">Request Override</text><text fill="#000000" font-family="sans-serif" font-size="13" lengthAdjust="spacing" textLength="102" x="545" y="324.1528">Document: {id}</text><text fill="#000000" font-family="sans-serif" font-size="13" lengthAdjust="spacing" textLength="225" x="545" y="339.2856">Reason: "Critical incident response"</text><text fill="#000000" font-family="sans-serif" font-size="13" lengthAdjust="spacing" textLength="111" x="545" y="354.4185">Duration: 2 hours</text><line style="stroke:#181818;stroke-width:1.0;stroke-dasharray:2.0,2.0;" x1="792" x2="834" y1="403.75" y2="403.75"/><line style="stroke:#181818;stroke-width:1.0;stroke-dasharray:2.0,2.0;" x1="834" x2="834" y1="403.75" y2="416.75"/><line style="stroke:#181818;stroke-width:1.0;stroke-dasharray:2.0,2.0;" x1="793" x2="834" y1="416.75" y2="416.75"/><polygon fill="#181818" points="803,412.75,793,416.75,803,420.75,799,416.75" style="stroke:#181818;stroke-width:1.0;"/><text fill="#000000" font-family="sans-serif" font-size="13" lengthAdjust="spacing" textLength="163" x="799" y="383.5513">Validate SuperAdmin role</text><text fill="#000000" font-family="sans-serif" font-size="13" lengthAdjust="spacing" textLength="176" x="799" y="398.6841">Check emergency authority</text><polygon fill="#181818" points="1012,532.6797,1022,536.6797,1012,540.6797,1016,536.6797" style="stroke:#181818;stroke-width:1.0;"/><line style="stroke:#181818;stroke-width:1.0;" x1="792" x2="1018" y1="536.6797" y2="536.6797"/><text fill="#000000" font-family="sans-serif" font-size="13" lengthAdjust="spacing" textLength="213" x="799" y="440.8169">Log Emergency Override Request</text><text fill="#000000" font-family="sans-serif" font-size="13" lengthAdjust="spacing" textLength="123" x="799" y="455.9497">Admin: {admin_id}</text><text fill="#000000" font-family="sans-serif" font-size="13" lengthAdjust="spacing" textLength="102" x="799" y="471.0825">Document: {id}</text><text fill="#000000" font-family="sans-serif" font-size="13" lengthAdjust="spacing" textLength="143" x="799" y="486.2153">Reason: {justification}</text><text fill="#000000" font-family="sans-serif" font-size="13" lengthAdjust="spacing" textLength="183" x="799" y="501.3481">Requested Duration: 2 hours</text><text fill="#000000" font-family="sans-serif" font-size="13" lengthAdjust="spacing" textLength="121" x="799" y="516.481">Timestamp: {now}</text><text fill="#000000" font-family="sans-serif" font-size="13" lengthAdjust="spacing" textLength="115" x="799" y="531.6138">Severity: CRITICAL</text><polygon fill="#181818" points="803,561.8125,793,565.8125,803,569.8125,799,565.8125" style="stroke:#181818;stroke-width:1.0;"/><line style="stroke:#181818;stroke-width:1.0;stroke-dasharray:2.0,2.0;" x1="797" x2="1028" y1="565.8125" y2="565.8125"/><text fill="#000000" font-family="sans-serif" font-size="13" lengthAdjust="spacing" textLength="136" x="809" y="560.7466">Logged with alert flag</text><polygon fill="#181818" points="1378.5,651.4766,1388.5,655.4766,1378.5,659.4766,1382.5,655.4766" style="stroke:#181818;stroke-width:1.0;"/><line style="stroke:#181818;stroke-width:1.0;" x1="792" x2="1384.5" y1="655.4766" y2="655.4766"/><text fill="#000000" font-family="sans-serif" font-size="13" lengthAdjust="spacing" textLength="129" x="799" y="589.8794">Temporarily Bypass:</text><ellipse cx="804.5" cy="600.5781" fill="#000000" rx="2.5" ry="2.5" style="stroke:#000000;stroke-width:0.0;"/><text fill="#000000" font-family="sans-serif" font-size="13" lengthAdjust="spacing" textLength="158" x="811" y="605.0122">Classification restrictions</text><ellipse cx="804.5" cy="615.7109" fill="#000000" rx="2.5" ry="2.5" style="stroke:#000000;stroke-width:0.0;"/><text fill="#000000" font-family="sans-serif" font-size="13" lengthAdjust="spacing" textLength="130" x="811" y="620.145">Time-based controls</text><ellipse cx="804.5" cy="630.8438" fill="#000000" rx="2.5" ry="2.5" style="stroke:#000000;stroke-width:0.0;"/><text fill="#000000" font-family="sans-serif" font-size="13" lengthAdjust="spacing" textLength="109" x="811" y="635.2778">Location controls</text><ellipse cx="804.5" cy="645.9766" fill="#000000" rx="2.5" ry="2.5" style="stroke:#000000;stroke-width:0.0;"/><text fill="#000000" font-family="sans-serif" font-size="13" lengthAdjust="spacing" textLength="190" x="811" y="650.4106">MFA requirements (if needed)</text><line style="stroke:#181818;stroke-width:1.0;stroke-dasharray:2.0,2.0;" x1="1400.5" x2="1442.5" y1="790.5391" y2="790.5391"/><line style="stroke:#181818;stroke-width:1.0;stroke-dasharray:2.0,2.0;" x1="1442.5" x2="1442.5" y1="790.5391" y2="803.5391"/><line style="stroke:#181818;stroke-width:1.0;stroke-dasharray:2.0,2.0;" x1="1401.5" x2="1442.5" y1="803.5391" y2="803.5391"/><polygon fill="#181818" points="1411.5,799.5391,1401.5,803.5391,1411.5,807.5391,1407.5,803.5391" style="stroke:#181818;stroke-width:1.0;"/><text fill="#000000" font-family="sans-serif" font-size="13" lengthAdjust="spacing" textLength="184" x="1407.5" y="679.5435">Create temporary exception:</text><text fill="#000000" font-family="sans-serif" font-size="13" lengthAdjust="spacing" textLength="105" x="1407.5" y="694.6763">override_id: uuid</text><text fill="#000000" font-family="sans-serif" font-size="13" lengthAdjust="spacing" textLength="93" x="1407.5" y="709.8091">admin_id: {id}</text><text fill="#000000" font-family="sans-serif" font-size="13" lengthAdjust="spacing" textLength="118" x="1407.5" y="724.9419">document_id: {id}</text><text fill="#000000" font-family="sans-serif" font-size="13" lengthAdjust="spacing" textLength="119" x="1407.5" y="740.0747">granted_at: {now}</text><text fill="#000000" font-family="sans-serif" font-size="13" lengthAdjust="spacing" textLength="182" x="1407.5" y="755.2075">expires_at: {now + 2 hours}</text><text fill="#000000" font-family="sans-serif" font-size="13" lengthAdjust="spacing" textLength="140" x="1407.5" y="770.3403">reason: {justification}</text><text fill="#000000" font-family="sans-serif" font-size="13" lengthAdjust="spacing" textLength="93" x="1407.5" y="785.4731">status: ACTIVE</text><polygon fill="#181818" points="803,843.8047,793,847.8047,803,851.8047,799,847.8047" style="stroke:#181818;stroke-width:1.0;"/><line style="stroke:#181818;stroke-width:1.0;stroke-dasharray:2.0,2.0;" x1="797" x2="1394.5" y1="847.8047" y2="847.8047"/><text fill="#000000" font-family="sans-serif" font-size="13" lengthAdjust="spacing" textLength="110" x="809" y="827.606">Override Granted</text><text fill="#000000" font-family="sans-serif" font-size="13" lengthAdjust="spacing" textLength="157" x="809" y="842.7388">Token: {override_token}</text><polygon fill="#181818" points="1144.5,933.4688,1154.5,937.4688,1144.5,941.4688,1148.5,937.4688" style="stroke:#181818;stroke-width:1.0;"/><line style="stroke:#181818;stroke-width:1.0;" x1="792" x2="1150.5" y1="937.4688" y2="937.4688"/><text fill="#000000" font-family="sans-serif" font-size="13" lengthAdjust="spacing" textLength="78" x="799" y="871.8716">Send Alerts:</text><ellipse cx="804.5" cy="882.5703" fill="#000000" rx="2.5" ry="2.5" style="stroke:#000000;stroke-width:0.0;"/><text fill="#000000" font-family="sans-serif" font-size="13" lengthAdjust="spacing" textLength="90" x="811" y="887.0044">Security team</text><ellipse cx="804.5" cy="897.7031" fill="#000000" rx="2.5" ry="2.5" style="stroke:#000000;stroke-width:0.0;"/><text fill="#000000" font-family="sans-serif" font-size="13" lengthAdjust="spacing" textLength="113" x="811" y="902.1372">Compliance team</text><ellipse cx="804.5" cy="912.8359" fill="#000000" rx="2.5" ry="2.5" style="stroke:#000000;stroke-width:0.0;"/><text fill="#000000" font-family="sans-serif" font-size="13" lengthAdjust="spacing" textLength="31" x="811" y="917.27">CISO</text><ellipse cx="804.5" cy="927.9688" fill="#000000" rx="2.5" ry="2.5" style="stroke:#000000;stroke-width:0.0;"/><text fill="#000000" font-family="sans-serif" font-size="13" lengthAdjust="spacing" textLength="109" x="811" y="932.4028">Document owner</text><line style="stroke:#181818;stroke-width:1.0;stroke-dasharray:2.0,2.0;" x1="1166.5" x2="1208.5" y1="1042.2656" y2="1042.2656"/><line style="stroke:#181818;stroke-width:1.0;stroke-dasharray:2.0,2.0;" x1="1208.5" x2="1208.5" y1="1042.2656" y2="1055.2656"/><line style="stroke:#181818;stroke-width:1.0;stroke-dasharray:2.0,2.0;" x1="1167.5" x2="1208.5" y1="1055.2656" y2="1055.2656"/><polygon fill="#181818" points="1177.5,1051.2656,1167.5,1055.2656,1177.5,1059.2656,1173.5,1055.2656" style="stroke:#181818;stroke-width:1.0;"/><text fill="#000000" font-family="sans-serif" font-size="13" lengthAdjust="spacing" textLength="89" x="1173.5" y="961.5356">Alert Content:</text><text fill="#000000" font-family="sans-serif" font-size="13" lengthAdjust="spacing" textLength="181" x="1173.5" y="976.6685">"Emergency access override</text><text fill="#000000" font-family="sans-serif" font-size="13" lengthAdjust="spacing" textLength="173" x="1173.5" y="991.8013">granted by {admin_name}</text><text fill="#000000" font-family="sans-serif" font-size="13" lengthAdjust="spacing" textLength="200" x="1173.5" y="1006.9341">Document: {document_name}</text><text fill="#000000" font-family="sans-serif" font-size="13" lengthAdjust="spacing" textLength="143" x="1173.5" y="1022.0669">Reason: {justification}</text><text fill="#000000" font-family="sans-serif" font-size="13" lengthAdjust="spacing" textLength="149" x="1173.5" y="1037.1997">Expires: {expiry_time}"</text><polygon fill="#181818" points="803,1080.3984,793,1084.3984,803,1088.3984,799,1084.3984" style="stroke:#181818;stroke-width:1.0;"/><line style="stroke:#181818;stroke-width:1.0;stroke-dasharray:2.0,2.0;" x1="797" x2="1160.5" y1="1084.3984" y2="1084.3984"/><text fill="#000000" font-family="sans-serif" font-size="13" lengthAdjust="spacing" textLength="113" x="809" y="1079.3325">Notifications Sent</text><polygon fill="#181818" points="549,1139.7969,539,1143.7969,549,1147.7969,545,1143.7969" style="stroke:#181818;stroke-width:1.0;"/><line style="stroke:#181818;stroke-width:1.0;stroke-dasharray:2.0,2.0;" x1="543" x2="786" y1="1143.7969" y2="1143.7969"/><text fill="#000000" font-family="sans-serif" font-size="13" lengthAdjust="spacing" textLength="97" x="555" y="1108.4653">Override Active</text><text fill="#000000" font-family="sans-serif" font-size="13" lengthAdjust="spacing" textLength="206" x="555" y="1123.5981">Access Token: {override_token}</text><text fill="#000000" font-family="sans-serif" font-size="13" lengthAdjust="spacing" textLength="126" x="555" y="1138.731">Valid Until: {expiry}</text><polygon fill="#181818" points="338,1345.957,328,1349.957,338,1353.957,334,1349.957" style="stroke:#181818;stroke-width:1.0;"/><line style="stroke:#181818;stroke-width:1.0;stroke-dasharray:2.0,2.0;" x1="332" x2="532" y1="1349.957" y2="1349.957"/><text fill="#000000" font-family="sans-serif" font-size="13" lengthAdjust="spacing" textLength="177" x="344" y="1314.6255">Emergency Access Granted</text><text fill="#000000" font-family="sans-serif" font-size="13" lengthAdjust="spacing" textLength="111" x="344" y="1329.7583">+ Override Token</text><text fill="#000000" font-family="sans-serif" font-size="13" lengthAdjust="spacing" textLength="133" x="344" y="1344.8911">+ Expiration Warning</text><path d="M5,1156.7969 L5,1498.7969 L322,1498.7969 L322,1166.7969 L312,1156.7969 L5,1156.7969 " fill="#FEFFDD" style="stroke:#181818;stroke-width:0.5;"/><path d="M312,1156.7969 L312,1166.7969 L322,1166.7969 L312,1156.7969 " fill="#FEFFDD" style="stroke:#181818;stroke-width:0.5;"/><text fill="#000000" font-family="sans-serif" font-size="13" font-weight="bold" lengthAdjust="spacing" textLength="256" x="11" y="1173.8638">Break-Glass Emergency Scenarios:</text><text fill="#000000" font-family="sans-serif" font-size="13" lengthAdjust="spacing" textLength="4" x="11" y="1188.9966">&#160;</text><text fill="#000000" font-family="sans-serif" font-size="13" lengthAdjust="spacing" textLength="12" x="11" y="1204.1294">1.</text><text fill="#000000" font-family="sans-serif" font-size="13" font-weight="bold" lengthAdjust="spacing" textLength="184" x="27" y="1204.1294">Critical Security Incident:</text><text fill="#000000" font-family="sans-serif" font-size="13" lengthAdjust="spacing" textLength="183" x="23" y="1219.2622">* Active breach investigation</text><text fill="#000000" font-family="sans-serif" font-size="13" lengthAdjust="spacing" textLength="148" x="23" y="1234.395">* Malware containment</text><text fill="#000000" font-family="sans-serif" font-size="13" lengthAdjust="spacing" textLength="219" x="23" y="1249.5278">* Compromised account response</text><text fill="#000000" font-family="sans-serif" font-size="13" lengthAdjust="spacing" textLength="4" x="11" y="1264.6606">&#160;</text><text fill="#000000" font-family="sans-serif" font-size="13" lengthAdjust="spacing" textLength="12" x="11" y="1279.7935">2.</text><text fill="#000000" font-family="sans-serif" font-size="13" font-weight="bold" lengthAdjust="spacing" textLength="171" x="27" y="1279.7935">Life-Safety Emergency:</text><text fill="#000000" font-family="sans-serif" font-size="13" lengthAdjust="spacing" textLength="247" x="23" y="1294.9263">* Medical emergency requiring records</text><text fill="#000000" font-family="sans-serif" font-size="13" lengthAdjust="spacing" textLength="176" x="23" y="1310.0591">* Natural disaster response</text><text fill="#000000" font-family="sans-serif" font-size="13" lengthAdjust="spacing" textLength="152" x="23" y="1325.1919">* Active threat situation</text><text fill="#000000" font-family="sans-serif" font-size="13" lengthAdjust="spacing" textLength="4" x="11" y="1340.3247">&#160;</text><text fill="#000000" font-family="sans-serif" font-size="13" lengthAdjust="spacing" textLength="12" x="11" y="1355.4575">3.</text><text fill="#000000" font-family="sans-serif" font-size="13" font-weight="bold" lengthAdjust="spacing" textLength="149" x="27" y="1355.4575">Business Continuity:</text><text fill="#000000" font-family="sans-serif" font-size="13" lengthAdjust="spacing" textLength="284" x="23" y="1370.5903">* System failure requiring immediate access</text><text fill="#000000" font-family="sans-serif" font-size="13" lengthAdjust="spacing" textLength="173" x="23" y="1385.7231">* Data recovery operations</text><text fill="#000000" font-family="sans-serif" font-size="13" lengthAdjust="spacing" textLength="225" x="23" y="1400.856">* Critical deadline (legal/regulatory)</text><text fill="#000000" font-family="sans-serif" font-size="13" lengthAdjust="spacing" textLength="4" x="11" y="1415.9888">&#160;</text><text fill="#000000" font-family="sans-serif" font-size="13" font-weight="bold" lengthAdjust="spacing" textLength="144" x="11" y="1431.1216">NOT Valid Reasons:</text><ellipse cx="16.5" cy="1441.8203" fill="#000000" rx="2.5" ry="2.5" style="stroke:#000000;stroke-width:0.0;"/><text fill="#000000" font-family="sans-serif" font-size="13" lengthAdjust="spacing" textLength="82" x="23" y="1446.2544">Convenience</text><ellipse cx="16.5" cy="1456.9531" fill="#000000" rx="2.5" ry="2.5" style="stroke:#000000;stroke-width:0.0;"/><text fill="#000000" font-family="sans-serif" font-size="13" lengthAdjust="spacing" textLength="105" x="23" y="1461.3872">Forgot password</text><ellipse cx="16.5" cy="1472.0859" fill="#000000" rx="2.5" ry="2.5" style="stroke:#000000;stroke-width:0.0;"/><text fill="#000000" font-family="sans-serif" font-size="13" lengthAdjust="spacing" textLength="179" x="23" y="1476.52">Normal business operations</text><ellipse cx="16.5" cy="1487.2188" fill="#000000" rx="2.5" ry="2.5" style="stroke:#000000;stroke-width:0.0;"/><text fill="#000000" font-family="sans-serif" font-size="13" lengthAdjust="spacing" textLength="204" x="23" y="1491.6528">Unauthorized viewing of records</text><path d="M792,1509.7188 L792,1776.7188 L1050,1776.7188 L1050,1519.7188 L1040,1509.7188 L792,1509.7188 " fill="#FEFFDD" style="stroke:#181818;stroke-width:0.5;"/><path d="M1040,1509.7188 L1040,1519.7188 L1050,1519.7188 L1040,1509.7188 " fill="#FEFFDD" style="stroke:#181818;stroke-width:0.5;"/><text fill="#000000" font-family="sans-serif" font-size="13" font-weight="bold" lengthAdjust="spacing" textLength="237" x="798" y="1526.7856">Emergency Override Properties:</text><text fill="#000000" font-family="sans-serif" font-size="13" lengthAdjust="spacing" textLength="4" x="798" y="1541.9185">&#160;</text><ellipse cx="803.5" cy="1552.6172" fill="#000000" rx="2.5" ry="2.5" style="stroke:#000000;stroke-width:0.0;"/><text fill="#000000" font-family="sans-serif" font-size="13" lengthAdjust="spacing" textLength="198" x="810" y="1557.0513">Limited duration (max 4 hours)</text><ellipse cx="803.5" cy="1567.75" fill="#000000" rx="2.5" ry="2.5" style="stroke:#000000;stroke-width:0.0;"/><text fill="#000000" font-family="sans-serif" font-size="13" lengthAdjust="spacing" textLength="216" x="810" y="1572.1841">Requires strongest authentication</text><ellipse cx="803.5" cy="1582.8828" fill="#000000" rx="2.5" ry="2.5" style="stroke:#000000;stroke-width:0.0;"/><text fill="#000000" font-family="sans-serif" font-size="13" lengthAdjust="spacing" textLength="137" x="810" y="1587.3169">SuperAdmin role only</text><ellipse cx="803.5" cy="1598.0156" fill="#000000" rx="2.5" ry="2.5" style="stroke:#000000;stroke-width:0.0;"/><text fill="#000000" font-family="sans-serif" font-size="13" lengthAdjust="spacing" textLength="85" x="810" y="1602.4497">Full audit trail</text><ellipse cx="803.5" cy="1613.1484" fill="#000000" rx="2.5" ry="2.5" style="stroke:#000000;stroke-width:0.0;"/><text fill="#000000" font-family="sans-serif" font-size="13" lengthAdjust="spacing" textLength="101" x="810" y="1617.5825">Real-time alerts</text><ellipse cx="803.5" cy="1628.2813" fill="#000000" rx="2.5" ry="2.5" style="stroke:#000000;stroke-width:0.0;"/><text fill="#000000" font-family="sans-serif" font-size="13" lengthAdjust="spacing" textLength="133" x="810" y="1632.7153">Automatic expiration</text><ellipse cx="803.5" cy="1643.4141" fill="#000000" rx="2.5" ry="2.5" style="stroke:#000000;stroke-width:0.0;"/><text fill="#000000" font-family="sans-serif" font-size="13" lengthAdjust="spacing" textLength="218" x="810" y="1647.8481">Cannot be renewed without review</text><ellipse cx="803.5" cy="1658.5469" fill="#000000" rx="2.5" ry="2.5" style="stroke:#000000;stroke-width:0.0;"/><text fill="#000000" font-family="sans-serif" font-size="13" lengthAdjust="spacing" textLength="149" x="810" y="1662.981">Triggers security review</text><text fill="#000000" font-family="sans-serif" font-size="13" lengthAdjust="spacing" textLength="4" x="798" y="1678.1138">&#160;</text><text fill="#000000" font-family="sans-serif" font-size="13" font-weight="bold" lengthAdjust="spacing" textLength="163" x="798" y="1693.2466">Post-Override Review:</text><ellipse cx="803.5" cy="1703.9453" fill="#000000" rx="2.5" ry="2.5" style="stroke:#000000;stroke-width:0.0;"/><text fill="#000000" font-family="sans-serif" font-size="13" lengthAdjust="spacing" textLength="168" x="810" y="1708.3794">Mandatory within 24 hours</text><ellipse cx="803.5" cy="1719.0781" fill="#000000" rx="2.5" ry="2.5" style="stroke:#000000;stroke-width:0.0;"/><text fill="#000000" font-family="sans-serif" font-size="13" lengthAdjust="spacing" textLength="154" x="810" y="1723.5122">Review by security team</text><ellipse cx="803.5" cy="1734.2109" fill="#000000" rx="2.5" ry="2.5" style="stroke:#000000;stroke-width:0.0;"/><text fill="#000000" font-family="sans-serif" font-size="13" lengthAdjust="spacing" textLength="128" x="810" y="1738.645">Validate justification</text><ellipse cx="803.5" cy="1749.3438" fill="#000000" rx="2.5" ry="2.5" style="stroke:#000000;stroke-width:0.0;"/><text fill="#000000" font-family="sans-serif" font-size="13" lengthAdjust="spacing" textLength="103" x="810" y="1753.7778">Check for abuse</text><ellipse cx="803.5" cy="1764.4766" fill="#000000" rx="2.5" ry="2.5" style="stroke:#000000;stroke-width:0.0;"/><text fill="#000000" font-family="sans-serif" font-size="13" lengthAdjust="spacing" textLength="161" x="810" y="1768.9106">Update policies if needed</text><!--SRC=[TLPDRniv3BtxLn0-9GsynMRtP1G173SfiiWNOhTxCH38CxIjZKQQIfeuRf7_lgGqqioa3H304ucY7id7Htdf5SAiAD0vc1ljhL5mOqfKC86B2kqMTN581dVFQAqiSJGIXJSMnekcHZihAwd781o4hr4jh9U5h8NsC7xhOwNlZVL21VluEJoGxe0ReSKMRJ3C5mzCPqqfFLoRRJ8B2qERM-FbHXR2IwDXWVPP5XXimyPXL0elri8XUHiaWN4gyeAkHHh_6Or2Z30vQy73zDSqFU3t1frVwHEOMonHUocKWnEukPpnuZ-Dwq1nAkMpy9YoCMeTJmPtw9tG1POKej-nmtXukj8Vu5uujpUsvE_btVAUVy-bgT1RMS2HgTbIg6DUNs3HMEaF413IkklkEyjffWlR6FBIIdysHLFHrLFuASlNbNv0uGW1ZEVaaF0eaBgG72rOT3MvnZ6TQcn42gUmCurrNRmTc_Azao68RqB9aaqxdW7LXi3CTrWy0URC2qgBuS3wpiuY8SWHSQHNfcoH2nLSKs22Vnz3UE-5-_E_VlN2Hd12jVabrfLUoehsH5NJGMtsPBv0kfs0Jc7-SBMyci-kkun4_aRGRr8HM5x2NleT28NMmqQ9xQZ4DuS7uIVMqlabLhMnmafrWFD3JPG9t9ah-keQX0h7f0d427GY-1DkZnAAs1TX-Tgqzlr58ZUT_zv8Yvmt1qTo0ng9_-Lnd-IfaJAuoH0fjGmR-XRm0V2bmBfbkscZenfDeMaaaJxLB1MgR0lNMzfQqW8i7uNFPS2Nce2wl4JTsHQDDkrxjQPI-iPDOJPVNdsxU1D3hrhvyqkycOXWdf0zvW0yBxps2zYbfb_3g5FaSu6QsfzB7qkNMzcZg48jJLKhoJBHBLqjxlWtaHdCNgFjgj6AuAYzPDA_BrmLv92xOALxKYwYpfci3Ms2ONr8FQH5XSCkodLfjzvjg8jO6je9HJeyUcBXwtY0ifVhli8xpfBl9pL5E92OBAjvTSRs54YhuEzKQwM38i5N4c2LyGsAs8bQJyQZSlrcKcHwd7HGmjsy4l8G- -nVORNKso5RuhJGXlwnShkZucwwwm4-hSz-8tdtrf2KUgBPzDF7zHdPqHzrjAma5x1i9GoEAl42VyUEE0uc3x6t7P146BtbuI06moXOlL5gC5eTmiPbenGTO6dpLaZL-XHgmkMDckR28equKv770Z1d86pCXQPeOKtneiPzAuUcuO7pB74VZ9QK2teF4CpK7tap9kNUE3_fZG3UJBdumAyEcZY6P8TzKnIdRH9Ql6pDD7VzxWjxULWD-1o1XscreHUJM3SEmzhNEXZNIK6oM8wupxcgRMtNnbC-8lPpKgQdoHSMxHwP5WLgKdRJB-cVVx1z7irPBAxQ6PrC8MGyi1_MvBtOqHX_vhV1Dk67c1Ur5nQ3uWkfkP7J5kkEDPNaAK7AO9hU2o22EGrWhkK69mknGOAHmGzmt60Pq7PpFGuKeZvz5VJ6SSdqbeJOacafdQ3XQ_itzcFoEnuduAHlKZpqzrS0TDuugTERJ-g6ft8Vpk90dYlO45iRYpqiige8APSlAc4wy9aUam4eiUi0t6XHbNAcKZceZqj5TyEHmgrG7ork6nLeTvnvUdktZ9o2g9Ik8odXVKOjAKEHIvV6RganwlOX6DPkZQtefdMASO26wAVR9zCFgXgJckCY0KbfJYJy7m00]--></g></svg>