<svg xmlns="http://www.w3.org/2000/svg" xmlns:xlink="http://www.w3.org/1999/xlink" contentStyleType="text/css" height="925px" preserveAspectRatio="none" style="width:1310px;height:925px;background:#FFFFFF;" version="1.1" viewBox="0 0 1310 925" width="1310px" zoomAndPan="magnify"><defs/><g><text fill="#000000" font-family="sans-serif" font-size="14" font-weight="bold" lengthAdjust="spacing" textLength="440" x="428" y="22.9951">Access Control Model - Document Sharing &amp; Delegation</text><!--cluster Sharing Model--><g id="cluster_Sharing Model"><path d="M72,361.8669 L185,361.8669 A3.75,3.75 0 0 1 187.5,364.3669 L194.5,384.1638 L1145,384.1638 A2.5,2.5 0 0 1 1147.5,386.6638 L1147.5,601.0369 A2.5,2.5 0 0 1 1145,603.5369 L72,603.5369 A2.5,2.5 0 0 1 69.5,601.0369 L69.5,364.3669 A2.5,2.5 0 0 1 72,361.8669 " fill="none" style="stroke:#000000;stroke-width:1.5;"/><line style="stroke:#000000;stroke-width:1.5;" x1="69.5" x2="194.5" y1="384.1638" y2="384.1638"/><text fill="#000000" font-family="sans-serif" font-size="14" font-weight="bold" lengthAdjust="spacing" textLength="112" x="73.5" y="376.862">Sharing Model</text></g><!--entity DirectShare--><g id="elem_DirectShare"><rect fill="#90EE90" height="182.6719" rx="2.5" ry="2.5" style="stroke:#181818;stroke-width:0.5;" width="169" x="85" y="400.8669"/><text fill="#000000" font-family="sans-serif" font-size="14" font-weight="bold" lengthAdjust="spacing" textLength="112" x="95" y="423.862">Direct Sharing</text><text fill="#000000" font-family="sans-serif" font-size="14" font-weight="bold" lengthAdjust="spacing" textLength="148" x="95" y="440.1589">Owner &#8594; Recipient</text><line style="stroke:#181818;stroke-width:1.0;" x1="86" x2="253" y1="443.4606" y2="443.4606"/><text fill="#000000" font-family="sans-serif" font-size="14" lengthAdjust="spacing" textLength="149" x="95" y="460.4557">Permissions Granted:</text><text fill="#000000" font-family="sans-serif" font-size="14" lengthAdjust="spacing" textLength="107" x="95" y="476.7526">- READ (always)</text><text fill="#000000" font-family="sans-serif" font-size="14" lengthAdjust="spacing" textLength="122" x="95" y="493.0495">- WRITE (optional)</text><text fill="#000000" font-family="sans-serif" font-size="14" lengthAdjust="spacing" textLength="132" x="95" y="509.3464">- DELETE (optional)</text><text fill="#000000" font-family="sans-serif" font-size="14" lengthAdjust="spacing" textLength="149" x="95" y="525.6432">- RE-SHARE (optional)</text><line style="stroke:#181818;stroke-width:1.0;" x1="86" x2="253" y1="532.945" y2="532.945"/><text fill="#000000" font-family="sans-serif" font-size="14" lengthAdjust="spacing" textLength="133" x="95" y="549.9401">Expiration: Optional</text><text fill="#000000" font-family="sans-serif" font-size="14" lengthAdjust="spacing" textLength="111" x="95" y="566.237">Notification: Yes</text></g><!--entity LinkShare--><g id="elem_LinkShare"><rect fill="#ADD8E6" height="182.6719" rx="2.5" ry="2.5" style="stroke:#181818;stroke-width:0.5;" width="225" x="906" y="400.8669"/><text fill="#000000" font-family="sans-serif" font-size="14" font-weight="bold" lengthAdjust="spacing" textLength="151" x="916" y="423.862">Link-Based Sharing</text><text fill="#000000" font-family="sans-serif" font-size="14" font-weight="bold" lengthAdjust="spacing" textLength="116" x="916" y="440.1589">Shareable Link</text><line style="stroke:#181818;stroke-width:1.0;" x1="907" x2="1130" y1="443.4606" y2="443.4606"/><text fill="#000000" font-family="sans-serif" font-size="14" lengthAdjust="spacing" textLength="107" x="916" y="460.4557">Link Properties:</text><text fill="#000000" font-family="sans-serif" font-size="14" lengthAdjust="spacing" textLength="150" x="916" y="476.7526">- Unique token (UUID)</text><text fill="#000000" font-family="sans-serif" font-size="14" lengthAdjust="spacing" textLength="185" x="916" y="493.0495">- Password protected (opt)</text><text fill="#000000" font-family="sans-serif" font-size="14" lengthAdjust="spacing" textLength="146" x="916" y="509.3464">- Expiration date/time</text><text fill="#000000" font-family="sans-serif" font-size="14" lengthAdjust="spacing" textLength="134" x="916" y="525.6432">- Access count limit</text><text fill="#000000" font-family="sans-serif" font-size="14" lengthAdjust="spacing" textLength="120" x="916" y="541.9401">- Permission level</text><line style="stroke:#181818;stroke-width:1.0;" x1="907" x2="1130" y1="549.2419" y2="549.2419"/><text fill="#000000" font-family="sans-serif" font-size="14" lengthAdjust="spacing" textLength="205" x="916" y="566.237">Tracking: All accesses logged</text></g><!--entity GroupShare--><g id="elem_GroupShare"><rect fill="#FFFFE0" height="182.6719" rx="2.5" ry="2.5" style="stroke:#181818;stroke-width:0.5;" width="238" x="289.5" y="400.8669"/><text fill="#000000" font-family="sans-serif" font-size="14" font-weight="bold" lengthAdjust="spacing" textLength="114" x="299.5" y="423.862">Group Sharing</text><text fill="#000000" font-family="sans-serif" font-size="14" font-weight="bold" lengthAdjust="spacing" textLength="192" x="299.5" y="440.1589">Team/Department Share</text><line style="stroke:#181818;stroke-width:1.0;" x1="290.5" x2="526.5" y1="443.4606" y2="443.4606"/><text fill="#000000" font-family="sans-serif" font-size="14" lengthAdjust="spacing" textLength="77" x="299.5" y="460.4557">Share with:</text><text fill="#000000" font-family="sans-serif" font-size="14" lengthAdjust="spacing" textLength="133" x="299.5" y="476.7526">- All team members</text><text fill="#000000" font-family="sans-serif" font-size="14" lengthAdjust="spacing" textLength="147" x="299.5" y="493.0495">- Specific department</text><text fill="#000000" font-family="sans-serif" font-size="14" lengthAdjust="spacing" textLength="127" x="299.5" y="509.3464">- Project members</text><text fill="#000000" font-family="sans-serif" font-size="14" lengthAdjust="spacing" textLength="108" x="299.5" y="525.6432">- Custom group</text><line style="stroke:#181818;stroke-width:1.0;" x1="290.5" x2="526.5" y1="532.945" y2="532.945"/><text fill="#000000" font-family="sans-serif" font-size="14" lengthAdjust="spacing" textLength="218" x="299.5" y="549.9401">Dynamic: Membership changes</text><text fill="#000000" font-family="sans-serif" font-size="14" lengthAdjust="spacing" textLength="195" x="299.5" y="566.237">automatically update access</text></g><!--entity Delegation--><g id="elem_Delegation"><rect fill="#F08080" height="190.6719" rx="2.5" ry="2.5" style="stroke:#181818;stroke-width:0.5;" width="308" x="562.5" y="396.8669"/><text fill="#000000" font-family="sans-serif" font-size="14" font-weight="bold" lengthAdjust="spacing" textLength="176" x="572.5" y="419.862">Permission Delegation</text><text fill="#000000" font-family="sans-serif" font-size="14" font-weight="bold" lengthAdjust="spacing" textLength="182" x="572.5" y="436.1589">Cascading Permissions</text><line style="stroke:#181818;stroke-width:1.0;" x1="563.5" x2="869.5" y1="439.4606" y2="439.4606"/><text fill="#000000" font-family="sans-serif" font-size="14" lengthAdjust="spacing" textLength="288" x="572.5" y="456.4557">IF recipient.has_permission(\"RE-SHARE\")</text><text fill="#000000" font-family="sans-serif" font-size="14" lengthAdjust="spacing" textLength="255" x="572.5" y="472.7526">THEN recipient can share with others</text><line style="stroke:#181818;stroke-width:1.0;" x1="563.5" x2="869.5" y1="480.0544" y2="480.0544"/><text fill="#000000" font-family="sans-serif" font-size="14" lengthAdjust="spacing" textLength="127" x="572.5" y="497.0495">Delegation Levels:</text><text fill="#000000" font-family="sans-serif" font-size="14" lengthAdjust="spacing" textLength="189" x="572.5" y="513.3464">- Level 1: Direct from owner</text><text fill="#000000" font-family="sans-serif" font-size="14" lengthAdjust="spacing" textLength="185" x="572.5" y="529.6432">- Level 2: From L1 recipient</text><text fill="#000000" font-family="sans-serif" font-size="14" lengthAdjust="spacing" textLength="185" x="572.5" y="545.9401">- Level 3: From L2 recipient</text><line style="stroke:#181818;stroke-width:1.0;" x1="563.5" x2="869.5" y1="553.2419" y2="553.2419"/><text fill="#000000" font-family="sans-serif" font-size="14" lengthAdjust="spacing" textLength="171" x="572.5" y="570.237">Max Delegation Depth: 3</text></g><!--entity Owner--><g id="elem_Owner"><ellipse cx="408.5" cy="134.4369" fill="#F1F1F1" rx="8" ry="8" style="stroke:#181818;stroke-width:0.5;"/><path d="M408.5,142.4369 L408.5,169.4369 M395.5,150.4369 L421.5,150.4369 M408.5,169.4369 L395.5,184.4369 M408.5,169.4369 L421.5,184.4369 " fill="none" style="stroke:#181818;stroke-width:0.5;"/><text fill="#000000" font-family="sans-serif" font-size="14" lengthAdjust="spacing" textLength="122" x="347.5" y="198.932">Document Owner</text></g><!--entity Recipient--><g id="elem_Recipient"><ellipse cx="540.5" cy="770.3869" fill="#F1F1F1" rx="8" ry="8" style="stroke:#181818;stroke-width:0.5;"/><path d="M540.5,778.3869 L540.5,805.3869 M527.5,786.3869 L553.5,786.3869 M540.5,805.3869 L527.5,820.3869 M540.5,805.3869 L553.5,820.3869 " fill="none" style="stroke:#181818;stroke-width:0.5;"/><text fill="#000000" font-family="sans-serif" font-size="14" lengthAdjust="spacing" textLength="101" x="490" y="834.882">Recipient User</text></g><!--entity ThirdParty--><g id="elem_ThirdParty"><ellipse cx="759.5" cy="770.3869" fill="#F1F1F1" rx="8" ry="8" style="stroke:#181818;stroke-width:0.5;"/><path d="M759.5,778.3869 L759.5,805.3869 M746.5,786.3869 L772.5,786.3869 M759.5,805.3869 L746.5,820.3869 M759.5,805.3869 L772.5,820.3869 " fill="none" style="stroke:#181818;stroke-width:0.5;"/><text fill="#000000" font-family="sans-serif" font-size="14" lengthAdjust="spacing" textLength="109" x="705" y="834.882">Third Party User</text></g><!--entity Inheritance--><g id="elem_Inheritance"><rect fill="#E6E6FA" height="239.5625" rx="2.5" ry="2.5" style="stroke:#181818;stroke-width:0.5;" width="279" x="504" y="44.2969"/><text fill="#000000" font-family="sans-serif" font-size="14" font-weight="bold" lengthAdjust="spacing" textLength="181" x="514" y="67.292">Permission Inheritance</text><text fill="#000000" font-family="sans-serif" font-size="14" font-weight="bold" lengthAdjust="spacing" textLength="172" x="514" y="83.5889">Inherited Permissions</text><line style="stroke:#181818;stroke-width:1.0;" x1="505" x2="782" y1="86.8906" y2="86.8906"/><text fill="#000000" font-family="sans-serif" font-size="14" lengthAdjust="spacing" textLength="259" x="514" y="103.8857">Recipient can have permissions from:</text><text fill="#000000" font-family="sans-serif" font-size="14" lengthAdjust="spacing" textLength="183" x="514" y="120.1826">1. Direct share from owner</text><text fill="#000000" font-family="sans-serif" font-size="14" lengthAdjust="spacing" textLength="151" x="514" y="136.4795">2. Group membership</text><text fill="#000000" font-family="sans-serif" font-size="14" lengthAdjust="spacing" textLength="149" x="514" y="152.7764">3. Role-based access</text><text fill="#000000" font-family="sans-serif" font-size="14" lengthAdjust="spacing" textLength="177" x="514" y="169.0732">4. Delegated permissions</text><line style="stroke:#181818;stroke-width:1.0;" x1="505" x2="782" y1="176.375" y2="176.375"/><text fill="#000000" font-family="sans-serif" font-size="14" font-weight="bold" lengthAdjust="spacing" textLength="167" x="514" y="193.3701">Effective Permission:</text><text fill="#000000" font-family="sans-serif" font-size="14" lengthAdjust="spacing" textLength="225" x="514" y="209.667">UNION of all granted permissions</text><line style="stroke:#181818;stroke-width:1.0;" x1="505" x2="782" y1="216.9688" y2="216.9688"/><text fill="#000000" font-family="sans-serif" font-size="14" font-weight="bold" lengthAdjust="spacing" textLength="93" x="514" y="233.9639">Revocation:</text><text fill="#000000" font-family="sans-serif" font-size="14" lengthAdjust="spacing" textLength="205" x="514" y="250.2607">Owner can revoke at any level</text><text fill="#000000" font-family="sans-serif" font-size="14" lengthAdjust="spacing" textLength="246" x="514" y="266.5576">Cascade revocation (all sub-shares)</text></g><g id="elem_GMN20"><path d="M6,681.5369 L6,918.5291 A0,0 0 0 0 6,918.5291 L333,918.5291 A0,0 0 0 0 333,918.5291 L333,691.5369 L323,681.5369 L173.5,681.5369 L169.5,583.7169 L165.5,681.5369 L6,681.5369 A0,0 0 0 0 6,681.5369 " fill="#FEFFDD" style="stroke:#181818;stroke-width:0.5;"/><path d="M323,681.5369 L323,691.5369 L333,691.5369 L323,681.5369 " fill="#FEFFDD" style="stroke:#181818;stroke-width:0.5;"/><text fill="#000000" font-family="sans-serif" font-size="13" font-weight="bold" lengthAdjust="spacing" textLength="184" x="12" y="698.6038">Direct Sharing Workflow:</text><text fill="#000000" font-family="sans-serif" font-size="13" lengthAdjust="spacing" textLength="4" x="12" y="713.7366">&#160;</text><text fill="#000000" font-family="sans-serif" font-size="13" lengthAdjust="spacing" textLength="174" x="12" y="728.8694">1. Owner selects document</text><text fill="#000000" font-family="sans-serif" font-size="13" lengthAdjust="spacing" textLength="179" x="12" y="744.0022">2. Chooses recipient user(s)</text><text fill="#000000" font-family="sans-serif" font-size="13" lengthAdjust="spacing" textLength="174" x="12" y="759.135">3. Selects permission level:</text><text fill="#000000" font-family="sans-serif" font-size="13" lengthAdjust="spacing" textLength="130" x="12" y="774.2678">- Viewer (READ only)</text><text fill="#000000" font-family="sans-serif" font-size="13" lengthAdjust="spacing" textLength="151" x="12" y="789.4006">- Editor (READ + WRITE)</text><text fill="#000000" font-family="sans-serif" font-size="13" lengthAdjust="spacing" textLength="306" x="12" y="804.5335">- Co-Owner (READ + WRITE + DELETE + SHARE)</text><text fill="#000000" font-family="sans-serif" font-size="13" lengthAdjust="spacing" textLength="166" x="12" y="819.6663">4. Optional: Set expiration</text><text fill="#000000" font-family="sans-serif" font-size="13" lengthAdjust="spacing" textLength="181" x="12" y="834.7991">5. System sends notification</text><text fill="#000000" font-family="sans-serif" font-size="13" lengthAdjust="spacing" textLength="204" x="12" y="849.9319">6. Audit log records share event</text><text fill="#000000" font-family="sans-serif" font-size="13" lengthAdjust="spacing" textLength="4" x="12" y="865.0647">&#160;</text><text fill="#000000" font-family="sans-serif" font-size="13" font-weight="bold" lengthAdjust="spacing" textLength="86" x="12" y="880.1975">Revocation:</text><text fill="#000000" font-family="sans-serif" font-size="13" lengthAdjust="spacing" textLength="191" x="12" y="895.3303">Owner can revoke at any time</text><text fill="#000000" font-family="sans-serif" font-size="13" lengthAdjust="spacing" textLength="160" x="12" y="910.4631">Takes effect immediately</text></g><g id="elem_GMN23"><path d="M962,689.0969 L962,910.9563 L1303,910.9563 L1303,699.0969 L1293,689.0969 L962,689.0969 " fill="#FEFFDD" style="stroke:#181818;stroke-width:0.5;"/><path d="M1293,689.0969 L1293,699.0969 L1303,699.0969 L1293,689.0969 " fill="#FEFFDD" style="stroke:#181818;stroke-width:1.0;"/><text fill="#000000" font-family="sans-serif" font-size="13" font-weight="bold" lengthAdjust="spacing" textLength="160" x="968" y="706.1638">Link Sharing Security:</text><text fill="#000000" font-family="sans-serif" font-size="13" lengthAdjust="spacing" textLength="4" x="968" y="721.2966">&#160;</text><text fill="#000000" font-family="sans-serif" font-size="13" lengthAdjust="spacing" textLength="320" x="968" y="736.4294">- Link format: https://vault.example.com/s/{UUID}</text><text fill="#000000" font-family="sans-serif" font-size="13" lengthAdjust="spacing" textLength="318" x="968" y="751.5622">- UUID: 128-bit random (cryptographically secure)</text><text fill="#000000" font-family="sans-serif" font-size="13" lengthAdjust="spacing" textLength="248" x="968" y="766.695">- Optional password (Argon2id hashed)</text><text fill="#000000" font-family="sans-serif" font-size="13" lengthAdjust="spacing" textLength="220" x="968" y="781.8278">- Optional expiration (auto-revoke)</text><text fill="#000000" font-family="sans-serif" font-size="13" lengthAdjust="spacing" textLength="181" x="968" y="796.9606">- Optional access count limit</text><text fill="#000000" font-family="sans-serif" font-size="13" lengthAdjust="spacing" textLength="218" x="968" y="812.0935">- Track: IP, timestamp, user-agent</text><text fill="#000000" font-family="sans-serif" font-size="13" lengthAdjust="spacing" textLength="228" x="968" y="827.2263">- Can be disabled by owner anytime</text><text fill="#000000" font-family="sans-serif" font-size="13" lengthAdjust="spacing" textLength="4" x="968" y="842.3591">&#160;</text><text fill="#000000" font-family="sans-serif" font-size="13" font-weight="bold" lengthAdjust="spacing" textLength="126" x="968" y="857.4919">External Sharing:</text><text fill="#000000" font-family="sans-serif" font-size="13" lengthAdjust="spacing" textLength="193" x="968" y="872.6247">For users outside organization</text><text fill="#000000" font-family="sans-serif" font-size="13" lengthAdjust="spacing" textLength="166" x="968" y="887.7575">More restrictive by default</text><text fill="#000000" font-family="sans-serif" font-size="13" lengthAdjust="spacing" textLength="275" x="968" y="902.8903">Always requires approval for classified docs</text></g><!--link Owner to DirectShare--><g id="link_Owner_DirectShare"><path d="M381.08,202.4869 C345.96,250.4269 287.4369,330.2775 239.5769,395.5775 " fill="none" id="Owner-to-DirectShare" style="stroke:#181818;stroke-width:1.0;"/><polygon fill="#181818" points="236.03,400.4169,244.5766,395.5224,238.9857,396.3841,238.1241,390.7932,236.03,400.4169" style="stroke:#181818;stroke-width:1.0;"/><text fill="#000000" font-family="sans-serif" font-size="13" lengthAdjust="spacing" textLength="67" x="303.17" y="326.9338">Share with</text><text fill="#000000" font-family="sans-serif" font-size="13" lengthAdjust="spacing" textLength="79" x="297.17" y="342.0666">specific user</text></g><!--link DirectShare to Recipient--><g id="link_DirectShare_Recipient"><path d="M244.76,583.8769 C253.54,593.4369 262.56,602.8269 271.5,611.5369 C339.41,677.6569 427.5965,734.038 484.5765,767.508 " fill="none" id="DirectShare-to-Recipient" style="stroke:#181818;stroke-width:1.0;"/><polygon fill="#181818" points="489.75,770.5469,484.0157,762.5395,485.4388,768.0145,479.9638,769.4375,489.75,770.5469" style="stroke:#181818;stroke-width:1.0;"/><text fill="#000000" font-family="sans-serif" font-size="13" lengthAdjust="spacing" textLength="117" x="312.3" y="640.1038">Grant permissions</text></g><!--link Owner to LinkShare--><g id="link_Owner_LinkShare"><path d="M423.31,202.4769 C435.98,229.4569 456.91,264.4269 486.5,283.8669 C638.09,383.4169 728.71,268.0969 888.5,353.8669 C910.48,365.6669 926.6416,378.3 944.4516,396.23 " fill="none" id="Owner-to-LinkShare" style="stroke:#181818;stroke-width:1.0;"/><polygon fill="#181818" points="948.68,400.4869,945.1754,391.2827,945.1564,396.9395,939.4995,396.9205,948.68,400.4869" style="stroke:#181818;stroke-width:1.0;"/><text fill="#000000" font-family="sans-serif" font-size="13" lengthAdjust="spacing" textLength="60" x="884.65" y="326.9338">Generate</text><text fill="#000000" font-family="sans-serif" font-size="13" lengthAdjust="spacing" textLength="88" x="870.65" y="342.0666">shareable link</text></g><!--link LinkShare to Recipient--><g id="link_LinkShare_Recipient"><path d="M927.66,584.0069 C915.08,594.0969 901.88,603.5769 888.5,611.5369 C879.2,617.0669 874.67,613.7869 865.5,619.5369 C848.46,630.2169 851.21,641.9969 833.5,651.5369 C775.18,682.9469 747.48,653.4069 687.5,681.5369 C645.5,701.2269 609.2176,731.1024 581.3576,757.4724 " fill="none" id="LinkShare-to-Recipient" style="stroke:#181818;stroke-width:1.0;"/><polygon fill="#181818" points="577,761.5969,586.286,758.3151,580.6313,758.1598,580.7867,752.5051,577,761.5969" style="stroke:#181818;stroke-width:1.0;"/><text fill="#000000" font-family="sans-serif" font-size="13" lengthAdjust="spacing" textLength="92" x="866.5" y="640.1038">Access via link</text></g><!--link LinkShare to ThirdParty--><g id="link_LinkShare_ThirdParty"><path d="M1000.2,583.8469 C992.64,607.3469 982.1,631.6269 967.5,651.5369 C927.57,705.9769 866.7067,745.0783 819.7267,770.0783 " fill="none" id="LinkShare-to-ThirdParty" style="stroke:#181818;stroke-width:1.0;"/><polygon fill="#181818" points="814.43,772.8969,824.2542,772.2001,818.8439,770.548,820.496,765.1378,814.43,772.8969" style="stroke:#181818;stroke-width:1.0;"/><text fill="#000000" font-family="sans-serif" font-size="13" lengthAdjust="spacing" textLength="92" x="991.31" y="632.6038">Access via link</text><text fill="#000000" font-family="sans-serif" font-size="13" lengthAdjust="spacing" textLength="101" x="986.81" y="647.7366">(external users)</text></g><!--link Owner to GroupShare--><g id="link_Owner_GroupShare"><path d="M408.5,202.4869 C408.5,250.4269 408.5,329.1169 408.5,394.4169 " fill="none" id="Owner-to-GroupShare" style="stroke:#181818;stroke-width:1.0;"/><polygon fill="#181818" points="408.5,400.4169,412.5,391.4169,408.5,395.4169,404.5,391.4169,408.5,400.4169" style="stroke:#181818;stroke-width:1.0;"/><text fill="#000000" font-family="sans-serif" font-size="13" lengthAdjust="spacing" textLength="67" x="433" y="326.9338">Share with</text><text fill="#000000" font-family="sans-serif" font-size="13" lengthAdjust="spacing" textLength="114" x="409.5" y="342.0666">team/department</text></g><!--link GroupShare to Recipient--><g id="link_GroupShare_Recipient"><path d="M434.43,583.8969 C441.74,606.3169 450.24,630.0569 459.5,651.5369 C476.21,690.3069 496.7857,727.1443 514.2257,756.3743 " fill="none" id="GroupShare-to-Recipient" style="stroke:#181818;stroke-width:1.0;"/><polygon fill="#181818" points="517.3,761.5269,516.1236,751.7485,514.7381,757.2331,509.2536,755.8475,517.3,761.5269" style="stroke:#181818;stroke-width:1.0;"/><text fill="#000000" font-family="sans-serif" font-size="13" lengthAdjust="spacing" textLength="69" x="465.5" y="632.6038">Auto-grant</text><text fill="#000000" font-family="sans-serif" font-size="13" lengthAdjust="spacing" textLength="79" x="460.5" y="647.7366">to members</text></g><!--link Recipient to Delegation--><g id="link_Recipient_Delegation"><path d="M553.02,761.5369 C566.25,724.2169 588.98,665.9669 616.5,619.5369 C622.78,608.9469 626.375,603.1581 633.785,592.7281 " fill="none" id="Recipient-to-Delegation" style="stroke:#181818;stroke-width:1.0;"/><polygon fill="#181818" points="637.26,587.8369,628.7867,592.8571,634.3642,591.9129,635.3083,597.4904,637.26,587.8369" style="stroke:#181818;stroke-width:1.0;"/><text fill="#000000" font-family="sans-serif" font-size="13" lengthAdjust="spacing" textLength="57" x="631" y="632.6038">Re-share</text><text fill="#000000" font-family="sans-serif" font-size="13" lengthAdjust="spacing" textLength="84" x="617.5" y="647.7366">(if permitted)</text></g><!--link Delegation to ThirdParty--><g id="link_Delegation_ThirdParty"><path d="M709.47,587.7369 C709.35,608.8269 710.37,631.0169 713.5,651.5369 C719.36,689.9869 731.2328,726.5791 742.2528,755.9591 " fill="none" id="Delegation-to-ThirdParty" style="stroke:#181818;stroke-width:1.0;"/><polygon fill="#181818" points="744.36,761.5769,744.9445,751.7454,742.604,756.8954,737.454,754.5549,744.36,761.5769" style="stroke:#181818;stroke-width:1.0;"/><text fill="#000000" font-family="sans-serif" font-size="13" lengthAdjust="spacing" textLength="114" x="714.5" y="640.1038">Delegated access</text></g><!--link LinkShare to GMN23--><g id="link_LinkShare_GMN23"><path d="M1092.55,583.8769 C1099.5,595.4069 1105.72,607.4169 1110.5,619.5369 C1119.02,641.1469 1124.46,665.2669 1127.88,688.6269 " fill="none" id="LinkShare-GMN23" style="stroke:#181818;stroke-width:1.0;stroke-dasharray:7.0,7.0;"/></g><!--SRC=[VLRlRXit3F-kf-0yO73GdesatJ0SYW2kxQO1aZHmd1K530po7MrhqKbNIPV4A_fr3x17t9ECakvVucN-OfkaHFB77qdzaED6A8J5VBgSN9rTp26Jt5h6d70IOP9bQ2rCjN96IxZKEKf8OAQpga3bu6R7ZL1R-0bcA77BdT2ACPuvRM3GMdrwK6W6m6tyrUWNc8bIU8DRM-jRKMEpt0cJmpKtRjzP1M6GCLRox8vl4GPDA2760NnZp63ckDfI6eDtwzEPyF-RYD-DrwShHU8G4Vpprz-TxwXBwBDIrsWAOIsbPU7CSEKmJqb7U4rcCEJoWU_jaHTyNfmlvp3KfOU0oo2RpI_c1yB5FBdvE5ay4mTdyyTIc81X2fzgvKfTQISs8glbNz06368wFXk47o_4TkVE3A9wdlM5K7V9UsunFyWydELhClH6_QJzVxWskaJZ1DgGyAqINoi4f-zGmV3szdmMihaciZneAb5fj2FFvCVd5NHTEf1pXsCd2lJocbIPhgZqKXJ2XPjQf47YFSeccAMX2bFSAKoa11xEeWMfjrlC0nG-t3uGxsM5pt4uCxeg3o1O8Y_6Coo9IYsTiOz4lFP1k5q0mKVWw0mKMApHM2-xAOatL1_8stj2EaR_uVdMivnMrka2jZwKni5ihtWXiXGkezrEb93jA6wa8xmYUm8murBkeIezYZK28V6GL3_pBoYbVdYUUm_PhajR3ARSPZptdTFZUX-3ymzWcjOOxRZzlMpjXgj1G-VLW6g-_3Y_wemXumfiYo1ejuj8nCpRKE32rplIBFo4uxJcDsmC8QPzZtRQanG-UF75SUUhqxvfj2TFjC7d9N_iGK0_Ioeil8aDrSaZc5Djk6JV6OiZ8abEdpHT2XqvLiesBAXeIB6-dJ_NJReqJX7eCBHz1nsLoH19IXMdozjEbQHddT7pk-lEkXVylooxiNbekb93V7HeQEA45EnHFwmUqPwcxPjXt16VzGmFOYCo9rkVF1tJJLymrja4XBigf7Gy2QbJS68J8NCqOOvOp-eWiLf7WoXsolzqmxaYGWhIPTYsGosZuo-qm-89lNVy7ll538Gb9X-F6WR71kZp-6GK0Mqme9vVgJSZM6Y9oJhCwXZwIhqTzVBfkMc2eO3dcmsv4HH65t0Q0xwzElzq1Ne3D3zW6xVN2xSiy5xNAoQUZSNtAHfItT7SSS3LlfdDSMfWKCPpVXjAiDKwrimUXQxgGKnjHM2fdFg3ALeMiDREpqEAhzSlx61LmsTjxZOqrq9aZ16qCJXBo6JEGbw_CnW1EzrfxTT3DuGycuT4PmBufZvGFbirAKlWDu4FTESmB7QjvFw8XFDS-5T85BwAEzxBfpg98JpHq7UzyLz1c8b7ZEhNB79g77I0xKvaFrD0U-kme4HKRa7rzZpxPKGDGzxzdlF9q8grDPKeOigL7HQDlLGpltZPajyHBXZO0g8eC1V4AhbdvDpxneEgjDE3rG-9jY8tc5LKrNrTaIIOmaORsbOfx9mhRJeUt_DAkX4-ygAKECfqCRRZR_xby9rE-EyKZaz-JTQK9N4p9wV3pEnBfucgvQxUUjQxGWzw0oIKpPjZE35RhKv4JcreTtumzAmwf8cPVlP4J9xOy8EN26d3WoE5y-lN0JZhAFxNWKO9FJILDvaIn6k4N5W_bNDOxsDlUxG3s1wnUJDFQzGYM1-8Js70WgwS5TH2scov4d_6kbzguvlAEYDYKzFLz4JtIB99U6sIzcj53MA1b_JekYS717nyjXD_A1hg1zjMzLy0]--></g></svg>