<svg xmlns="http://www.w3.org/2000/svg" xmlns:xlink="http://www.w3.org/1999/xlink" contentStyleType="text/css" height="1744px" preserveAspectRatio="none" style="width:1898px;height:1744px;background:#FFFFFF;" version="1.1" viewBox="0 0 1898 1744" width="1898px" zoomAndPan="magnify"><defs/><g><text fill="#000000" font-family="sans-serif" font-size="14" font-weight="bold" lengthAdjust="spacing" textLength="309" x="787.82" y="22.9951">C4 Model - Container Diagram (Level 2)</text><!--cluster Browser--><g id="cluster_Browser"><rect fill="#ADD8E6" height="145.89" rx="2.5" ry="2.5" style="stroke:#181818;stroke-width:1.0;" width="189" x="317.95" y="152.8369"/><text fill="#000000" font-family="sans-serif" font-size="14" font-weight="bold" lengthAdjust="spacing" textLength="107" x="358.95" y="167.832">Web Browser</text></g><!--cluster Mobile--><g id="cluster_Mobile"><rect fill="#ADD8E6" height="129.6" rx="2.5" ry="2.5" style="stroke:#181818;stroke-width:1.0;" width="217" x="546.95" y="160.9869"/><text fill="#000000" font-family="sans-serif" font-size="14" font-weight="bold" lengthAdjust="spacing" textLength="109" x="600.95" y="175.982">Mobile Device</text></g><!--cluster Secure Document Vault Backend--><g id="cluster_Secure Document Vault Backend"><path d="M109.45,370.7269 L368.45,370.7269 A3.75,3.75 0 0 1 370.95,373.2269 L377.95,393.0238 L847.45,393.0238 A2.5,2.5 0 0 1 849.95,395.5238 L849.95,1502.0869 A2.5,2.5 0 0 1 847.45,1504.5869 L109.45,1504.5869 A2.5,2.5 0 0 1 106.95,1502.0869 L106.95,373.2269 A2.5,2.5 0 0 1 109.45,370.7269 " fill="none" style="stroke:#000000;stroke-width:1.5;"/><line style="stroke:#000000;stroke-width:1.5;" x1="106.95" x2="377.95" y1="393.0238" y2="393.0238"/><text fill="#000000" font-family="sans-serif" font-size="14" font-weight="bold" lengthAdjust="spacing" textLength="258" x="110.95" y="385.722">Secure Document Vault Backend</text></g><!--cluster Gateway--><g id="cluster_Gateway"><rect fill="#FFFFE0" height="214.07" rx="2.5" ry="2.5" style="stroke:#181818;stroke-width:1.0;" width="418" x="233.95" y="421.7269"/><text fill="#000000" font-family="sans-serif" font-size="14" font-weight="bold" lengthAdjust="spacing" textLength="99" x="393.45" y="436.722">API Gateway</text><text fill="#000000" font-family="sans-serif" font-size="14" font-weight="bold" lengthAdjust="spacing" textLength="77" x="404.45" y="453.0189">Container</text></g><!--cluster AuthSvc--><g id="cluster_AuthSvc"><rect fill="#90EE90" height="198.93" rx="2.5" ry="2.5" style="stroke:#181818;stroke-width:1.0;" width="390" x="427.95" y="715.7969"/><text fill="#000000" font-family="sans-serif" font-size="14" font-weight="bold" lengthAdjust="spacing" textLength="115" x="565.45" y="730.792">Authentication</text><text fill="#000000" font-family="sans-serif" font-size="14" font-weight="bold" lengthAdjust="spacing" textLength="141" x="552.45" y="747.0889">Service Container</text></g><!--cluster DocSvc--><g id="cluster_DocSvc"><rect fill="#90EE90" height="198.93" rx="2.5" ry="2.5" style="stroke:#181818;stroke-width:1.0;" width="239" x="148.95" y="715.7969"/><text fill="#000000" font-family="sans-serif" font-size="14" font-weight="bold" lengthAdjust="spacing" textLength="80" x="228.45" y="730.792">Document</text><text fill="#000000" font-family="sans-serif" font-size="14" font-weight="bold" lengthAdjust="spacing" textLength="141" x="197.95" y="747.0889">Service Container</text></g><!--cluster CryptoSvc--><g id="cluster_CryptoSvc"><rect fill="#90EE90" height="198.93" rx="2.5" ry="2.5" style="stroke:#181818;stroke-width:1.0;" width="261" x="390.95" y="994.7269"/><text fill="#000000" font-family="sans-serif" font-size="14" font-weight="bold" lengthAdjust="spacing" textLength="84" x="479.45" y="1009.722">Encryption</text><text fill="#000000" font-family="sans-serif" font-size="14" font-weight="bold" lengthAdjust="spacing" textLength="141" x="450.95" y="1026.0189">Service Container</text></g><!--cluster AuditSvc--><g id="cluster_AuditSvc"><rect fill="#90EE90" height="198.93" rx="2.5" ry="2.5" style="stroke:#181818;stroke-width:1.0;" width="225" x="372.95" y="1273.6569"/><text fill="#000000" font-family="sans-serif" font-size="14" font-weight="bold" lengthAdjust="spacing" textLength="41" x="464.95" y="1288.652">Audit</text><text fill="#000000" font-family="sans-serif" font-size="14" font-weight="bold" lengthAdjust="spacing" textLength="141" x="414.95" y="1304.9489">Service Container</text></g><!--cluster DB--><g id="cluster_DB"><path d="M1226.95,1029.5369 C1226.95,1019.5369 1358.45,1019.5369 1358.45,1019.5369 C1358.45,1019.5369 1489.95,1019.5369 1489.95,1029.5369 L1489.95,1422.7669 C1489.95,1432.7669 1358.45,1432.7669 1358.45,1432.7669 C1358.45,1432.7669 1226.95,1432.7669 1226.95,1422.7669 L1226.95,1029.5369 " fill="#F08080" style="stroke:#181818;stroke-width:1.0;"/><path d="M1226.95,1029.5369 C1226.95,1039.5369 1358.45,1039.5369 1358.45,1039.5369 C1358.45,1039.5369 1489.95,1039.5369 1489.95,1029.5369 " fill="none" style="stroke:#181818;stroke-width:1.0;"/><text fill="#000000" font-family="sans-serif" font-size="14" font-weight="bold" lengthAdjust="spacing" textLength="93" x="1311.95" y="1054.532">PostgreSQL</text><text fill="#000000" font-family="sans-serif" font-size="14" font-weight="bold" lengthAdjust="spacing" textLength="73" x="1321.95" y="1070.8289">Database</text></g><!--cluster S3--><g id="cluster_S3"><path d="M983.95,1300.3169 C983.95,1290.3169 1085.45,1290.3169 1085.45,1290.3169 C1085.45,1290.3169 1186.95,1290.3169 1186.95,1300.3169 L1186.95,1430.9169 C1186.95,1440.9169 1085.45,1440.9169 1085.45,1440.9169 C1085.45,1440.9169 983.95,1440.9169 983.95,1430.9169 L983.95,1300.3169 " fill="#F08080" style="stroke:#181818;stroke-width:1.0;"/><path d="M983.95,1300.3169 C983.95,1310.3169 1085.45,1310.3169 1085.45,1310.3169 C1085.45,1310.3169 1186.95,1310.3169 1186.95,1300.3169 " fill="none" style="stroke:#181818;stroke-width:1.0;"/><text fill="#000000" font-family="sans-serif" font-size="14" font-weight="bold" lengthAdjust="spacing" textLength="118" x="1026.45" y="1325.312">Object Storage</text><text fill="#000000" font-family="sans-serif" font-size="14" font-weight="bold" lengthAdjust="spacing" textLength="124" x="1023.45" y="1341.6089">(S3-compatible)</text></g><!--cluster AuditDB--><g id="cluster_AuditDB"><path d="M438.95,1586.5869 C438.95,1576.5869 518.45,1576.5869 518.45,1576.5869 C518.45,1576.5869 597.95,1576.5869 597.95,1586.5869 L597.95,1717.1769 C597.95,1727.1769 518.45,1727.1769 518.45,1727.1769 C518.45,1727.1769 438.95,1727.1769 438.95,1717.1769 L438.95,1586.5869 " fill="#F08080" style="stroke:#181818;stroke-width:1.0;"/><path d="M438.95,1586.5869 C438.95,1596.5869 518.45,1596.5869 518.45,1596.5869 C518.45,1596.5869 597.95,1596.5869 597.95,1586.5869 " fill="none" style="stroke:#181818;stroke-width:1.0;"/><text fill="#000000" font-family="sans-serif" font-size="14" font-weight="bold" lengthAdjust="spacing" textLength="119" x="458.95" y="1611.582">Audit Database</text><text fill="#000000" font-family="sans-serif" font-size="14" font-weight="bold" lengthAdjust="spacing" textLength="114" x="461.45" y="1627.8789">(Append-Only)</text></g><!--cluster Redis--><g id="cluster_Redis"><path d="M1529.95,1045.5369 C1529.95,1035.5369 1675.45,1035.5369 1675.45,1035.5369 C1675.45,1035.5369 1820.95,1035.5369 1820.95,1045.5369 L1820.95,1143.8369 C1820.95,1153.8369 1675.45,1153.8369 1675.45,1153.8369 C1675.45,1153.8369 1529.95,1153.8369 1529.95,1143.8369 L1529.95,1045.5369 " fill="#FFA500" style="stroke:#181818;stroke-width:1.0;"/><path d="M1529.95,1045.5369 C1529.95,1055.5369 1675.45,1055.5369 1675.45,1055.5369 C1675.45,1055.5369 1820.95,1055.5369 1820.95,1045.5369 " fill="none" style="stroke:#181818;stroke-width:1.0;"/><text fill="#000000" font-family="sans-serif" font-size="14" font-weight="bold" lengthAdjust="spacing" textLength="97" x="1626.95" y="1070.532">Redis Cache</text></g><!--entity SPA--><g id="elem_SPA"><rect fill="#F1F1F1" height="78.8906" rx="2.5" ry="2.5" style="stroke:#181818;stroke-width:0.5;" width="121" x="342.45" y="195.8369"/><rect fill="#F1F1F1" height="10" style="stroke:#181818;stroke-width:0.5;" width="15" x="443.45" y="200.8369"/><rect fill="#F1F1F1" height="2" style="stroke:#181818;stroke-width:0.5;" width="4" x="441.45" y="202.8369"/><rect fill="#F1F1F1" height="2" style="stroke:#181818;stroke-width:0.5;" width="4" x="441.45" y="206.8369"/><text fill="#000000" font-family="sans-serif" font-size="14" lengthAdjust="spacing" textLength="81" x="357.45" y="228.832">Single Page</text><text fill="#000000" font-family="sans-serif" font-size="14" lengthAdjust="spacing" textLength="75" x="357.45" y="245.1289">Application</text><text fill="#000000" font-family="sans-serif" font-size="14" lengthAdjust="spacing" textLength="50" x="357.45" y="261.4257">(React)</text></g><!--entity MobileApp--><g id="elem_MobileApp"><rect fill="#F1F1F1" height="62.5938" rx="2.5" ry="2.5" style="stroke:#181818;stroke-width:0.5;" width="150" x="570.95" y="203.9869"/><rect fill="#F1F1F1" height="10" style="stroke:#181818;stroke-width:0.5;" width="15" x="700.95" y="208.9869"/><rect fill="#F1F1F1" height="2" style="stroke:#181818;stroke-width:0.5;" width="4" x="698.95" y="210.9869"/><rect fill="#F1F1F1" height="2" style="stroke:#181818;stroke-width:0.5;" width="4" x="698.95" y="214.9869"/><text fill="#000000" font-family="sans-serif" font-size="14" lengthAdjust="spacing" textLength="91" x="585.95" y="236.982">Native Mobile</text><text fill="#000000" font-family="sans-serif" font-size="14" lengthAdjust="spacing" textLength="110" x="585.95" y="253.2789">App (Go Mobile)</text></g><!--entity Go HTTP Server\n(net/http)--><g id="elem_Go HTTP Server\n(net/http)"><rect fill="#F1F1F1" height="62.5938" rx="2.5" ry="2.5" style="stroke:#181818;stroke-width:0.5;" width="149" x="257.45" y="514.9669"/><rect fill="#F1F1F1" height="10" style="stroke:#181818;stroke-width:0.5;" width="15" x="386.45" y="519.9669"/><rect fill="#F1F1F1" height="2" style="stroke:#181818;stroke-width:0.5;" width="4" x="384.45" y="521.9669"/><rect fill="#F1F1F1" height="2" style="stroke:#181818;stroke-width:0.5;" width="4" x="384.45" y="525.9669"/><text fill="#000000" font-family="sans-serif" font-size="14" lengthAdjust="spacing" textLength="109" x="272.45" y="547.962">Go HTTP Server</text><text fill="#000000" font-family="sans-serif" font-size="14" lengthAdjust="spacing" textLength="66" x="272.45" y="564.2589">(net/http)</text></g><g id="elem_GMN10"><path d="M441.45,480.7269 L441.45,542.2669 L406.59,546.2669 L441.45,550.2669 L441.45,611.7894 A0,0 0 0 0 441.45,611.7894 L608.45,611.7894 A0,0 0 0 0 608.45,611.7894 L608.45,490.7269 L598.45,480.7269 L441.45,480.7269 A0,0 0 0 0 441.45,480.7269 " fill="#FEFFDD" style="stroke:#181818;stroke-width:0.5;"/><path d="M598.45,480.7269 L598.45,490.7269 L608.45,490.7269 L598.45,480.7269 " fill="#FEFFDD" style="stroke:#181818;stroke-width:0.5;"/><text fill="#000000" font-family="sans-serif" font-size="13" lengthAdjust="spacing" textLength="128" x="447.45" y="497.7938">Port: 8080 (internal)</text><text fill="#000000" font-family="sans-serif" font-size="13" lengthAdjust="spacing" textLength="132" x="447.45" y="512.9266">443 (external via LB)</text><text fill="#000000" font-family="sans-serif" font-size="13" lengthAdjust="spacing" textLength="4" x="447.45" y="528.0594">&#160;</text><text fill="#000000" font-family="sans-serif" font-size="13" lengthAdjust="spacing" textLength="101" x="447.45" y="543.1922">Responsibilities:</text><text fill="#000000" font-family="sans-serif" font-size="13" lengthAdjust="spacing" textLength="113" x="447.45" y="558.325">&#8226; TLS termination</text><text fill="#000000" font-family="sans-serif" font-size="13" lengthAdjust="spacing" textLength="91" x="447.45" y="573.4578">&#8226; Rate limiting</text><text fill="#000000" font-family="sans-serif" font-size="13" lengthAdjust="spacing" textLength="113" x="447.45" y="588.5906">&#8226; Request routing</text><text fill="#000000" font-family="sans-serif" font-size="13" lengthAdjust="spacing" textLength="146" x="447.45" y="603.7235">&#8226; Authentication check</text></g><!--entity Go Service\n(Stateless)--><g id="elem_Go Service\n(Stateless)"><rect fill="#F1F1F1" height="62.5938" rx="2.5" ry="2.5" style="stroke:#181818;stroke-width:0.5;" width="114" x="451.95" y="801.4669"/><rect fill="#F1F1F1" height="10" style="stroke:#181818;stroke-width:0.5;" width="15" x="545.95" y="806.4669"/><rect fill="#F1F1F1" height="2" style="stroke:#181818;stroke-width:0.5;" width="4" x="543.95" y="808.4669"/><rect fill="#F1F1F1" height="2" style="stroke:#181818;stroke-width:0.5;" width="4" x="543.95" y="812.4669"/><text fill="#000000" font-family="sans-serif" font-size="14" lengthAdjust="spacing" textLength="74" x="466.95" y="834.462">Go Service</text><text fill="#000000" font-family="sans-serif" font-size="14" lengthAdjust="spacing" textLength="74" x="466.95" y="850.7589">(Stateless)</text></g><g id="elem_GMN15"><path d="M600.95,774.7969 L600.95,890.7266 L774.95,890.7266 L774.95,784.7969 L764.95,774.7969 L600.95,774.7969 " fill="#FEFFDD" style="stroke:#181818;stroke-width:0.5;"/><path d="M764.95,774.7969 L764.95,784.7969 L774.95,784.7969 L764.95,774.7969 " fill="#FEFFDD" style="stroke:#181818;stroke-width:1.0;"/><text fill="#000000" font-family="sans-serif" font-size="13" lengthAdjust="spacing" textLength="66" x="606.95" y="791.8638">Port: 8081</text><text fill="#000000" font-family="sans-serif" font-size="13" lengthAdjust="spacing" textLength="4" x="606.95" y="806.9966">&#160;</text><text fill="#000000" font-family="sans-serif" font-size="13" lengthAdjust="spacing" textLength="101" x="606.95" y="822.1294">Responsibilities:</text><text fill="#000000" font-family="sans-serif" font-size="13" lengthAdjust="spacing" textLength="138" x="606.95" y="837.2622">&#8226; User authentication</text><text fill="#000000" font-family="sans-serif" font-size="13" lengthAdjust="spacing" textLength="106" x="606.95" y="852.395">&#8226; JWT generation</text><text fill="#000000" font-family="sans-serif" font-size="13" lengthAdjust="spacing" textLength="104" x="606.95" y="867.5278">&#8226; MFA validation</text><text fill="#000000" font-family="sans-serif" font-size="13" lengthAdjust="spacing" textLength="153" x="606.95" y="882.6606">&#8226; Session management</text></g><g id="elem_GMN19"><path d="M172.95,774.7969 L172.95,890.7266 L344.95,890.7266 L344.95,784.7969 L334.95,774.7969 L172.95,774.7969 " fill="#FEFFDD" style="stroke:#181818;stroke-width:0.5;"/><path d="M334.95,774.7969 L334.95,784.7969 L344.95,784.7969 L334.95,774.7969 " fill="#FEFFDD" style="stroke:#181818;stroke-width:1.0;"/><text fill="#000000" font-family="sans-serif" font-size="13" lengthAdjust="spacing" textLength="66" x="178.95" y="791.8638">Port: 8082</text><text fill="#000000" font-family="sans-serif" font-size="13" lengthAdjust="spacing" textLength="4" x="178.95" y="806.9966">&#160;</text><text fill="#000000" font-family="sans-serif" font-size="13" lengthAdjust="spacing" textLength="101" x="178.95" y="822.1294">Responsibilities:</text><text fill="#000000" font-family="sans-serif" font-size="13" lengthAdjust="spacing" textLength="120" x="178.95" y="837.2622">&#8226; Document CRUD</text><text fill="#000000" font-family="sans-serif" font-size="13" lengthAdjust="spacing" textLength="151" x="178.95" y="852.395">&#8226; Version management</text><text fill="#000000" font-family="sans-serif" font-size="13" lengthAdjust="spacing" textLength="130" x="178.95" y="867.5278">&#8226; Permission checks</text><text fill="#000000" font-family="sans-serif" font-size="13" lengthAdjust="spacing" textLength="129" x="178.95" y="882.6606">&#8226; Search operations</text></g><g id="elem_GMN23"><path d="M414.95,1053.7269 L414.95,1169.6566 L608.95,1169.6566 L608.95,1063.7269 L598.95,1053.7269 L414.95,1053.7269 " fill="#FEFFDD" style="stroke:#181818;stroke-width:0.5;"/><path d="M598.95,1053.7269 L598.95,1063.7269 L608.95,1063.7269 L598.95,1053.7269 " fill="#FEFFDD" style="stroke:#181818;stroke-width:1.0;"/><text fill="#000000" font-family="sans-serif" font-size="13" lengthAdjust="spacing" textLength="66" x="420.95" y="1070.7938">Port: 8083</text><text fill="#000000" font-family="sans-serif" font-size="13" lengthAdjust="spacing" textLength="4" x="420.95" y="1085.9266">&#160;</text><text fill="#000000" font-family="sans-serif" font-size="13" lengthAdjust="spacing" textLength="101" x="420.95" y="1101.0594">Responsibilities:</text><text fill="#000000" font-family="sans-serif" font-size="13" lengthAdjust="spacing" textLength="173" x="420.95" y="1116.1922">&#8226; AES-256-GCM encryption</text><text fill="#000000" font-family="sans-serif" font-size="13" lengthAdjust="spacing" textLength="126" x="420.95" y="1131.325">&#8226; Key management</text><text fill="#000000" font-family="sans-serif" font-size="13" lengthAdjust="spacing" textLength="89" x="420.95" y="1146.4578">&#8226; Key rotation</text><text fill="#000000" font-family="sans-serif" font-size="13" lengthAdjust="spacing" textLength="126" x="420.95" y="1161.5906">&#8226; Crypto operations</text></g><g id="elem_GMN27"><path d="M396.95,1332.6569 L396.95,1448.5866 L554.95,1448.5866 L554.95,1342.6569 L544.95,1332.6569 L396.95,1332.6569 " fill="#FEFFDD" style="stroke:#181818;stroke-width:0.5;"/><path d="M544.95,1332.6569 L544.95,1342.6569 L554.95,1342.6569 L544.95,1332.6569 " fill="#FEFFDD" style="stroke:#181818;stroke-width:1.0;"/><text fill="#000000" font-family="sans-serif" font-size="13" lengthAdjust="spacing" textLength="66" x="402.95" y="1349.7238">Port: 8084</text><text fill="#000000" font-family="sans-serif" font-size="13" lengthAdjust="spacing" textLength="4" x="402.95" y="1364.8566">&#160;</text><text fill="#000000" font-family="sans-serif" font-size="13" lengthAdjust="spacing" textLength="101" x="402.95" y="1379.9894">Responsibilities:</text><text fill="#000000" font-family="sans-serif" font-size="13" lengthAdjust="spacing" textLength="131" x="402.95" y="1395.1222">&#8226; Immutable logging</text><text fill="#000000" font-family="sans-serif" font-size="13" lengthAdjust="spacing" textLength="92" x="402.95" y="1410.255">&#8226; Log chaining</text><text fill="#000000" font-family="sans-serif" font-size="13" lengthAdjust="spacing" textLength="97" x="402.95" y="1425.3878">&#8226; Query engine</text><text fill="#000000" font-family="sans-serif" font-size="13" lengthAdjust="spacing" textLength="137" x="402.95" y="1440.5206">&#8226; Compliance reports</text></g><!--entity Users--><g id="elem_Users"><rect fill="#F1F1F1" height="36.2969" rx="35" ry="35" style="stroke:#181818;stroke-width:0.5;" width="60" x="1250.95" y="1093.5369"/><text fill="#000000" font-family="sans-serif" font-size="14" lengthAdjust="spacing" textLength="40" x="1260.95" y="1116.532">Users</text></g><!--entity Documents--><g id="elem_Documents"><rect fill="#F1F1F1" height="36.2969" rx="35" ry="35" style="stroke:#181818;stroke-width:0.5;" width="101" x="1345.45" y="1093.5369"/><text fill="#000000" font-family="sans-serif" font-size="14" lengthAdjust="spacing" textLength="81" x="1355.45" y="1116.532">Documents</text></g><!--entity Permissions--><g id="elem_Permissions"><rect fill="#F1F1F1" height="36.2969" rx="35" ry="35" style="stroke:#181818;stroke-width:0.5;" width="104" x="1250.95" y="1372.4669"/><text fill="#000000" font-family="sans-serif" font-size="14" lengthAdjust="spacing" textLength="84" x="1260.95" y="1395.462">Permissions</text></g><!--entity Encrypted\nDocument Blobs--><g id="elem_Encrypted\nDocument Blobs"><rect fill="#F1F1F1" height="52.5938" rx="35" ry="35" style="stroke:#181818;stroke-width:0.5;" width="136" x="1007.95" y="1364.3169"/><text fill="#000000" font-family="sans-serif" font-size="14" lengthAdjust="spacing" textLength="70" x="1017.95" y="1387.312">Encrypted</text><text fill="#000000" font-family="sans-serif" font-size="14" lengthAdjust="spacing" textLength="116" x="1017.95" y="1403.6089">Document Blobs</text></g><!--entity Immutable\nAudit Logs--><g id="elem_Immutable\nAudit Logs"><rect fill="#F1F1F1" height="52.5938" rx="35" ry="35" style="stroke:#181818;stroke-width:0.5;" width="92" x="462.95" y="1650.5869"/><text fill="#000000" font-family="sans-serif" font-size="14" lengthAdjust="spacing" textLength="72" x="472.95" y="1673.582">Immutable</text><text fill="#000000" font-family="sans-serif" font-size="14" lengthAdjust="spacing" textLength="72" x="472.95" y="1689.8789">Audit Logs</text></g><!--entity Sessions--><g id="elem_Sessions"><rect fill="#F1F1F1" height="36.2969" rx="35" ry="35" style="stroke:#181818;stroke-width:0.5;" width="83" x="1554.45" y="1093.5369"/><text fill="#000000" font-family="sans-serif" font-size="14" lengthAdjust="spacing" textLength="63" x="1564.45" y="1116.532">Sessions</text></g><!--entity JWT Blacklist--><g id="elem_JWT Blacklist"><rect fill="#F1F1F1" height="36.2969" rx="35" ry="35" style="stroke:#181818;stroke-width:0.5;" width="105" x="1672.45" y="1093.5369"/><text fill="#000000" font-family="sans-serif" font-size="14" lengthAdjust="spacing" textLength="85" x="1682.45" y="1116.532">JWT Blacklist</text></g><!--entity User--><g id="elem_User"><ellipse cx="626.95" cy="52.4203" fill="#90EE90" rx="9.1234" ry="9.1234" style="stroke:#181818;stroke-width:0.5;"/><rect fill="#90EE90" height="36.2969" rx="9.1234" ry="9.1234" style="stroke:#181818;stroke-width:0.5;" width="52" x="600.95" y="61.5436"/><text fill="#000000" font-family="sans-serif" font-size="14" lengthAdjust="spacing" textLength="32" x="610.95" y="84.5387">User</text></g><!--entity KMS--><g id="elem_KMS"><path d="M875.1078,1375.7637 C878.9425,1370.762 884.0042,1370.7404 887.4025,1376.273 C889.6871,1369.5517 895.5336,1367.526 900.5554,1373.4189 C904.7683,1367.5355 910.405,1365.6045 914.8744,1373.1454 C919.0665,1368.8975 923.95,1369.2433 926.3784,1375.1445 C931.672,1368.6124 935.9085,1368.4118 940,1376.2815 C944.1368,1370.814 949.7873,1370.724 953.2451,1377.0445 C962.2607,1378.1665 964.1604,1385.8322 959.2069,1392.3836 C964.505,1399.6059 961.3543,1404.8765 953.0085,1405.7911 C950.0693,1412.3597 945.4736,1414.3944 939.8443,1408.6725 C936.4299,1414.1359 932.9213,1414.7607 928.0952,1410.3527 C924.3272,1417.4078 919.1672,1418.8941 913.3334,1412.6448 C909.122,1418.4904 904.7477,1417.6678 901.8161,1411.4254 C896.0282,1417.4717 890.4256,1417.5348 887.0619,1408.9764 C882.9394,1413.7961 877.7504,1412.0775 875.5048,1406.8231 C866.7285,1405.3772 865.9058,1398.5711 870.8483,1392.6256 C864.9674,1385.6529 866.6109,1379.1044 875.1078,1375.7637 " fill="#808080" style="stroke:#181818;stroke-width:0.5;"/><text fill="#000000" font-family="sans-serif" font-size="14" lengthAdjust="spacing" textLength="65" x="880.45" y="1395.462">AWS KMS</text></g><!--entity MFA--><g id="elem_MFA"><path d="M1084.4248,1098.0187 C1086.8915,1092.6018 1090.9732,1093.0534 1094.2453,1097.1908 C1098.4485,1090.6718 1102.9278,1091.8961 1107.253,1097.055 C1110.0667,1090.8584 1113.4324,1091.4531 1117.8049,1095.4398 C1120.6601,1088.8635 1126.448,1089.0566 1129.9459,1094.8067 C1132.3639,1089.0744 1136.7937,1088.3834 1140.4147,1093.663 C1145.0941,1088.8097 1148.7678,1090.2659 1151.2546,1095.9241 C1155.009,1091.4969 1158.2115,1090.5769 1161.5535,1096.3409 C1164.6695,1091.2012 1170.1168,1091.0103 1173.0344,1096.5542 C1176.3606,1091.5987 1182.4387,1090.9768 1185.4966,1096.8627 C1190.1737,1091.7779 1193.7523,1092.7223 1197.0904,1098.3163 C1205.3999,1101.5978 1206.3238,1107.2805 1200.7003,1113.8086 C1206.2138,1119.9425 1204.7081,1126.4126 1196.3478,1128.4114 C1192.6941,1133.7061 1188.7725,1134.0568 1185.3694,1128.1655 C1182.9497,1133.8065 1177.5255,1134.2146 1174.0695,1129.272 C1171.0212,1133.8913 1166.4537,1134.4457 1163.5465,1129.1226 C1161.0363,1136.3654 1155.2717,1135.3105 1151.1515,1130.8242 C1148.0771,1136.0385 1143.3749,1136.9754 1139.2579,1132.0469 C1135.4623,1135.9967 1131.9128,1136.6177 1129.0853,1131.0157 C1124.9315,1136.1945 1120.5611,1136.4598 1117.3602,1130.0514 C1114.6923,1135.338 1109.869,1134.7447 1107.4509,1129.8093 C1103.1036,1134.6776 1098.454,1134.0875 1095.5454,1128.2146 C1091.658,1133.088 1085.9751,1133.3765 1083.256,1126.9446 C1076.1531,1123.7098 1073.7359,1117.0869 1081.2635,1111.9128 C1076.4762,1105.7684 1076.3741,1101.2422 1084.4248,1098.0187 " fill="#808080" style="stroke:#181818;stroke-width:0.5;"/><text fill="#000000" font-family="sans-serif" font-size="14" lengthAdjust="spacing" textLength="98" x="1089.95" y="1116.532">TOTP Provider</text></g><g id="elem_GMN63"><path d="M866.45,774.7969 L866.45,890.7266 L1091.45,890.7266 L1091.45,784.7969 L1081.45,774.7969 L866.45,774.7969 " fill="#FEFFDD" style="stroke:#181818;stroke-width:0.5;"/><path d="M1081.45,774.7969 L1081.45,784.7969 L1091.45,784.7969 L1081.45,774.7969 " fill="#FEFFDD" style="stroke:#181818;stroke-width:1.0;"/><text fill="#000000" font-family="sans-serif" font-size="13" font-weight="bold" lengthAdjust="spacing" textLength="170" x="872.45" y="791.8638">Container Deployment:</text><text fill="#000000" font-family="sans-serif" font-size="13" lengthAdjust="spacing" textLength="204" x="872.45" y="806.9966">Each service runs as a separate</text><text fill="#000000" font-family="sans-serif" font-size="13" lengthAdjust="spacing" textLength="152" x="872.45" y="822.1294">container (Docker) with:</text><text fill="#000000" font-family="sans-serif" font-size="13" lengthAdjust="spacing" textLength="109" x="872.45" y="837.2622">&#8226; Resource limits</text><text fill="#000000" font-family="sans-serif" font-size="13" lengthAdjust="spacing" textLength="102" x="872.45" y="852.395">&#8226; Health checks</text><text fill="#000000" font-family="sans-serif" font-size="13" lengthAdjust="spacing" textLength="90" x="872.45" y="867.5278">&#8226; Auto-restart</text><text fill="#000000" font-family="sans-serif" font-size="13" lengthAdjust="spacing" textLength="125" x="872.45" y="882.6606">&#8226; Horizontal scaling</text></g><!--link Go Service\n(Stateless) to GMN15--><g id="link_Go Service\n(Stateless)_GMN15"><path d="M566.28,832.7569 C577.69,832.7569 589.1,832.7569 600.5,832.7569 " fill="none" id="Go Service\n(Stateless)-GMN15" style="stroke:#181818;stroke-width:1.0;stroke-dasharray:7.0,7.0;"/></g><!--link GMN15 to GMN19--><g id="link_GMN15_GMN19"><path d="M659.83,774.4269 C639.16,738.7969 607.39,696.2669 565.45,675.7969 C525.71,656.3969 405.87,655.7469 366.45,675.7969 C326.55,696.0769 298.78,738.8669 281.46,774.6469 " fill="none" id="GMN15-GMN19" style="stroke:#181818;stroke-width:1.0;stroke-dasharray:7.0,7.0;"/></g><!--link GMN19 to GMN23--><g id="link_GMN19_GMN23"><path d="M311.37,891.1369 C354.79,938.6669 416.19,1005.8769 459.59,1053.3869 " fill="none" id="GMN19-GMN23" style="stroke:#181818;stroke-width:1.0;stroke-dasharray:7.0,7.0;"/></g><!--link GMN23 to GMN27--><g id="link_GMN23_GMN27"><path d="M504.49,1170.0669 C498.31,1217.5969 489.57,1284.8069 483.4,1332.3069 " fill="none" id="GMN23-GMN27" style="stroke:#181818;stroke-width:1.0;stroke-dasharray:7.0,7.0;"/></g><!--link User to Browser--><g id="link_User_Browser"><path d="M600.76,91.8769 C586.21,103.9569 568.39,120.1569 554.95,136.8369 C539.775,155.6819 526.1625,179.1344 516.1588,198.3094 C513.6578,203.1031 511.3824,207.6295 509.3646,211.7498 C508.8601,212.7798 508.3717,213.7845 507.8999,214.7616 C507.664,215.2502 507.4323,215.7318 507.2048,216.2064 C507.1479,216.325 509.6819,211.0313 509.6255,211.149 " fill="none" id="User-to-Browser" style="stroke:#181818;stroke-width:1.0;"/><polygon fill="#181818" points="507.0349,216.5609,514.5288,210.1701,509.1938,212.051,507.3129,206.716,507.0349,216.5609" style="stroke:#181818;stroke-width:1.0;"/></g><!--link User to Mobile--><g id="link_User_Mobile"><path d="M653.12,79.9669 C678.63,89.5669 716.48,107.7969 736.95,136.8369 C740.0775,141.2756 742.723,146.0975 744.9577,151.141 C746.075,153.6627 747.0897,156.2399 748.0106,158.8523 C748.2408,159.5054 746.5711,154.4675 746.7897,155.1246 " fill="none" id="User-to-Mobile" style="stroke:#181818;stroke-width:1.0;"/><polygon fill="#181818" points="748.6838,160.8178,749.6382,151.0153,747.1054,156.0735,742.0472,153.5407,748.6838,160.8178" style="stroke:#181818;stroke-width:1.0;"/></g><!--link Browser to Gateway--><g id="link_Browser_Gateway"><path d="M507.0625,250.5503 C507.1763,250.7414 507.2912,250.934 507.4071,251.128 C507.639,251.5161 507.875,251.9099 508.1152,252.3092 C508.5956,253.1079 509.0925,253.9287 509.6054,254.7696 C511.6568,258.1336 513.9634,261.8213 516.4888,265.7144 C526.59,281.2869 540.19,300.1469 554.95,314.7269 C581.52,340.9869 604.87,330.6169 623.95,362.7269 C634.2075,379.9944 640.6275,399.8175 644.4775,419.8927 C644.5377,420.2063 643.4902,414.6231 643.5491,414.9369 " fill="none" id="Browser-to-Gateway" style="stroke:#181818;stroke-width:1.0;"/><polygon fill="#181818" points="644.6561,420.8339,646.9269,411.2504,643.7336,415.9197,639.0642,412.7264,644.6561,420.8339" style="stroke:#181818;stroke-width:1.0;"/><text fill="#000000" font-family="sans-serif" font-size="13" lengthAdjust="spacing" textLength="54" x="635.6" y="335.7938">API Calls</text><text fill="#000000" font-family="sans-serif" font-size="13" lengthAdjust="spacing" textLength="87" x="619.1" y="350.9266">[HTTPS/REST]</text></g><!--link Mobile to Gateway--><g id="link_Mobile_Gateway"><path d="M743.7979,290.944 C743.7623,291.0801 743.7266,291.2162 743.691,291.3524 C743.6196,291.6247 743.548,291.897 743.4761,292.1695 C743.1888,293.2594 742.8978,294.3506 742.6032,295.4415 C742.0141,297.6234 741.4108,299.8044 740.7946,301.9723 C739.562,306.3081 738.2775,310.5919 736.95,314.7269 C720.335,366.5069 697.545,423.1619 678.6838,467.3494 C669.2531,489.4431 660.8047,508.42 654.6014,522.1122 C653.826,523.8237 653.0857,525.4527 652.3829,526.9948 C652.295,527.1876 654.6974,521.9199 654.6107,522.1099 " fill="none" id="Mobile-to-Gateway" style="stroke:#181818;stroke-width:1.0;"/><polygon fill="#181818" points="652.1211,527.569,659.4949,521.0401,654.1958,523.0198,652.2161,517.7206,652.1211,527.569" style="stroke:#181818;stroke-width:1.0;"/><text fill="#000000" font-family="sans-serif" font-size="13" lengthAdjust="spacing" textLength="54" x="750.28" y="335.7938">API Calls</text><text fill="#000000" font-family="sans-serif" font-size="13" lengthAdjust="spacing" textLength="87" x="733.78" y="350.9266">[HTTPS/REST]</text></g><!--link Gateway to AuthSvc--><g id="link_Gateway_AuthSvc"><path d="M652.2207,552.8676 C653.1715,553.5305 654.1951,554.2496 655.2865,555.0232 C657.4693,556.5705 659.9232,558.3361 662.6086,560.3081 C673.3503,568.1963 687.7969,579.3869 703.4163,593.1144 C734.655,620.5694 770.585,658.1719 790.95,699.7969 C792.5519,703.0713 794.0286,706.4422 795.3894,709.8855 C796.0698,711.6072 796.7212,713.3469 797.3449,715.1017 C797.4229,715.321 795.5147,709.8787 795.5918,710.0985 " fill="none" id="Gateway-to-AuthSvc" style="stroke:#181818;stroke-width:1.0;"/><polygon fill="#181818" points="797.5775,715.7604,798.3735,705.9438,795.9227,711.0422,790.8243,708.5914,797.5775,715.7604" style="stroke:#181818;stroke-width:1.0;"/><text fill="#000000" font-family="sans-serif" font-size="13" lengthAdjust="spacing" textLength="93" x="786.69" y="672.8638">Auth Requests</text><text fill="#000000" font-family="sans-serif" font-size="13" lengthAdjust="spacing" textLength="78" x="794.19" y="687.9966">[HTTP/JSON]</text></g><!--link Gateway to DocSvc--><g id="link_Gateway_DocSvc"><path d="M634.7386,636.2099 C634.6564,636.3719 634.5736,636.5335 634.4903,636.6949 C634.3237,637.0175 634.1548,637.3389 633.9838,637.659 C631.2466,642.7798 627.9375,647.5581 623.95,651.7969 C564.86,714.5969 501.36,643.5969 435.95,699.7969 C412.16,720.2319 398.2225,752.5194 390.2013,780.0419 C389.6999,781.762 389.2217,783.4636 388.7656,785.1424 C388.5376,785.9819 389.8374,781.012 389.6203,781.8396 " fill="none" id="Gateway-to-DocSvc" style="stroke:#181818;stroke-width:1.0;"/><polygon fill="#181818" points="388.098,787.6432,394.2506,779.9526,389.3666,782.8069,386.5124,777.9229,388.098,787.6432" style="stroke:#181818;stroke-width:1.0;"/><text fill="#000000" font-family="sans-serif" font-size="13" lengthAdjust="spacing" textLength="99" x="614.26" y="672.8638">Doc Operations</text><text fill="#000000" font-family="sans-serif" font-size="13" lengthAdjust="spacing" textLength="78" x="624.76" y="687.9966">[HTTP/JSON]</text></g><!--link Gateway to AuditSvc--><g id="link_Gateway_AuditSvc"><path d="M636.5448,635.8672 C636.3744,636.1819 636.2016,636.495 636.0262,636.8066 C635.6755,637.4298 635.3149,638.0467 634.9439,638.6569 C631.9766,643.5384 628.3538,647.9906 623.95,651.7969 C616.21,658.4869 450.14,658.8569 439.95,659.7969 C376.7,665.6269 198.6,651.8469 156.95,699.7969 C6,873.5769 116.89,1020.4169 247.95,1209.6569 C264.15,1233.0469 271.24,1239.8369 297.95,1249.6569 C312.19,1254.8869 559.63,1247.5469 570.95,1257.6569 C573.67,1260.0838 576.1272,1262.7115 578.3437,1265.5062 C579.452,1266.9035 580.5,1268.3426 581.4907,1269.8192 C581.986,1270.5575 582.4669,1271.3052 582.9339,1272.0617 C583.1674,1272.4399 580.3408,1267.6573 580.5673,1268.0399 " fill="none" id="Gateway-to-AuditSvc" style="stroke:#181818;stroke-width:1.0;"/><polygon fill="#181818" points="583.6238,1273.203,582.481,1263.4207,581.0767,1268.9005,575.5969,1267.4961,583.6238,1273.203" style="stroke:#181818;stroke-width:1.0;"/><text fill="#000000" font-family="sans-serif" font-size="13" lengthAdjust="spacing" textLength="76" x="105.13" y="951.7938">Log Queries</text><text fill="#000000" font-family="sans-serif" font-size="13" lengthAdjust="spacing" textLength="78" x="104.13" y="966.9266">[HTTP/JSON]</text></g><!--link AuthSvc to DB--><g id="link_AuthSvc_DB"><path d="M818.0704,883.2146 C818.2771,883.8806 818.4892,884.5475 818.7066,885.2147 C819.1415,886.5491 819.598,887.8852 820.0771,889.2195 C821.9934,894.5567 824.272,899.866 826.9811,904.9336 C832.3994,915.0688 839.54,924.2369 848.95,930.7269 C868.11,943.9369 1244.81,936.1469 1267.95,938.7269 C1355.88,948.4969 1402.27,914.3369 1462.95,978.7269 C1472.95,989.3394 1479.1787,1002.7206 1482.8867,1016.8652 C1483.1185,1017.7492 1481.9471,1012.8002 1482.1595,1013.6897 " fill="none" id="AuthSvc-to-DB" style="stroke:#181818;stroke-width:1.0;"/><polygon fill="#181818" points="1483.5527,1019.5257,1485.3535,1009.8429,1482.3917,1014.6624,1477.5722,1011.7006,1483.5527,1019.5257" style="stroke:#181818;stroke-width:1.0;"/><text fill="#000000" font-family="sans-serif" font-size="13" lengthAdjust="spacing" textLength="109" x="1453.17" y="951.7938">Read/Write Users</text><text fill="#000000" font-family="sans-serif" font-size="13" lengthAdjust="spacing" textLength="63" x="1476.17" y="966.9266">[SQL/TLS]</text></g><!--link AuthSvc to Redis--><g id="link_AuthSvc_Redis"><path d="M818.0238,883.2781 C818.2304,883.9445 818.4422,884.6116 818.6594,885.2791 C819.0938,886.6142 819.5499,887.9507 820.0287,889.2854 C821.944,894.6241 824.223,899.9328 826.9347,904.9969 C832.3581,915.125 839.5125,924.2744 848.95,930.7269 C865.51,942.0469 1550.98,936.8269 1570.95,938.7269 C1670.75,948.1969 1723.05,906.8469 1792.95,978.7269 C1803.1275,989.1919 1809.5069,1002.4981 1813.3411,1016.6134 C1814.2996,1020.1423 1815.0991,1023.7217 1815.7591,1027.3199 C1816.0891,1029.119 1816.3842,1030.9228 1816.6469,1032.7273 C1816.7783,1033.6296 1816.14,1028.5806 1816.2554,1029.4827 " fill="none" id="AuthSvc-to-Redis" style="stroke:#181818;stroke-width:1.0;"/><polygon fill="#181818" points="1817.017,1035.4342,1819.8423,1025.9993,1816.3823,1030.4746,1811.907,1027.0147,1817.017,1035.4342" style="stroke:#181818;stroke-width:1.0;"/><text fill="#000000" font-family="sans-serif" font-size="13" lengthAdjust="spacing" textLength="105" x="1785.64" y="951.7938">Session Storage</text><text fill="#000000" font-family="sans-serif" font-size="13" lengthAdjust="spacing" textLength="100" x="1788.14" y="966.9266">[Redis Protocol]</text></g><!--link AuthSvc to MFA--><g id="link_AuthSvc_MFA"><path d="M817.9542,882.6532 C818.0053,882.8195 818.0567,882.9859 818.1084,883.1523 C818.3154,883.818 818.5277,884.4846 818.7453,885.1516 C819.1805,886.4856 819.6373,887.8213 820.1166,889.1553 C822.0338,894.4916 824.312,899.8019 827.0191,904.8731 C832.4331,915.0156 839.5625,924.2019 848.95,930.7269 C862.82,940.3669 1141.16,926.6169 1152.95,938.7269 C1191.82,978.6369 1169.2863,1045.8572 1152.7063,1082.6272 " fill="none" id="AuthSvc-to-MFA" style="stroke:#181818;stroke-width:1.0;"/><polygon fill="#181818" points="1150.24,1088.0969,1157.5859,1081.5366,1152.2953,1083.5388,1150.2931,1078.2482,1150.24,1088.0969" style="stroke:#181818;stroke-width:1.0;"/><text fill="#000000" font-family="sans-serif" font-size="13" lengthAdjust="spacing" textLength="88" x="1171.11" y="951.7938">Validate TOTP</text><text fill="#000000" font-family="sans-serif" font-size="13" lengthAdjust="spacing" textLength="51" x="1189.61" y="966.9266">[HTTPS]</text></g><!--link DocSvc to DB--><g id="link_DocSvc_DB"><path d="M388.1099,862.8609 C388.1635,863.0122 388.2174,863.1638 388.2715,863.3158 C388.3799,863.6197 388.4895,863.9249 388.6003,864.2313 C388.8219,864.8441 389.0483,865.4619 389.2795,866.0842 C390.2044,868.5732 391.207,871.1341 392.2913,873.7394 C400.965,894.5819 414.86,918.2669 435.95,930.7269 C455.09,942.0269 815.25,930.6169 835.95,938.7269 C855.88,946.5269 851.99,962.9769 871.95,970.7269 C887.26,976.6669 1450.61,967.8869 1462.95,978.7269 C1473.9075,988.3494 1480.6225,1001.2275 1484.5195,1015.1761 C1484.7631,1016.0479 1484.9957,1016.9238 1485.2175,1017.8035 C1485.3285,1018.2433 1484.0405,1012.8487 1484.1461,1013.2903 " fill="none" id="DocSvc-to-DB" style="stroke:#181818;stroke-width:1.0;"/><polygon fill="#181818" points="1485.5424,1019.1256,1487.3381,1009.4418,1484.3788,1014.2628,1479.5578,1011.3035,1485.5424,1019.1256" style="stroke:#181818;stroke-width:1.0;"/><text fill="#000000" font-family="sans-serif" font-size="13" lengthAdjust="spacing" textLength="133" x="872.95" y="951.7938">Read/Write Metadata</text><text fill="#000000" font-family="sans-serif" font-size="13" lengthAdjust="spacing" textLength="63" x="907.95" y="966.9266">[SQL/TLS]</text></g><!--link DocSvc to CryptoSvc--><g id="link_DocSvc_CryptoSvc"><path d="M388.0746,858.8294 C388.1286,858.9707 388.1829,859.1124 388.2375,859.2544 C388.4557,859.8226 388.6785,860.3968 388.9058,860.9766 C389.3605,862.1362 389.8333,863.3183 390.3246,864.5199 C391.3072,866.9232 392.3634,869.4044 393.495,871.9394 C402.5475,892.2194 416.42,915.9419 435.95,930.7269 C440.27,933.9969 621.33,974.6969 624.95,978.7269 C627.3881,981.4369 629.5982,984.3129 631.599,987.3243 C632.5993,988.8301 633.5474,990.3696 634.4456,991.9392 C634.8946,992.7239 632.5176,988.2168 632.9419,989.0161 " fill="none" id="DocSvc-to-CryptoSvc" style="stroke:#181818;stroke-width:1.0;"/><polygon fill="#181818" points="635.7556,994.3155,635.068,984.4907,633.4109,989.8994,628.0022,988.2422,635.7556,994.3155" style="stroke:#181818;stroke-width:1.0;"/><text fill="#000000" font-family="sans-serif" font-size="13" lengthAdjust="spacing" textLength="102" x="597.58" y="951.7938">Encrypt/Decrypt</text><text fill="#000000" font-family="sans-serif" font-size="13" lengthAdjust="spacing" textLength="78" x="609.58" y="966.9266">[HTTP/JSON]</text></g><!--link DocSvc to S3--><g id="link_DocSvc_S3"><path d="M387.9823,862.3478 C388.4074,863.5511 388.8515,864.7759 389.315,866.0186 C390.242,868.5042 391.2466,871.0619 392.3325,873.6644 C401.02,894.4844 414.915,918.1719 435.95,930.7269 C448.98,938.4969 693.93,936.5469 708.95,938.7269 C717.54,939.9669 853.76,972.6369 859.95,978.7269 C935.92,1053.5369 843.64,1140.6769 924.95,1209.6569 C937.22,1220.0669 981.1,1214.8369 996.95,1217.6569 C1070.39,1230.6869 1109.84,1202.3969 1159.95,1257.6569 C1164.8475,1263.0581 1168.8273,1269.1281 1172.0412,1275.6205 C1173.6481,1278.8667 1175.0636,1282.2185 1176.3065,1285.6451 C1176.6172,1286.5018 1176.9172,1287.3631 1177.2066,1288.2286 C1177.3513,1288.6614 1177.4934,1289.0952 1177.633,1289.53 C1177.7027,1289.7474 1175.973,1284.2411 1176.0415,1284.4589 " fill="none" id="DocSvc-to-S3" style="stroke:#181818;stroke-width:1.0;"/><polygon fill="#181818" points="1177.8403,1290.1829,1178.9581,1280.3977,1176.3413,1285.4129,1171.3261,1282.7962,1177.8403,1290.1829" style="stroke:#181818;stroke-width:1.0;"/><text fill="#000000" font-family="sans-serif" font-size="13" lengthAdjust="spacing" textLength="130" x="925.95" y="1108.7538">Store/Retrieve Blobs</text><text fill="#000000" font-family="sans-serif" font-size="13" lengthAdjust="spacing" textLength="78" x="951.95" y="1123.8866">[S3 API/TLS]</text></g><!--link DocSvc to Redis--><g id="link_DocSvc_Redis"><path d="M388.0818,862.8996 C388.1353,863.0511 388.1891,863.2029 388.2432,863.355 C388.3514,863.6592 388.4608,863.9647 388.5714,864.2714 C388.7926,864.8849 389.0186,865.5033 389.2495,866.1261 C390.173,868.6176 391.1744,871.1808 392.2575,873.7881 C400.9225,894.6469 414.82,918.3319 435.95,930.7269 C463.51,946.8869 981.52,926.2969 1010.95,938.7269 C1029.48,946.5469 1024.41,962.9269 1042.95,970.7269 C1062.15,978.7969 1777.22,965.0569 1792.95,978.7269 C1803.9675,988.3019 1810.7738,1001.1563 1814.7742,1015.0959 C1815.7743,1018.5809 1816.5991,1022.1336 1817.2704,1025.7199 C1817.6061,1027.5131 1817.9035,1029.3146 1818.1652,1031.1202 C1818.296,1032.0231 1818.418,1032.9269 1818.5314,1033.8313 C1818.5881,1034.2834 1817.9514,1028.7757 1818.0039,1029.228 " fill="none" id="DocSvc-to-Redis" style="stroke:#181818;stroke-width:1.0;"/><polygon fill="#181818" points="1818.6951,1035.1881,1821.6316,1025.7871,1818.1191,1030.2214,1813.6849,1026.7088,1818.6951,1035.1881" style="stroke:#181818;stroke-width:1.0;"/><text fill="#000000" font-family="sans-serif" font-size="13" lengthAdjust="spacing" textLength="93" x="1047.45" y="951.7938">Cache Queries</text><text fill="#000000" font-family="sans-serif" font-size="13" lengthAdjust="spacing" textLength="100" x="1043.95" y="966.9266">[Redis Protocol]</text></g><!--link CryptoSvc to KMS--><g id="link_CryptoSvc_KMS"><path d="M652.1107,1179.7868 C652.1702,1179.9496 652.23,1180.1123 652.2903,1180.2748 C652.5313,1180.925 652.7788,1181.5729 653.0328,1182.2183 C657.0975,1192.5438 662.8475,1202.2019 670.95,1209.6569 C684.93,1222.5169 695.83,1209.3969 712.95,1217.6569 C718.04,1220.1069 829.7848,1317.187 882.6648,1363.227 " fill="none" id="CryptoSvc-to-KMS" style="stroke:#181818;stroke-width:1.0;"/><polygon fill="#181818" points="887.19,1367.1669,883.0288,1358.2403,883.419,1363.8837,877.7756,1364.2739,887.19,1367.1669" style="stroke:#181818;stroke-width:1.0;"/><text fill="#000000" font-family="sans-serif" font-size="13" lengthAdjust="spacing" textLength="97" x="750.3" y="1230.7238">Key Operations</text><text fill="#000000" font-family="sans-serif" font-size="13" lengthAdjust="spacing" textLength="51" x="773.3" y="1245.8566">[HTTPS]</text></g><!--link CryptoSvc to S3--><g id="link_CryptoSvc_S3"><path d="M651.9571,1182.77 C652.0213,1182.9299 652.086,1183.0896 652.1511,1183.2491 C656.3175,1193.4556 662.33,1202.8069 670.95,1209.6569 C686.97,1222.3869 835.98,1209.9669 854.95,1217.6569 C874.79,1225.6969 871.05,1241.7469 890.95,1249.6569 C904.84,1255.1769 1148.8,1247.6969 1159.95,1257.6569 C1165.3887,1262.5119 1169.7767,1268.17 1173.2902,1274.3601 C1175.0469,1277.4551 1176.585,1280.6832 1177.9264,1284.0103 C1178.5972,1285.6739 1179.2188,1287.3622 1179.794,1289.0711 C1179.8659,1289.2847 1178.0627,1283.799 1178.1331,1284.0132 " fill="none" id="CryptoSvc-to-S3" style="stroke:#181818;stroke-width:1.0;"/><polygon fill="#181818" points="1180.0075,1289.7129,1180.9958,1279.9138,1178.4455,1284.9632,1173.3961,1282.4129,1180.0075,1289.7129" style="stroke:#181818;stroke-width:1.0;"/><text fill="#000000" font-family="sans-serif" font-size="13" lengthAdjust="spacing" textLength="100" x="891.95" y="1230.7238">Write Encrypted</text><text fill="#000000" font-family="sans-serif" font-size="13" lengthAdjust="spacing" textLength="78" x="902.95" y="1245.8566">[S3 API/TLS]</text></g><!--link AuthSvc to AuditSvc--><g id="link_AuthSvc_AuditSvc"><path d="M797.4121,914.7352 C797.3025,915.0599 797.1919,915.3841 797.0804,915.7078 C795.2958,920.8872 793.2638,925.9381 790.95,930.7269 C778.74,955.9869 761.61,953.2069 749.95,978.7269 C724.64,1034.1069 734.19,1194.2369 708.95,1249.6569 C692.29,1286.2269 663.2025,1320.7044 637.9563,1346.2894 C625.3331,1359.0819 613.6703,1369.6513 605.0014,1377.1475 C602.8342,1379.0216 600.8541,1380.7036 599.0929,1382.1802 C598.8727,1382.3648 598.656,1382.5461 598.4427,1382.7243 C598.3361,1382.8134 602.8386,1379.0592 602.7337,1379.1466 " fill="none" id="AuthSvc-to-AuditSvc" style="stroke:#181818;stroke-width:1.0;"/><polygon fill="#181818" points="598.1255,1382.9891,607.5994,1380.2975,601.9657,1379.787,602.4762,1374.1533,598.1255,1382.9891" style="stroke:#181818;stroke-width:1.0;"/><text fill="#000000" font-family="sans-serif" font-size="13" lengthAdjust="spacing" textLength="104" x="750.95" y="1108.7538">Log Auth Events</text><text fill="#000000" font-family="sans-serif" font-size="13" lengthAdjust="spacing" textLength="78" x="763.95" y="1123.8866">[HTTP/JSON]</text></g><!--link DocSvc to AuditSvc--><g id="link_DocSvc_AuditSvc"><path d="M368.7155,915.1358 C368.588,915.4569 368.4592,915.7772 368.3289,916.0968 C366.245,921.2105 363.805,926.1381 360.95,930.7269 C342.35,960.6069 313.57,947.1769 297.95,978.7269 C252.4,1070.6969 231.96,1131.0469 297.95,1209.6569 C377.16,1304.0069 485.2,1169.1969 570.95,1257.6569 C573.4875,1260.2744 575.7847,1263.0693 577.8615,1266.0099 C578.8999,1267.4802 579.8833,1268.9869 580.814,1270.5261 C581.2794,1271.2957 581.7316,1272.0734 582.171,1272.8587 C582.2808,1273.055 579.5036,1267.9917 579.6118,1268.189 " fill="none" id="DocSvc-to-AuditSvc" style="stroke:#181818;stroke-width:1.0;"/><polygon fill="#181818" points="582.4981,1273.4491,581.6754,1263.6347,580.0929,1269.0657,574.6619,1267.4831,582.4981,1273.4491" style="stroke:#181818;stroke-width:1.0;"/><text fill="#000000" font-family="sans-serif" font-size="13" lengthAdjust="spacing" textLength="99" x="298.95" y="1108.7538">Log Doc Events</text><text fill="#000000" font-family="sans-serif" font-size="13" lengthAdjust="spacing" textLength="78" x="309.45" y="1123.8866">[HTTP/JSON]</text></g><!--link CryptoSvc to AuditSvc--><g id="link_CryptoSvc_AuditSvc"><path d="M635.9026,1194.0574 C635.7524,1194.3588 635.6002,1194.659 635.4459,1194.958 C635.1373,1195.556 634.8204,1196.1492 634.495,1196.7371 C631.8916,1201.4406 628.7438,1205.8094 624.95,1209.6569 C612.83,1221.9469 597.82,1204.2469 586.95,1217.6569 C581.0225,1224.9594 578.1938,1239.0819 577.2977,1256.2255 C577.0736,1260.5114 576.9704,1264.9861 576.9697,1269.5903 C576.9696,1270.7413 576.9122,1265.9008 576.9245,1267.0671 " fill="none" id="CryptoSvc-to-AuditSvc" style="stroke:#181818;stroke-width:1.0;"/><polygon fill="#181818" points="576.9882,1273.0667,580.8925,1264.0248,576.9352,1268.067,572.893,1264.1097,576.9882,1273.0667" style="stroke:#181818;stroke-width:1.0;"/><text fill="#000000" font-family="sans-serif" font-size="13" lengthAdjust="spacing" textLength="116" x="587.95" y="1230.7238">Log Crypto Events</text><text fill="#000000" font-family="sans-serif" font-size="13" lengthAdjust="spacing" textLength="78" x="606.95" y="1245.8566">[HTTP/JSON]</text></g><!--link AuditSvc to AuditDB--><g id="link_AuditSvc_AuditDB"><path d="M589.95,1473.2264 C589.95,1474.2262 589.95,1475.2309 589.95,1476.2403 C589.95,1478.259 589.95,1480.2964 589.95,1482.3503 C589.95,1498.7816 589.95,1516.2719 589.95,1533.7619 C589.95,1542.5069 589.95,1551.2518 589.95,1559.8642 C589.95,1564.1704 589.95,1568.4435 589.95,1572.6669 C589.95,1573.7228 589.95,1568.7755 589.95,1569.8249 " fill="none" id="AuditSvc-to-AuditDB" style="stroke:#181818;stroke-width:1.0;"/><polygon fill="#181818" points="589.95,1575.8249,593.95,1566.8249,589.95,1570.8249,585.95,1566.8249,589.95,1575.8249" style="stroke:#181818;stroke-width:1.0;"/><text fill="#000000" font-family="sans-serif" font-size="13" lengthAdjust="spacing" textLength="66" x="590.95" y="1533.6538">Write Logs</text><text fill="#000000" font-family="sans-serif" font-size="13" lengthAdjust="spacing" textLength="63" x="592.45" y="1548.7866">[SQL/TLS]</text></g><!--link Gateway to GMN63--><g id="link_Gateway_GMN63"><path d="M652.0062,548.9571 C652.1541,548.9897 652.3039,549.0229 652.4555,549.0566 C657.3089,550.1341 664.0747,551.7133 672.3256,553.8359 C688.8275,558.0813 711.27,564.5006 736.235,573.4294 C786.165,591.2869 846.185,619.1819 888.95,659.7969 C922.18,691.3569 945.5,737.9169 960.07,774.6269 " fill="none" id="Gateway-GMN63" style="stroke:#181818;stroke-width:1.0;stroke-dasharray:7.0,7.0;"/></g><!--SRC=[jLTVRnf747-_Jp753p6M4AdjLX4FbG0Jnmcs2KTYLS4Fop71Mo-xT7SFbrQH-bdwqVf9Ehkt2tSOOlV1aYLW_izlPdR6FqpnAvS8mrvtrBuwx_SW4yoO9B7S2eJkALogAGfeG5T9oqXKmnbdCytcSDZ79R6Ewqdo2df_MDII2VXaK2SBr4P9gBaVDM36K-6WpsTtzbmZIgVoLfD9bDEDQPDep2oJCt9Tky49TBHwY2R2zs2b8tA4lnA0JCqNIgAqK4kvrnom6OvbUx4GF6EMApcMXqDacQrxE-cWdNnBofukrOJJvnakUOPU9b3skxeYmqiCSjuP79whyBjUia4Sv-qLT5XslvNiWaWKAmMEMQuf09NbSsV-Cyk5ZHerxvl-IX6t1nTmpYm-iDLOhYrwju4SOlyLXL0Fta8bVehrtMWqW1Jr4ZK19D4sxwnTr6jUL2gBe9q5_nDWeBHjmPlNRrx38PT5hUk1Ttfw0eSO6s396VGxaHS-XcZ8jU442RSSJIlG__tx7nZrKo3TEPU-MYNEa781mUUa8cTbElwUex6WLRx5QUVsZX8CXOVi3hDxptRGkwJenxV7S5QqnjAXGgq0LMITLBhCocsy4zYWJQ2cbX8GQCoJgFxuVBZyAB5An2Nk-viHp912tcPSlct3aWa-tMQa59_3QiuaDQFhlwS1Yvsw3ohYlnHInyz7QZrFtU6dinBzCmtVZemBvi1rOe68xnvJWOhfx0xK8i1hdaQg9pEzMdolhRgEhruAhfFdmzNkfOtZdtvkd7SlAQSOTadW0wvsO-OOMjdjpYeo-rzmjVCfj_i7a9Wl1TJfyu6wcCzpooOKhr2pMVK1wgiPzGt5N2L_p56lA7MInZ925BRWJ5Ag6XSKoWw8_FOuOvP1QfLs-wAqGcYQsOGPGcwWZ9rfJ3_sn_8iK8jPx0IykgGjF5uc6FBxsTJAb3WpLUfcA8XE0MtSNaz-e-h5q1pY9mrN32hu96x2z6H_164-S4fHnt7j23NPzkDh3p4nyaEBbM1gN4kngc-wutl9hij6-zfRerfjkndYbDD8CXfzRxJuVN2jgJ-nQYwycrMWtFFR4RIu1JUsLjHkVHgbAsDnRf9Cg7nAATsayE4ozNxe4mxEDLj5vkYQjlD0goMVXkvt3tWXGZRz4hXmUvZk6ZzQdj9e_1Blf0sXE4II91vGZXQlX1QuKwBBX31Z-SMT16bps4j7jqauWPudJ175aQq45JMTbRW-M_vRtE7HKlDzUdrrMr48IwJbli3r-X7Phx1-7rf-3DtCqUHMvPCOXlVG8L4w3QVD6ytfOV3ZGF8qH4swIcuhmaKhjDRxSjtoNmeE5SkgJ8cgbgjQYmuwltWHN5aZTXHCI75NB9TecUlBSZWbyStMQ46OeUOP-izgmYKTciEM3nkRGxI43LsmVjQSZnDNt4TkOj9-8ag8RgUSRE9nQgwTMtujFAeRsQ_A-gYAd4kFGIMW2g9RLVRDr5kw9sjlubighfzsQLJZsb8AosoNNh8MNUlvQXP9kLUcNCJ4xw29ibRDGNsDqqMloD5HwPyiN0YrSizXw-Y8U3qg09WmOpgNnZq9Z2WBHlYY_-yawXvIWlUew_30xPrRNCNDR5Ikit1Fcq1zXqmGVkjB9zpGgg5fDfcsKKnf_gUpBy1arCkqs-AE-Wy0]--></g></svg>