<svg xmlns="http://www.w3.org/2000/svg" xmlns:xlink="http://www.w3.org/1999/xlink" contentStyleType="text/css" height="679px" preserveAspectRatio="none" style="width:1113px;height:679px;background:#FFFFFF;" version="1.1" viewBox="0 0 1113 679" width="1113px" zoomAndPan="magnify"><defs/><g><text fill="#000000" font-family="sans-serif" font-size="14" font-weight="bold" lengthAdjust="spacing" textLength="294" x="402.94" y="22.9951">C4 Model - Context Diagram (Level 1)</text><!--cluster System--><g id="cluster_System"><rect fill="#ADD8E6" height="244.33" rx="2.5" ry="2.5" style="stroke:#181818;stroke-width:1.0;" width="341" x="575" y="275.3569"/><text fill="#000000" font-family="sans-serif" font-size="14" font-weight="bold" lengthAdjust="spacing" textLength="152" x="669.5" y="290.352">Secure Intelligence</text><text fill="#000000" font-family="sans-serif" font-size="14" font-weight="bold" lengthAdjust="spacing" textLength="125" x="683" y="306.6489">Document Vault</text></g><g id="elem_GMN7"><path d="M618,334.3569 L618,495.685 L892,495.685 L892,344.3569 L882,334.3569 L618,334.3569 " fill="#FEFFDD" style="stroke:#181818;stroke-width:0.5;"/><path d="M882,334.3569 L882,344.3569 L892,344.3569 L882,334.3569 " fill="#FEFFDD" style="stroke:#181818;stroke-width:1.0;"/><text fill="#000000" font-family="sans-serif" font-size="13" lengthAdjust="spacing" textLength="225" x="624" y="351.4238">Manages classified documents with</text><text fill="#000000" font-family="sans-serif" font-size="13" lengthAdjust="spacing" textLength="212" x="624" y="366.5566">military-grade encryption, access</text><text fill="#000000" font-family="sans-serif" font-size="13" lengthAdjust="spacing" textLength="253" x="624" y="381.6894">control, and comprehensive audit trails.</text><text fill="#000000" font-family="sans-serif" font-size="13" lengthAdjust="spacing" textLength="4" x="624" y="396.8222">&#160;</text><text fill="#000000" font-family="sans-serif" font-size="13" lengthAdjust="spacing" textLength="87" x="624" y="411.955">Key Features:</text><text fill="#000000" font-family="sans-serif" font-size="13" lengthAdjust="spacing" textLength="173" x="624" y="427.0878">&#8226; AES-256-GCM encryption</text><text fill="#000000" font-family="sans-serif" font-size="13" lengthAdjust="spacing" textLength="190" x="624" y="442.2206">&#8226; RBAC + ABAC authorization</text><text fill="#000000" font-family="sans-serif" font-size="13" lengthAdjust="spacing" textLength="148" x="624" y="457.3535">&#8226; Document versioning</text><text fill="#000000" font-family="sans-serif" font-size="13" lengthAdjust="spacing" textLength="147" x="624" y="472.4863">&#8226; Immutable audit logs</text><text fill="#000000" font-family="sans-serif" font-size="13" lengthAdjust="spacing" textLength="157" x="624" y="487.6191">&#8226; FIPS 140-3 compliance</text></g><!--entity Analyst--><g id="elem_Analyst"><ellipse cx="473" cy="90.6751" fill="#90EE90" rx="15.5982" ry="15.5982" style="stroke:#181818;stroke-width:0.5;"/><rect fill="#90EE90" height="36.2969" rx="15.5982" ry="15.5982" style="stroke:#181818;stroke-width:0.5;" width="152" x="397" y="106.2734"/><text fill="#000000" font-family="sans-serif" font-size="14" lengthAdjust="spacing" textLength="132" x="407" y="129.2685">Intelligence Analyst</text></g><!--entity Admin--><g id="elem_Admin"><ellipse cx="90" cy="90.6776" fill="#FFFFE0" rx="16.3008" ry="16.3008" style="stroke:#181818;stroke-width:0.5;"/><rect fill="#FFFFE0" height="36.2969" rx="16.3008" ry="16.3008" style="stroke:#181818;stroke-width:0.5;" width="166" x="7" y="106.9784"/><text fill="#000000" font-family="sans-serif" font-size="14" lengthAdjust="spacing" textLength="146" x="17" y="129.9735">System Administrator</text></g><!--entity Auditor--><g id="elem_Auditor"><ellipse cx="285" cy="90.6774" fill="#E6E6FA" rx="15.7005" ry="15.7005" style="stroke:#181818;stroke-width:0.5;"/><rect fill="#E6E6FA" height="36.2969" rx="15.7005" ry="15.7005" style="stroke:#181818;stroke-width:0.5;" width="154" x="208" y="106.3779"/><text fill="#000000" font-family="sans-serif" font-size="14" lengthAdjust="spacing" textLength="134" x="218" y="129.373">Compliance Auditor</text></g><!--entity Partner--><g id="elem_Partner"><ellipse cx="906" cy="90.6766" fill="#ADD8E6" rx="14.3697" ry="14.3697" style="stroke:#181818;stroke-width:0.5;"/><rect fill="#ADD8E6" height="36.2969" rx="14.3697" ry="14.3697" style="stroke:#181818;stroke-width:0.5;" width="129" x="841.5" y="105.0463"/><text fill="#000000" font-family="sans-serif" font-size="14" lengthAdjust="spacing" textLength="109" x="851.5" y="128.0415">External Partner</text></g><!--entity KMS--><g id="elem_KMS"><rect fill="#F08080" height="52.5938" rx="2.5" ry="2.5" style="stroke:#181818;stroke-width:0.5;" width="140" x="130" y="620.6869"/><text fill="#000000" font-family="sans-serif" font-size="14" lengthAdjust="spacing" textLength="120" x="140" y="643.682">Key Management</text><text fill="#000000" font-family="sans-serif" font-size="14" lengthAdjust="spacing" textLength="94" x="140" y="659.9789">Service (KMS)</text></g><!--entity IDP--><g id="elem_IDP"><rect fill="#FFFFE0" height="52.5938" rx="2.5" ry="2.5" style="stroke:#181818;stroke-width:0.5;" width="130" x="344" y="620.6869"/><text fill="#000000" font-family="sans-serif" font-size="14" lengthAdjust="spacing" textLength="110" x="354" y="643.682">Identity Provider</text><text fill="#000000" font-family="sans-serif" font-size="14" lengthAdjust="spacing" textLength="73" x="354" y="659.9789">(MFA/SSO)</text></g><!--entity Email--><g id="elem_Email"><rect fill="#90EE90" height="52.5938" rx="2.5" ry="2.5" style="stroke:#181818;stroke-width:0.5;" width="91" x="537.5" y="620.6869"/><text fill="#000000" font-family="sans-serif" font-size="14" lengthAdjust="spacing" textLength="71" x="547.5" y="643.682">Email/SMS</text><text fill="#000000" font-family="sans-serif" font-size="14" lengthAdjust="spacing" textLength="59" x="547.5" y="659.9789">Gateway</text></g><!--entity SIEM--><g id="elem_SIEM"><rect fill="#FFA500" height="52.5938" rx="2.5" ry="2.5" style="stroke:#181818;stroke-width:0.5;" width="162" x="669" y="620.6869"/><text fill="#000000" font-family="sans-serif" font-size="14" lengthAdjust="spacing" textLength="88" x="679" y="643.682">SIEM System</text><text fill="#000000" font-family="sans-serif" font-size="14" lengthAdjust="spacing" textLength="142" x="679" y="659.9789">(Security Monitoring)</text></g><!--entity BackupStore--><g id="elem_BackupStore"><rect fill="#808080" height="52.5938" rx="2.5" ry="2.5" style="stroke:#181818;stroke-width:0.5;" width="130" x="887" y="620.6869"/><text fill="#000000" font-family="sans-serif" font-size="14" lengthAdjust="spacing" textLength="110" x="897" y="643.682">Backup Storage</text><text fill="#000000" font-family="sans-serif" font-size="14" lengthAdjust="spacing" textLength="59" x="897" y="659.9789">(Off-site)</text></g><g id="elem_GMN24"><path d="M583.5,43.2969 L583.5,174.3594 L806.5,174.3594 L806.5,53.2969 L796.5,43.2969 L583.5,43.2969 " fill="#FEFFDD" style="stroke:#181818;stroke-width:0.5;"/><path d="M796.5,43.2969 L796.5,53.2969 L806.5,53.2969 L796.5,43.2969 " fill="#FEFFDD" style="stroke:#181818;stroke-width:1.0;"/><text fill="#000000" font-family="sans-serif" font-size="13" font-weight="bold" lengthAdjust="spacing" textLength="130" x="589.5" y="60.3638">Trust Boundaries:</text><text fill="#000000" font-family="sans-serif" font-size="13" lengthAdjust="spacing" textLength="202" x="589.5" y="75.4966">External users and systems are</text><text fill="#000000" font-family="sans-serif" font-size="13" lengthAdjust="spacing" textLength="177" x="589.5" y="90.6294">in different trust zones than</text><text fill="#000000" font-family="sans-serif" font-size="13" lengthAdjust="spacing" textLength="108" x="589.5" y="105.7622">the core system.</text><text fill="#000000" font-family="sans-serif" font-size="13" lengthAdjust="spacing" textLength="4" x="589.5" y="120.895">&#160;</text><text fill="#000000" font-family="sans-serif" font-size="13" lengthAdjust="spacing" textLength="174" x="589.5" y="136.0278">All external communication</text><text fill="#000000" font-family="sans-serif" font-size="13" lengthAdjust="spacing" textLength="159" x="589.5" y="151.1606">uses TLS 1.3 with mutual</text><text fill="#000000" font-family="sans-serif" font-size="13" lengthAdjust="spacing" textLength="132" x="589.5" y="166.2935">certificate validation.</text></g><!--link Partner to GMN7--><g id="link_Partner_GMN7"><path d="M905.66,141.7569 C904.28,171.3169 899.5,215.9269 884,251.3569 C871.14,280.7469 851.64,309.3569 831.65,334.1869 " fill="none" id="Partner-GMN7" style="stroke:#181818;stroke-width:1.0;stroke-dasharray:7.0,7.0;"/></g><!--link Analyst to System--><g id="link_Analyst_System"><path d="M484.98,142.9569 C499.015,181.7619 522.98,248.0319 543.7,305.3306 C554.06,333.98 563.6088,360.3866 570.6994,379.9958 C571.5857,382.4469 572.4336,384.7919 573.2399,387.0217 C573.6431,388.1366 574.0358,389.2228 574.4177,390.279 C574.6087,390.8072 572.7567,385.6854 572.9422,386.1984 " fill="none" id="Analyst-to-System" style="stroke:#181818;stroke-width:1.0;"/><polygon fill="#181818" points="574.9825,391.8409,575.6837,382.017,573.2823,387.1388,568.1605,384.7374,574.9825,391.8409" style="stroke:#181818;stroke-width:1.0;"/><text fill="#000000" font-family="sans-serif" font-size="13" lengthAdjust="spacing" textLength="123" x="527.91" y="217.4238">Uploads/downloads</text><text fill="#000000" font-family="sans-serif" font-size="13" lengthAdjust="spacing" textLength="134" x="522.41" y="232.5566">classified documents</text><text fill="#000000" font-family="sans-serif" font-size="13" lengthAdjust="spacing" textLength="51" x="563.91" y="247.6894">[HTTPS]</text></g><!--link Admin to System--><g id="link_Admin_System"><path d="M117.93,143.4969 C144.95,174.4969 188.26,220.2469 233,251.3569 C302.315,299.5569 388.185,339.7144 457.5225,368.0694 C492.1913,382.2469 522.7269,393.4738 544.9934,401.28 C556.1267,405.1831 565.1927,408.2311 571.6745,410.3652 C572.4847,410.6319 573.2546,410.8844 573.983,411.1225 C574.1651,411.182 568.6405,409.3797 568.8174,409.4374 " fill="none" id="Admin-to-System" style="stroke:#181818;stroke-width:1.0;"/><polygon fill="#181818" points="574.5216,411.2983,567.206,404.7042,569.7681,409.7476,564.7248,412.3097,574.5216,411.2983" style="stroke:#181818;stroke-width:1.0;"/><text fill="#000000" font-family="sans-serif" font-size="13" lengthAdjust="spacing" textLength="101" x="234" y="217.4238">Manages users,</text><text fill="#000000" font-family="sans-serif" font-size="13" lengthAdjust="spacing" textLength="86" x="241.5" y="232.5566">roles, policies</text><text fill="#000000" font-family="sans-serif" font-size="13" lengthAdjust="spacing" textLength="51" x="259" y="247.6894">[HTTPS]</text></g><!--link Auditor to System--><g id="link_Auditor_System"><path d="M303.09,143.0869 C320.34,173.1669 348.2,217.7569 379,251.3569 C417.565,293.4269 467.5875,333.4894 508.4463,363.3294 C528.8756,378.2494 547.0141,390.6138 560.2839,399.3956 C563.6014,401.5911 566.6145,403.5627 569.2832,405.2943 C570.6175,406.1601 571.8656,406.9659 573.0226,407.7097 C573.6011,408.0816 569.1032,405.2037 569.6355,405.5443 " fill="none" id="Auditor-to-System" style="stroke:#181818;stroke-width:1.0;"/><polygon fill="#181818" points="574.6891,408.7787,569.2649,400.5581,570.4778,406.0834,564.9524,407.2962,574.6891,408.7787" style="stroke:#181818;stroke-width:1.0;"/><text fill="#000000" font-family="sans-serif" font-size="13" lengthAdjust="spacing" textLength="120" x="380" y="217.4238">Reviews audit logs,</text><text fill="#000000" font-family="sans-serif" font-size="13" lengthAdjust="spacing" textLength="115" x="382.5" y="232.5566">generates reports</text><text fill="#000000" font-family="sans-serif" font-size="13" lengthAdjust="spacing" textLength="51" x="414.5" y="247.6894">[HTTPS]</text></g><!--link Partner to System--><g id="link_Partner_System"><path d="M870.54,141.5769 C856.69,152.9269 840.24,165.1669 824,174.3569 C791.31,192.8469 775.82,182.8969 745,204.3569 C722.25,220.1969 728.77,238.9069 704,251.3569 C683.69,261.5669 618.43,243.6369 602,259.3569 C577.375,282.9219 572.3875,320.7569 573.6725,353.1056 C573.8331,357.1492 574.0918,361.1071 574.4223,364.9407 C574.5876,366.8574 574.1324,362.7772 574.3303,364.627 " fill="none" id="Partner-to-System" style="stroke:#181818;stroke-width:1.0;"/><polygon fill="#181818" points="574.9688,370.5929,577.9884,361.2184,574.4367,365.6213,570.0338,362.0697,574.9688,370.5929" style="stroke:#181818;stroke-width:1.0;"/><text fill="#000000" font-family="sans-serif" font-size="13" lengthAdjust="spacing" textLength="108" x="756.5" y="217.4238">Accesses shared</text><text fill="#000000" font-family="sans-serif" font-size="13" lengthAdjust="spacing" textLength="129" x="746" y="232.5566">documents (limited)</text><text fill="#000000" font-family="sans-serif" font-size="13" lengthAdjust="spacing" textLength="51" x="785" y="247.6894">[HTTPS]</text></g><!--link System to KMS--><g id="link_System_KMS"><path d="M574.4654,416.7208 C574.0982,416.755 573.7199,416.7906 573.3307,416.8276 C572.5524,416.9017 571.7304,416.9817 570.866,417.0678 C563.9505,417.7569 554.3195,418.8406 542.5984,420.4769 C519.1563,423.7494 487.3538,429.2319 452.195,438.1869 C381.8775,456.0969 298.135,487.8969 241,543.6869 C219.78,564.3969 210.5167,591.6765 205.4867,614.5865 " fill="none" id="System-to-KMS" style="stroke:#181818;stroke-width:1.0;"/><polygon fill="#181818" points="204.2,620.4469,210.037,612.514,205.2722,615.5632,202.2231,610.7985,204.2,620.4469" style="stroke:#181818;stroke-width:1.0;"/><text fill="#000000" font-family="sans-serif" font-size="13" lengthAdjust="spacing" textLength="167" x="242" y="556.7538">Requests encryption keys,</text><text fill="#000000" font-family="sans-serif" font-size="13" lengthAdjust="spacing" textLength="79" x="286" y="571.8866">rotates keys</text><text fill="#000000" font-family="sans-serif" font-size="13" lengthAdjust="spacing" textLength="33" x="309" y="587.0194">[TLS]</text></g><!--link System to IDP--><g id="link_System_IDP"><path d="M574.7774,420.7481 C574.6617,420.8167 574.5449,420.886 574.427,420.956 C574.1912,421.0961 573.9512,421.239 573.7069,421.3848 C573.2182,421.6763 572.7127,421.9791 572.1907,422.2932 C570.1029,423.5493 567.753,424.9848 565.1769,426.5913 C554.8725,433.0169 540.95,442.1769 525.715,453.5319 C495.245,476.2419 459.525,507.7319 437,543.6869 C422.24,567.2469 416.0576,592.6659 412.7276,614.4259 " fill="none" id="System-to-IDP" style="stroke:#181818;stroke-width:1.0;"/><polygon fill="#181818" points="411.82,620.3569,417.1354,612.0655,412.5764,615.4144,409.2275,610.8554,411.82,620.3569" style="stroke:#181818;stroke-width:1.0;"/><text fill="#000000" font-family="sans-serif" font-size="13" lengthAdjust="spacing" textLength="132" x="438" y="556.7538">Authenticates users,</text><text fill="#000000" font-family="sans-serif" font-size="13" lengthAdjust="spacing" textLength="88" x="460" y="571.8866">validates MFA</text><text fill="#000000" font-family="sans-serif" font-size="13" lengthAdjust="spacing" textLength="33" x="487.5" y="587.0194">[TLS]</text></g><!--link System to Email--><g id="link_System_Email"><path d="M579.695,520.5692 C579.6788,521.7847 579.6634,523.0037 579.6489,524.2257 C579.6199,526.6697 579.5944,529.1258 579.573,531.5906 C579.4012,551.3094 579.4825,571.5869 580,590.6869 C580.26,600.3869 580.4501,605.0565 580.9801,614.3965 " fill="none" id="System-to-Email" style="stroke:#181818;stroke-width:1.0;"/><polygon fill="#181818" points="581.32,620.3869,584.8037,611.1747,581.0367,615.3949,576.8165,611.6279,581.32,620.3869" style="stroke:#181818;stroke-width:1.0;"/><text fill="#000000" font-family="sans-serif" font-size="13" lengthAdjust="spacing" textLength="125" x="581" y="556.7538">Sends notifications,</text><text fill="#000000" font-family="sans-serif" font-size="13" lengthAdjust="spacing" textLength="90" x="598.5" y="571.8866">alerts, reports</text><text fill="#000000" font-family="sans-serif" font-size="13" lengthAdjust="spacing" textLength="33" x="627" y="587.0194">[TLS]</text></g><!--link System to SIEM--><g id="link_System_SIEM"><path d="M589.6537,519.8178 C589.7524,519.9955 589.8517,520.1728 589.9519,520.3497 C593.1555,526.0088 597.1213,531.2019 602,535.6869 C619.88,552.1169 691.52,529.1769 711,543.6869 C735.09,561.6169 743.429,590.4404 746.949,614.4304 " fill="none" id="System-to-SIEM" style="stroke:#181818;stroke-width:1.0;"/><polygon fill="#181818" points="747.82,620.3669,750.4711,610.8815,747.0941,615.4198,742.5558,612.0429,747.82,620.3669" style="stroke:#181818;stroke-width:1.0;"/><text fill="#000000" font-family="sans-serif" font-size="13" lengthAdjust="spacing" textLength="160" x="741.72" y="556.7538">Streams security events,</text><text fill="#000000" font-family="sans-serif" font-size="13" lengthAdjust="spacing" textLength="62" x="790.72" y="571.8866">audit logs</text><text fill="#000000" font-family="sans-serif" font-size="13" lengthAdjust="spacing" textLength="33" x="805.22" y="587.0194">[TLS]</text></g><!--link System to BackupStore--><g id="link_System_BackupStore"><path d="M589.4059,520.0949 C589.5063,520.2707 589.6075,520.446 589.7094,520.6208 C592.9713,526.2148 597.0163,531.3194 602,535.6869 C614.91,546.9969 896.9,533.8769 911,543.6869 C935.97,561.0569 944.8052,590.3801 948.6252,614.6001 " fill="none" id="System-to-BackupStore" style="stroke:#181818;stroke-width:1.0;"/><polygon fill="#181818" points="949.56,620.5269,952.109,611.0136,948.781,615.5879,944.2067,612.26,949.56,620.5269" style="stroke:#181818;stroke-width:1.0;"/><text fill="#000000" font-family="sans-serif" font-size="13" lengthAdjust="spacing" textLength="163" x="942.88" y="556.7538">Backs up encrypted data,</text><text fill="#000000" font-family="sans-serif" font-size="13" lengthAdjust="spacing" textLength="62" x="993.38" y="571.8866">audit logs</text><text fill="#000000" font-family="sans-serif" font-size="13" lengthAdjust="spacing" textLength="33" x="1007.88" y="587.0194">[TLS]</text></g><!--link GMN24 to System--><g id="link_GMN24_System"><path d="M696.96,174.6169 C694.25,202.0369 685.97,232.0469 665,251.3569 C644.24,270.4769 621.92,239.3569 602,259.3569 C577.945,283.5069 572.9675,321.3519 574.115,353.5606 C574.2584,357.5867 574.4976,361.5247 574.8071,365.337 C574.8458,365.8135 574.8856,366.288 574.9265,366.7606 C574.9469,366.9968 574.9676,367.2326 574.9885,367.4678 " fill="none" id="GMN24-System" style="stroke:#181818;stroke-width:1.0;stroke-dasharray:7.0,7.0;"/></g><!--SRC=[RLJ1RkCs4BthAwR9eKaQ9qrtsuCF1Hp7IOsD6oDo2nHr3rnfR1DBaIf9sUij2lHR-cdx9Vj8IexS1WWSYZDlEFFcpNnLyafgfkV9U37w-U5nGeKIpcMPbrunZT_Ip9IiQ41Zepr_z7GdnTgAYiuUUGl3pNcMVKsJZvwj5ehcR9tHmcLrFD3952Ybv9frmJI2ozxv4nAkEzFfernl_8DbrWTG3WDND2ehgQNpLdXZ4oZSj93V4DVi3fYngMebHNocAUK1aSx0Y2thakq1y9Api5vpSc_FxHEtgk5GtapWrPHKPhdmGgz1padEHMEP-YKkzPqfcegrfrz5erAfRJalCUclZ4WRp_JUU6ygV14UqMBDBZL0hYINLBQn7EsatqIlIYhfXTqFq8II2M_QVUsbqPSaYeBHkk1Le5dMADpf4XzLRNd3siajamY443YLobr5v_ZpZlTqpyAZ83UCDv__-PT6atpmtVS_31x6izvJ1_FpxMXCtz0e_1EDtnWhFuaZZmCRMx0EWzJhWsrQLOqNxrMNap9hTp3UJ-SvtRpzTl0cvfyw2ojw69dB_ZxINQBOzRiJAagSXWIMEcUxbL37sRjPVXxxWaFRbB6nGlN1qn8OwVSqjsOh8PkbFflTZwxp_2bXftVpOntsm9CAv5xditof7uJddTX7IBm-qdjVIzF9hAq2JqLbXUTde0po1MtfsUXs-cI1uZxyLXGVcffo-A9WH7XQhGPEUawmP0vMfjC7A_Q1l6TMiLbk8skNTVCu6FpO2NP8lzJAYD9TbsQduscfNvFdKl_-qs8np__8iZIXHq4wOJSE6hXSQWYJtINLHib2yX6u7TOZ-3Dl9UzSJoI8WM5Zh0L4jLmRUvH2DyD7KKPnEE3lDi9okTGlitMcP0McolDUZ1ONGWILX2p-RDZ1-sKCw0FlKpq-PX8-4MBn-9y0GIf80FCHD5L4tuwBhL2oZ3TGrslW99eXvH2-2ye7zKLg6-12CMg_x97mlm1HCS1xow92-PsoiBrHV8XnuFKrU5yvm_Y5vEkEXI02uSNhKUA2ywOci-gM9z75nS8saDcjQNGfBFe_lBZ0_M6I8pDnRxaqquH-mG6gAkLgnJPi4nzZV38QnFcD2Fi6x69J8Ci42wiDVoEbYBlGM2HLerlwO6o27f0htLozYHkMi90QB08iKF2Qc6PgUmJCLTQjdoy0]--></g></svg>