<svg xmlns="http://www.w3.org/2000/svg" xmlns:xlink="http://www.w3.org/1999/xlink" contentStyleType="text/css" height="2031px" preserveAspectRatio="none" style="width:5956px;height:2031px;background:#FFFFFF;" version="1.1" viewBox="0 0 5956 2031" width="5956px" zoomAndPan="magnify"><defs/><g><text fill="#000000" font-family="sans-serif" font-size="14" font-weight="bold" lengthAdjust="spacing" textLength="404" x="2769.1793" y="22.9951">Deployment Architecture - Production Environment</text><!--cluster Cloud--><g id="cluster_Cloud"><path d="M268.2683,286.7741 C382.9929,80.1073 539.7791,87.9173 652.7545,288.4259 C745.6665,101.0017 879.0814,65.0955 1014.7565,246.4484 C1125.4024,96.9502 1269.7622,93.6094 1370.1177,258.0949 C1490.7375,76.9467 1621.829,80.9545 1731.576,268.7473 C1866.9412,107.702 2041.1707,97.8917 2153.5136,295.8086 C2231.0757,85.5293 2407.0535,92.8173 2528.2269,251.52 C2611.5809,95.6134 2760.9037,74.0352 2859.133,236.0365 C3013.5053,44.6589 3142.2494,113.0159 3242.1718,292.304 C3316.8275,110.3858 3501.129,100.8871 3611.0043,253.4695 C3707.1972,53.7789 3872.5577,70.4437 3981.9893,240.1746 C4120.9021,43.2969 4274.8742,54.2183 4377.5078,274.5663 C4492.5814,94.2461 4667.7097,113.2186 4777.182,280.9974 C4889.7201,122.1708 5026.9899,125.4825 5131.0803,290.2364 C5201.1111,85.8673 5367.8022,63.3647 5487.3585,244.4609 C5493.3827,240.0373 5499.4341,240.6046 5501.4459,248.9036 C5733.1676,355.3041 5735.0755,541.8524 5524.1177,671.9753 C5691.2059,779.4577 5708.6422,921.6191 5533.0923,1037.5138 C5710.7592,1145.6873 5676.9414,1270.3445 5528.601,1374.1688 C5696.2833,1526.7508 5655.1466,1646.6084 5480.3585,1755.9109 C5496.53,1754.4335 5506.8929,1765.8294 5500.8543,1781.8806 C5387.0468,1968.6146 5245.1307,1949.4159 5115.5949,1799.9015 C5033.9058,1979.6121 4897.6605,1962.9103 4791.7624,1824.5489 C4655.1355,2012.6016 4495.6746,1954.1854 4397.8774,1782.0827 C4287.7368,1933.7667 4139.2665,1956.3882 4033.943,1776.7908 C3946.1,1988.3295 3761.2894,1974.1959 3649.5229,1800.6746 C3554.2909,1960.0296 3379.8675,2009.7284 3274.7613,1811.009 C3193.0357,1971.6631 3016.4705,1994.9467 2915.4699,1832.439 C2769.741,1993.004 2630.8247,2003.2738 2522.9464,1792.436 C2420.2336,2010.8098 2230.8532,2024.1315 2106.1534,1813.8126 C2008.9568,1999.7958 1865.7579,1977.2961 1757.8596,1824.8254 C1599.6395,1994.3542 1470.7661,1987.9753 1368.5679,1768.7291 C1268.7404,1970.9916 1124.6329,1956.9311 986.7754,1810.3512 C843.0085,1966.8239 705.3245,1962.7008 605.0346,1763.6659 C461.4494,1959.4439 346.268,1913.3778 216.3585,1748.9109 C248.7952,1759.0545 260.9589,1788.5653 230.553,1812.6941 C60.5589,1703.0868 9.7979,1541.2512 219.2276,1420.6822 C29.0758,1284.7457 45.1731,1173.1795 238.2446,1057.2982 C56.853,954.1694 54.1959,765.9029 243.3573,667.6362 C6,545.1161 41.6951,379.4612 223.3585,237.4609 C255.3913,231.9459 280.0266,252.4083 268.2683,286.7741 " fill="none" style="stroke:#181818;stroke-width:1.0;"/><text fill="#000000" font-family="sans-serif" font-size="14" font-weight="bold" lengthAdjust="spacing" textLength="210" x="2746.8585" y="255.456">AWS Cloud (or Azure/GCP)</text></g><!--cluster Availability Zone 1 (us-east-1a)--><g id="cluster_Availability Zone 1 (us-east-1a)"><path d="M2983.8585,280.4609 L3229.8585,280.4609 A3.75,3.75 0 0 1 3232.3585,282.9609 L3239.3585,302.7578 L4452.8585,302.7578 A2.5,2.5 0 0 1 4455.3585,305.2578 L4455.3585,1253.1809 A2.5,2.5 0 0 1 4452.8585,1255.6809 L2983.8585,1255.6809 A2.5,2.5 0 0 1 2981.3585,1253.1809 L2981.3585,282.9609 A2.5,2.5 0 0 1 2983.8585,280.4609 " fill="none" style="stroke:#000000;stroke-width:1.5;"/><line style="stroke:#000000;stroke-width:1.5;" x1="2981.3585" x2="3239.3585" y1="302.7578" y2="302.7578"/><text fill="#000000" font-family="sans-serif" font-size="14" font-weight="bold" lengthAdjust="spacing" textLength="245" x="2985.3585" y="295.456">Availability Zone 1 (us-east-1a)</text></g><!--cluster ALB1--><g id="cluster_ALB1"><polygon fill="#ADD8E6" points="3013.3585,341.4609,3023.3585,331.4609,3405.3585,331.4609,3405.3585,774.4409,3395.3585,784.4409,3013.3585,784.4409,3013.3585,341.4609" style="stroke:#181818;stroke-width:1.0;"/><line style="stroke:#181818;stroke-width:1.0;" x1="3395.3585" x2="3405.3585" y1="341.4609" y2="331.4609"/><line style="stroke:#181818;stroke-width:1.0;" x1="3013.3585" x2="3395.3585" y1="341.4609" y2="341.4609"/><line style="stroke:#181818;stroke-width:1.0;" x1="3395.3585" x2="3395.3585" y1="341.4609" y2="784.4409"/><text fill="#000000" font-family="sans-serif" font-size="14" font-weight="bold" lengthAdjust="spacing" textLength="130" x="3140.3585" y="357.456">Application Load</text><text fill="#000000" font-family="sans-serif" font-size="14" font-weight="bold" lengthAdjust="spacing" textLength="115" x="3147.8585" y="373.7529">Balancer (ALB)</text></g><!--cluster App1--><g id="cluster_App1"><polygon fill="#90EE90" points="3445.3585,577.7609,3455.3585,567.7609,4423.3585,567.7609,4423.3585,816.8209,4413.3585,826.8209,3445.3585,826.8209,3445.3585,577.7609" style="stroke:#181818;stroke-width:1.0;"/><line style="stroke:#181818;stroke-width:1.0;" x1="4413.3585" x2="4423.3585" y1="577.7609" y2="567.7609"/><line style="stroke:#181818;stroke-width:1.0;" x1="3445.3585" x2="4413.3585" y1="577.7609" y2="577.7609"/><line style="stroke:#181818;stroke-width:1.0;" x1="4413.3585" x2="4413.3585" y1="577.7609" y2="826.8209"/><text fill="#000000" font-family="sans-serif" font-size="14" font-weight="bold" lengthAdjust="spacing" textLength="160" x="3850.3585" y="593.756">Application Server 1</text><text fill="#000000" font-family="sans-serif" font-size="14" font-weight="bold" lengthAdjust="spacing" textLength="108" x="3876.3585" y="610.0529">(EC2 t3.large)</text></g><!--cluster DB1--><g id="cluster_DB1"><polygon fill="#F08080" points="3898.3585,929.2209,3908.3585,919.2209,4268.3585,919.2209,4268.3585,1213.6809,4258.3585,1223.6809,3898.3585,1223.6809,3898.3585,929.2209" style="stroke:#181818;stroke-width:1.0;"/><line style="stroke:#181818;stroke-width:1.0;" x1="4258.3585" x2="4268.3585" y1="929.2209" y2="919.2209"/><line style="stroke:#181818;stroke-width:1.0;" x1="3898.3585" x2="4258.3585" y1="929.2209" y2="929.2209"/><line style="stroke:#181818;stroke-width:1.0;" x1="4258.3585" x2="4258.3585" y1="929.2209" y2="1223.6809"/><text fill="#000000" font-family="sans-serif" font-size="14" font-weight="bold" lengthAdjust="spacing" textLength="158" x="4000.3585" y="945.216">PostgreSQL Primary</text><text fill="#000000" font-family="sans-serif" font-size="14" font-weight="bold" lengthAdjust="spacing" textLength="144" x="4007.3585" y="961.5129">(RDS db.r5.xlarge)</text></g><!--cluster S31--><g id="cluster_S31"><rect fill="#FFA500" height="188.59" rx="35" ry="35" style="stroke:#181818;stroke-width:1.0;" width="398" x="3444.3585" y="982.1609"/><text fill="#000000" font-family="sans-serif" font-size="14" font-weight="bold" lengthAdjust="spacing" textLength="94" x="3596.3585" y="1002.156">S3 Bucket 1</text><text fill="#000000" font-family="sans-serif" font-size="14" font-weight="bold" lengthAdjust="spacing" textLength="131" x="3577.8585" y="1018.4529">(Primary Region)</text></g><!--cluster Availability Zone 2 (us-east-1b)--><g id="cluster_Availability Zone 2 (us-east-1b)"><path d="M4594.8585,652.0009 L4841.8585,652.0009 A3.75,3.75 0 0 1 4844.3585,654.5009 L4851.3585,674.2978 L5452.8585,674.2978 A2.5,2.5 0 0 1 5455.3585,676.7978 L5455.3585,1540.7509 A2.5,2.5 0 0 1 5452.8585,1543.2509 L4594.8585,1543.2509 A2.5,2.5 0 0 1 4592.3585,1540.7509 L4592.3585,654.5009 A2.5,2.5 0 0 1 4594.8585,652.0009 " fill="none" style="stroke:#000000;stroke-width:1.5;"/><line style="stroke:#000000;stroke-width:1.5;" x1="4592.3585" x2="4851.3585" y1="674.2978" y2="674.2978"/><text fill="#000000" font-family="sans-serif" font-size="14" font-weight="bold" lengthAdjust="spacing" textLength="246" x="4596.3585" y="666.996">Availability Zone 2 (us-east-1b)</text></g><!--cluster App2--><g id="cluster_App2"><polygon fill="#90EE90" points="4624.3585,989.6609,4634.3585,979.6609,5423.3585,979.6609,5423.3585,1153.2509,5413.3585,1163.2509,4624.3585,1163.2509,4624.3585,989.6609" style="stroke:#181818;stroke-width:1.0;"/><line style="stroke:#181818;stroke-width:1.0;" x1="5413.3585" x2="5423.3585" y1="989.6609" y2="979.6609"/><line style="stroke:#181818;stroke-width:1.0;" x1="4624.3585" x2="5413.3585" y1="989.6609" y2="989.6609"/><line style="stroke:#181818;stroke-width:1.0;" x1="5413.3585" x2="5413.3585" y1="989.6609" y2="1163.2509"/><text fill="#000000" font-family="sans-serif" font-size="14" font-weight="bold" lengthAdjust="spacing" textLength="160" x="4939.8585" y="1005.656">Application Server 2</text><text fill="#000000" font-family="sans-serif" font-size="14" font-weight="bold" lengthAdjust="spacing" textLength="108" x="4965.8585" y="1021.9529">(EC2 t3.large)</text></g><!--cluster DB2--><g id="cluster_DB2"><polygon fill="#F08080" points="4624.3585,1322.6809,4634.3585,1312.6809,5032.3585,1312.6809,5032.3585,1501.2109,5022.3585,1511.2109,4624.3585,1511.2109,4624.3585,1322.6809" style="stroke:#181818;stroke-width:1.0;"/><line style="stroke:#181818;stroke-width:1.0;" x1="5022.3585" x2="5032.3585" y1="1322.6809" y2="1312.6809"/><line style="stroke:#181818;stroke-width:1.0;" x1="4624.3585" x2="5022.3585" y1="1322.6809" y2="1322.6809"/><line style="stroke:#181818;stroke-width:1.0;" x1="5022.3585" x2="5022.3585" y1="1322.6809" y2="1511.2109"/><text fill="#000000" font-family="sans-serif" font-size="14" font-weight="bold" lengthAdjust="spacing" textLength="162" x="4743.3585" y="1338.676">PostgreSQL Standby</text><text fill="#000000" font-family="sans-serif" font-size="14" font-weight="bold" lengthAdjust="spacing" textLength="144" x="4752.3585" y="1354.9729">(RDS db.r5.xlarge)</text></g><!--cluster S32--><g id="cluster_S32"><rect fill="#FFA500" height="188.6" rx="35" ry="35" style="stroke:#181818;stroke-width:1.0;" width="179" x="5130.3585" y="1322.6509"/><text fill="#000000" font-family="sans-serif" font-size="14" font-weight="bold" lengthAdjust="spacing" textLength="94" x="5172.8585" y="1342.646">S3 Bucket 2</text><text fill="#000000" font-family="sans-serif" font-size="14" font-weight="bold" lengthAdjust="spacing" textLength="155" x="5142.3585" y="1358.9429">(Secondary Region)</text></g><!--cluster Shared Infrastructure (Multi-AZ)--><g id="cluster_Shared Infrastructure (Multi-AZ)"><path d="M390.8585,925.1609 L644.8585,925.1609 A3.75,3.75 0 0 1 647.3585,927.6609 L654.3585,947.4578 L2954.8585,947.4578 A2.5,2.5 0 0 1 2957.3585,949.9578 L2957.3585,1729.4109 A2.5,2.5 0 0 1 2954.8585,1731.9109 L390.8585,1731.9109 A2.5,2.5 0 0 1 388.3585,1729.4109 L388.3585,927.6609 A2.5,2.5 0 0 1 390.8585,925.1609 " fill="none" style="stroke:#000000;stroke-width:1.5;"/><line style="stroke:#000000;stroke-width:1.5;" x1="388.3585" x2="654.3585" y1="947.4578" y2="947.4578"/><text fill="#000000" font-family="sans-serif" font-size="14" font-weight="bold" lengthAdjust="spacing" textLength="253" x="392.3585" y="940.156">Shared Infrastructure (Multi-AZ)</text></g><!--cluster Redis--><g id="cluster_Redis"><polygon fill="#FFA500" points="1747.3585,1334.8009,1757.3585,1324.8009,2302.3585,1324.8009,2302.3585,1689.9109,2292.3585,1699.9109,1747.3585,1699.9109,1747.3585,1334.8009" style="stroke:#181818;stroke-width:1.0;"/><line style="stroke:#181818;stroke-width:1.0;" x1="2292.3585" x2="2302.3585" y1="1334.8009" y2="1324.8009"/><line style="stroke:#181818;stroke-width:1.0;" x1="1747.3585" x2="2292.3585" y1="1334.8009" y2="1334.8009"/><line style="stroke:#181818;stroke-width:1.0;" x1="2292.3585" x2="2292.3585" y1="1334.8009" y2="1699.9109"/><text fill="#000000" font-family="sans-serif" font-size="14" font-weight="bold" lengthAdjust="spacing" textLength="105" x="1968.3585" y="1350.796">Redis Cluster</text><text fill="#000000" font-family="sans-serif" font-size="14" font-weight="bold" lengthAdjust="spacing" textLength="102" x="1969.8585" y="1367.0929">(ElastiCache)</text></g><!--cluster AuditDB--><g id="cluster_AuditDB"><polygon fill="#800080" points="870.3585,986.6609,880.3585,976.6609,1108.3585,976.6609,1108.3585,1508.7809,1098.3585,1518.7809,870.3585,1518.7809,870.3585,986.6609" style="stroke:#181818;stroke-width:1.0;"/><line style="stroke:#181818;stroke-width:1.0;" x1="1098.3585" x2="1108.3585" y1="986.6609" y2="976.6609"/><line style="stroke:#181818;stroke-width:1.0;" x1="870.3585" x2="1098.3585" y1="986.6609" y2="986.6609"/><line style="stroke:#181818;stroke-width:1.0;" x1="1098.3585" x2="1098.3585" y1="986.6609" y2="1518.7809"/><text fill="#000000" font-family="sans-serif" font-size="14" font-weight="bold" lengthAdjust="spacing" textLength="119" x="925.8585" y="1002.656">Audit Database</text><text fill="#000000" font-family="sans-serif" font-size="14" font-weight="bold" lengthAdjust="spacing" textLength="127" x="921.8585" y="1018.9529">(Dedicated RDS)</text></g><!--cluster KMS--><g id="cluster_KMS"><polygon fill="#808080" points="420.3585,986.1609,430.3585,976.1609,830.3585,976.1609,830.3585,1501.2109,820.3585,1511.2109,420.3585,1511.2109,420.3585,986.1609" style="stroke:#181818;stroke-width:1.0;"/><line style="stroke:#181818;stroke-width:1.0;" x1="820.3585" x2="830.3585" y1="986.1609" y2="976.1609"/><line style="stroke:#181818;stroke-width:1.0;" x1="420.3585" x2="820.3585" y1="986.1609" y2="986.1609"/><line style="stroke:#181818;stroke-width:1.0;" x1="820.3585" x2="820.3585" y1="986.1609" y2="1511.2109"/><text fill="#000000" font-family="sans-serif" font-size="14" font-weight="bold" lengthAdjust="spacing" textLength="177" x="532.8585" y="1002.156">AWS Key Management</text><text fill="#000000" font-family="sans-serif" font-size="14" font-weight="bold" lengthAdjust="spacing" textLength="110" x="566.3585" y="1018.4529">Service (KMS)</text></g><!--cluster Monitor--><g id="cluster_Monitor"><polygon fill="#E6E6FA" points="1148.3585,1018.1609,1158.3585,1008.1609,1707.3585,1008.1609,1707.3585,1516.3509,1697.3585,1526.3509,1148.3585,1526.3509,1148.3585,1018.1609" style="stroke:#181818;stroke-width:1.0;"/><line style="stroke:#181818;stroke-width:1.0;" x1="1697.3585" x2="1707.3585" y1="1018.1609" y2="1008.1609"/><line style="stroke:#181818;stroke-width:1.0;" x1="1148.3585" x2="1697.3585" y1="1018.1609" y2="1018.1609"/><line style="stroke:#181818;stroke-width:1.0;" x1="1697.3585" x2="1697.3585" y1="1018.1609" y2="1526.3509"/><text fill="#000000" font-family="sans-serif" font-size="14" font-weight="bold" lengthAdjust="spacing" textLength="132" x="1357.8585" y="1034.156">Monitoring Stack</text></g><!--cluster WAF--><g id="cluster_WAF"><polygon fill="#FFFF00" points="2342.3585,1026.3009,2352.3585,1016.3009,2925.3585,1016.3009,2925.3585,1501.2109,2915.3585,1511.2109,2342.3585,1511.2109,2342.3585,1026.3009" style="stroke:#181818;stroke-width:1.0;"/><line style="stroke:#181818;stroke-width:1.0;" x1="2915.3585" x2="2925.3585" y1="1026.3009" y2="1016.3009"/><line style="stroke:#181818;stroke-width:1.0;" x1="2342.3585" x2="2915.3585" y1="1026.3009" y2="1026.3009"/><line style="stroke:#181818;stroke-width:1.0;" x1="2915.3585" x2="2915.3585" y1="1026.3009" y2="1511.2109"/><text fill="#000000" font-family="sans-serif" font-size="14" font-weight="bold" lengthAdjust="spacing" textLength="76" x="2591.8585" y="1042.296">AWS WAF</text></g><!--cluster Internet--><g id="cluster_Internet"><path d="M87.1302,369.5204 C93.7898,350.0705 104.2304,346.8291 121.4217,357.5505 C138.934,338.5371 156.5689,343.6938 162.2742,368.5463 C176.8337,376.1087 174.0546,389.5333 161.096,395.9107 C173.8592,405.4075 174.6521,414.4507 161.0676,423.9208 C172.7513,430.5223 171.115,439.7894 161.8499,447.098 C174.6854,454.3659 174.4002,465.0633 162.652,473.0898 C175.9044,481.3767 178.2102,490.9093 164.613,501.0775 C177.9055,510.7676 175.1702,520.6311 161.6717,527.3182 C176.247,533.1341 179.2634,544.2792 166.2845,554.7316 C176.6986,564.3932 177.5981,577.0461 162.0743,582.8198 C172.8413,590.8017 174.4842,598.8945 162.6198,607.379 C176.5825,617.1314 174.7321,626.7904 161.2694,635.2122 C172.6638,640.5687 175.0498,652.0589 164.3735,660.1614 C176.0082,670.0209 175.3497,679.004 161.2986,685.7806 C175.2605,694.4402 175.8824,705.5152 163.2808,715.9217 C172.8248,724.1789 174.5715,731.4424 162.1879,738.645 C157.4793,760.4373 138.372,764.6143 123.8509,748.5935 C107.3836,760.8822 94.8687,757.8157 85.963,739.2947 C74.9149,730.8032 74.4237,722.8037 85.3789,713.8078 C72.1112,707.6155 70.0037,699.0316 81.8373,689.2233 C67.1005,681.1947 68.9754,667.5418 80.9862,658.7657 C68.5348,650.7666 70.3101,642.6819 80.5599,634.2874 C70.4632,624.8878 70.6773,616.4137 82.6201,608.7952 C66.7568,601.5148 66.9086,592.0199 79.3175,581.3387 C66.3994,573.634 67.8009,564.902 77.9706,555.9714 C63.4108,544.9962 65.6626,535.4245 80.1282,526.5801 C69.7583,516.9215 71.0198,508.4616 82.246,500.5607 C70.5616,494.9344 69.122,483.6721 80.0877,476.0512 C69.2656,466.2396 72.0721,456.4101 84.2177,450.2791 C70.0832,443.1938 71.6195,431.7371 82.8625,423.3735 C72.1918,414.3606 71.1837,403.7304 84.3156,395.9801 C72.9015,386.312 74.5285,376.634 87.1302,369.5204 " fill="#D3D3D3" style="stroke:#181818;stroke-width:1.0;"/><text fill="#000000" font-family="sans-serif" font-size="14" font-weight="bold" lengthAdjust="spacing" textLength="63" x="89.8585" y="384.456">Internet</text></g><!--entity TLS Termination--><g id="elem_TLS Termination"><rect fill="#F1F1F1" height="46.2969" rx="2.5" ry="2.5" style="stroke:#181818;stroke-width:0.5;" width="151" x="3036.8585" y="435.4609"/><rect fill="#F1F1F1" height="10" style="stroke:#181818;stroke-width:0.5;" width="15" x="3167.8585" y="440.4609"/><rect fill="#F1F1F1" height="2" style="stroke:#181818;stroke-width:0.5;" width="4" x="3165.8585" y="442.4609"/><rect fill="#F1F1F1" height="2" style="stroke:#181818;stroke-width:0.5;" width="4" x="3165.8585" y="446.4609"/><text fill="#000000" font-family="sans-serif" font-size="14" lengthAdjust="spacing" textLength="111" x="3051.8585" y="468.456">TLS Termination</text></g><!--entity Health Checks--><g id="elem_Health Checks"><rect fill="#F1F1F1" height="46.2969" rx="2.5" ry="2.5" style="stroke:#181818;stroke-width:0.5;" width="140" x="3222.3585" y="435.4609"/><rect fill="#F1F1F1" height="10" style="stroke:#181818;stroke-width:0.5;" width="15" x="3342.3585" y="440.4609"/><rect fill="#F1F1F1" height="2" style="stroke:#181818;stroke-width:0.5;" width="4" x="3340.3585" y="442.4609"/><rect fill="#F1F1F1" height="2" style="stroke:#181818;stroke-width:0.5;" width="4" x="3340.3585" y="446.4609"/><text fill="#000000" font-family="sans-serif" font-size="14" lengthAdjust="spacing" textLength="100" x="3237.3585" y="468.456">Health Checks</text></g><!--entity SSL Certificate--><g id="elem_SSL Certificate"><rect fill="#F1F1F1" height="46.2969" rx="2.5" ry="2.5" style="stroke:#181818;stroke-width:0.5;" width="138" x="3043.3585" y="714.1409"/><rect fill="#F1F1F1" height="10" style="stroke:#181818;stroke-width:0.5;" width="15" x="3161.3585" y="719.1409"/><rect fill="#F1F1F1" height="2" style="stroke:#181818;stroke-width:0.5;" width="4" x="3159.3585" y="721.1409"/><rect fill="#F1F1F1" height="2" style="stroke:#181818;stroke-width:0.5;" width="4" x="3159.3585" y="725.1409"/><text fill="#000000" font-family="sans-serif" font-size="14" lengthAdjust="spacing" textLength="98" x="3058.3585" y="747.136">SSL Certificate</text></g><!--entity GW1--><g id="elem_GW1"><rect fill="#F1F1F1" height="55.5938" rx="2.5" ry="2.5" style="stroke:#181818;stroke-width:0.5;" width="114" x="3803.3585" y="709.5009"/><polygon fill="#F1F1F1" points="3900.3585,714.5009,3900.3585,728.5009,3912.3585,728.5009,3912.3585,720.5009,3906.3585,714.5009,3900.3585,714.5009" style="stroke:#181818;stroke-width:0.5;"/><line style="stroke:#181818;stroke-width:0.5;" x1="3906.3585" x2="3906.3585" y1="714.5009" y2="720.5009"/><line style="stroke:#181818;stroke-width:0.5;" x1="3912.3585" x2="3906.3585" y1="720.5009" y2="720.5009"/><text fill="#000000" font-family="sans-serif" font-size="14" lengthAdjust="spacing" textLength="84" x="3813.3585" y="735.496">API Gateway</text><text fill="#000000" font-family="sans-serif" font-size="14" lengthAdjust="spacing" textLength="67" x="3813.3585" y="751.7929">Container</text></g><!--entity Auth1--><g id="elem_Auth1"><rect fill="#F1F1F1" height="55.5938" rx="2.5" ry="2.5" style="stroke:#181818;stroke-width:0.5;" width="116" x="4117.3585" y="709.5009"/><polygon fill="#F1F1F1" points="4216.3585,714.5009,4216.3585,728.5009,4228.3585,728.5009,4228.3585,720.5009,4222.3585,714.5009,4216.3585,714.5009" style="stroke:#181818;stroke-width:0.5;"/><line style="stroke:#181818;stroke-width:0.5;" x1="4222.3585" x2="4222.3585" y1="714.5009" y2="720.5009"/><line style="stroke:#181818;stroke-width:0.5;" x1="4228.3585" x2="4222.3585" y1="720.5009" y2="720.5009"/><text fill="#000000" font-family="sans-serif" font-size="14" lengthAdjust="spacing" textLength="86" x="4127.3585" y="735.496">Auth Service</text><text fill="#000000" font-family="sans-serif" font-size="14" lengthAdjust="spacing" textLength="67" x="4127.3585" y="751.7929">Container</text></g><!--entity Doc1--><g id="elem_Doc1"><rect fill="#F1F1F1" height="55.5938" rx="2.5" ry="2.5" style="stroke:#181818;stroke-width:0.5;" width="112" x="4268.3585" y="709.5009"/><polygon fill="#F1F1F1" points="4363.3585,714.5009,4363.3585,728.5009,4375.3585,728.5009,4375.3585,720.5009,4369.3585,714.5009,4363.3585,714.5009" style="stroke:#181818;stroke-width:0.5;"/><line style="stroke:#181818;stroke-width:0.5;" x1="4369.3585" x2="4369.3585" y1="714.5009" y2="720.5009"/><line style="stroke:#181818;stroke-width:0.5;" x1="4375.3585" x2="4369.3585" y1="720.5009" y2="720.5009"/><text fill="#000000" font-family="sans-serif" font-size="14" lengthAdjust="spacing" textLength="82" x="4278.3585" y="735.496">Doc Service</text><text fill="#000000" font-family="sans-serif" font-size="14" lengthAdjust="spacing" textLength="67" x="4278.3585" y="751.7929">Container</text></g><!--entity Crypto1--><g id="elem_Crypto1"><rect fill="#F1F1F1" height="55.5938" rx="2.5" ry="2.5" style="stroke:#181818;stroke-width:0.5;" width="129" x="3952.8585" y="709.5009"/><polygon fill="#F1F1F1" points="4064.8585,714.5009,4064.8585,728.5009,4076.8585,728.5009,4076.8585,720.5009,4070.8585,714.5009,4064.8585,714.5009" style="stroke:#181818;stroke-width:0.5;"/><line style="stroke:#181818;stroke-width:0.5;" x1="4070.8585" x2="4070.8585" y1="714.5009" y2="720.5009"/><line style="stroke:#181818;stroke-width:0.5;" x1="4076.8585" x2="4070.8585" y1="720.5009" y2="720.5009"/><text fill="#000000" font-family="sans-serif" font-size="14" lengthAdjust="spacing" textLength="99" x="3962.8585" y="735.496">Crypto Service</text><text fill="#000000" font-family="sans-serif" font-size="14" lengthAdjust="spacing" textLength="67" x="3962.8585" y="751.7929">Container</text></g><!--entity Audit1--><g id="elem_Audit1"><rect fill="#F1F1F1" height="55.5938" rx="2.5" ry="2.5" style="stroke:#181818;stroke-width:0.5;" width="119" x="3469.8585" y="709.5009"/><polygon fill="#F1F1F1" points="3571.8585,714.5009,3571.8585,728.5009,3583.8585,728.5009,3583.8585,720.5009,3577.8585,714.5009,3571.8585,714.5009" style="stroke:#181818;stroke-width:0.5;"/><line style="stroke:#181818;stroke-width:0.5;" x1="3577.8585" x2="3577.8585" y1="714.5009" y2="720.5009"/><line style="stroke:#181818;stroke-width:0.5;" x1="3583.8585" x2="3577.8585" y1="720.5009" y2="720.5009"/><text fill="#000000" font-family="sans-serif" font-size="14" lengthAdjust="spacing" textLength="89" x="3479.8585" y="735.496">Audit Service</text><text fill="#000000" font-family="sans-serif" font-size="14" lengthAdjust="spacing" textLength="67" x="3479.8585" y="751.7929">Container</text></g><g id="elem_GMN14"><path d="M3624.3585,671.7609 L3624.3585,733.2909 L3589.0485,737.2909 L3624.3585,741.2909 L3624.3585,802.8234 A0,0 0 0 0 3624.3585,802.8234 L3768.3585,802.8234 A0,0 0 0 0 3768.3585,802.8234 L3768.3585,681.7609 L3758.3585,671.7609 L3624.3585,671.7609 A0,0 0 0 0 3624.3585,671.7609 " fill="#FEFFDD" style="stroke:#181818;stroke-width:0.5;"/><path d="M3758.3585,671.7609 L3758.3585,681.7609 L3768.3585,681.7609 L3758.3585,671.7609 " fill="#FEFFDD" style="stroke:#181818;stroke-width:0.5;"/><text fill="#000000" font-family="sans-serif" font-size="13" lengthAdjust="spacing" textLength="70" x="3630.3585" y="688.8278">Resources:</text><text fill="#000000" font-family="sans-serif" font-size="13" lengthAdjust="spacing" textLength="65" x="3630.3585" y="703.9606">&#8226; 2 vCPUs</text><text fill="#000000" font-family="sans-serif" font-size="13" lengthAdjust="spacing" textLength="75" x="3630.3585" y="719.0934">&#8226; 8 GB RAM</text><text fill="#000000" font-family="sans-serif" font-size="13" lengthAdjust="spacing" textLength="83" x="3630.3585" y="734.2262">&#8226; 50 GB SSD</text><text fill="#000000" font-family="sans-serif" font-size="13" lengthAdjust="spacing" textLength="4" x="3630.3585" y="749.359">&#160;</text><text fill="#000000" font-family="sans-serif" font-size="13" lengthAdjust="spacing" textLength="123" x="3630.3585" y="764.4919">Container Runtime:</text><text fill="#000000" font-family="sans-serif" font-size="13" lengthAdjust="spacing" textLength="88" x="3630.3585" y="779.6247">&#8226; Docker 24+</text><text fill="#000000" font-family="sans-serif" font-size="13" lengthAdjust="spacing" textLength="122" x="3630.3585" y="794.7575">&#8226; Docker Compose</text></g><!--entity PrimaryDB--><g id="elem_PrimaryDB"><path d="M3921.8585,1090.6609 C3921.8585,1080.6609 3969.3585,1080.6609 3969.3585,1080.6609 C3969.3585,1080.6609 4016.8585,1080.6609 4016.8585,1090.6609 L4016.8585,1132.2546 C4016.8585,1142.2546 3969.3585,1142.2546 3969.3585,1142.2546 C3969.3585,1142.2546 3921.8585,1142.2546 3921.8585,1132.2546 L3921.8585,1090.6609 " fill="#F1F1F1" style="stroke:#181818;stroke-width:0.5;"/><path d="M3921.8585,1090.6609 C3921.8585,1100.6609 3969.3585,1100.6609 3969.3585,1100.6609 C3969.3585,1100.6609 4016.8585,1100.6609 4016.8585,1090.6609 " fill="none" style="stroke:#181818;stroke-width:0.5;"/><text fill="#000000" font-family="sans-serif" font-size="14" lengthAdjust="spacing" textLength="75" x="3931.8585" y="1117.656">Primary DB</text><text fill="#000000" font-family="sans-serif" font-size="14" lengthAdjust="spacing" textLength="51" x="3931.8585" y="1133.9529">(Active)</text></g><g id="elem_GMN19"><path d="M4051.3585,1023.2209 L4051.3585,1107.4509 L4017.2185,1111.4509 L4051.3585,1115.4509 L4051.3585,1199.6818 A0,0 0 0 0 4051.3585,1199.6818 L4225.3585,1199.6818 A0,0 0 0 0 4225.3585,1199.6818 L4225.3585,1033.2209 L4215.3585,1023.2209 L4051.3585,1023.2209 A0,0 0 0 0 4051.3585,1023.2209 " fill="#FEFFDD" style="stroke:#181818;stroke-width:0.5;"/><path d="M4215.3585,1023.2209 L4215.3585,1033.2209 L4225.3585,1033.2209 L4215.3585,1023.2209 " fill="#FEFFDD" style="stroke:#181818;stroke-width:0.5;"/><text fill="#000000" font-family="sans-serif" font-size="13" lengthAdjust="spacing" textLength="70" x="4057.3585" y="1040.2878">Resources:</text><text fill="#000000" font-family="sans-serif" font-size="13" lengthAdjust="spacing" textLength="65" x="4057.3585" y="1055.4206">&#8226; 4 vCPUs</text><text fill="#000000" font-family="sans-serif" font-size="13" lengthAdjust="spacing" textLength="83" x="4057.3585" y="1070.5534">&#8226; 32 GB RAM</text><text fill="#000000" font-family="sans-serif" font-size="13" lengthAdjust="spacing" textLength="129" x="4057.3585" y="1085.6862">&#8226; 500 GB SSD (gp3)</text><text fill="#000000" font-family="sans-serif" font-size="13" lengthAdjust="spacing" textLength="94" x="4057.3585" y="1100.819">&#8226; IOPS: 12,000</text><text fill="#000000" font-family="sans-serif" font-size="13" lengthAdjust="spacing" textLength="4" x="4057.3585" y="1115.9519">&#160;</text><text fill="#000000" font-family="sans-serif" font-size="13" lengthAdjust="spacing" textLength="89" x="4057.3585" y="1131.0847">Configuration:</text><text fill="#000000" font-family="sans-serif" font-size="13" lengthAdjust="spacing" textLength="107" x="4057.3585" y="1146.2175">&#8226; PostgreSQL 15</text><text fill="#000000" font-family="sans-serif" font-size="13" lengthAdjust="spacing" textLength="122" x="4057.3585" y="1161.3503">&#8226; Encrypted at rest</text><text fill="#000000" font-family="sans-serif" font-size="13" lengthAdjust="spacing" textLength="141" x="4057.3585" y="1176.4831">&#8226; Automated backups</text><text fill="#000000" font-family="sans-serif" font-size="13" lengthAdjust="spacing" textLength="153" x="4057.3585" y="1191.6159">&#8226; Point-in-time recovery</text></g><!--entity Encrypted\nDocuments--><g id="elem_Encrypted\nDocuments"><path d="M3471.3585,1076.1609 L3512.3585,1076.1609 A3.75,3.75 0 0 1 3514.8585,1078.6609 L3521.8585,1097.1609 L3577.3585,1097.1609 A2.5,2.5 0 0 1 3579.8585,1099.6609 L3579.8585,1144.2546 A2.5,2.5 0 0 1 3577.3585,1146.7546 L3471.3585,1146.7546 A2.5,2.5 0 0 1 3468.8585,1144.2546 L3468.8585,1078.6609 A2.5,2.5 0 0 1 3471.3585,1076.1609 " fill="#F1F1F1" style="stroke:#181818;stroke-width:0.5;"/><line style="stroke:#181818;stroke-width:0.5;" x1="3468.8585" x2="3521.8585" y1="1097.1609" y2="1097.1609"/><text fill="#000000" font-family="sans-serif" font-size="14" lengthAdjust="spacing" textLength="70" x="3478.8585" y="1117.156">Encrypted</text><text fill="#000000" font-family="sans-serif" font-size="14" lengthAdjust="spacing" textLength="81" x="3478.8585" y="1133.4529">Documents</text></g><g id="elem_GMN24"><path d="M3615.3585,1076.1909 L3615.3585,1107.4509 L3580.1185,1111.4509 L3615.3585,1115.4509 L3615.3585,1146.7221 A0,0 0 0 0 3615.3585,1146.7221 L3799.3585,1146.7221 A0,0 0 0 0 3799.3585,1146.7221 L3799.3585,1086.1909 L3789.3585,1076.1909 L3615.3585,1076.1909 A0,0 0 0 0 3615.3585,1076.1909 " fill="#FEFFDD" style="stroke:#181818;stroke-width:0.5;"/><path d="M3789.3585,1076.1909 L3789.3585,1086.1909 L3799.3585,1086.1909 L3789.3585,1076.1909 " fill="#FEFFDD" style="stroke:#181818;stroke-width:0.5;"/><text fill="#000000" font-family="sans-serif" font-size="13" lengthAdjust="spacing" textLength="134" x="3621.3585" y="1093.2578">&#8226; Versioning enabled</text><text fill="#000000" font-family="sans-serif" font-size="13" lengthAdjust="spacing" textLength="146" x="3621.3585" y="1108.3906">&#8226; Encryption: SSE-KMS</text><text fill="#000000" font-family="sans-serif" font-size="13" lengthAdjust="spacing" textLength="117" x="3621.3585" y="1123.5234">&#8226; Lifecycle policies</text><text fill="#000000" font-family="sans-serif" font-size="13" lengthAdjust="spacing" textLength="163" x="3621.3585" y="1138.6562">&#8226; Cross-region replication</text></g><!--entity ALB2--><g id="elem_ALB2"><polygon fill="#ADD8E6" points="4949.3585,716.0009,4959.3585,706.0009,5101.3585,706.0009,5101.3585,758.5946,5091.3585,768.5946,4949.3585,768.5946,4949.3585,716.0009" style="stroke:#181818;stroke-width:0.5;"/><line style="stroke:#181818;stroke-width:0.5;" x1="5091.3585" x2="5101.3585" y1="716.0009" y2="706.0009"/><line style="stroke:#181818;stroke-width:0.5;" x1="4949.3585" x2="5091.3585" y1="716.0009" y2="716.0009"/><line style="stroke:#181818;stroke-width:0.5;" x1="5091.3585" x2="5091.3585" y1="716.0009" y2="768.5946"/><text fill="#000000" font-family="sans-serif" font-size="14" lengthAdjust="spacing" textLength="112" x="4964.3585" y="738.996">Application Load</text><text fill="#000000" font-family="sans-serif" font-size="14" lengthAdjust="spacing" textLength="100" x="4964.3585" y="755.2929">Balancer (ALB)</text></g><!--entity GW2--><g id="elem_GW2"><rect fill="#F1F1F1" height="55.5938" rx="2.5" ry="2.5" style="stroke:#181818;stroke-width:0.5;" width="114" x="4648.3585" y="1083.6609"/><polygon fill="#F1F1F1" points="4745.3585,1088.6609,4745.3585,1102.6609,4757.3585,1102.6609,4757.3585,1094.6609,4751.3585,1088.6609,4745.3585,1088.6609" style="stroke:#181818;stroke-width:0.5;"/><line style="stroke:#181818;stroke-width:0.5;" x1="4751.3585" x2="4751.3585" y1="1088.6609" y2="1094.6609"/><line style="stroke:#181818;stroke-width:0.5;" x1="4757.3585" x2="4751.3585" y1="1094.6609" y2="1094.6609"/><text fill="#000000" font-family="sans-serif" font-size="14" lengthAdjust="spacing" textLength="84" x="4658.3585" y="1109.656">API Gateway</text><text fill="#000000" font-family="sans-serif" font-size="14" lengthAdjust="spacing" textLength="67" x="4658.3585" y="1125.9529">Container</text></g><!--entity Auth2--><g id="elem_Auth2"><rect fill="#F1F1F1" height="55.5938" rx="2.5" ry="2.5" style="stroke:#181818;stroke-width:0.5;" width="116" x="4962.3585" y="1083.6609"/><polygon fill="#F1F1F1" points="5061.3585,1088.6609,5061.3585,1102.6609,5073.3585,1102.6609,5073.3585,1094.6609,5067.3585,1088.6609,5061.3585,1088.6609" style="stroke:#181818;stroke-width:0.5;"/><line style="stroke:#181818;stroke-width:0.5;" x1="5067.3585" x2="5067.3585" y1="1088.6609" y2="1094.6609"/><line style="stroke:#181818;stroke-width:0.5;" x1="5073.3585" x2="5067.3585" y1="1094.6609" y2="1094.6609"/><text fill="#000000" font-family="sans-serif" font-size="14" lengthAdjust="spacing" textLength="86" x="4972.3585" y="1109.656">Auth Service</text><text fill="#000000" font-family="sans-serif" font-size="14" lengthAdjust="spacing" textLength="67" x="4972.3585" y="1125.9529">Container</text></g><!--entity Doc2--><g id="elem_Doc2"><rect fill="#F1F1F1" height="55.5938" rx="2.5" ry="2.5" style="stroke:#181818;stroke-width:0.5;" width="112" x="5113.3585" y="1083.6609"/><polygon fill="#F1F1F1" points="5208.3585,1088.6609,5208.3585,1102.6609,5220.3585,1102.6609,5220.3585,1094.6609,5214.3585,1088.6609,5208.3585,1088.6609" style="stroke:#181818;stroke-width:0.5;"/><line style="stroke:#181818;stroke-width:0.5;" x1="5214.3585" x2="5214.3585" y1="1088.6609" y2="1094.6609"/><line style="stroke:#181818;stroke-width:0.5;" x1="5220.3585" x2="5214.3585" y1="1094.6609" y2="1094.6609"/><text fill="#000000" font-family="sans-serif" font-size="14" lengthAdjust="spacing" textLength="82" x="5123.3585" y="1109.656">Doc Service</text><text fill="#000000" font-family="sans-serif" font-size="14" lengthAdjust="spacing" textLength="67" x="5123.3585" y="1125.9529">Container</text></g><!--entity Crypto2--><g id="elem_Crypto2"><rect fill="#F1F1F1" height="55.5938" rx="2.5" ry="2.5" style="stroke:#181818;stroke-width:0.5;" width="129" x="4797.8585" y="1083.6609"/><polygon fill="#F1F1F1" points="4909.8585,1088.6609,4909.8585,1102.6609,4921.8585,1102.6609,4921.8585,1094.6609,4915.8585,1088.6609,4909.8585,1088.6609" style="stroke:#181818;stroke-width:0.5;"/><line style="stroke:#181818;stroke-width:0.5;" x1="4915.8585" x2="4915.8585" y1="1088.6609" y2="1094.6609"/><line style="stroke:#181818;stroke-width:0.5;" x1="4921.8585" x2="4915.8585" y1="1094.6609" y2="1094.6609"/><text fill="#000000" font-family="sans-serif" font-size="14" lengthAdjust="spacing" textLength="99" x="4807.8585" y="1109.656">Crypto Service</text><text fill="#000000" font-family="sans-serif" font-size="14" lengthAdjust="spacing" textLength="67" x="4807.8585" y="1125.9529">Container</text></g><!--entity Audit2--><g id="elem_Audit2"><rect fill="#F1F1F1" height="55.5938" rx="2.5" ry="2.5" style="stroke:#181818;stroke-width:0.5;" width="119" x="5260.8585" y="1083.6609"/><polygon fill="#F1F1F1" points="5362.8585,1088.6609,5362.8585,1102.6609,5374.8585,1102.6609,5374.8585,1094.6609,5368.8585,1088.6609,5362.8585,1088.6609" style="stroke:#181818;stroke-width:0.5;"/><line style="stroke:#181818;stroke-width:0.5;" x1="5368.8585" x2="5368.8585" y1="1088.6609" y2="1094.6609"/><line style="stroke:#181818;stroke-width:0.5;" x1="5374.8585" x2="5368.8585" y1="1094.6609" y2="1094.6609"/><text fill="#000000" font-family="sans-serif" font-size="14" lengthAdjust="spacing" textLength="89" x="5270.8585" y="1109.656">Audit Service</text><text fill="#000000" font-family="sans-serif" font-size="14" lengthAdjust="spacing" textLength="67" x="5270.8585" y="1125.9529">Container</text></g><!--entity StandbyDB--><g id="elem_StandbyDB"><path d="M4648.3585,1431.1509 C4648.3585,1421.1509 4708.3585,1421.1509 4708.3585,1421.1509 C4708.3585,1421.1509 4768.3585,1421.1509 4768.3585,1431.1509 L4768.3585,1472.7446 C4768.3585,1482.7446 4708.3585,1482.7446 4708.3585,1482.7446 C4708.3585,1482.7446 4648.3585,1482.7446 4648.3585,1472.7446 L4648.3585,1431.1509 " fill="#F1F1F1" style="stroke:#181818;stroke-width:0.5;"/><path d="M4648.3585,1431.1509 C4648.3585,1441.1509 4708.3585,1441.1509 4708.3585,1441.1509 C4708.3585,1441.1509 4768.3585,1441.1509 4768.3585,1431.1509 " fill="none" style="stroke:#181818;stroke-width:0.5;"/><text fill="#000000" font-family="sans-serif" font-size="14" lengthAdjust="spacing" textLength="81" x="4658.3585" y="1458.146">Standby DB</text><text fill="#000000" font-family="sans-serif" font-size="14" lengthAdjust="spacing" textLength="100" x="4658.3585" y="1474.4429">(Read Replica)</text></g><g id="elem_GMN37"><path d="M4803.3585,1416.6809 L4803.3585,1447.9509 L4768.5785,1451.9509 L4803.3585,1455.9509 L4803.3585,1487.2121 A0,0 0 0 0 4803.3585,1487.2121 L4989.3585,1487.2121 A0,0 0 0 0 4989.3585,1487.2121 L4989.3585,1426.6809 L4979.3585,1416.6809 L4803.3585,1416.6809 A0,0 0 0 0 4803.3585,1416.6809 " fill="#FEFFDD" style="stroke:#181818;stroke-width:0.5;"/><path d="M4979.3585,1416.6809 L4979.3585,1426.6809 L4989.3585,1426.6809 L4979.3585,1416.6809 " fill="#FEFFDD" style="stroke:#181818;stroke-width:0.5;"/><text fill="#000000" font-family="sans-serif" font-size="13" lengthAdjust="spacing" textLength="165" x="4809.3585" y="1433.7478">&#8226; Synchronous replication</text><text fill="#000000" font-family="sans-serif" font-size="13" lengthAdjust="spacing" textLength="145" x="4809.3585" y="1448.8806">&#8226; Auto-failover (&lt; 60s)</text><text fill="#000000" font-family="sans-serif" font-size="13" lengthAdjust="spacing" textLength="150" x="4809.3585" y="1464.0134">&#8226; Read traffic offloading</text><text fill="#000000" font-family="sans-serif" font-size="13" lengthAdjust="spacing" textLength="138" x="4809.3585" y="1479.1462">&#8226; Backup redundancy</text></g><!--entity Replicated\nDocuments--><g id="elem_Replicated\nDocuments"><path d="M5157.3585,1416.6509 L5198.3585,1416.6509 A3.75,3.75 0 0 1 5200.8585,1419.1509 L5207.8585,1437.6509 L5263.3585,1437.6509 A2.5,2.5 0 0 1 5265.8585,1440.1509 L5265.8585,1484.7446 A2.5,2.5 0 0 1 5263.3585,1487.2446 L5157.3585,1487.2446 A2.5,2.5 0 0 1 5154.8585,1484.7446 L5154.8585,1419.1509 A2.5,2.5 0 0 1 5157.3585,1416.6509 " fill="#F1F1F1" style="stroke:#181818;stroke-width:0.5;"/><line style="stroke:#181818;stroke-width:0.5;" x1="5154.8585" x2="5207.8585" y1="1437.6509" y2="1437.6509"/><text fill="#000000" font-family="sans-serif" font-size="14" lengthAdjust="spacing" textLength="73" x="5164.8585" y="1457.646">Replicated</text><text fill="#000000" font-family="sans-serif" font-size="14" lengthAdjust="spacing" textLength="81" x="5164.8585" y="1473.9429">Documents</text></g><!--entity RedisPrimary--><g id="elem_RedisPrimary"><rect fill="#F1F1F1" height="46.2969" rx="2.5" ry="2.5" style="stroke:#181818;stroke-width:0.5;" width="131" x="1770.8585" y="1428.8009"/><rect fill="#F1F1F1" height="10" style="stroke:#181818;stroke-width:0.5;" width="15" x="1881.8585" y="1433.8009"/><rect fill="#F1F1F1" height="2" style="stroke:#181818;stroke-width:0.5;" width="4" x="1879.8585" y="1435.8009"/><rect fill="#F1F1F1" height="2" style="stroke:#181818;stroke-width:0.5;" width="4" x="1879.8585" y="1439.8009"/><text fill="#000000" font-family="sans-serif" font-size="14" lengthAdjust="spacing" textLength="91" x="1785.8585" y="1461.796">Primary Node</text></g><!--entity RedisReplica1--><g id="elem_RedisReplica1"><rect fill="#F1F1F1" height="46.2969" rx="2.5" ry="2.5" style="stroke:#181818;stroke-width:0.5;" width="144" x="1936.3585" y="1428.8009"/><rect fill="#F1F1F1" height="10" style="stroke:#181818;stroke-width:0.5;" width="15" x="2060.3585" y="1433.8009"/><rect fill="#F1F1F1" height="2" style="stroke:#181818;stroke-width:0.5;" width="4" x="2058.3585" y="1435.8009"/><rect fill="#F1F1F1" height="2" style="stroke:#181818;stroke-width:0.5;" width="4" x="2058.3585" y="1439.8009"/><text fill="#000000" font-family="sans-serif" font-size="14" lengthAdjust="spacing" textLength="104" x="1951.3585" y="1461.796">Replica Node 1</text></g><!--entity RedisReplica2--><g id="elem_RedisReplica2"><rect fill="#F1F1F1" height="46.2969" rx="2.5" ry="2.5" style="stroke:#181818;stroke-width:0.5;" width="144" x="2115.3585" y="1428.8009"/><rect fill="#F1F1F1" height="10" style="stroke:#181818;stroke-width:0.5;" width="15" x="2239.3585" y="1433.8009"/><rect fill="#F1F1F1" height="2" style="stroke:#181818;stroke-width:0.5;" width="4" x="2237.3585" y="1435.8009"/><rect fill="#F1F1F1" height="2" style="stroke:#181818;stroke-width:0.5;" width="4" x="2237.3585" y="1439.8009"/><text fill="#000000" font-family="sans-serif" font-size="14" lengthAdjust="spacing" textLength="104" x="2130.3585" y="1461.796">Replica Node 2</text></g><g id="elem_GMN47"><path d="M2067.3585,1590.2509 L2067.3585,1675.915 A0,0 0 0 0 2067.3585,1675.915 L2259.3585,1675.915 A0,0 0 0 0 2259.3585,1675.915 L2259.3585,1600.2509 L2249.3585,1590.2509 L2173.0085,1590.2509 L2184.3685,1475.2709 L2165.0085,1590.2509 L2067.3585,1590.2509 A0,0 0 0 0 2067.3585,1590.2509 " fill="#FEFFDD" style="stroke:#181818;stroke-width:0.5;"/><path d="M2249.3585,1590.2509 L2249.3585,1600.2509 L2259.3585,1600.2509 L2249.3585,1590.2509 " fill="#FEFFDD" style="stroke:#181818;stroke-width:0.5;"/><text fill="#000000" font-family="sans-serif" font-size="13" lengthAdjust="spacing" textLength="69" x="2073.3585" y="1607.3178">&#8226; Redis 7.x</text><text fill="#000000" font-family="sans-serif" font-size="13" lengthAdjust="spacing" textLength="153" x="2073.3585" y="1622.4506">&#8226; Cluster mode enabled</text><text fill="#000000" font-family="sans-serif" font-size="13" lengthAdjust="spacing" textLength="171" x="2073.3585" y="1637.5834">&#8226; 3 shards, 2 replicas each</text><text fill="#000000" font-family="sans-serif" font-size="13" lengthAdjust="spacing" textLength="128" x="2073.3585" y="1652.7162">&#8226; Automatic failover</text><text fill="#000000" font-family="sans-serif" font-size="13" lengthAdjust="spacing" textLength="139" x="2073.3585" y="1667.849">&#8226; Encryption in transit</text></g><!--entity Immutable\nAudit Logs--><g id="elem_Immutable\nAudit Logs"><path d="M939.3585,1090.6609 C939.3585,1080.6609 985.3585,1080.6609 985.3585,1080.6609 C985.3585,1080.6609 1031.3585,1080.6609 1031.3585,1090.6609 L1031.3585,1132.2546 C1031.3585,1142.2546 985.3585,1142.2546 985.3585,1142.2546 C985.3585,1142.2546 939.3585,1142.2546 939.3585,1132.2546 L939.3585,1090.6609 " fill="#F1F1F1" style="stroke:#181818;stroke-width:0.5;"/><path d="M939.3585,1090.6609 C939.3585,1100.6609 985.3585,1100.6609 985.3585,1100.6609 C985.3585,1100.6609 1031.3585,1100.6609 1031.3585,1090.6609 " fill="none" style="stroke:#181818;stroke-width:0.5;"/><text fill="#000000" font-family="sans-serif" font-size="14" lengthAdjust="spacing" textLength="72" x="949.3585" y="1117.656">Immutable</text><text fill="#000000" font-family="sans-serif" font-size="14" lengthAdjust="spacing" textLength="72" x="949.3585" y="1133.9529">Audit Logs</text></g><g id="elem_GMN52"><path d="M894.3585,1409.1209 L894.3585,1494.785 A0,0 0 0 0 894.3585,1494.785 L1076.3585,1494.785 A0,0 0 0 0 1076.3585,1494.785 L1076.3585,1419.1209 L1066.3585,1409.1209 L989.3585,1409.1209 L985.3585,1142.4909 L981.3585,1409.1209 L894.3585,1409.1209 A0,0 0 0 0 894.3585,1409.1209 " fill="#FEFFDD" style="stroke:#181818;stroke-width:0.5;"/><path d="M1066.3585,1409.1209 L1066.3585,1419.1209 L1076.3585,1419.1209 L1066.3585,1409.1209 " fill="#FEFFDD" style="stroke:#181818;stroke-width:0.5;"/><text fill="#000000" font-family="sans-serif" font-size="13" lengthAdjust="spacing" textLength="161" x="900.3585" y="1426.1878">&#8226; Separate infrastructure</text><text fill="#000000" font-family="sans-serif" font-size="13" lengthAdjust="spacing" textLength="133" x="900.3585" y="1441.3206">&#8226; Append-only mode</text><text fill="#000000" font-family="sans-serif" font-size="13" lengthAdjust="spacing" textLength="155" x="900.3585" y="1456.4534">&#8226; No delete permissions</text><text fill="#000000" font-family="sans-serif" font-size="13" lengthAdjust="spacing" textLength="141" x="900.3585" y="1471.5862">&#8226; Long-term retention</text><text fill="#000000" font-family="sans-serif" font-size="13" lengthAdjust="spacing" textLength="153" x="900.3585" y="1486.719">&#8226; Point-in-time recovery</text></g><!--entity Customer Master\nKeys (CMK)--><g id="elem_Customer Master\nKeys (CMK)"><rect fill="#F1F1F1" height="62.5938" rx="2.5" ry="2.5" style="stroke:#181818;stroke-width:0.5;" width="159" x="443.8585" y="1080.1609"/><rect fill="#F1F1F1" height="10" style="stroke:#181818;stroke-width:0.5;" width="15" x="582.8585" y="1085.1609"/><rect fill="#F1F1F1" height="2" style="stroke:#181818;stroke-width:0.5;" width="4" x="580.8585" y="1087.1609"/><rect fill="#F1F1F1" height="2" style="stroke:#181818;stroke-width:0.5;" width="4" x="580.8585" y="1091.1609"/><text fill="#000000" font-family="sans-serif" font-size="14" lengthAdjust="spacing" textLength="119" x="458.8585" y="1113.156">Customer Master</text><text fill="#000000" font-family="sans-serif" font-size="14" lengthAdjust="spacing" textLength="78" x="458.8585" y="1129.4529">Keys (CMK)</text></g><!--entity Data Encryption\nKeys (DEK)--><g id="elem_Data Encryption\nKeys (DEK)"><rect fill="#F1F1F1" height="62.5938" rx="2.5" ry="2.5" style="stroke:#181818;stroke-width:0.5;" width="149" x="637.8585" y="1080.1609"/><rect fill="#F1F1F1" height="10" style="stroke:#181818;stroke-width:0.5;" width="15" x="766.8585" y="1085.1609"/><rect fill="#F1F1F1" height="2" style="stroke:#181818;stroke-width:0.5;" width="4" x="764.8585" y="1087.1609"/><rect fill="#F1F1F1" height="2" style="stroke:#181818;stroke-width:0.5;" width="4" x="764.8585" y="1091.1609"/><text fill="#000000" font-family="sans-serif" font-size="14" lengthAdjust="spacing" textLength="109" x="652.8585" y="1113.156">Data Encryption</text><text fill="#000000" font-family="sans-serif" font-size="14" lengthAdjust="spacing" textLength="76" x="652.8585" y="1129.4529">Keys (DEK)</text></g><g id="elem_GMN58"><path d="M607.8585,1416.6809 L607.8585,1487.2121 A0,0 0 0 0 607.8585,1487.2121 L786.8585,1487.2121 A0,0 0 0 0 786.8585,1487.2121 L786.8585,1426.6809 L776.8585,1416.6809 L702.8885,1416.6809 L710.9985,1143.0909 L694.8885,1416.6809 L607.8585,1416.6809 A0,0 0 0 0 607.8585,1416.6809 " fill="#FEFFDD" style="stroke:#181818;stroke-width:0.5;"/><path d="M776.8585,1416.6809 L776.8585,1426.6809 L786.8585,1426.6809 L776.8585,1416.6809 " fill="#FEFFDD" style="stroke:#181818;stroke-width:0.5;"/><text fill="#000000" font-family="sans-serif" font-size="13" lengthAdjust="spacing" textLength="129" x="613.8585" y="1433.7478">&#8226; FIPS 140-3 Level 3</text><text fill="#000000" font-family="sans-serif" font-size="13" lengthAdjust="spacing" textLength="158" x="613.8585" y="1448.8806">&#8226; Automatic key rotation</text><text fill="#000000" font-family="sans-serif" font-size="13" lengthAdjust="spacing" textLength="95" x="613.8585" y="1464.0134">&#8226; Audit logging</text><text fill="#000000" font-family="sans-serif" font-size="13" lengthAdjust="spacing" textLength="151" x="613.8585" y="1479.1462">&#8226; CloudHSM integration</text></g><!--entity CloudWatch\nMetrics & Logs--><g id="elem_CloudWatch\nMetrics &amp; Logs"><rect fill="#F1F1F1" height="62.5938" rx="2.5" ry="2.5" style="stroke:#181818;stroke-width:0.5;" width="143" x="1171.8585" y="1080.1609"/><rect fill="#F1F1F1" height="10" style="stroke:#181818;stroke-width:0.5;" width="15" x="1294.8585" y="1085.1609"/><rect fill="#F1F1F1" height="2" style="stroke:#181818;stroke-width:0.5;" width="4" x="1292.8585" y="1087.1609"/><rect fill="#F1F1F1" height="2" style="stroke:#181818;stroke-width:0.5;" width="4" x="1292.8585" y="1091.1609"/><text fill="#000000" font-family="sans-serif" font-size="14" lengthAdjust="spacing" textLength="83" x="1186.8585" y="1113.156">CloudWatch</text><text fill="#000000" font-family="sans-serif" font-size="14" lengthAdjust="spacing" textLength="103" x="1186.8585" y="1129.4529">Metrics &amp; Logs</text></g><!--entity CloudWatch\nAlarms--><g id="elem_CloudWatch\nAlarms"><rect fill="#F1F1F1" height="62.5938" rx="2.5" ry="2.5" style="stroke:#181818;stroke-width:0.5;" width="123" x="1349.8585" y="1080.1609"/><rect fill="#F1F1F1" height="10" style="stroke:#181818;stroke-width:0.5;" width="15" x="1452.8585" y="1085.1609"/><rect fill="#F1F1F1" height="2" style="stroke:#181818;stroke-width:0.5;" width="4" x="1450.8585" y="1087.1609"/><rect fill="#F1F1F1" height="2" style="stroke:#181818;stroke-width:0.5;" width="4" x="1450.8585" y="1091.1609"/><text fill="#000000" font-family="sans-serif" font-size="14" lengthAdjust="spacing" textLength="83" x="1364.8585" y="1113.156">CloudWatch</text><text fill="#000000" font-family="sans-serif" font-size="14" lengthAdjust="spacing" textLength="46" x="1364.8585" y="1129.4529">Alarms</text></g><!--entity X-Ray Tracing--><g id="elem_X-Ray Tracing"><rect fill="#F1F1F1" height="46.2969" rx="2.5" ry="2.5" style="stroke:#181818;stroke-width:0.5;" width="134" x="1176.3585" y="1428.8009"/><rect fill="#F1F1F1" height="10" style="stroke:#181818;stroke-width:0.5;" width="15" x="1290.3585" y="1433.8009"/><rect fill="#F1F1F1" height="2" style="stroke:#181818;stroke-width:0.5;" width="4" x="1288.3585" y="1435.8009"/><rect fill="#F1F1F1" height="2" style="stroke:#181818;stroke-width:0.5;" width="4" x="1288.3585" y="1439.8009"/><text fill="#000000" font-family="sans-serif" font-size="14" lengthAdjust="spacing" textLength="94" x="1191.3585" y="1461.796">X-Ray Tracing</text></g><!--entity SNS Notifications--><g id="elem_SNS Notifications"><rect fill="#F1F1F1" height="46.2969" rx="2.5" ry="2.5" style="stroke:#181818;stroke-width:0.5;" width="156" x="1508.3585" y="1088.3009"/><rect fill="#F1F1F1" height="10" style="stroke:#181818;stroke-width:0.5;" width="15" x="1644.3585" y="1093.3009"/><rect fill="#F1F1F1" height="2" style="stroke:#181818;stroke-width:0.5;" width="4" x="1642.3585" y="1095.3009"/><rect fill="#F1F1F1" height="2" style="stroke:#181818;stroke-width:0.5;" width="4" x="1642.3585" y="1099.3009"/><text fill="#000000" font-family="sans-serif" font-size="14" lengthAdjust="spacing" textLength="116" x="1523.3585" y="1121.296">SNS Notifications</text></g><g id="elem_GMN66"><path d="M1508.8585,1401.5509 L1508.8585,1502.3478 A0,0 0 0 0 1508.8585,1502.3478 L1663.8585,1502.3478 A0,0 0 0 0 1663.8585,1502.3478 L1663.8585,1411.5509 L1653.8585,1401.5509 L1590.3585,1401.5509 L1586.3585,1134.9209 L1582.3585,1401.5509 L1508.8585,1401.5509 A0,0 0 0 0 1508.8585,1401.5509 " fill="#FEFFDD" style="stroke:#181818;stroke-width:0.5;"/><path d="M1653.8585,1401.5509 L1653.8585,1411.5509 L1663.8585,1411.5509 L1653.8585,1401.5509 " fill="#FEFFDD" style="stroke:#181818;stroke-width:0.5;"/><text fill="#000000" font-family="sans-serif" font-size="13" lengthAdjust="spacing" textLength="59" x="1514.8585" y="1418.6178">Monitors:</text><text fill="#000000" font-family="sans-serif" font-size="13" lengthAdjust="spacing" textLength="134" x="1514.8585" y="1433.7506">&#8226; CPU, Memory, Disk</text><text fill="#000000" font-family="sans-serif" font-size="13" lengthAdjust="spacing" textLength="114" x="1514.8585" y="1448.8834">&#8226; Request latency</text><text fill="#000000" font-family="sans-serif" font-size="13" lengthAdjust="spacing" textLength="80" x="1514.8585" y="1464.0162">&#8226; Error rates</text><text fill="#000000" font-family="sans-serif" font-size="13" lengthAdjust="spacing" textLength="111" x="1514.8585" y="1479.149">&#8226; Security events</text><text fill="#000000" font-family="sans-serif" font-size="13" lengthAdjust="spacing" textLength="124" x="1514.8585" y="1494.2819">&#8226; Audit log integrity</text></g><!--entity SQL Injection Rules--><g id="elem_SQL Injection Rules"><rect fill="#F1F1F1" height="46.2969" rx="2.5" ry="2.5" style="stroke:#181818;stroke-width:0.5;" width="172" x="2366.3585" y="1088.3009"/><rect fill="#F1F1F1" height="10" style="stroke:#181818;stroke-width:0.5;" width="15" x="2518.3585" y="1093.3009"/><rect fill="#F1F1F1" height="2" style="stroke:#181818;stroke-width:0.5;" width="4" x="2516.3585" y="1095.3009"/><rect fill="#F1F1F1" height="2" style="stroke:#181818;stroke-width:0.5;" width="4" x="2516.3585" y="1099.3009"/><text fill="#000000" font-family="sans-serif" font-size="14" lengthAdjust="spacing" textLength="132" x="2381.3585" y="1121.296">SQL Injection Rules</text></g><!--entity XSS Protection--><g id="elem_XSS Protection"><rect fill="#F1F1F1" height="46.2969" rx="2.5" ry="2.5" style="stroke:#181818;stroke-width:0.5;" width="142" x="2573.3585" y="1088.3009"/><rect fill="#F1F1F1" height="10" style="stroke:#181818;stroke-width:0.5;" width="15" x="2695.3585" y="1093.3009"/><rect fill="#F1F1F1" height="2" style="stroke:#181818;stroke-width:0.5;" width="4" x="2693.3585" y="1095.3009"/><rect fill="#F1F1F1" height="2" style="stroke:#181818;stroke-width:0.5;" width="4" x="2693.3585" y="1099.3009"/><text fill="#000000" font-family="sans-serif" font-size="14" lengthAdjust="spacing" textLength="102" x="2588.3585" y="1121.296">XSS Protection</text></g><!--entity Rate Limiting--><g id="elem_Rate Limiting"><rect fill="#F1F1F1" height="46.2969" rx="2.5" ry="2.5" style="stroke:#181818;stroke-width:0.5;" width="128" x="2388.3585" y="1428.8009"/><rect fill="#F1F1F1" height="10" style="stroke:#181818;stroke-width:0.5;" width="15" x="2496.3585" y="1433.8009"/><rect fill="#F1F1F1" height="2" style="stroke:#181818;stroke-width:0.5;" width="4" x="2494.3585" y="1435.8009"/><rect fill="#F1F1F1" height="2" style="stroke:#181818;stroke-width:0.5;" width="4" x="2494.3585" y="1439.8009"/><text fill="#000000" font-family="sans-serif" font-size="14" lengthAdjust="spacing" textLength="88" x="2403.3585" y="1461.796">Rate Limiting</text></g><!--entity Geo-blocking--><g id="elem_Geo-blocking"><rect fill="#F1F1F1" height="46.2969" rx="2.5" ry="2.5" style="stroke:#181818;stroke-width:0.5;" width="132" x="2750.3585" y="1088.3009"/><rect fill="#F1F1F1" height="10" style="stroke:#181818;stroke-width:0.5;" width="15" x="2862.3585" y="1093.3009"/><rect fill="#F1F1F1" height="2" style="stroke:#181818;stroke-width:0.5;" width="4" x="2860.3585" y="1095.3009"/><rect fill="#F1F1F1" height="2" style="stroke:#181818;stroke-width:0.5;" width="4" x="2860.3585" y="1099.3009"/><text fill="#000000" font-family="sans-serif" font-size="14" lengthAdjust="spacing" textLength="92" x="2765.3585" y="1121.296">Geo-blocking</text></g><g id="elem_GMN74"><path d="M2720.3585,1416.6809 L2720.3585,1487.2121 A0,0 0 0 0 2720.3585,1487.2121 L2882.3585,1487.2121 A0,0 0 0 0 2882.3585,1487.2121 L2882.3585,1426.6809 L2872.3585,1416.6809 L2806.8985,1416.6809 L2815.3585,1134.9209 L2798.8985,1416.6809 L2720.3585,1416.6809 A0,0 0 0 0 2720.3585,1416.6809 " fill="#FEFFDD" style="stroke:#181818;stroke-width:0.5;"/><path d="M2872.3585,1416.6809 L2872.3585,1426.6809 L2882.3585,1426.6809 L2872.3585,1416.6809 " fill="#FEFFDD" style="stroke:#181818;stroke-width:0.5;"/><text fill="#000000" font-family="sans-serif" font-size="13" lengthAdjust="spacing" textLength="141" x="2726.3585" y="1433.7478">&#8226; OWASP Top 10 rules</text><text fill="#000000" font-family="sans-serif" font-size="13" lengthAdjust="spacing" textLength="121" x="2726.3585" y="1448.8806">&#8226; Custom rule sets</text><text fill="#000000" font-family="sans-serif" font-size="13" lengthAdjust="spacing" textLength="123" x="2726.3585" y="1464.0134">&#8226; Real-time logging</text><text fill="#000000" font-family="sans-serif" font-size="13" lengthAdjust="spacing" textLength="134" x="2726.3585" y="1479.1462">&#8226; Automatic updates</text></g><!--entity Users--><g id="elem_Users"><ellipse cx="118.3585" cy="428.9609" fill="#F1F1F1" rx="8" ry="8" style="stroke:#181818;stroke-width:0.5;"/><path d="M118.3585,436.9609 L118.3585,463.9609 M105.3585,444.9609 L131.3585,444.9609 M118.3585,463.9609 L105.3585,478.9609 M118.3585,463.9609 L131.3585,478.9609 " fill="none" style="stroke:#181818;stroke-width:0.5;"/><text fill="#000000" font-family="sans-serif" font-size="14" lengthAdjust="spacing" textLength="40" x="98.3585" y="493.456">Users</text></g><g id="elem_GMN104"><path d="M5519.3585,626.3609 L5519.3585,848.2203 L5949.3585,848.2203 L5949.3585,636.3609 L5939.3585,626.3609 L5519.3585,626.3609 " fill="#FEFFDD" style="stroke:#181818;stroke-width:0.5;"/><path d="M5939.3585,626.3609 L5939.3585,636.3609 L5949.3585,636.3609 L5939.3585,626.3609 " fill="#FEFFDD" style="stroke:#181818;stroke-width:1.0;"/><text fill="#000000" font-family="sans-serif" font-size="13" font-weight="bold" lengthAdjust="spacing" textLength="229" x="5525.3585" y="643.4278">High Availability Configuration:</text><text fill="#000000" font-family="sans-serif" font-size="13" lengthAdjust="spacing" textLength="316" x="5525.3585" y="658.5606">&#8226; Multi-AZ deployment across 2 availability zones</text><text fill="#000000" font-family="sans-serif" font-size="13" lengthAdjust="spacing" textLength="409" x="5525.3585" y="673.6934">&#8226; Active-Active application servers (auto-scaling 2-10 instances)</text><text fill="#000000" font-family="sans-serif" font-size="13" lengthAdjust="spacing" textLength="297" x="5525.3585" y="688.8262">&#8226; Active-Passive database (automatic failover)</text><text fill="#000000" font-family="sans-serif" font-size="13" lengthAdjust="spacing" textLength="317" x="5525.3585" y="703.959">&#8226; S3 cross-region replication for disaster recovery</text><text fill="#000000" font-family="sans-serif" font-size="13" lengthAdjust="spacing" textLength="241" x="5525.3585" y="719.0919">&#8226; Redis cluster with automatic failover</text><text fill="#000000" font-family="sans-serif" font-size="13" lengthAdjust="spacing" textLength="138" x="5525.3585" y="734.2247">&#8226; 99.99% uptime SLA</text><text fill="#000000" font-family="sans-serif" font-size="13" lengthAdjust="spacing" textLength="4" x="5525.3585" y="749.3575">&#160;</text><text fill="#000000" font-family="sans-serif" font-size="13" font-weight="bold" lengthAdjust="spacing" textLength="138" x="5525.3585" y="764.4903">Disaster Recovery:</text><text fill="#000000" font-family="sans-serif" font-size="13" lengthAdjust="spacing" textLength="278" x="5525.3585" y="779.6231">&#8226; RTO (Recovery Time Objective): &lt; 4 hours</text><text fill="#000000" font-family="sans-serif" font-size="13" lengthAdjust="spacing" textLength="304" x="5525.3585" y="794.7559">&#8226; RPO (Recovery Point Objective): &lt; 15 minutes</text><text fill="#000000" font-family="sans-serif" font-size="13" lengthAdjust="spacing" textLength="232" x="5525.3585" y="809.8887">&#8226; Automated backups every 6 hours</text><text fill="#000000" font-family="sans-serif" font-size="13" lengthAdjust="spacing" textLength="244" x="5525.3585" y="825.0215">&#8226; Point-in-time recovery up to 35 days</text><text fill="#000000" font-family="sans-serif" font-size="13" lengthAdjust="spacing" textLength="212" x="5525.3585" y="840.1544">&#8226; Geo-redundant backup storage</text></g><!--link Users to Internet--><g id="link_Users_Internet"><path d="M121.0785,497.2209 C126.4585,571.6809 137.5542,725.2266 137.9142,730.1866 " fill="none" id="Users-to-Internet" style="stroke:#181818;stroke-width:1.0;"/><polygon fill="#181818" points="138.3485,736.1709,141.6865,726.905,137.9866,731.184,133.7075,727.4841,138.3485,736.1709" style="stroke:#181818;stroke-width:1.0;"/><text fill="#000000" font-family="sans-serif" font-size="13" lengthAdjust="spacing" textLength="41" x="125.2685" y="539.8278">HTTPS</text></g><!--link Internet to WAF--><g id="link_Internet_WAF"><path d="M162.0388,745.8917 C162.4307,746.0155 162.8272,746.1406 163.2281,746.2671 C164.03,746.5201 164.8499,746.7784 165.6876,747.042 C169.0386,748.0963 172.675,749.2348 176.5841,750.4514 C184.4021,752.8844 193.3106,755.6296 203.2071,758.6375 C242.7932,770.669 298.1879,786.9046 362.8373,804.1884 C492.136,838.7559 658.4535,877.5159 809.3585,895.2209 C823.7685,896.9109 2887.6585,893.4209 2898.3585,903.2209 C2931.9235,933.9709 2937.051,984.6534 2933.6035,1028.1984 C2932.7417,1039.0846 2931.3438,1049.5248 2929.7204,1059.0959 C2928.9087,1063.8814 2928.0406,1068.4497 2927.155,1072.7479 C2926.7121,1074.8969 2926.2649,1076.9785 2925.818,1078.9859 C2925.7063,1079.4877 2926.9204,1074.1332 2926.8088,1074.6257 " fill="none" id="Internet-to-WAF" style="stroke:#181818;stroke-width:1.0;"/><polygon fill="#181818" points="2925.4831,1080.4774,2931.3728,1072.5836,2926.5878,1075.601,2923.5705,1070.8161,2925.4831,1080.4774" style="stroke:#181818;stroke-width:1.0;"/><text fill="#000000" font-family="sans-serif" font-size="13" lengthAdjust="spacing" textLength="57" x="810.3585" y="891.2878">All Traffic</text></g><!--link WAF to ALB1--><g id="link_WAF_ALB1"><path d="M2925.7079,1105.867 C2927.3865,1104.9558 2929.3078,1103.9176 2931.4623,1102.7605 C2940.0801,1098.1322 2952.4285,1091.6014 2967.8998,1083.685 C2998.8423,1067.8521 3042.276,1046.4771 3093.3385,1023.6959 C3195.4635,978.1334 3328.1035,926.9459 3452.3585,903.2209 C3466.3785,900.5409 4470.2985,905.3609 4480.3585,895.2209 C4509.5185,865.8409 4457.6885,552.6109 4425.3585,526.7609 C4403.1385,508.9959 4157.501,515.2409 3912.2373,521.0546 C3789.6054,523.9615 3667.067,526.7606 3572.5959,526.3967 C3525.3603,526.2147 3485.1416,525.242 3455.4365,523.0967 C3440.5839,522.024 3428.3597,520.6582 3419.201,518.9515 C3414.6217,518.0981 3410.8087,517.1595 3407.8168,516.1298 C3407.0688,515.8723 3411.9094,517.9197 3411.2649,517.6508 " fill="none" id="WAF-to-ALB1" style="stroke:#181818;stroke-width:1.0;"/><polygon fill="#181818" points="3405.7276,515.3402,3412.4931,522.4976,3410.342,517.2657,3415.5739,515.1145,3405.7276,515.3402" style="stroke:#181818;stroke-width:1.0;"/><text fill="#000000" font-family="sans-serif" font-size="13" lengthAdjust="spacing" textLength="89" x="4489.9385" y="741.8578">Filtered Traffic</text></g><!--link WAF to ALB2--><g id="link_WAF_ALB2"><path d="M2925.7079,1105.8667 C2927.3865,1104.9555 2929.3078,1103.9173 2931.4623,1102.7601 C2940.0801,1098.1316 2952.4285,1091.6004 2967.8998,1083.6836 C2998.8423,1067.85 3042.276,1046.474 3093.3385,1023.6921 C3195.4635,978.1284 3328.1035,926.9409 3452.3585,903.2209 C3509.2185,892.3709 4437.0985,903.7309 4494.3585,895.2209 C4660.5185,870.5309 4841.6412,808.5393 4943.4412,770.3293 " fill="none" id="WAF-to-ALB2" style="stroke:#181818;stroke-width:1.0;"/><polygon fill="#181818" points="4949.0585,768.2209,4939.2269,767.6387,4944.3774,769.9779,4942.0381,775.1284,4949.0585,768.2209" style="stroke:#181818;stroke-width:1.0;"/><text fill="#000000" font-family="sans-serif" font-size="13" lengthAdjust="spacing" textLength="89" x="4584.3285" y="891.2878">Filtered Traffic</text></g><!--link ALB1 to App1--><g id="link_ALB1_App1"><path d="M3405.6385,516.2239 C3407.2456,517.3327 3409.0313,518.3965 3410.9899,519.4167 C3414.907,521.4571 3419.5154,523.3233 3424.7691,525.0267 C3435.2764,528.4335 3448.3648,531.1894 3463.6658,533.3871 C3494.2678,537.7826 3533.7202,539.9452 3579.0756,540.6164 C3669.7863,541.9587 3784.1092,537.3353 3898.4648,532.6771 C4127.176,523.3609 4356.0185,513.9059 4396.3585,551.7609 C4425.9485,579.5309 4431.0135,624.6684 4428.5273,663.3496 C4427.9057,673.02 4426.8122,682.2868 4425.5119,690.7778 C4424.8618,695.0233 4425.2743,693.1793 4424.554,696.9904 " fill="none" id="ALB1-to-App1" style="stroke:#181818;stroke-width:1.0;"/><polygon fill="#181818" points="4423.4397,702.886,4429.0416,694.7855,4424.3683,697.973,4421.1808,693.2997,4423.4397,702.886" style="stroke:#181818;stroke-width:1.0;"/><text fill="#000000" font-family="sans-serif" font-size="13" lengthAdjust="spacing" textLength="32" x="4384.1585" y="539.8278">HTTP</text></g><!--link ALB2 to App2--><g id="link_ALB2_App2"><path d="M5101.5085,749.0909 C5188.3285,765.7809 5327.1585,806.6909 5396.3585,903.2209 C5422.8785,940.2209 5427.896,991.0009 5426.1535,1033.0334 C5425.7179,1043.5415 5424.8598,1053.5029 5423.8095,1062.5656 C5423.6782,1063.6985 5424.2819,1058.8628 5424.1451,1059.9669 " fill="none" id="ALB2-to-App2" style="stroke:#181818;stroke-width:1.0;"/><polygon fill="#181818" points="5423.4071,1065.9213,5428.4837,1057.4817,5424.0221,1060.9593,5420.5445,1056.4977,5423.4071,1065.9213" style="stroke:#181818;stroke-width:1.0;"/><text fill="#000000" font-family="sans-serif" font-size="13" lengthAdjust="spacing" textLength="32" x="5390.8585" y="891.2878">HTTP</text></g><!--link App1 to DB1--><g id="link_App1_DB1"><path d="M4402.5157,826.8494 C4402.4208,827.2336 4402.3253,827.6176 4402.2291,828.0013 C4402.0368,828.7686 4401.8418,829.5348 4401.644,830.2994 C4400.062,836.4168 4398.306,842.4396 4396.3585,848.2209 C4375.7385,909.4609 4342.471,973.9434 4314.001,1023.6409 C4299.766,1048.4896 4286.7304,1069.6421 4277.0748,1084.845 C4274.6609,1088.6457 4272.4582,1092.0745 4270.5009,1095.0963 C4270.0115,1095.8517 4269.5375,1096.5817 4269.0794,1097.2858 C4268.8503,1097.6378 4271.9031,1092.9577 4271.682,1093.2967 " fill="none" id="App1-to-DB1" style="stroke:#181818;stroke-width:1.0;"/><polygon fill="#181818" points="4268.4042,1098.3222,4276.6712,1092.9691,4271.1357,1094.1343,4269.9705,1088.5987,4268.4042,1098.3222" style="stroke:#181818;stroke-width:1.0;"/><text fill="#000000" font-family="sans-serif" font-size="13" lengthAdjust="spacing" textLength="168" x="4386.3785" y="891.2878">PostgreSQL Protocol (TLS)</text></g><!--link App2 to DB2--><g id="link_App2_DB2"><path d="M5423.3965,1155.8758 C5423.4205,1156.1041 5423.4443,1156.3329 5423.4679,1156.5623 C5423.515,1157.0209 5423.5611,1157.4817 5423.6062,1157.9446 C5423.6964,1158.8702 5423.7826,1159.804 5423.8643,1160.7452 C5424.191,1164.5104 5424.446,1168.3959 5424.6035,1172.3634 C5425.8635,1204.1034 5420.8785,1241.0909 5396.3585,1263.6809 C5381.2285,1277.6309 5231.5785,1267.8709 5211.3585,1271.6809 C5177.6585,1278.0509 5166.0285,1276.4209 5138.3585,1296.6809 C5104.5085,1321.4759 5076.3635,1359.2359 5056.5073,1391.1909 C5046.5792,1407.1684 5038.7232,1421.6946 5033.2624,1432.4234 C5033.0918,1432.7587 5032.9235,1433.0902 5032.7575,1433.418 C5032.6745,1433.5819 5035.2968,1428.389 5035.215,1428.551 " fill="none" id="App2-to-DB2" style="stroke:#181818;stroke-width:1.0;"/><polygon fill="#181818" points="5032.5103,1433.9069,5040.1379,1427.6762,5034.7642,1429.4437,5032.9967,1424.07,5032.5103,1433.9069" style="stroke:#181818;stroke-width:1.0;"/><text fill="#000000" font-family="sans-serif" font-size="13" lengthAdjust="spacing" textLength="168" x="5212.3585" y="1284.7478">PostgreSQL Protocol (TLS)</text></g><!--link DB1 to DB2--><g id="link_DB1_DB2"><path d="M4268.5476,1118.5002 C4268.7088,1118.6174 4268.8723,1118.7362 4269.0381,1118.8565 C4269.3695,1119.0971 4269.71,1119.3439 4270.0594,1119.5969 C4275.6498,1123.6434 4283.5239,1129.2472 4293.3324,1135.9861 C4312.9495,1149.4637 4340.3042,1167.4815 4372.6023,1186.6621 C4437.1985,1225.0234 4521.5685,1268.0359 4603.3585,1288.6809 C4625.0185,1294.1509 4988.7785,1281.7209 5005.3585,1296.6809 C5030.6035,1319.4609 5035.601,1357.1884 5034.166,1389.6309 C5033.9867,1393.6862 5033.7068,1397.6589 5033.3534,1401.5096 C5033.1767,1403.4349 5032.9816,1405.3297 5032.7715,1407.189 C5032.6664,1408.1187 5032.5576,1409.0395 5032.4455,1409.9508 C5032.4175,1410.1786 5033.1364,1404.4526 5033.1079,1404.6792 " fill="none" id="DB1-to-DB2" style="stroke:#181818;stroke-width:1.0;"/><polygon fill="#181818" points="5032.3608,1410.6325,5037.4503,1402.2007,5032.9834,1405.6714,5029.5126,1401.2045,5032.3608,1410.6325" style="stroke:#181818;stroke-width:1.0;"/><text fill="#000000" font-family="sans-serif" font-size="13" lengthAdjust="spacing" textLength="106" x="4604.3585" y="1284.7478">Replication (TLS)</text></g><!--link App1 to S31--><g id="link_App1_S31"><path d="M4411.2623,827.2865 C4411.1096,827.6305 4410.9544,827.9731 4410.7966,828.3143 C4410.4812,828.9968 4410.1556,829.6736 4409.8196,830.3444 C4409.1477,831.6861 4408.4342,833.0036 4407.677,834.2936 C4404.6484,839.4532 4400.921,844.1709 4396.3585,848.2209 C4348.6785,890.5509 3867.2485,831.9809 3823.3585,878.2209 C3818.9835,882.8334 3817.4279,899.2403 3817.569,921.3571 C3817.6395,932.4156 3818.1343,944.9015 3818.9128,958.0544 C3819.3021,964.6309 3819.7624,971.374 3820.2761,978.1889 C3820.3403,979.0408 3820.4053,979.8937 3820.4711,980.7476 C3820.5041,981.1746 3820.0709,975.6199 3820.1042,976.0473 " fill="none" id="App1-to-S31" style="stroke:#181818;stroke-width:1.0;"/><polygon fill="#181818" points="3820.5705,982.0292,3823.8589,972.7455,3820.1819,977.0443,3815.8831,973.3673,3820.5705,982.0292" style="stroke:#181818;stroke-width:1.0;"/><text fill="#000000" font-family="sans-serif" font-size="13" lengthAdjust="spacing" textLength="78" x="3824.3585" y="891.2878">S3 API (TLS)</text></g><!--link App2 to S32--><g id="link_App2_S32"><path d="M5413.2963,1163.8004 C5413.2614,1164.2574 5413.2259,1164.7163 5413.1898,1165.1771 C5410.8785,1194.6684 5406.1235,1231.8009 5396.3585,1263.6809 C5382.9035,1307.6009 5359.6785,1353.6534 5339.561,1389.0996 C5329.5023,1406.8228 5320.2204,1421.8943 5313.3251,1432.722 C5312.4632,1434.0755 5311.6386,1435.3626 5310.8544,1436.5803 C5310.4623,1437.1892 5310.0803,1437.7807 5309.7088,1438.3545 C5309.6159,1438.4979 5312.7877,1433.6057 5312.6961,1433.7469 " fill="none" id="App2-to-S32" style="stroke:#181818;stroke-width:1.0;"/><polygon fill="#181818" points="5309.4322,1438.7814,5317.6844,1433.4056,5312.1521,1434.586,5310.9717,1429.0537,5309.4322,1438.7814" style="stroke:#181818;stroke-width:1.0;"/><text fill="#000000" font-family="sans-serif" font-size="13" lengthAdjust="spacing" textLength="78" x="5393.8885" y="1284.7478">S3 API (TLS)</text></g><!--link S31 to S32--><g id="link_S31_S32"><path d="M3842.5023,1157.6646 C3842.5621,1157.8998 3842.6222,1158.1356 3842.6828,1158.3719 C3842.804,1158.8445 3842.9268,1159.3191 3843.0513,1159.7956 C3843.3002,1160.7487 3843.5559,1161.7094 3843.8185,1162.6772 C3844.8686,1166.5485 3846.0285,1170.5326 3847.3085,1174.5871 C3857.5485,1207.0234 3875.4735,1243.9659 3906.3585,1263.6809 C3915.8285,1269.7309 4704.1285,1271.2709 4715.3585,1271.6809 C4834.6285,1276.0509 4864.1285,1283.3109 4983.3585,1288.6809 C4991.6585,1289.0609 5276.2085,1291.1009 5282.3585,1296.6809 C5307.5235,1319.5459 5312.5185,1357.2734 5311.1023,1389.6946 C5310.9252,1393.7473 5310.648,1397.7171 5310.2975,1401.5645 C5310.1223,1403.4882 5309.9287,1405.3814 5309.7201,1407.239 C5309.6159,1408.1678 5310.2362,1403.1321 5310.1248,1404.0426 " fill="none" id="S31-to-S32" style="stroke:#181818;stroke-width:1.0;"/><polygon fill="#181818" points="5309.3965,1409.9982,5314.4594,1401.5503,5310.0034,1405.0352,5306.5185,1400.5793,5309.3965,1409.9982" style="stroke:#181818;stroke-width:1.0;"/><text fill="#000000" font-family="sans-serif" font-size="13" lengthAdjust="spacing" textLength="157" x="4984.3585" y="1284.7478">Cross-Region Replication</text></g><!--link App1 to Redis--><g id="link_App1_Redis"><path d="M4411.7481,827.0686 C4411.672,827.2401 4411.5952,827.4112 4411.5178,827.5819 C4411.363,827.9235 4411.2056,828.2636 4411.0456,828.6022 C4410.7257,829.2795 4410.3954,829.9509 4410.0544,830.616 C4409.3725,831.9461 4408.6481,833.251 4407.8788,834.5269 C4404.8018,839.6307 4401.0085,844.2721 4396.3585,848.2209 C4359.1485,879.8309 930.1685,876.9709 881.3585,878.2209 C751.9485,881.5509 388.9085,809.7409 299.3585,903.2209 C188.5385,1018.9109 187.0285,1149.4609 299.3585,1263.6809 C318.6085,1283.2509 2254.9485,1278.3309 2275.3585,1296.6809 C2300.6385,1319.4209 2305.636,1357.1484 2304.1923,1389.6009 C2304.0118,1393.6575 2303.7307,1397.6316 2303.376,1401.4837 C2303.1986,1403.4098 2303.0028,1405.3054 2302.7921,1407.1655 C2302.6867,1408.0956 2302.5775,1409.0168 2302.465,1409.9285 C2302.4369,1410.1564 2303.1577,1404.4307 2303.1291,1404.6575 " fill="none" id="App1-to-Redis" style="stroke:#181818;stroke-width:1.0;"/><polygon fill="#181818" points="2302.38,1410.6105,2307.4724,1402.1803,2303.0043,1405.6496,2299.535,1401.1815,2302.38,1410.6105" style="stroke:#181818;stroke-width:1.0;"/><text fill="#000000" font-family="sans-serif" font-size="13" lengthAdjust="spacing" textLength="127" x="300.3585" y="1116.0178">Redis Protocol (TLS)</text></g><!--link App2 to Redis--><g id="link_App2_Redis"><path d="M5423.4306,1154.1183 C5423.4835,1154.5706 5423.5354,1155.0251 5423.5865,1155.4818 C5423.7907,1157.3086 5423.9801,1159.1701 5424.1513,1161.0613 C5424.4936,1164.8438 5424.7632,1168.7454 5424.9335,1172.7271 C5426.296,1204.5809 5421.3035,1241.5609 5396.3585,1263.6809 C5388.3785,1270.7609 3871.0285,1271.5709 3860.3585,1271.6809 C3776.4585,1272.6009 2418.6685,1247.9609 2350.3585,1296.6809 C2335.746,1307.1059 2324.9342,1321.7428 2316.9373,1337.8871 C2312.9388,1345.9593 2309.6442,1354.4084 2306.93,1362.8963 C2305.5729,1367.1402 2304.361,1371.3939 2303.2788,1375.615 C2303.0083,1376.6703 2304.1589,1371.8923 2303.9043,1372.9428 " fill="none" id="App2-to-Redis" style="stroke:#181818;stroke-width:1.0;"/><polygon fill="#181818" points="2302.4912,1378.7741,2308.4983,1370.9692,2303.6688,1373.9147,2300.7233,1369.0852,2302.4912,1378.7741" style="stroke:#181818;stroke-width:1.0;"/><text fill="#000000" font-family="sans-serif" font-size="13" lengthAdjust="spacing" textLength="127" x="3861.3585" y="1284.7478">Redis Protocol (TLS)</text></g><!--link Auth1 to AuditDB--><g id="link_Auth1_AuditDB"><path d="M4165.3585,765.2309 C4153.8985,791.7309 4132.3485,830.6909 4099.3585,848.2209 C4032.4085,883.8009 1446.0185,873.4009 1370.3585,878.2209 C1274.7985,884.3109 1228.8785,840.6909 1156.3585,903.2209 C1138.5785,918.5534 1126.1579,938.8896 1117.5357,960.8384 C1115.3802,966.3256 1113.462,971.9136 1111.7569,977.5493 C1110.9043,980.3672 1110.105,983.197 1109.3559,986.0322 C1109.1686,986.741 1108.9845,987.4501 1108.8034,988.1594 C1108.7129,988.5141 1110.0829,983.0491 1109.9939,983.4039 " fill="none" id="Auth1-to-AuditDB" style="stroke:#181818;stroke-width:1.0;"/><polygon fill="#181818" points="1108.5342,989.2236,1114.6036,981.4672,1109.7506,984.3739,1106.8439,979.5209,1108.5342,989.2236" style="stroke:#181818;stroke-width:1.0;"/><text fill="#000000" font-family="sans-serif" font-size="13" lengthAdjust="spacing" textLength="104" x="1371.3585" y="891.2878">Audit Logs (TLS)</text></g><!--link Auth2 to AuditDB--><g id="link_Auth2_AuditDB"><path d="M5018.2885,1083.3209 C5013.4685,1040.6409 4997.4485,960.7009 4944.3585,925.0109 C4857.0385,866.3109 1240.7885,862.2109 1156.3585,925.0109 C1139.546,937.5159 1127.5923,954.8996 1119.1299,974.0654 C1114.8988,983.6483 1111.5404,993.6767 1108.8841,1003.7635 C1108.718,1004.394 1110.035,999.2101 1109.8744,999.8409 " fill="none" id="Auth2-to-AuditDB" style="stroke:#181818;stroke-width:1.0;"/><polygon fill="#181818" points="1108.3942,1005.6554,1114.4909,997.9204,1109.6277,1000.81,1106.7382,995.9468,1108.3942,1005.6554" style="stroke:#181818;stroke-width:1.0;"/><text fill="#000000" font-family="sans-serif" font-size="13" lengthAdjust="spacing" textLength="104" x="3912.3585" y="891.2878">Audit Logs (TLS)</text></g><!--link Doc1 to AuditDB--><g id="link_Doc1_AuditDB"><path d="M4314.8085,765.1909 C4303.7985,791.6609 4282.9285,830.5909 4250.3585,848.2209 C4198.0985,876.5109 2170.7685,877.0109 2111.3585,878.2209 C1830.8685,883.9709 1760.8085,887.9809 1480.3585,895.2209 C1471.3585,895.4509 1163.4385,897.6609 1156.3585,903.2209 C1137.8935,917.7234 1125.1254,937.6384 1116.3685,959.4237 C1114.1793,964.87 1112.2408,970.4333 1110.5266,976.058 C1110.0981,977.4642 1109.6836,978.8743 1109.2827,980.2873 C1109.0822,980.9938 1108.8852,981.7011 1108.6915,982.4089 C1108.5946,982.7629 1110.0555,977.3225 1109.9603,977.6768 " fill="none" id="Doc1-to-AuditDB" style="stroke:#181818;stroke-width:1.0;"/><polygon fill="#181818" points="1108.4035,983.4713,1114.6017,975.8174,1109.7008,978.6425,1106.8757,973.7416,1108.4035,983.4713" style="stroke:#181818;stroke-width:1.0;"/><text fill="#000000" font-family="sans-serif" font-size="13" lengthAdjust="spacing" textLength="104" x="2112.3585" y="891.2878">Audit Logs (TLS)</text></g><!--link Doc2 to AuditDB--><g id="link_Doc2_AuditDB"><path d="M5167.5985,1083.3509 C5163.2385,1040.7009 5148.0785,960.8109 5095.3585,925.0109 C5050.0985,894.2809 1200.2585,892.3609 1156.3585,925.0109 C1139.546,937.5159 1127.5923,954.8996 1119.1299,974.0654 C1114.8988,983.6483 1111.5404,993.6767 1108.8841,1003.7635 C1108.718,1004.394 1110.035,999.2101 1109.8744,999.8409 " fill="none" id="Doc2-to-AuditDB" style="stroke:#181818;stroke-width:1.0;"/><polygon fill="#181818" points="1108.3942,1005.6554,1114.4909,997.9204,1109.6277,1000.81,1106.7382,995.9468,1108.3942,1005.6554" style="stroke:#181818;stroke-width:1.0;"/><text fill="#000000" font-family="sans-serif" font-size="13" lengthAdjust="spacing" textLength="104" x="4023.3585" y="891.2878">Audit Logs (TLS)</text></g><!--link Crypto1 to KMS--><g id="link_Crypto1_KMS"><path d="M4005.7485,765.3109 C3992.6985,791.8709 3968.7385,830.8809 3934.3585,848.2209 C3862.2085,884.6209 1105.8485,871.0109 1025.3585,878.2209 C959.3485,884.1409 927.3985,858.6509 878.3585,903.2209 C860.9835,919.0134 848.7685,939.5834 840.2262,961.6231 C838.0906,967.133 836.1846,972.7348 834.4848,978.3767 C833.6349,981.1977 832.8366,984.0287 832.087,986.8633 C831.7122,988.2806 831.3496,989.6988 830.9987,991.1171 C830.8233,991.8262 832.0463,986.6999 831.8767,987.409 " fill="none" id="Crypto1-to-KMS" style="stroke:#181818;stroke-width:1.0;"/><polygon fill="#181818" points="830.4813,993.2445,836.4647,985.4216,831.6441,988.3816,828.6841,983.561,830.4813,993.2445" style="stroke:#181818;stroke-width:1.0;"/><text fill="#000000" font-family="sans-serif" font-size="13" lengthAdjust="spacing" textLength="134" x="1026.3585" y="891.2878">Key Operations (TLS)</text></g><!--link Crypto2 to KMS--><g id="link_Crypto2_KMS"><path d="M4859.2285,1083.2309 C4852.7885,1040.4209 4833.7385,960.3309 4779.3585,925.0109 C4688.4785,865.9909 965.3085,860.3409 878.3585,925.0109 C861.546,937.5159 849.5923,954.8996 841.1299,974.0654 C836.8988,983.6483 833.5404,993.6767 830.8841,1003.7635 C830.718,1004.394 832.035,999.2101 831.8744,999.8409 " fill="none" id="Crypto2-to-KMS" style="stroke:#181818;stroke-width:1.0;"/><polygon fill="#181818" points="830.3942,1005.6554,836.4909,997.9204,831.6277,1000.81,828.7382,995.9468,830.3942,1005.6554" style="stroke:#181818;stroke-width:1.0;"/><text fill="#000000" font-family="sans-serif" font-size="13" lengthAdjust="spacing" textLength="134" x="2710.3585" y="891.2878">Key Operations (TLS)</text></g><!--link Monitor to App1--><g id="link_Monitor_App1"><path d="M1707.9283,1105.715 C1708.1523,1105.5923 1708.3806,1105.4675 1708.6131,1105.3404 C1710.4729,1104.324 1712.6016,1103.1659 1714.9887,1101.875 C1724.537,1096.7116 1738.2192,1089.4248 1755.3623,1080.5887 C1789.6485,1062.9165 1837.7785,1039.0471 1894.3685,1013.5734 C2007.5485,962.6259 2154.5685,905.2609 2292.3585,878.2209 C2349.7185,866.9709 4351.9185,886.1909 4396.3585,848.2209 C4400.9973,844.2584 4404.7821,839.6067 4407.853,834.4954 C4408.6207,833.2175 4409.3438,831.911 4410.0244,830.5793 C4410.3647,829.9134 4410.6944,829.2413 4411.0138,828.5633 C4411.1735,828.2243 4411.3306,827.8839 4411.4852,827.542 C4411.5624,827.3711 4409.2094,832.6859 4409.2854,832.5143 " fill="none" id="Monitor-to-App1" style="stroke:#181818;stroke-width:1.0;"/><polygon fill="#181818" points="4411.7151,827.0282,4404.4132,833.6375,4409.6904,831.5999,4411.7279,836.8771,4411.7151,827.0282" style="stroke:#181818;stroke-width:1.0;"/><text fill="#000000" font-family="sans-serif" font-size="13" lengthAdjust="spacing" textLength="93" x="2293.3585" y="891.2878">Collect Metrics</text></g><!--link Monitor to App2--><g id="link_Monitor_App2"><path d="M1708.024,1107.9687 C1708.4936,1107.7815 1708.9816,1107.5872 1709.4877,1107.3859 C1710.4999,1106.9833 1711.5849,1106.5528 1712.7411,1106.0952 C1715.0535,1105.18 1717.651,1104.1567 1720.5219,1103.0322 C1732.0056,1098.5344 1747.8645,1092.4182 1767.3568,1085.1336 C1806.3413,1070.5643 1859.8592,1051.3215 1921.9748,1031.0046 C2046.206,990.3709 2204.8285,945.4409 2350.3585,925.0109 C2434.1485,913.2509 5333.5685,868.3009 5396.3585,925.0109 C5426.2985,952.0559 5431.691,996.6434 5429.2923,1035.4346 C5428.6926,1045.1325 5427.606,1054.468 5426.2942,1063.0766 C5425.6383,1067.3809 5424.9261,1071.5035 5424.1904,1075.3988 C5424.0064,1076.3726 5423.821,1077.3322 5423.6347,1078.2769 C5423.5881,1078.513 5424.7144,1072.864 5424.6677,1073.0983 " fill="none" id="Monitor-to-App2" style="stroke:#181818;stroke-width:1.0;"/><polygon fill="#181818" points="5423.4947,1078.9826,5429.177,1070.9382,5424.4722,1074.079,5421.3313,1069.3743,5423.4947,1078.9826" style="stroke:#181818;stroke-width:1.0;"/><text fill="#000000" font-family="sans-serif" font-size="13" lengthAdjust="spacing" textLength="93" x="4134.8585" y="891.2878">Collect Metrics</text></g><!--link Monitor to DB1--><g id="link_Monitor_DB1"><path d="M1708.024,1107.9687 C1708.4936,1107.7815 1708.9816,1107.5872 1709.4877,1107.3859 C1710.4999,1106.9833 1711.5849,1106.5528 1712.7411,1106.0952 C1715.0535,1105.18 1717.651,1104.1567 1720.5219,1103.0322 C1732.0056,1098.5344 1747.8645,1092.4182 1767.3568,1085.1336 C1806.3413,1070.5643 1859.8592,1051.3215 1921.9748,1031.0046 C2046.206,990.3709 2204.8285,945.4409 2350.3585,925.0109 C2402.3785,917.7109 2855.6385,900.1059 3305.6385,893.1284 C3530.6385,889.6396 3754.8235,888.8078 3927.631,893.2493 C4014.0348,895.4701 4087.5942,899.0093 4141.9888,904.1938 C4169.1862,906.7861 4191.5924,909.7898 4208.4173,913.2456 C4216.8298,914.9736 4218.1922,914.8087 4223.7153,916.7679 " fill="none" id="Monitor-to-DB1" style="stroke:#181818;stroke-width:1.0;"/><polygon fill="#181818" points="4229.3701,918.7738,4222.2252,911.9951,4224.6578,917.1022,4219.5507,919.5348,4229.3701,918.7738" style="stroke:#181818;stroke-width:1.0;"/><text fill="#000000" font-family="sans-serif" font-size="13" lengthAdjust="spacing" textLength="69" x="2395.8585" y="891.2878">DB Metrics</text></g><!--link Monitor to DB2--><g id="link_Monitor_DB2"><path d="M1707.5567,1115.0947 C1707.79,1115.1693 1708.0281,1115.2453 1708.271,1115.3228 C1708.7567,1115.4779 1709.2614,1115.6388 1709.7851,1115.8056 C1711.8796,1116.4726 1714.2759,1117.2325 1716.9616,1118.0794 C1727.7044,1121.467 1743.0771,1126.2461 1762.2845,1132.0376 C1800.6992,1143.6206 1854.4523,1159.2528 1917.181,1175.8996 C2042.6385,1209.1934 2203.9985,1246.5459 2350.3585,1263.6809 C2441.0185,1274.3009 3902.0985,1269.8509 3993.3585,1271.6809 C4207.2285,1275.9809 4260.5185,1283.2909 4474.3585,1288.6809 C4489.1085,1289.0609 4994.3785,1286.8309 5005.3585,1296.6809 C5030.6585,1319.4009 5035.656,1357.1284 5034.2073,1389.5859 C5034.0262,1393.6431 5033.7444,1397.6179 5033.3889,1401.4708 C5033.2112,1403.3973 5033.015,1405.2932 5032.8038,1407.1538 C5032.6982,1408.084 5032.5889,1409.0054 5032.4762,1409.9173 C5032.448,1410.1453 5033.1699,1404.4198 5033.1413,1404.6466 " fill="none" id="Monitor-to-DB2" style="stroke:#181818;stroke-width:1.0;"/><polygon fill="#181818" points="5032.3911,1410.5995,5037.485,1402.1703,5033.0163,1405.6387,5029.5478,1401.17,5032.3911,1410.5995" style="stroke:#181818;stroke-width:1.0;"/><text fill="#000000" font-family="sans-serif" font-size="13" lengthAdjust="spacing" textLength="69" x="4475.3585" y="1284.7478">DB Metrics</text></g><!--link Monitor to Redis--><g id="link_Monitor_Redis"><path d="M1708.1194,1115.1098 C1708.4188,1115.2007 1708.7254,1115.2939 1709.0392,1115.3892 C1709.6668,1115.5799 1710.3232,1115.7793 1711.0078,1115.9873 C1712.377,1116.4033 1713.8591,1116.8538 1715.4499,1117.3374 C1718.6316,1118.3047 1722.2481,1119.4046 1726.2661,1120.6275 C1742.3382,1125.5189 1764.8344,1132.3766 1791.6184,1140.5717 C1845.1863,1156.9618 1915.9054,1178.7015 1986.6848,1200.7596 C2128.2435,1244.8759 2270.0435,1290.2659 2275.3585,1296.6809 C2280.781,1303.2271 2285.1568,1310.4981 2288.6614,1318.2163 C2289.5375,1320.1458 2288.1856,1316.5109 2288.9556,1318.492 " fill="none" id="Monitor-to-Redis" style="stroke:#181818;stroke-width:1.0;"/><polygon fill="#181818" points="2291.1292,1324.0844,2291.5971,1314.2467,2289.3179,1319.424,2284.1405,1317.1448,2291.1292,1324.0844" style="stroke:#181818;stroke-width:1.0;"/><text fill="#000000" font-family="sans-serif" font-size="13" lengthAdjust="spacing" textLength="90" x="2257.6285" y="1284.7478">Cache Metrics</text></g><!--link Cloud to GMN104--><g id="link_Cloud_GMN104"><path d="M5495.44,468.6693 C5495.649,468.9034 5495.8617,469.1417 5496.0781,469.384 C5497.8089,471.3229 5499.7741,473.5243 5501.9524,475.9643 C5510.6657,485.7246 5522.7892,499.3046 5536.9673,515.1859 C5565.3235,546.9484 5601.8985,587.9159 5635.8485,625.9409 " fill="none" id="Cloud-GMN104" style="stroke:#181818;stroke-width:1.0;stroke-dasharray:7.0,7.0;"/></g><!--SRC=[jLZzRkCs4lzVJp6NnTqwwIeNovlsrYWEy4Ss6wozSIttqYlo3otHDYyogIEfRDt30dsMFjezoGqfIfOKETvkUq00ApF38JaVlvdXdsAwOfp2_6gq67oudbn1b12bF4ypdL0OqpGHkotb6WOosZ1D8vr92ZxCf8YpI3F1uOe_CYcuaVAybp1AH1OR_YEBgOG9sL7fHPPuChWB7RyZ90n-Hbr_lHxDJa-0ACVuZmU0VozXy4XOGfOiONe7FmfE5P9J4ZsGDKLDJIvqePCfdnAb_Iv1ZKQHLMMKJGI9OKWImYCyZQ5n4HirQPgmYDXx69bxNWX1Pp0PvWV3ZowycB3rHW-JZ3hD097OfhWp6kTaCGbXGUMMSQlhvAd4EqeIlO7HXaOFgeKVXXCOKQdPofo7vXAVgdUeddN13buZfF8HZz-zvvshKG2wTvuGkQRkAcbQNELQKihBkn2pCudm88FP3LpZ2JwItJqV2Qu91eYqgw_lka_5CxoLsPD5j2blU4zNZ4LqQ06odigFv2xLuj2IdDjshfZfmmT3Ph76_N2XAKXZ6KS0c5CbCXbHrIz9__tbLmZWSJJxNjLeVuFh8Sm7qnhnyi9Gmt1SKikFyZmmpxXcMrhV0WtnWBpWzLTjv9496qKTY_BO7lvfn8o99akYA6OZsnAvgqJCJ2YzbZJyRb8mCLxcun3YvRcyFF-f4ZFZClf7GfAa39cuq7xYDA0aAXaWAZowfOun7dwfgL-tcBeNjDkwC3PqrcdljCQykPs5VUW6houkBbfziMBhJDhygUzVCLFtiiQvuf69F1e3qI2fqZKkHhxO4iDT8c9bgMfePLpxZFl6yRWu4fYnkwFkl5t-2_4NGerkMETybNyZVFHWc65mQ9luXKFcT8rNodqHzj2DjvBmzHx1LY8n67rINkQUOuXb1ifBZ6fnbhd3FwXKg9lnDPwOB1CQjvd761HzSkM_duOr_eIjQBIBiCQa0g6BqRg5Hb8evKjxV3HGYMw7RFGfhnhFb8UWKXwMVtHv2FuVvU5tW7zm2Fo3tmF-mMy6_-0tWd_mHU0VV07u1y-WPQW9ZvS7qD8ndq7Bu0XQEWqvMiufHjuy3t2NfpdxCp3J94guuz46ko-HgPOysOEHlyA4C303dM_XwmjLnqTx2Yt92fiF4AjLWh6EcLsJ6LeWmqtYZCUO0tyKNfbO3H42KUaJn0eE8fOpMHjaLV3W9OGRWYSkGg7MGZhM3Lz9H0MPvQrjPvebclc37viOCQSnCqrgfdGj_MfqatVOG6is8j76HKGkqBn89VSBjFw0-lOhgZMx9kwkRiMXkr_WwDqZAu8dAuAMI5iAZHMi4IJc7j-S_rH7wlpYi3Mwsof13nGQEbQl489TX2gWQ9wsWedXLmJgWN82Z9j8vOhfem6Omq2PrnXcAS4gJq-hw5cJGV-DyPesi00J_7IF6ECXl9XbCareIqxVRBUPDdU_vxd2YLYN5VI8NOjJuSsgaLWtJvhYDNt1avsrT8tvGK1C4ueQKbDZbAdBzN8w4NpjevUsw06D8T54Y2ziI8gYxYo9mzrxkeCfuPXV9Y7lkSixwA1eRalyW1VNakpQCc64iIIs64rJacSJwbFG6KtVdxRKJEEqIcGKqkEhlVGHqx-zcONGVNtXzs127sa2lGD1-O3taaAtOQlnTYBMwoPUsd7sNJX5jsgwbi-sBwL5fzXH8KGMkdB3xeccE4GFrewEYBM6FA8-j5cRFSqPxeYEDlTyIhLaaOA_r6BpWF00AzgsJUW7VuwkMqWIuN7QnjWF8SQZcs9D77w69znL6gq_zlslO4gtGkvUmPYfXmOO_Jl3fXiIJ9nzBN9W8IKQngIKQYHQb4dJ4AAhiLgq-z6v2yMEEkjkyBOH_aYnpi5VUF5FcYJYOvjRJ1znmqrnD80spnBQQkemDCyeEXTh4PWRq9YmBTFjlhYcmbycE39Ms4SIulPk4CvW8LBeNe0q1wlxnEQdPO2Y3HDY4v7a0DAM3ljSojAuufgMLlwJUKQwGJT8JdNnT5JyR-rR_5DsimvEiFb3pvzyht0uiOBsArU8JI3FJQayImRV__jUKn_UBHQpq2i9Xclys8T1afY8DysHPoY6Oz-4-l2M9IYEjQA57xJnFRlGIfYdc7nNpqexOb0GFIjXg6ExLsra5rf48e4EJXQddbsL2mRF2ew7tOhSVDylElv-IpCjukJM0pCHD7OnVLc3PyJth7nworkvwYuL_NapqNU_X-xph9HddvToixa2tOTzzIrqcJ7ac91vT_eCcQDwFFSQPULCfUlRYdYBTJb7GoVdvfPZObu1yfLu6OaaCLsrW_EcI71490ybF7qxCpZCB7nXEzjImgiW2KuEUTN3J3mxUuUPMN_4hR-pd9rvEJ8K3JSsCULhCubC2677IAeAVdQlm1PFx3EJd_y0gSp0oix0Q4DYvXuLaSHKpi17H6DSQJE-s_6decL6i6b2DML3PzVM-z5Y2SPzTE1r0gSJ2MWbsxnKswXz-novTlaZmycPj3MzHlRDc_CtR_wCI6dXD9mCyd7cx6nSA9yxvNippXUtq2d8i30Bym7ClCRruLju3HkHoS9-yrbLt3Q03Vdk9MmPp_JUvCr7BLD8SV7NDSNjlIJU1N2ExrsYZNU5g2bGnJofdT9YHFIAml0_]--></g></svg>