<svg xmlns="http://www.w3.org/2000/svg" xmlns:xlink="http://www.w3.org/1999/xlink" contentStyleType="text/css" height="2118px" preserveAspectRatio="none" style="width:3905px;height:2118px;background:#FFFFFF;" version="1.1" viewBox="0 0 3905 2118" width="3905px" zoomAndPan="magnify"><defs/><g><text fill="#000000" font-family="sans-serif" font-size="14" font-weight="bold" lengthAdjust="spacing" textLength="548" x="1671.85" y="22.9951">Secure Intelligence Document Vault - High-Level System Architecture</text><!--cluster Secure Document Vault System--><g id="cluster_Secure Document Vault System"><path d="M42.2,198.3869 L292.2,198.3869 A3.75,3.75 0 0 1 294.7,200.8869 L301.7,220.6838 L3338.2,220.6838 A2.5,2.5 0 0 1 3340.7,223.1838 L3340.7,2100.8869 A2.5,2.5 0 0 1 3338.2,2103.3869 L42.2,2103.3869 A2.5,2.5 0 0 1 39.7,2100.8869 L39.7,200.8869 A2.5,2.5 0 0 1 42.2,198.3869 " fill="none" style="stroke:#000000;stroke-width:1.5;"/><line style="stroke:#000000;stroke-width:1.5;" x1="39.7" x2="301.7" y1="220.6838" y2="220.6838"/><text fill="#000000" font-family="sans-serif" font-size="14" font-weight="bold" lengthAdjust="spacing" textLength="249" x="43.7" y="213.382">Secure Document Vault System</text></g><!--cluster Presentation Layer--><g id="cluster_Presentation Layer"><path d="M232.2,313.2369 L383.2,313.2369 A3.75,3.75 0 0 1 385.7,315.7369 L392.7,335.5338 L711.2,335.5338 A2.5,2.5 0 0 1 713.7,338.0338 L713.7,414.3369 A2.5,2.5 0 0 1 711.2,416.8369 L232.2,416.8369 A2.5,2.5 0 0 1 229.7,414.3369 L229.7,315.7369 A2.5,2.5 0 0 1 232.2,313.2369 " fill="#ADD8E6" style="stroke:#000000;stroke-width:1.5;"/><line style="stroke:#000000;stroke-width:1.5;" x1="229.7" x2="392.7" y1="335.5338" y2="335.5338"/><text fill="#000000" font-family="sans-serif" font-size="14" font-weight="bold" lengthAdjust="spacing" textLength="150" x="233.7" y="328.232">Presentation Layer</text></g><!--cluster API Gateway & Security Layer--><g id="cluster_API Gateway &amp; Security Layer"><path d="M67.2,483.8369 L304.2,483.8369 A3.75,3.75 0 0 1 306.7,486.3369 L313.7,506.1338 L665.2,506.1338 A2.5,2.5 0 0 1 667.7,508.6338 L667.7,955.3069 A2.5,2.5 0 0 1 665.2,957.8069 L67.2,957.8069 A2.5,2.5 0 0 1 64.7,955.3069 L64.7,486.3369 A2.5,2.5 0 0 1 67.2,483.8369 " fill="#FFFFE0" style="stroke:#000000;stroke-width:1.5;"/><line style="stroke:#000000;stroke-width:1.5;" x1="64.7" x2="313.7" y1="506.1338" y2="506.1338"/><text fill="#000000" font-family="sans-serif" font-size="14" font-weight="bold" lengthAdjust="spacing" textLength="236" x="68.7" y="498.832">API Gateway &amp; Security Layer</text></g><!--cluster Gateway--><g id="cluster_Gateway"><rect fill="none" height="390.97" rx="2.5" ry="2.5" style="stroke:#181818;stroke-width:1.0;" width="386" x="96.7" y="534.8369"/><text fill="#000000" font-family="sans-serif" font-size="14" font-weight="bold" lengthAdjust="spacing" textLength="99" x="240.2" y="549.832">API Gateway</text><text fill="#000000" font-family="sans-serif" font-size="14" font-weight="bold" lengthAdjust="spacing" textLength="102" x="238.7" y="566.1289">(Go net/http)</text></g><!--cluster Application Services Layer--><g id="cluster_Application Services Layer"><path d="M694.2,745.5169 L904.2,745.5169 A3.75,3.75 0 0 1 906.7,748.0169 L913.7,767.8138 L2122.2,767.8138 A2.5,2.5 0 0 1 2124.7,770.3138 L2124.7,1772.2969 A2.5,2.5 0 0 1 2122.2,1774.7969 L694.2,1774.7969 A2.5,2.5 0 0 1 691.7,1772.2969 L691.7,748.0169 A2.5,2.5 0 0 1 694.2,745.5169 " fill="#90EE90" style="stroke:#000000;stroke-width:1.5;"/><line style="stroke:#000000;stroke-width:1.5;" x1="691.7" x2="913.7" y1="767.8138" y2="767.8138"/><text fill="#000000" font-family="sans-serif" font-size="14" font-weight="bold" lengthAdjust="spacing" textLength="209" x="695.7" y="760.512">Application Services Layer</text></g><!--cluster AuthService--><g id="cluster_AuthService"><rect fill="none" height="310.89" rx="2.5" ry="2.5" style="stroke:#181818;stroke-width:1.0;" width="407" x="1127.7" y="796.5169"/><text fill="#000000" font-family="sans-serif" font-size="14" font-weight="bold" lengthAdjust="spacing" textLength="115" x="1273.7" y="811.512">Authentication</text><text fill="#000000" font-family="sans-serif" font-size="14" font-weight="bold" lengthAdjust="spacing" textLength="59" x="1301.7" y="827.8089">Service</text></g><!--cluster AuthzService--><g id="cluster_AuthzService"><rect fill="none" height="310.89" rx="2.5" ry="2.5" style="stroke:#181818;stroke-width:1.0;" width="364" x="723.7" y="796.5169"/><text fill="#000000" font-family="sans-serif" font-size="14" font-weight="bold" lengthAdjust="spacing" textLength="106" x="852.7" y="811.512">Authorization</text><text fill="#000000" font-family="sans-serif" font-size="14" font-weight="bold" lengthAdjust="spacing" textLength="59" x="876.2" y="827.8089">Service</text></g><!--cluster DocService--><g id="cluster_DocService"><rect fill="none" height="310.89" rx="2.5" ry="2.5" style="stroke:#181818;stroke-width:1.0;" width="414" x="1574.7" y="796.5169"/><text fill="#000000" font-family="sans-serif" font-size="14" font-weight="bold" lengthAdjust="spacing" textLength="80" x="1741.7" y="811.512">Document</text><text fill="#000000" font-family="sans-serif" font-size="14" font-weight="bold" lengthAdjust="spacing" textLength="165" x="1699.2" y="827.8089">Management Service</text></g><!--cluster CryptoService--><g id="cluster_CryptoService"><rect fill="none" height="401.84" rx="2.5" ry="2.5" style="stroke:#181818;stroke-width:1.0;" width="435" x="1597.7" y="1172.4069"/><text fill="#000000" font-family="sans-serif" font-size="14" font-weight="bold" lengthAdjust="spacing" textLength="84" x="1773.2" y="1187.402">Encryption</text><text fill="#000000" font-family="sans-serif" font-size="14" font-weight="bold" lengthAdjust="spacing" textLength="59" x="1785.7" y="1203.6989">Service</text></g><!--cluster AuditService--><g id="cluster_AuditService"><rect fill="none" height="401.84" rx="2.5" ry="2.5" style="stroke:#181818;stroke-width:1.0;" width="350" x="774.7" y="1172.4069"/><text fill="#000000" font-family="sans-serif" font-size="14" font-weight="bold" lengthAdjust="spacing" textLength="41" x="929.2" y="1187.402">Audit</text><text fill="#000000" font-family="sans-serif" font-size="14" font-weight="bold" lengthAdjust="spacing" textLength="59" x="920.2" y="1203.6989">Service</text></g><!--cluster NotifyService--><g id="cluster_NotifyService"><rect fill="none" height="297.85" rx="2.5" ry="2.5" style="stroke:#181818;stroke-width:1.0;" width="393" x="1164.7" y="1444.9469"/><text fill="#000000" font-family="sans-serif" font-size="14" font-weight="bold" lengthAdjust="spacing" textLength="89" x="1316.7" y="1459.942">Notification</text><text fill="#000000" font-family="sans-serif" font-size="14" font-weight="bold" lengthAdjust="spacing" textLength="59" x="1331.7" y="1476.2389">Service</text></g><!--cluster Data Persistence Layer--><g id="cluster_Data Persistence Layer"><path d="M2151.2,1367.9469 L2335.2,1367.9469 A3.75,3.75 0 0 1 2337.7,1370.4469 L2344.7,1390.2438 L3314.2,1390.2438 A2.5,2.5 0 0 1 3316.7,1392.7438 L3316.7,2076.8869 A2.5,2.5 0 0 1 3314.2,2079.3869 L2151.2,2079.3869 A2.5,2.5 0 0 1 2148.7,2076.8869 L2148.7,1370.4469 A2.5,2.5 0 0 1 2151.2,1367.9469 " fill="#F08080" style="stroke:#000000;stroke-width:1.5;"/><line style="stroke:#000000;stroke-width:1.5;" x1="2148.7" x2="2344.7" y1="1390.2438" y2="1390.2438"/><text fill="#000000" font-family="sans-serif" font-size="14" font-weight="bold" lengthAdjust="spacing" textLength="183" x="2152.7" y="1382.942">Data Persistence Layer</text></g><!--cluster PostgreSQL--><g id="cluster_PostgreSQL"><path d="M2180.7,1444.9469 C2180.7,1434.9469 2368.7,1434.9469 2368.7,1434.9469 C2368.7,1434.9469 2556.7,1434.9469 2556.7,1444.9469 L2556.7,1727.7969 C2556.7,1737.7969 2368.7,1737.7969 2368.7,1737.7969 C2368.7,1737.7969 2180.7,1737.7969 2180.7,1727.7969 L2180.7,1444.9469 " fill="none" style="stroke:#181818;stroke-width:1.0;"/><path d="M2180.7,1444.9469 C2180.7,1454.9469 2368.7,1454.9469 2368.7,1454.9469 C2368.7,1454.9469 2556.7,1454.9469 2556.7,1444.9469 " fill="none" style="stroke:#181818;stroke-width:1.0;"/><text fill="#000000" font-family="sans-serif" font-size="14" font-weight="bold" lengthAdjust="spacing" textLength="93" x="2322.2" y="1469.942">PostgreSQL</text><text fill="#000000" font-family="sans-serif" font-size="14" font-weight="bold" lengthAdjust="spacing" textLength="138" x="2299.7" y="1486.2389">Primary Database</text></g><!--cluster ObjectStore--><g id="cluster_ObjectStore"><path d="M2596.7,1428.9469 C2596.7,1418.9469 2774.7,1418.9469 2774.7,1418.9469 C2774.7,1418.9469 2952.7,1418.9469 2952.7,1428.9469 L2952.7,1559.2469 C2952.7,1569.2469 2774.7,1569.2469 2774.7,1569.2469 C2774.7,1569.2469 2596.7,1569.2469 2596.7,1559.2469 L2596.7,1428.9469 " fill="none" style="stroke:#181818;stroke-width:1.0;"/><path d="M2596.7,1428.9469 C2596.7,1438.9469 2774.7,1438.9469 2774.7,1438.9469 C2774.7,1438.9469 2952.7,1438.9469 2952.7,1428.9469 " fill="none" style="stroke:#181818;stroke-width:1.0;"/><text fill="#000000" font-family="sans-serif" font-size="14" font-weight="bold" lengthAdjust="spacing" textLength="80" x="2734.7" y="1453.942">Encrypted</text><text fill="#000000" font-family="sans-serif" font-size="14" font-weight="bold" lengthAdjust="spacing" textLength="128" x="2710.7" y="1470.2389">Document Store</text><text fill="#000000" font-family="sans-serif" font-size="14" font-weight="bold" lengthAdjust="spacing" textLength="130" x="2709.7" y="1486.5357">(Object Storage)</text></g><!--cluster AuditDB--><g id="cluster_AuditDB"><path d="M2992.7,1428.9469 C2992.7,1418.9469 3138.7,1418.9469 3138.7,1418.9469 C3138.7,1418.9469 3284.7,1418.9469 3284.7,1428.9469 L3284.7,1727.7969 C3284.7,1737.7969 3138.7,1737.7969 3138.7,1737.7969 C3138.7,1737.7969 2992.7,1737.7969 2992.7,1727.7969 L2992.7,1428.9469 " fill="none" style="stroke:#181818;stroke-width:1.0;"/><path d="M2992.7,1428.9469 C2992.7,1438.9469 3138.7,1438.9469 3138.7,1438.9469 C3138.7,1438.9469 3284.7,1438.9469 3284.7,1428.9469 " fill="none" style="stroke:#181818;stroke-width:1.0;"/><text fill="#000000" font-family="sans-serif" font-size="14" font-weight="bold" lengthAdjust="spacing" textLength="75" x="3101.2" y="1453.942">Audit Log</text><text fill="#000000" font-family="sans-serif" font-size="14" font-weight="bold" lengthAdjust="spacing" textLength="73" x="3102.2" y="1470.2389">Database</text><text fill="#000000" font-family="sans-serif" font-size="14" font-weight="bold" lengthAdjust="spacing" textLength="93" x="3092.2" y="1486.5357">(Immutable)</text></g><!--cluster Cache--><g id="cluster_Cache"><path d="M2180.7,1825.7969 C2180.7,1815.7969 2339.7,1815.7969 2339.7,1815.7969 C2339.7,1815.7969 2498.7,1815.7969 2498.7,1825.7969 L2498.7,2037.3869 C2498.7,2047.3869 2339.7,2047.3869 2339.7,2047.3869 C2339.7,2047.3869 2180.7,2047.3869 2180.7,2037.3869 L2180.7,1825.7969 " fill="none" style="stroke:#181818;stroke-width:1.0;"/><path d="M2180.7,1825.7969 C2180.7,1835.7969 2339.7,1835.7969 2339.7,1835.7969 C2339.7,1835.7969 2498.7,1835.7969 2498.7,1825.7969 " fill="none" style="stroke:#181818;stroke-width:1.0;"/><text fill="#000000" font-family="sans-serif" font-size="14" font-weight="bold" lengthAdjust="spacing" textLength="98" x="2290.7" y="1850.792">Cache Layer</text><text fill="#000000" font-family="sans-serif" font-size="14" font-weight="bold" lengthAdjust="spacing" textLength="143" x="2268.2" y="1867.0889">(Redis/In-Memory)</text></g><!--cluster Infrastructure & Monitoring--><g id="cluster_Infrastructure &amp; Monitoring"><path d="M2308.2,241.3869 L2526.2,241.3869 A3.75,3.75 0 0 1 2528.7,243.8869 L2535.7,263.6838 L3314.2,263.6838 A2.5,2.5 0 0 1 3316.7,266.1838 L3316.7,693.6269 A2.5,2.5 0 0 1 3314.2,696.1269 L2308.2,696.1269 A2.5,2.5 0 0 1 2305.7,693.6269 L2305.7,243.8869 A2.5,2.5 0 0 1 2308.2,241.3869 " fill="#E6E6FA" style="stroke:#000000;stroke-width:1.5;"/><line style="stroke:#000000;stroke-width:1.5;" x1="2305.7" x2="2535.7" y1="263.6838" y2="263.6838"/><text fill="#000000" font-family="sans-serif" font-size="14" font-weight="bold" lengthAdjust="spacing" textLength="217" x="2309.7" y="256.382">Infrastructure &amp; Monitoring</text></g><!--cluster Monitor--><g id="cluster_Monitor"><rect fill="none" height="371.74" rx="2.5" ry="2.5" style="stroke:#181818;stroke-width:1.0;" width="425" x="2337.7" y="292.3869"/><text fill="#000000" font-family="sans-serif" font-size="14" font-weight="bold" lengthAdjust="spacing" textLength="102" x="2499.2" y="307.382">Monitoring &amp;</text><text fill="#000000" font-family="sans-serif" font-size="14" font-weight="bold" lengthAdjust="spacing" textLength="103" x="2498.7" y="323.6789">Observability</text></g><!--cluster Backup--><g id="cluster_Backup"><rect fill="none" height="371.74" rx="2.5" ry="2.5" style="stroke:#181818;stroke-width:1.0;" width="482" x="2802.7" y="292.3869"/><text fill="#000000" font-family="sans-serif" font-size="14" font-weight="bold" lengthAdjust="spacing" textLength="75" x="3006.2" y="307.382">Backup &amp;</text><text fill="#000000" font-family="sans-serif" font-size="14" font-weight="bold" lengthAdjust="spacing" textLength="144" x="2971.7" y="323.6789">Disaster Recovery</text></g><!--entity WebApp--><g id="elem_WebApp"><rect fill="#F1F1F1" height="52.5938" rx="2.5" ry="2.5" style="stroke:#181818;stroke-width:0.5;" width="133" x="565.2" y="348.2369"/><text fill="#000000" font-family="sans-serif" font-size="14" lengthAdjust="spacing" textLength="110" x="575.2" y="371.232">Web Application</text><text fill="#000000" font-family="sans-serif" font-size="14" lengthAdjust="spacing" textLength="113" x="575.2" y="387.5289">(React/Vue SPA)</text></g><!--entity MobileApp--><g id="elem_MobileApp"><rect fill="#F1F1F1" height="52.5938" rx="2.5" ry="2.5" style="stroke:#181818;stroke-width:0.5;" width="111" x="419.2" y="348.2369"/><text fill="#000000" font-family="sans-serif" font-size="14" lengthAdjust="spacing" textLength="76" x="429.2" y="371.232">Mobile App</text><text fill="#000000" font-family="sans-serif" font-size="14" lengthAdjust="spacing" textLength="91" x="429.2" y="387.5289">(iOS/Android)</text></g><!--entity AdminUI--><g id="elem_AdminUI"><rect fill="#F1F1F1" height="52.5938" rx="2.5" ry="2.5" style="stroke:#181818;stroke-width:0.5;" width="138" x="245.7" y="348.2369"/><text fill="#000000" font-family="sans-serif" font-size="14" lengthAdjust="spacing" textLength="86" x="255.7" y="371.232">Admin Portal</text><text fill="#000000" font-family="sans-serif" font-size="14" lengthAdjust="spacing" textLength="118" x="255.7" y="387.5289">(Management UI)</text></g><!--entity WAF--><g id="elem_WAF"><rect fill="#F1F1F1" height="52.5938" rx="2.5" ry="2.5" style="stroke:#181818;stroke-width:0.5;" width="130" x="506.7" y="852.3669"/><text fill="#000000" font-family="sans-serif" font-size="14" lengthAdjust="spacing" textLength="110" x="516.7" y="875.362">Web Application</text><text fill="#000000" font-family="sans-serif" font-size="14" lengthAdjust="spacing" textLength="94" x="516.7" y="891.6589">Firewall (WAF)</text></g><!--entity RateLimit--><g id="elem_RateLimit"><rect fill="#F1F1F1" height="46.2969" rx="2.5" ry="2.5" style="stroke:#181818;stroke-width:0.5;" width="121" x="121.2" y="593.8369"/><rect fill="#F1F1F1" height="10" style="stroke:#181818;stroke-width:0.5;" width="15" x="222.2" y="598.8369"/><rect fill="#F1F1F1" height="2" style="stroke:#181818;stroke-width:0.5;" width="4" x="220.2" y="600.8369"/><rect fill="#F1F1F1" height="2" style="stroke:#181818;stroke-width:0.5;" width="4" x="220.2" y="604.8369"/><text fill="#000000" font-family="sans-serif" font-size="14" lengthAdjust="spacing" textLength="81" x="136.2" y="626.832">Rate Limiter</text></g><!--entity Validator--><g id="elem_Validator"><rect fill="#F1F1F1" height="46.2969" rx="2.5" ry="2.5" style="stroke:#181818;stroke-width:0.5;" width="162" x="277.7" y="593.8369"/><rect fill="#F1F1F1" height="10" style="stroke:#181818;stroke-width:0.5;" width="15" x="419.7" y="598.8369"/><rect fill="#F1F1F1" height="2" style="stroke:#181818;stroke-width:0.5;" width="4" x="417.7" y="600.8369"/><rect fill="#F1F1F1" height="2" style="stroke:#181818;stroke-width:0.5;" width="4" x="417.7" y="604.8369"/><text fill="#000000" font-family="sans-serif" font-size="14" lengthAdjust="spacing" textLength="122" x="292.7" y="626.832">Request Validator</text></g><!--entity CORS--><g id="elem_CORS"><rect fill="#F1F1F1" height="46.2969" rx="2.5" ry="2.5" style="stroke:#181818;stroke-width:0.5;" width="137" x="130.2" y="855.5169"/><rect fill="#F1F1F1" height="10" style="stroke:#181818;stroke-width:0.5;" width="15" x="247.2" y="860.5169"/><rect fill="#F1F1F1" height="2" style="stroke:#181818;stroke-width:0.5;" width="4" x="245.2" y="862.5169"/><rect fill="#F1F1F1" height="2" style="stroke:#181818;stroke-width:0.5;" width="4" x="245.2" y="866.5169"/><text fill="#000000" font-family="sans-serif" font-size="14" lengthAdjust="spacing" textLength="97" x="145.2" y="888.512">CORS Handler</text></g><!--entity LoadBalancer--><g id="elem_LoadBalancer"><rect fill="#F1F1F1" height="46.2969" rx="2.5" ry="2.5" style="stroke:#181818;stroke-width:0.5;" width="137" x="302.2" y="855.5169"/><rect fill="#F1F1F1" height="10" style="stroke:#181818;stroke-width:0.5;" width="15" x="419.2" y="860.5169"/><rect fill="#F1F1F1" height="2" style="stroke:#181818;stroke-width:0.5;" width="4" x="417.2" y="862.5169"/><rect fill="#F1F1F1" height="2" style="stroke:#181818;stroke-width:0.5;" width="4" x="417.2" y="866.5169"/><text fill="#000000" font-family="sans-serif" font-size="14" lengthAdjust="spacing" textLength="97" x="317.2" y="888.512">Load Balancer</text></g><!--entity Credential Validator--><g id="elem_Credential Validator"><rect fill="#F1F1F1" height="46.2969" rx="2.5" ry="2.5" style="stroke:#181818;stroke-width:0.5;" width="173" x="1152.2" y="855.5169"/><rect fill="#F1F1F1" height="10" style="stroke:#181818;stroke-width:0.5;" width="15" x="1305.2" y="860.5169"/><rect fill="#F1F1F1" height="2" style="stroke:#181818;stroke-width:0.5;" width="4" x="1303.2" y="862.5169"/><rect fill="#F1F1F1" height="2" style="stroke:#181818;stroke-width:0.5;" width="4" x="1303.2" y="866.5169"/><text fill="#000000" font-family="sans-serif" font-size="14" lengthAdjust="spacing" textLength="133" x="1167.2" y="888.512">Credential Validator</text></g><!--entity MFA Validator--><g id="elem_MFA Validator"><rect fill="#F1F1F1" height="46.2969" rx="2.5" ry="2.5" style="stroke:#181818;stroke-width:0.5;" width="132" x="1359.7" y="855.5169"/><rect fill="#F1F1F1" height="10" style="stroke:#181818;stroke-width:0.5;" width="15" x="1471.7" y="860.5169"/><rect fill="#F1F1F1" height="2" style="stroke:#181818;stroke-width:0.5;" width="4" x="1469.7" y="862.5169"/><rect fill="#F1F1F1" height="2" style="stroke:#181818;stroke-width:0.5;" width="4" x="1469.7" y="866.5169"/><text fill="#000000" font-family="sans-serif" font-size="14" lengthAdjust="spacing" textLength="92" x="1374.7" y="888.512">MFA Validator</text></g><!--entity JWT Generator--><g id="elem_JWT Generator"><rect fill="#F1F1F1" height="46.2969" rx="2.5" ry="2.5" style="stroke:#181818;stroke-width:0.5;" width="139" x="1159.2" y="1037.1069"/><rect fill="#F1F1F1" height="10" style="stroke:#181818;stroke-width:0.5;" width="15" x="1278.2" y="1042.1069"/><rect fill="#F1F1F1" height="2" style="stroke:#181818;stroke-width:0.5;" width="4" x="1276.2" y="1044.1069"/><rect fill="#F1F1F1" height="2" style="stroke:#181818;stroke-width:0.5;" width="4" x="1276.2" y="1048.1069"/><text fill="#000000" font-family="sans-serif" font-size="14" lengthAdjust="spacing" textLength="99" x="1174.2" y="1070.102">JWT Generator</text></g><!--entity Session Manager--><g id="elem_Session Manager"><rect fill="#F1F1F1" height="46.2969" rx="2.5" ry="2.5" style="stroke:#181818;stroke-width:0.5;" width="159" x="1333.2" y="1037.1069"/><rect fill="#F1F1F1" height="10" style="stroke:#181818;stroke-width:0.5;" width="15" x="1472.2" y="1042.1069"/><rect fill="#F1F1F1" height="2" style="stroke:#181818;stroke-width:0.5;" width="4" x="1470.2" y="1044.1069"/><rect fill="#F1F1F1" height="2" style="stroke:#181818;stroke-width:0.5;" width="4" x="1470.2" y="1048.1069"/><text fill="#000000" font-family="sans-serif" font-size="14" lengthAdjust="spacing" textLength="119" x="1348.2" y="1070.102">Session Manager</text></g><!--entity RBAC Engine--><g id="elem_RBAC Engine"><rect fill="#F1F1F1" height="46.2969" rx="2.5" ry="2.5" style="stroke:#181818;stroke-width:0.5;" width="131" x="767.2" y="855.5169"/><rect fill="#F1F1F1" height="10" style="stroke:#181818;stroke-width:0.5;" width="15" x="878.2" y="860.5169"/><rect fill="#F1F1F1" height="2" style="stroke:#181818;stroke-width:0.5;" width="4" x="876.2" y="862.5169"/><rect fill="#F1F1F1" height="2" style="stroke:#181818;stroke-width:0.5;" width="4" x="876.2" y="866.5169"/><text fill="#000000" font-family="sans-serif" font-size="14" lengthAdjust="spacing" textLength="91" x="782.2" y="888.512">RBAC Engine</text></g><!--entity ABAC Engine--><g id="elem_ABAC Engine"><rect fill="#F1F1F1" height="46.2969" rx="2.5" ry="2.5" style="stroke:#181818;stroke-width:0.5;" width="130" x="933.7" y="855.5169"/><rect fill="#F1F1F1" height="10" style="stroke:#181818;stroke-width:0.5;" width="15" x="1043.7" y="860.5169"/><rect fill="#F1F1F1" height="2" style="stroke:#181818;stroke-width:0.5;" width="4" x="1041.7" y="862.5169"/><rect fill="#F1F1F1" height="2" style="stroke:#181818;stroke-width:0.5;" width="4" x="1041.7" y="866.5169"/><text fill="#000000" font-family="sans-serif" font-size="14" lengthAdjust="spacing" textLength="90" x="948.7" y="888.512">ABAC Engine</text></g><!--entity Permission Evaluator--><g id="elem_Permission Evaluator"><rect fill="#F1F1F1" height="46.2969" rx="2.5" ry="2.5" style="stroke:#181818;stroke-width:0.5;" width="183" x="768.2" y="1037.1069"/><rect fill="#F1F1F1" height="10" style="stroke:#181818;stroke-width:0.5;" width="15" x="931.2" y="1042.1069"/><rect fill="#F1F1F1" height="2" style="stroke:#181818;stroke-width:0.5;" width="4" x="929.2" y="1044.1069"/><rect fill="#F1F1F1" height="2" style="stroke:#181818;stroke-width:0.5;" width="4" x="929.2" y="1048.1069"/><text fill="#000000" font-family="sans-serif" font-size="14" lengthAdjust="spacing" textLength="143" x="783.2" y="1070.102">Permission Evaluator</text></g><!--entity Upload Handler--><g id="elem_Upload Handler"><rect fill="#F1F1F1" height="46.2969" rx="2.5" ry="2.5" style="stroke:#181818;stroke-width:0.5;" width="145" x="1599.2" y="855.5169"/><rect fill="#F1F1F1" height="10" style="stroke:#181818;stroke-width:0.5;" width="15" x="1724.2" y="860.5169"/><rect fill="#F1F1F1" height="2" style="stroke:#181818;stroke-width:0.5;" width="4" x="1722.2" y="862.5169"/><rect fill="#F1F1F1" height="2" style="stroke:#181818;stroke-width:0.5;" width="4" x="1722.2" y="866.5169"/><text fill="#000000" font-family="sans-serif" font-size="14" lengthAdjust="spacing" textLength="105" x="1614.2" y="888.512">Upload Handler</text></g><!--entity Download Handler--><g id="elem_Download Handler"><rect fill="#F1F1F1" height="46.2969" rx="2.5" ry="2.5" style="stroke:#181818;stroke-width:0.5;" width="166" x="1779.7" y="855.5169"/><rect fill="#F1F1F1" height="10" style="stroke:#181818;stroke-width:0.5;" width="15" x="1925.7" y="860.5169"/><rect fill="#F1F1F1" height="2" style="stroke:#181818;stroke-width:0.5;" width="4" x="1923.7" y="862.5169"/><rect fill="#F1F1F1" height="2" style="stroke:#181818;stroke-width:0.5;" width="4" x="1923.7" y="866.5169"/><text fill="#000000" font-family="sans-serif" font-size="14" lengthAdjust="spacing" textLength="126" x="1794.7" y="888.512">Download Handler</text></g><!--entity Version Manager--><g id="elem_Version Manager"><rect fill="#F1F1F1" height="46.2969" rx="2.5" ry="2.5" style="stroke:#181818;stroke-width:0.5;" width="156" x="1598.7" y="1037.1069"/><rect fill="#F1F1F1" height="10" style="stroke:#181818;stroke-width:0.5;" width="15" x="1734.7" y="1042.1069"/><rect fill="#F1F1F1" height="2" style="stroke:#181818;stroke-width:0.5;" width="4" x="1732.7" y="1044.1069"/><rect fill="#F1F1F1" height="2" style="stroke:#181818;stroke-width:0.5;" width="4" x="1732.7" y="1048.1069"/><text fill="#000000" font-family="sans-serif" font-size="14" lengthAdjust="spacing" textLength="116" x="1613.7" y="1070.102">Version Manager</text></g><!--entity Search Engine--><g id="elem_Search Engine"><rect fill="#F1F1F1" height="46.2969" rx="2.5" ry="2.5" style="stroke:#181818;stroke-width:0.5;" width="140" x="1789.7" y="1037.1069"/><rect fill="#F1F1F1" height="10" style="stroke:#181818;stroke-width:0.5;" width="15" x="1909.7" y="1042.1069"/><rect fill="#F1F1F1" height="2" style="stroke:#181818;stroke-width:0.5;" width="4" x="1907.7" y="1044.1069"/><rect fill="#F1F1F1" height="2" style="stroke:#181818;stroke-width:0.5;" width="4" x="1907.7" y="1048.1069"/><text fill="#000000" font-family="sans-serif" font-size="14" lengthAdjust="spacing" textLength="100" x="1804.7" y="1070.102">Search Engine</text></g><!--entity Encryption Engine--><g id="elem_Encryption Engine"><rect fill="#F1F1F1" height="46.2969" rx="2.5" ry="2.5" style="stroke:#181818;stroke-width:0.5;" width="165" x="1622.2" y="1231.4069"/><rect fill="#F1F1F1" height="10" style="stroke:#181818;stroke-width:0.5;" width="15" x="1767.2" y="1236.4069"/><rect fill="#F1F1F1" height="2" style="stroke:#181818;stroke-width:0.5;" width="4" x="1765.2" y="1238.4069"/><rect fill="#F1F1F1" height="2" style="stroke:#181818;stroke-width:0.5;" width="4" x="1765.2" y="1242.4069"/><text fill="#000000" font-family="sans-serif" font-size="14" lengthAdjust="spacing" textLength="125" x="1637.2" y="1264.402">Encryption Engine</text></g><!--entity Decryption Engine--><g id="elem_Decryption Engine"><rect fill="#F1F1F1" height="46.2969" rx="2.5" ry="2.5" style="stroke:#181818;stroke-width:0.5;" width="167" x="1822.2" y="1231.4069"/><rect fill="#F1F1F1" height="10" style="stroke:#181818;stroke-width:0.5;" width="15" x="1969.2" y="1236.4069"/><rect fill="#F1F1F1" height="2" style="stroke:#181818;stroke-width:0.5;" width="4" x="1967.2" y="1238.4069"/><rect fill="#F1F1F1" height="2" style="stroke:#181818;stroke-width:0.5;" width="4" x="1967.2" y="1242.4069"/><text fill="#000000" font-family="sans-serif" font-size="14" lengthAdjust="spacing" textLength="127" x="1837.2" y="1264.402">Decryption Engine</text></g><!--entity Key Manager--><g id="elem_Key Manager"><rect fill="#F1F1F1" height="46.2969" rx="2.5" ry="2.5" style="stroke:#181818;stroke-width:0.5;" width="129" x="1640.2" y="1503.9469"/><rect fill="#F1F1F1" height="10" style="stroke:#181818;stroke-width:0.5;" width="15" x="1749.2" y="1508.9469"/><rect fill="#F1F1F1" height="2" style="stroke:#181818;stroke-width:0.5;" width="4" x="1747.2" y="1510.9469"/><rect fill="#F1F1F1" height="2" style="stroke:#181818;stroke-width:0.5;" width="4" x="1747.2" y="1514.9469"/><text fill="#000000" font-family="sans-serif" font-size="14" lengthAdjust="spacing" textLength="89" x="1655.2" y="1536.942">Key Manager</text></g><!--entity CSPRNG--><g id="elem_CSPRNG"><rect fill="#F1F1F1" height="46.2969" rx="2.5" ry="2.5" style="stroke:#181818;stroke-width:0.5;" width="99" x="1804.2" y="1503.9469"/><rect fill="#F1F1F1" height="10" style="stroke:#181818;stroke-width:0.5;" width="15" x="1883.2" y="1508.9469"/><rect fill="#F1F1F1" height="2" style="stroke:#181818;stroke-width:0.5;" width="4" x="1881.2" y="1510.9469"/><rect fill="#F1F1F1" height="2" style="stroke:#181818;stroke-width:0.5;" width="4" x="1881.2" y="1514.9469"/><text fill="#000000" font-family="sans-serif" font-size="14" lengthAdjust="spacing" textLength="59" x="1819.2" y="1536.942">CSPRNG</text></g><!--entity Log Collector--><g id="elem_Log Collector"><rect fill="#F1F1F1" height="46.2969" rx="2.5" ry="2.5" style="stroke:#181818;stroke-width:0.5;" width="130" x="798.7" y="1231.4069"/><rect fill="#F1F1F1" height="10" style="stroke:#181818;stroke-width:0.5;" width="15" x="908.7" y="1236.4069"/><rect fill="#F1F1F1" height="2" style="stroke:#181818;stroke-width:0.5;" width="4" x="906.7" y="1238.4069"/><rect fill="#F1F1F1" height="2" style="stroke:#181818;stroke-width:0.5;" width="4" x="906.7" y="1242.4069"/><text fill="#000000" font-family="sans-serif" font-size="14" lengthAdjust="spacing" textLength="90" x="813.7" y="1264.402">Log Collector</text></g><!--entity Log Hasher--><g id="elem_Log Hasher"><rect fill="#F1F1F1" height="46.2969" rx="2.5" ry="2.5" style="stroke:#181818;stroke-width:0.5;" width="118" x="963.7" y="1231.4069"/><rect fill="#F1F1F1" height="10" style="stroke:#181818;stroke-width:0.5;" width="15" x="1061.7" y="1236.4069"/><rect fill="#F1F1F1" height="2" style="stroke:#181818;stroke-width:0.5;" width="4" x="1059.7" y="1238.4069"/><rect fill="#F1F1F1" height="2" style="stroke:#181818;stroke-width:0.5;" width="4" x="1059.7" y="1242.4069"/><text fill="#000000" font-family="sans-serif" font-size="14" lengthAdjust="spacing" textLength="78" x="978.7" y="1264.402">Log Hasher</text></g><!--entity Log Writer--><g id="elem_Log Writer"><rect fill="#F1F1F1" height="46.2969" rx="2.5" ry="2.5" style="stroke:#181818;stroke-width:0.5;" width="109" x="805.2" y="1503.9469"/><rect fill="#F1F1F1" height="10" style="stroke:#181818;stroke-width:0.5;" width="15" x="894.2" y="1508.9469"/><rect fill="#F1F1F1" height="2" style="stroke:#181818;stroke-width:0.5;" width="4" x="892.2" y="1510.9469"/><rect fill="#F1F1F1" height="2" style="stroke:#181818;stroke-width:0.5;" width="4" x="892.2" y="1514.9469"/><text fill="#000000" font-family="sans-serif" font-size="14" lengthAdjust="spacing" textLength="69" x="820.2" y="1536.942">Log Writer</text></g><!--entity Query Engine--><g id="elem_Query Engine"><rect fill="#F1F1F1" height="46.2969" rx="2.5" ry="2.5" style="stroke:#181818;stroke-width:0.5;" width="133" x="949.2" y="1503.9469"/><rect fill="#F1F1F1" height="10" style="stroke:#181818;stroke-width:0.5;" width="15" x="1062.2" y="1508.9469"/><rect fill="#F1F1F1" height="2" style="stroke:#181818;stroke-width:0.5;" width="4" x="1060.2" y="1510.9469"/><rect fill="#F1F1F1" height="2" style="stroke:#181818;stroke-width:0.5;" width="4" x="1060.2" y="1514.9469"/><text fill="#000000" font-family="sans-serif" font-size="14" lengthAdjust="spacing" textLength="93" x="964.2" y="1536.942">Query Engine</text></g><!--entity Alert Manager--><g id="elem_Alert Manager"><rect fill="#F1F1F1" height="46.2969" rx="2.5" ry="2.5" style="stroke:#181818;stroke-width:0.5;" width="135" x="1189.2" y="1503.9469"/><rect fill="#F1F1F1" height="10" style="stroke:#181818;stroke-width:0.5;" width="15" x="1304.2" y="1508.9469"/><rect fill="#F1F1F1" height="2" style="stroke:#181818;stroke-width:0.5;" width="4" x="1302.2" y="1510.9469"/><rect fill="#F1F1F1" height="2" style="stroke:#181818;stroke-width:0.5;" width="4" x="1302.2" y="1514.9469"/><text fill="#000000" font-family="sans-serif" font-size="14" lengthAdjust="spacing" textLength="95" x="1204.2" y="1536.942">Alert Manager</text></g><!--entity Email Dispatcher--><g id="elem_Email Dispatcher"><rect fill="#F1F1F1" height="46.2969" rx="2.5" ry="2.5" style="stroke:#181818;stroke-width:0.5;" width="155" x="1359.2" y="1503.9469"/><rect fill="#F1F1F1" height="10" style="stroke:#181818;stroke-width:0.5;" width="15" x="1494.2" y="1508.9469"/><rect fill="#F1F1F1" height="2" style="stroke:#181818;stroke-width:0.5;" width="4" x="1492.2" y="1510.9469"/><rect fill="#F1F1F1" height="2" style="stroke:#181818;stroke-width:0.5;" width="4" x="1492.2" y="1514.9469"/><text fill="#000000" font-family="sans-serif" font-size="14" lengthAdjust="spacing" textLength="115" x="1374.2" y="1536.942">Email Dispatcher</text></g><!--entity Event Publisher--><g id="elem_Event Publisher"><rect fill="#F1F1F1" height="46.2969" rx="2.5" ry="2.5" style="stroke:#181818;stroke-width:0.5;" width="147" x="1189.2" y="1672.4969"/><rect fill="#F1F1F1" height="10" style="stroke:#181818;stroke-width:0.5;" width="15" x="1316.2" y="1677.4969"/><rect fill="#F1F1F1" height="2" style="stroke:#181818;stroke-width:0.5;" width="4" x="1314.2" y="1679.4969"/><rect fill="#F1F1F1" height="2" style="stroke:#181818;stroke-width:0.5;" width="4" x="1314.2" y="1683.4969"/><text fill="#000000" font-family="sans-serif" font-size="14" lengthAdjust="spacing" textLength="107" x="1204.2" y="1705.492">Event Publisher</text></g><!--entity Users & Auth--><g id="elem_Users &amp; Auth"><rect fill="#F1F1F1" height="36.2969" rx="35" ry="35" style="stroke:#181818;stroke-width:0.5;" width="112" x="2204.7" y="1508.9469"/><text fill="#000000" font-family="sans-serif" font-size="14" lengthAdjust="spacing" textLength="92" x="2214.7" y="1531.942">Users &amp; Auth</text></g><!--entity Document Metadata--><g id="elem_Document Metadata"><rect fill="#F1F1F1" height="36.2969" rx="35" ry="35" style="stroke:#181818;stroke-width:0.5;" width="161" x="2352.2" y="1508.9469"/><text fill="#000000" font-family="sans-serif" font-size="14" lengthAdjust="spacing" textLength="141" x="2362.2" y="1531.942">Document Metadata</text></g><!--entity Permissions--><g id="elem_Permissions"><rect fill="#F1F1F1" height="36.2969" rx="35" ry="35" style="stroke:#181818;stroke-width:0.5;" width="104" x="2219.7" y="1677.4969"/><text fill="#000000" font-family="sans-serif" font-size="14" lengthAdjust="spacing" textLength="84" x="2229.7" y="1700.492">Permissions</text></g><!--entity Versions--><g id="elem_Versions"><rect fill="#F1F1F1" height="36.2969" rx="35" ry="35" style="stroke:#181818;stroke-width:0.5;" width="80" x="2358.7" y="1677.4969"/><text fill="#000000" font-family="sans-serif" font-size="14" lengthAdjust="spacing" textLength="60" x="2368.7" y="1700.492">Versions</text></g><!--entity Encrypted Blobs--><g id="elem_Encrypted Blobs"><rect fill="#F1F1F1" height="36.2969" rx="35" ry="35" style="stroke:#181818;stroke-width:0.5;" width="133" x="2620.2" y="1508.9469"/><text fill="#000000" font-family="sans-serif" font-size="14" lengthAdjust="spacing" textLength="113" x="2630.2" y="1531.942">Encrypted Blobs</text></g><!--entity Binary Content--><g id="elem_Binary Content"><rect fill="#F1F1F1" height="36.2969" rx="35" ry="35" style="stroke:#181818;stroke-width:0.5;" width="122" x="2787.7" y="1508.9469"/><text fill="#000000" font-family="sans-serif" font-size="14" lengthAdjust="spacing" textLength="102" x="2797.7" y="1531.942">Binary Content</text></g><!--entity Audit Logs--><g id="elem_Audit Logs"><rect fill="#F1F1F1" height="36.2969" rx="35" ry="35" style="stroke:#181818;stroke-width:0.5;" width="92" x="3016.7" y="1508.9469"/><text fill="#000000" font-family="sans-serif" font-size="14" lengthAdjust="spacing" textLength="72" x="3026.7" y="1531.942">Audit Logs</text></g><!--entity Hash Chain--><g id="elem_Hash Chain"><rect fill="#F1F1F1" height="36.2969" rx="35" ry="35" style="stroke:#181818;stroke-width:0.5;" width="98" x="3143.7" y="1508.9469"/><text fill="#000000" font-family="sans-serif" font-size="14" lengthAdjust="spacing" textLength="78" x="3153.7" y="1531.942">Hash Chain</text></g><!--entity Compliance Data--><g id="elem_Compliance Data"><rect fill="#F1F1F1" height="36.2969" rx="35" ry="35" style="stroke:#181818;stroke-width:0.5;" width="137" x="3017.2" y="1677.4969"/><text fill="#000000" font-family="sans-serif" font-size="14" lengthAdjust="spacing" textLength="117" x="3027.2" y="1700.492">Compliance Data</text></g><!--entity Session Data--><g id="elem_Session Data"><rect fill="#F1F1F1" height="36.2969" rx="35" ry="35" style="stroke:#181818;stroke-width:0.5;" width="111" x="2224.2" y="1889.7969"/><text fill="#000000" font-family="sans-serif" font-size="14" lengthAdjust="spacing" textLength="91" x="2234.2" y="1912.792">Session Data</text></g><!--entity JWT Blacklist--><g id="elem_JWT Blacklist"><rect fill="#F1F1F1" height="36.2969" rx="35" ry="35" style="stroke:#181818;stroke-width:0.5;" width="105" x="2370.2" y="1889.7969"/><text fill="#000000" font-family="sans-serif" font-size="14" lengthAdjust="spacing" textLength="85" x="2380.2" y="1912.792">JWT Blacklist</text></g><!--entity Search Index--><g id="elem_Search Index"><rect fill="#F1F1F1" height="36.2969" rx="35" ry="35" style="stroke:#181818;stroke-width:0.5;" width="109" x="2225.2" y="1987.0869"/><text fill="#000000" font-family="sans-serif" font-size="14" lengthAdjust="spacing" textLength="89" x="2235.2" y="2010.082">Search Index</text></g><!--entity Metrics (Prometheus)--><g id="elem_Metrics (Prometheus)"><rect fill="#F1F1F1" height="46.2969" rx="2.5" ry="2.5" style="stroke:#181818;stroke-width:0.5;" width="189" x="2381.2" y="351.3869"/><rect fill="#F1F1F1" height="10" style="stroke:#181818;stroke-width:0.5;" width="15" x="2550.2" y="356.3869"/><rect fill="#F1F1F1" height="2" style="stroke:#181818;stroke-width:0.5;" width="4" x="2548.2" y="358.3869"/><rect fill="#F1F1F1" height="2" style="stroke:#181818;stroke-width:0.5;" width="4" x="2548.2" y="362.3869"/><text fill="#000000" font-family="sans-serif" font-size="14" lengthAdjust="spacing" textLength="149" x="2396.2" y="384.382">Metrics (Prometheus)</text></g><!--entity Logging (ELK)--><g id="elem_Logging (ELK)"><rect fill="#F1F1F1" height="46.2969" rx="2.5" ry="2.5" style="stroke:#181818;stroke-width:0.5;" width="134" x="2604.7" y="351.3869"/><rect fill="#F1F1F1" height="10" style="stroke:#181818;stroke-width:0.5;" width="15" x="2718.7" y="356.3869"/><rect fill="#F1F1F1" height="2" style="stroke:#181818;stroke-width:0.5;" width="4" x="2716.7" y="358.3869"/><rect fill="#F1F1F1" height="2" style="stroke:#181818;stroke-width:0.5;" width="4" x="2716.7" y="362.3869"/><text fill="#000000" font-family="sans-serif" font-size="14" lengthAdjust="spacing" textLength="94" x="2619.7" y="384.382">Logging (ELK)</text></g><!--entity Tracing (Jaeger)--><g id="elem_Tracing (Jaeger)"><rect fill="#F1F1F1" height="46.2969" rx="2.5" ry="2.5" style="stroke:#181818;stroke-width:0.5;" width="148" x="2401.7" y="593.8369"/><rect fill="#F1F1F1" height="10" style="stroke:#181818;stroke-width:0.5;" width="15" x="2529.7" y="598.8369"/><rect fill="#F1F1F1" height="2" style="stroke:#181818;stroke-width:0.5;" width="4" x="2527.7" y="600.8369"/><rect fill="#F1F1F1" height="2" style="stroke:#181818;stroke-width:0.5;" width="4" x="2527.7" y="604.8369"/><text fill="#000000" font-family="sans-serif" font-size="14" lengthAdjust="spacing" textLength="108" x="2416.7" y="626.832">Tracing (Jaeger)</text></g><!--entity Alerting--><g id="elem_Alerting"><rect fill="#F1F1F1" height="46.2969" rx="2.5" ry="2.5" style="stroke:#181818;stroke-width:0.5;" width="92" x="2584.7" y="593.8369"/><rect fill="#F1F1F1" height="10" style="stroke:#181818;stroke-width:0.5;" width="15" x="2656.7" y="598.8369"/><rect fill="#F1F1F1" height="2" style="stroke:#181818;stroke-width:0.5;" width="4" x="2654.7" y="600.8369"/><rect fill="#F1F1F1" height="2" style="stroke:#181818;stroke-width:0.5;" width="4" x="2654.7" y="604.8369"/><text fill="#000000" font-family="sans-serif" font-size="14" lengthAdjust="spacing" textLength="52" x="2599.7" y="626.832">Alerting</text></g><!--entity Automated Backups--><g id="elem_Automated Backups"><rect fill="#F1F1F1" height="46.2969" rx="2.5" ry="2.5" style="stroke:#181818;stroke-width:0.5;" width="180" x="2845.7" y="351.3869"/><rect fill="#F1F1F1" height="10" style="stroke:#181818;stroke-width:0.5;" width="15" x="3005.7" y="356.3869"/><rect fill="#F1F1F1" height="2" style="stroke:#181818;stroke-width:0.5;" width="4" x="3003.7" y="358.3869"/><rect fill="#F1F1F1" height="2" style="stroke:#181818;stroke-width:0.5;" width="4" x="3003.7" y="362.3869"/><text fill="#000000" font-family="sans-serif" font-size="14" lengthAdjust="spacing" textLength="140" x="2860.7" y="384.382">Automated Backups</text></g><!--entity Point-in-Time Recovery--><g id="elem_Point-in-Time Recovery"><rect fill="#F1F1F1" height="46.2969" rx="2.5" ry="2.5" style="stroke:#181818;stroke-width:0.5;" width="199" x="3061.2" y="351.3869"/><rect fill="#F1F1F1" height="10" style="stroke:#181818;stroke-width:0.5;" width="15" x="3240.2" y="356.3869"/><rect fill="#F1F1F1" height="2" style="stroke:#181818;stroke-width:0.5;" width="4" x="3238.2" y="358.3869"/><rect fill="#F1F1F1" height="2" style="stroke:#181818;stroke-width:0.5;" width="4" x="3238.2" y="362.3869"/><text fill="#000000" font-family="sans-serif" font-size="14" lengthAdjust="spacing" textLength="159" x="3076.2" y="384.382">Point-in-Time Recovery</text></g><!--entity Geo-Replication--><g id="elem_Geo-Replication"><rect fill="#F1F1F1" height="46.2969" rx="2.5" ry="2.5" style="stroke:#181818;stroke-width:0.5;" width="150" x="2860.7" y="593.8369"/><rect fill="#F1F1F1" height="10" style="stroke:#181818;stroke-width:0.5;" width="15" x="2990.7" y="598.8369"/><rect fill="#F1F1F1" height="2" style="stroke:#181818;stroke-width:0.5;" width="4" x="2988.7" y="600.8369"/><rect fill="#F1F1F1" height="2" style="stroke:#181818;stroke-width:0.5;" width="4" x="2988.7" y="604.8369"/><text fill="#000000" font-family="sans-serif" font-size="14" lengthAdjust="spacing" textLength="110" x="2875.7" y="626.832">Geo-Replication</text></g><!--entity Users--><g id="elem_Users"><ellipse cx="533.7" cy="51.2969" fill="#90EE90" rx="8" ry="8" style="stroke:#181818;stroke-width:0.5;"/><path d="M533.7,59.2969 L533.7,86.2969 M520.7,67.2969 L546.7,67.2969 M533.7,86.2969 L520.7,101.2969 M533.7,86.2969 L546.7,101.2969 " fill="none" style="stroke:#181818;stroke-width:0.5;"/><text fill="#000000" font-family="sans-serif" font-size="14" lengthAdjust="spacing" textLength="71" x="473.2" y="115.792">End Users</text><text fill="#000000" font-family="sans-serif" font-size="14" lengthAdjust="spacing" textLength="121" x="473.2" y="132.0889">(Agents/Analysts)</text></g><!--entity Admins--><g id="elem_Admins"><ellipse cx="314.7" cy="51.2969" fill="#FFFFE0" rx="8" ry="8" style="stroke:#181818;stroke-width:0.5;"/><path d="M314.7,59.2969 L314.7,86.2969 M301.7,67.2969 L327.7,67.2969 M314.7,86.2969 L301.7,101.2969 M314.7,86.2969 L327.7,101.2969 " fill="none" style="stroke:#181818;stroke-width:0.5;"/><text fill="#000000" font-family="sans-serif" font-size="14" lengthAdjust="spacing" textLength="51" x="265.2" y="115.792">System</text><text fill="#000000" font-family="sans-serif" font-size="14" lengthAdjust="spacing" textLength="99" x="265.2" y="132.0889">Administrators</text></g><!--entity Auditors--><g id="elem_Auditors"><ellipse cx="3402.7" cy="336.7369" fill="#E6E6FA" rx="8" ry="8" style="stroke:#181818;stroke-width:0.5;"/><path d="M3402.7,344.7369 L3402.7,371.7369 M3389.7,352.7369 L3415.7,352.7369 M3402.7,371.7369 L3389.7,386.7369 M3402.7,371.7369 L3415.7,386.7369 " fill="none" style="stroke:#181818;stroke-width:0.5;"/><text fill="#000000" font-family="sans-serif" font-size="14" lengthAdjust="spacing" textLength="57" x="3357.2" y="401.232">Auditors</text><text fill="#000000" font-family="sans-serif" font-size="14" lengthAdjust="spacing" textLength="91" x="3357.2" y="417.5289">(Compliance)</text></g><!--entity MFA--><g id="elem_MFA"><path d="M3365.5397,1028.8081 C3369.5968,1023.0122 3374.9909,1022.2267 3378.4818,1029.3742 C3381.4499,1021.7648 3388.6403,1020.5669 3393.0814,1027.9389 C3394.2169,1021.0989 3399.5785,1020.9099 3403.9161,1024.664 C3408.5832,1017.9374 3413.2005,1017.6799 3418.735,1023.6517 C3423.1004,1017.6291 3428.9098,1019.2752 3431.4473,1025.5425 C3436.4515,1019.6097 3442.0061,1020.3851 3444.262,1028.1194 C3447.1532,1022.9458 3452.2332,1023.15 3455.6064,1027.5481 C3461.1269,1021.5714 3465.8347,1024.4415 3468.3749,1030.6667 C3477.2479,1032.8452 3479.2016,1039.5459 3472.0908,1045.6803 C3479.219,1048.4065 3481.9243,1055.5432 3474.5336,1060.6401 C3482.1553,1067.408 3479.1785,1073.3291 3471.0438,1076.6658 C3476.9897,1081.7341 3478.7559,1087.5885 3470.2158,1091.8678 C3466.0727,1100.1376 3460.967,1100.3062 3455.5082,1093.1197 C3452.4628,1099.7368 3446.3321,1099.685 3443.2393,1093.1639 C3440.1098,1098.3934 3435.7438,1100.0188 3431.6724,1094.1452 C3427.1804,1100.5277 3420.3956,1100.2898 3417.0937,1092.8867 C3413.9628,1097.9514 3409.0378,1097.955 3405.896,1092.8988 C3401.34,1099.6473 3396.8623,1099.2669 3392.2135,1092.9962 C3387.7297,1098.6719 3383.7025,1098.7118 3380.0521,1092.1668 C3375.7983,1099.8929 3371.2775,1099.5101 3366.1477,1093.0237 C3357.3424,1089.569 3357.1785,1083.3715 3362.7501,1076.8893 C3354.3621,1073.9053 3354.7258,1066.8367 3360.3498,1061.6462 C3354.1119,1054.7689 3353.5068,1048.3298 3363.7508,1044.775 C3357.7699,1039.442 3358.0699,1032.6341 3365.5397,1028.8081 " fill="#ADD8E6" style="stroke:#181818;stroke-width:0.5;"/><text fill="#000000" font-family="sans-serif" font-size="14" lengthAdjust="spacing" textLength="55" x="3372.2" y="1048.802">External</text><text fill="#000000" font-family="sans-serif" font-size="14" lengthAdjust="spacing" textLength="89" x="3372.2" y="1065.0989">MFA Provider</text><text fill="#000000" font-family="sans-serif" font-size="14" lengthAdjust="spacing" textLength="48" x="3372.2" y="1081.3957">(TOTP)</text></g><!--entity KMS--><g id="elem_KMS"><path d="M3364.2734,1497.6805 C3368.5146,1489.8888 3373.1159,1491.0667 3378.4683,1496.4866 C3382.7548,1489.1855 3387.4012,1487.8304 3393.4483,1494.6142 C3397.0848,1487.0563 3402.4066,1486.42 3407.4814,1493.2073 C3412.6089,1485.9425 3417.9181,1486.0104 3422.6474,1493.6135 C3426.9188,1486.8736 3432.8025,1485.1101 3437.6141,1493.0632 C3441.2951,1487.3093 3446.3692,1486.4154 3450.8412,1492.1527 C3454.0856,1484.7353 3457.9624,1483.2261 3464.1302,1489.2658 C3468.489,1481.9399 3475.5777,1484.2224 3478.8286,1490.4658 C3483.0334,1482.3035 3490.1866,1483.9149 3493.9919,1490.8666 C3499.3485,1484.0237 3504.7774,1484.9306 3508.0734,1492.8343 C3512.1864,1485.7929 3518.3886,1486.2283 3522.6508,1492.6731 C3527.5773,1486.1016 3533.6136,1485.98 3536.9561,1494.2045 C3541.4925,1488.8662 3547.1466,1487.3556 3550.8162,1495.1213 C3555.7084,1489.5793 3560.7921,1489.2867 3564.1682,1496.6855 C3572.0629,1499.0853 3572.3994,1506.6112 3567.1843,1511.6528 C3575.93,1515.5836 3577.1346,1520.6496 3571.4184,1528.2661 C3578.7041,1534.2434 3576.212,1540.5381 3568.7029,1543.9545 C3574.1028,1550.8774 3573.7385,1557.9213 3563.8854,1560.3669 C3559.9326,1567.7232 3553.8911,1567.8124 3549.2897,1561.0369 C3545.2899,1567.7971 3538.6666,1568.524 3534.8121,1560.8908 C3531.6242,1567.7535 3525.7107,1567.0394 3521.8821,1561.5622 C3518.0521,1568.264 3512.0461,1567.2323 3508.4559,1561.3072 C3505.2709,1568.843 3497.9797,1568.5674 3493.7025,1562.491 C3489.1175,1569.4954 3483.3988,1568.9036 3478.641,1562.6879 C3474.6352,1569.5146 3470.3851,1568.9322 3465.7647,1563.3243 C3461.2164,1569.8153 3456.1568,1569.9231 3451.6107,1563.3218 C3446.3527,1570.8665 3440.1153,1569.1147 3436.0425,1562.058 C3432.0823,1568.996 3426.7365,1568.3245 3422.6982,1562.1373 C3418.5889,1568.4134 3412.6031,1568.9806 3408.2828,1562.3734 C3403.0562,1567.795 3398.3296,1567.9415 3395.0303,1560.4026 C3390.6816,1567.4173 3384.1719,1570.0391 3378.5938,1561.7203 C3373.646,1566.7894 3369.4424,1567.3921 3365.4451,1560.6611 C3355.5669,1557.4528 3354.8488,1549.6349 3362.0145,1543.0975 C3353.3407,1541.2169 3351.0792,1536.2241 3356.6875,1528.9615 C3349.3637,1521.5945 3350.2728,1515.7129 3360.3996,1512.214 C3354.3203,1506.3462 3355.9275,1499.7034 3364.2734,1497.6805 " fill="#F08080" style="stroke:#181818;stroke-width:0.5;"/><text fill="#000000" font-family="sans-serif" font-size="14" lengthAdjust="spacing" textLength="120" x="3371.2" y="1515.652">Key Management</text><text fill="#000000" font-family="sans-serif" font-size="14" lengthAdjust="spacing" textLength="130" x="3371.2" y="1531.9489">Service (KMS/HSM)</text><text fill="#000000" font-family="sans-serif" font-size="14" lengthAdjust="spacing" textLength="185" x="3371.2" y="1548.2457">AWS KMS / Azure Key Vault</text></g><!--entity Notifications--><g id="elem_Notifications"><path d="M3365.8548,1664.9387 C3369.4181,1659.2858 3372.9749,1657.161 3378.111,1663.3045 C3381.2458,1658.0151 3385.5136,1657.999 3388.7144,1663.2381 C3389.6763,1657.6095 3394.5901,1656.5362 3398.5938,1659.8942 C3402.2936,1654.7318 3406.4325,1655.3854 3409.9476,1660.1064 C3414.2035,1654.8987 3418.1987,1656.7486 3420.9788,1661.7078 C3425.1392,1655.6098 3428.6233,1657.301 3432.3707,1662.1381 C3436.8724,1656.825 3441.5923,1656.0175 3445.3326,1662.9444 C3449.9612,1658.5648 3453.5484,1659.337 3455.9017,1665.2751 C3464.05,1669.1805 3463.3716,1675.0707 3457.4156,1680.3889 C3466.9099,1684.4719 3467.6646,1690.0151 3460.3002,1697.0218 C3467.9676,1702.7227 3466.3125,1708.857 3458.5448,1712.8457 C3464.5525,1718.7549 3464.6661,1723.3154 3456.6391,1727.3849 C3453.4057,1734.0022 3449.0695,1732.9845 3444.77,1728.5277 C3440.6413,1733.7398 3437.0214,1733.8098 3433.4166,1727.9885 C3429.8126,1734.0318 3426.1562,1735.0241 3421.2829,1729.297 C3417.3942,1735.4767 3413.7862,1735.0506 3409.8384,1729.354 C3407.1908,1733.8134 3402.5304,1734.8109 3399.7174,1729.5258 C3396.4767,1734.3814 3391.0873,1733.8471 3388.1972,1729.105 C3384.8843,1734.4185 3379.7145,1734.8973 3376.7535,1728.7535 C3373.5084,1732.9672 3368.8049,1734.2575 3365.9416,1728.3458 C3356.2186,1725.0204 3355.3286,1719.8171 3360.8928,1711.8211 C3353.5353,1709.2263 3351.5156,1701.8368 3357.86,1696.5252 C3350.8039,1690.6106 3351.7717,1683.6091 3361.0219,1681.0195 C3354.9252,1673.507 3355.5642,1667.5261 3365.8548,1664.9387 " fill="#90EE90" style="stroke:#181818;stroke-width:0.5;"/><text fill="#000000" font-family="sans-serif" font-size="14" lengthAdjust="spacing" textLength="71" x="3371.7" y="1684.192">Email/SMS</text><text fill="#000000" font-family="sans-serif" font-size="14" lengthAdjust="spacing" textLength="76" x="3371.7" y="1700.4889">Notification</text><text fill="#000000" font-family="sans-serif" font-size="14" lengthAdjust="spacing" textLength="50" x="3371.7" y="1716.7857">Service</text></g><g id="elem_GMN112"><path d="M3356.7,551.4469 L3356.7,682.5094 L3596.7,682.5094 L3596.7,561.4469 L3586.7,551.4469 L3356.7,551.4469 " fill="#FEFFDD" style="stroke:#181818;stroke-width:0.5;"/><path d="M3586.7,551.4469 L3586.7,561.4469 L3596.7,561.4469 L3586.7,551.4469 " fill="#FEFFDD" style="stroke:#181818;stroke-width:1.0;"/><text fill="#000000" font-family="sans-serif" font-size="13" font-weight="bold" lengthAdjust="spacing" textLength="219" x="3362.7" y="568.5138">API Gateway Responsibilities:</text><text fill="#000000" font-family="sans-serif" font-size="13" lengthAdjust="spacing" textLength="174" x="3362.7" y="583.6466">&#8226; TLS termination (TLS 1.3)</text><text fill="#000000" font-family="sans-serif" font-size="13" lengthAdjust="spacing" textLength="173" x="3362.7" y="598.7794">&#8226; Rate limiting (per user/IP)</text><text fill="#000000" font-family="sans-serif" font-size="13" lengthAdjust="spacing" textLength="129" x="3362.7" y="613.9122">&#8226; Request validation</text><text fill="#000000" font-family="sans-serif" font-size="13" lengthAdjust="spacing" textLength="174" x="3362.7" y="629.045">&#8226; CORS policy enforcement</text><text fill="#000000" font-family="sans-serif" font-size="13" lengthAdjust="spacing" textLength="113" x="3362.7" y="644.1778">&#8226; Request routing</text><text fill="#000000" font-family="sans-serif" font-size="13" lengthAdjust="spacing" textLength="127" x="3362.7" y="659.3106">&#8226; Response caching</text><text fill="#000000" font-family="sans-serif" font-size="13" lengthAdjust="spacing" textLength="111" x="3362.7" y="674.4435">&#8226; Circuit breaking</text></g><g id="elem_GMN115"><path d="M3356.7,1204.1569 L3356.7,1304.9538 L3540.7,1304.9538 L3540.7,1214.1569 L3530.7,1204.1569 L3356.7,1204.1569 " fill="#FEFFDD" style="stroke:#181818;stroke-width:0.5;"/><path d="M3530.7,1204.1569 L3530.7,1214.1569 L3540.7,1214.1569 L3530.7,1204.1569 " fill="#FEFFDD" style="stroke:#181818;stroke-width:1.0;"/><text fill="#000000" font-family="sans-serif" font-size="13" font-weight="bold" lengthAdjust="spacing" textLength="139" x="3362.7" y="1221.2238">Encryption Details:</text><text fill="#000000" font-family="sans-serif" font-size="13" lengthAdjust="spacing" textLength="102" x="3362.7" y="1236.3566">&#8226; AES-256-GCM</text><text fill="#000000" font-family="sans-serif" font-size="13" lengthAdjust="spacing" textLength="147" x="3362.7" y="1251.4894">&#8226; FIPS 140-3 compliant</text><text fill="#000000" font-family="sans-serif" font-size="13" lengthAdjust="spacing" textLength="163" x="3362.7" y="1266.6222">&#8226; Unique IV per operation</text><text fill="#000000" font-family="sans-serif" font-size="13" lengthAdjust="spacing" textLength="141" x="3362.7" y="1281.755">&#8226; Envelope encryption</text><text fill="#000000" font-family="sans-serif" font-size="13" lengthAdjust="spacing" textLength="158" x="3362.7" y="1296.8878">&#8226; Automatic key rotation</text></g><g id="elem_GMN118"><path d="M3716.7,1645.2469 L3716.7,1746.0438 L3898.7,1746.0438 L3898.7,1655.2469 L3888.7,1645.2469 L3716.7,1645.2469 " fill="#FEFFDD" style="stroke:#181818;stroke-width:0.5;"/><path d="M3888.7,1645.2469 L3888.7,1655.2469 L3898.7,1655.2469 L3888.7,1645.2469 " fill="#FEFFDD" style="stroke:#181818;stroke-width:1.0;"/><text fill="#000000" font-family="sans-serif" font-size="13" font-weight="bold" lengthAdjust="spacing" textLength="126" x="3722.7" y="1662.3138">Audit Properties:</text><text fill="#000000" font-family="sans-serif" font-size="13" lengthAdjust="spacing" textLength="135" x="3722.7" y="1677.4466">&#8226; Immutable (WORM)</text><text fill="#000000" font-family="sans-serif" font-size="13" lengthAdjust="spacing" textLength="158" x="3722.7" y="1692.5794">&#8226; Cryptographic chaining</text><text fill="#000000" font-family="sans-serif" font-size="13" lengthAdjust="spacing" textLength="161" x="3722.7" y="1707.7122">&#8226; Separate infrastructure</text><text fill="#000000" font-family="sans-serif" font-size="13" lengthAdjust="spacing" textLength="115" x="3722.7" y="1722.845">&#8226; 7-year retention</text><text fill="#000000" font-family="sans-serif" font-size="13" lengthAdjust="spacing" textLength="99" x="3722.7" y="1737.9778">&#8226; Tamper-proof</text></g><g id="elem_GMN121"><path d="M3497.7,1645.2469 L3497.7,1746.0438 L3681.7,1746.0438 L3681.7,1655.2469 L3671.7,1645.2469 L3497.7,1645.2469 " fill="#FEFFDD" style="stroke:#181818;stroke-width:0.5;"/><path d="M3671.7,1645.2469 L3671.7,1655.2469 L3681.7,1655.2469 L3671.7,1645.2469 " fill="#FEFFDD" style="stroke:#181818;stroke-width:1.0;"/><text fill="#000000" font-family="sans-serif" font-size="13" font-weight="bold" lengthAdjust="spacing" textLength="140" x="3503.7" y="1662.3138">Database Security:</text><text fill="#000000" font-family="sans-serif" font-size="13" lengthAdjust="spacing" textLength="125" x="3503.7" y="1677.4466">&#8226; Encryption at rest</text><text fill="#000000" font-family="sans-serif" font-size="13" lengthAdjust="spacing" textLength="163" x="3503.7" y="1692.5794">&#8226; Row-level security (RLS)</text><text fill="#000000" font-family="sans-serif" font-size="13" lengthAdjust="spacing" textLength="134" x="3503.7" y="1707.7122">&#8226; Connection pooling</text><text fill="#000000" font-family="sans-serif" font-size="13" lengthAdjust="spacing" textLength="141" x="3503.7" y="1722.845">&#8226; Automated backups</text><text fill="#000000" font-family="sans-serif" font-size="13" lengthAdjust="spacing" textLength="146" x="3503.7" y="1737.9778">&#8226; TLS connections only</text></g><!--link Users to WebApp--><g id="link_Users_WebApp"><path d="M556.22,135.8369 C560.61,145.4869 565,155.6869 568.7,165.3869 C593.26,229.7669 613.305,302.3313 623.665,342.0313 " fill="none" id="Users-to-WebApp" style="stroke:#181818;stroke-width:1.0;"/><polygon fill="#181818" points="625.18,347.8369,626.7779,338.1185,623.9175,342.9989,619.0371,340.1385,625.18,347.8369" style="stroke:#181818;stroke-width:1.0;"/><text fill="#000000" font-family="sans-serif" font-size="13" lengthAdjust="spacing" textLength="41" x="575.83" y="178.4538">HTTPS</text></g><!--link Users to MobileApp--><g id="link_Users_MobileApp"><path d="M524.22,135.6269 C511.68,195.8769 491.2233,294.1629 481.2333,342.1329 " fill="none" id="Users-to-MobileApp" style="stroke:#181818;stroke-width:1.0;"/><polygon fill="#181818" points="480.01,348.0069,485.7609,340.0114,481.0294,343.1119,477.9289,338.3804,480.01,348.0069" style="stroke:#181818;stroke-width:1.0;"/><text fill="#000000" font-family="sans-serif" font-size="13" lengthAdjust="spacing" textLength="41" x="518.88" y="178.4538">HTTPS</text></g><!--link Admins to AdminUI--><g id="link_Admins_AdminUI"><path d="M314.7,135.6269 C314.7,195.8769 314.7,294.0369 314.7,342.0069 " fill="none" id="Admins-to-AdminUI" style="stroke:#181818;stroke-width:1.0;"/><polygon fill="#181818" points="314.7,348.0069,318.7,339.0069,314.7,343.0069,310.7,339.0069,314.7,348.0069" style="stroke:#181818;stroke-width:1.0;"/><text fill="#000000" font-family="sans-serif" font-size="13" lengthAdjust="spacing" textLength="41" x="315.7" y="178.4538">HTTPS</text></g><!--link WebApp to Gateway--><g id="link_WebApp_Gateway"><path d="M614.9,401.2669 C594.965,431.7969 560.69,484.2869 531.02,529.7244 C516.185,552.4431 502.5013,573.3988 492.3369,588.9647 C489.7958,592.8562 487.4746,596.4108 485.4105,599.5719 C484.8944,600.3622 484.3945,601.1279 483.9111,601.8681 C483.6694,602.2382 483.4319,602.6019 483.1986,602.9592 C483.082,603.1378 486.2469,598.291 486.1324,598.4664 " fill="none" id="WebApp-to-Gateway" style="stroke:#181818;stroke-width:1.0;"/><polygon fill="#181818" points="482.8519,603.4902,491.1218,598.1415,485.5856,599.3037,484.4234,593.7675,482.8519,603.4902" style="stroke:#181818;stroke-width:1.0;"/><text fill="#000000" font-family="sans-serif" font-size="13" lengthAdjust="spacing" textLength="56" x="581.92" y="463.9038">REST API</text></g><!--link MobileApp to Gateway--><g id="link_MobileApp_Gateway"><path d="M474.7,401.2669 C474.7,431.7969 474.7,484.2869 474.7,529.7244 C474.7,531.1443 474.7,526.5573 474.7,527.9626 " fill="none" id="MobileApp-to-Gateway" style="stroke:#181818;stroke-width:1.0;"/><polygon fill="#181818" points="474.7,533.9626,478.7,524.9626,474.7,528.9626,470.7,524.9626,474.7,533.9626" style="stroke:#181818;stroke-width:1.0;"/><text fill="#000000" font-family="sans-serif" font-size="13" lengthAdjust="spacing" textLength="56" x="475.7" y="463.9038">REST API</text></g><!--link AdminUI to Gateway--><g id="link_AdminUI_Gateway"><path d="M333.31,401.0269 C350.41,422.4369 377.74,452.0169 408.7,467.8369 C427.57,477.4769 440.97,460.5969 455.7,475.8369 C466.4525,486.9569 473.0631,501.0913 476.9194,516.0828 C477.8834,519.8307 478.6754,523.6322 479.3168,527.4535 C479.6375,529.3642 479.9206,531.2798 480.1688,533.1962 C480.2309,533.6753 479.573,528.1975 479.6307,528.6766 " fill="none" id="AdminUI-to-Gateway" style="stroke:#181818;stroke-width:1.0;"/><polygon fill="#181818" points="480.3485,534.6336,483.2431,525.2197,479.7504,529.6695,475.3006,526.1767,480.3485,534.6336" style="stroke:#181818;stroke-width:1.0;"/><text fill="#000000" font-family="sans-serif" font-size="13" lengthAdjust="spacing" textLength="56" x="409.7" y="463.9038">REST API</text></g><!--link Gateway to WAF--><g id="link_Gateway_WAF"><path d="M482.7445,678.0681 C482.7797,678.2579 482.8151,678.448 482.8506,678.6382 C483.1348,680.1598 483.4279,681.6918 483.7299,683.2318 C484.3339,686.3118 484.9741,689.424 485.6519,692.5497 C488.3631,705.0525 491.6775,717.7719 495.7,729.5169 C511.16,774.6369 535.1662,817.996 552.4862,846.776 " fill="none" id="Gateway-to-WAF" style="stroke:#181818;stroke-width:1.0;"/><polygon fill="#181818" points="555.58,851.9169,554.3665,842.1431,553.0018,847.6328,547.5121,846.2681,555.58,851.9169" style="stroke:#181818;stroke-width:1.0;"/><text fill="#000000" font-family="sans-serif" font-size="13" lengthAdjust="spacing" textLength="31" x="496.7" y="725.5838">Filter</text></g><!--link WAF to Gateway--><g id="link_WAF_Gateway"><path d="M568.23,851.9869 C563.17,818.8269 552.19,759.7669 532.7,712.5169 C523.6,690.4419 509.7075,667.5719 497.8,649.8569 C494.8231,645.4281 491.9703,641.3216 489.3475,637.6302 C488.036,635.7845 486.7821,634.0425 485.5989,632.416 C485.0073,631.6028 484.4334,630.8184 483.8788,630.0643 C483.6015,629.6872 483.329,629.3178 483.0616,628.9561 C482.9948,628.8656 486.4981,633.5981 486.4319,633.5087 " fill="none" id="WAF-to-Gateway" style="stroke:#181818;stroke-width:1.0;"/><polygon fill="#181818" points="482.862,628.6862,485.0019,638.2998,485.8369,632.7049,491.4318,633.54,482.862,628.6862" style="stroke:#181818;stroke-width:1.0;"/><text fill="#000000" font-family="sans-serif" font-size="13" lengthAdjust="spacing" textLength="78" x="538.68" y="725.5838">Clean Traffic</text></g><!--link Gateway to AuthService--><g id="link_Gateway_AuthService"><path d="M482.8689,618.3297 C483.2509,618.3461 483.6459,618.3631 484.0536,618.3807 C484.869,618.4159 485.7356,618.4534 486.6524,618.4933 C493.9871,618.8125 504.5395,619.2823 517.8707,619.9036 C544.5332,621.1463 582.3111,622.9951 627.6941,625.457 C718.46,630.3809 839.6463,637.7575 963.17,647.6431 C1210.2175,667.4144 1466.615,697.2219 1507.7,737.5169 C1518.745,748.3469 1525.5044,762.3338 1529.4186,777.2678 C1530.3971,781.0013 1531.1979,784.794 1531.8433,788.6114 C1532.166,790.5201 1532.4499,792.435 1532.6978,794.3517 C1532.7597,794.8309 1532.8194,795.3102 1532.8769,795.7895 C1532.9057,796.0292 1532.2462,790.3084 1532.2738,790.5481 " fill="none" id="Gateway-to-AuthService" style="stroke:#181818;stroke-width:1.0;"/><polygon fill="#181818" points="1532.9616,796.5086,1535.9036,787.1094,1532.3884,791.5415,1527.9563,788.0264,1532.9616,796.5086" style="stroke:#181818;stroke-width:1.0;"/><text fill="#000000" font-family="sans-serif" font-size="13" lengthAdjust="spacing" textLength="93" x="1494.75" y="725.5838">Authentication</text></g><!--link Gateway to AuthzService--><g id="link_Gateway_AuthzService"><path d="M482.7394,619.6895 C482.8711,619.7194 483.0043,619.7496 483.1389,619.7802 C483.6773,619.9028 484.2392,620.0318 484.8237,620.1675 C485.9927,620.4388 487.2524,620.7366 488.5971,621.0613 C491.2867,621.7109 494.3166,622.4686 497.6422,623.3395 C510.9444,626.8234 528.9762,632.12 548.8725,639.5581 C588.665,654.4344 635.915,677.8769 667.7,712.5169 C693.895,741.0619 709.8075,781.5144 719.2138,815.2381 C720.3895,819.4536 721.4637,823.5639 722.4435,827.5327 C722.6884,828.5249 722.9275,829.5083 723.1608,830.4822 C723.2774,830.9692 723.3926,831.4538 723.5064,831.936 C723.5633,832.1771 722.2518,826.5756 722.308,826.8155 " fill="none" id="Gateway-to-AuthzService" style="stroke:#181818;stroke-width:1.0;"/><polygon fill="#181818" points="723.676,832.6574,725.5186,822.9825,722.536,827.7891,717.7293,824.8065,723.676,832.6574" style="stroke:#181818;stroke-width:1.0;"/><text fill="#000000" font-family="sans-serif" font-size="13" lengthAdjust="spacing" textLength="85" x="680.68" y="725.5838">Authorization</text></g><!--link Gateway to DocService--><g id="link_Gateway_DocService"><path d="M484.0846,618.6951 C484.5973,618.7341 485.1303,618.7746 485.6835,618.8167 C487.8961,618.9851 490.4309,619.178 493.2768,619.3946 C504.6605,620.2612 521.0214,621.5077 541.6475,623.0815 C582.8996,626.2291 641.2123,630.686 710.8884,636.032 C850.2406,646.7241 1035.0463,660.9725 1219.7275,675.4156 C1589.09,704.3019 1957.955,733.9669 1961.7,737.5169 C1972.9325,748.1519 1979.7869,762.04 1983.7378,776.9359 C1984.7255,780.6599 1985.5318,784.4469 1986.1797,788.2618 C1986.5036,790.1692 1986.7879,792.0836 1987.0355,794.0006 C1987.0974,794.4799 1987.157,794.9593 1987.2143,795.4388 C1987.243,795.6786 1986.5861,789.9576 1986.6137,790.1974 " fill="none" id="Gateway-to-DocService" style="stroke:#181818;stroke-width:1.0;"/><polygon fill="#181818" points="1987.2987,796.1581,1990.245,786.7603,1986.7279,791.1908,1982.2973,787.6736,1987.2987,796.1581" style="stroke:#181818;stroke-width:1.0;"/><text fill="#000000" font-family="sans-serif" font-size="13" lengthAdjust="spacing" textLength="96" x="1881.09" y="725.5838">Document Ops</text></g><!--link Gateway to AuditService--><g id="link_Gateway_AuditService"><path d="M96.0124,709.3213 C95.7477,709.357 95.487,709.3931 95.2304,709.4297 C94.7173,709.5029 94.2207,709.5778 93.7409,709.6544 C92.7813,709.8077 91.8889,709.9681 91.0663,710.1358 C87.7757,710.8068 85.6006,711.595 84.7,712.5169 C6,793.0069 36.19,864.2269 84.7,965.8069 C132.72,1066.3569 175.9,1082.8669 279.7,1123.4069 C359.35,1154.5169 578.26,1144.8369 663.7,1148.4069 C675.75,1148.9069 1088.46,1148.6569 1097.7,1156.4069 C1101.8475,1159.8856 1105.262,1163.9791 1108.0612,1168.4832 C1108.761,1169.6093 1109.4223,1170.761 1110.047,1171.9352 C1110.1251,1172.082 1107.4271,1166.9097 1107.504,1167.0571 " fill="none" id="Gateway-to-AuditService" style="stroke:#181818;stroke-width:1.0;"/><polygon fill="#181818" points="1110.2795,1172.3766,1109.6625,1162.5471,1107.9666,1167.9437,1102.5699,1166.2478,1110.2795,1172.3766" style="stroke:#181818;stroke-width:1.0;"/><text fill="#000000" font-family="sans-serif" font-size="13" lengthAdjust="spacing" textLength="72" x="97.83" y="986.8738">Query Logs</text></g><!--link Gateway to AuditService--><g id="link_Gateway_AuditService"><path d="M96.6185,720.7946 C96.5846,720.9665 96.5504,721.1409 96.516,721.3176 C96.4471,721.6711 96.3772,722.0343 96.3062,722.407 C95.17,728.3702 93.7652,736.7669 92.3011,746.8988 C89.3728,767.1625 86.2069,794.3669 84.4763,822.9244 C81.015,880.0394 83.295,942.5669 104.7,965.8069 C115.9,977.9769 162.43,970.8269 178.7,973.8069 C437.58,1021.3269 492.53,1077.5169 751.7,1123.4069 C827.76,1136.8669 1040.47,1104.5269 1097.7,1156.4069 C1101.7113,1160.0419 1105.023,1164.2531 1107.7466,1168.8438 C1108.4275,1169.9914 1106.3414,1165.82 1106.9505,1167.012 " fill="none" id="Gateway-to-AuditService-1" style="stroke:#181818;stroke-width:1.0;"/><polygon fill="#181818" points="1109.6808,1172.3548,1109.1473,1162.5204,1107.4056,1167.9025,1102.0235,1166.1607,1109.6808,1172.3548" style="stroke:#181818;stroke-width:1.0;"/><text fill="#000000" font-family="sans-serif" font-size="13" lengthAdjust="spacing" textLength="82" x="261.79" y="986.8738">Audit Access</text></g><!--link AuthService to MFA--><g id="link_AuthService_MFA"><path d="M1534.7102,903.3038 C1534.7637,903.4353 1534.8175,903.5671 1534.8715,903.6992 C1535.0878,904.2276 1535.3086,904.7612 1535.5339,905.2995 C1535.9846,906.376 1536.4537,907.4715 1536.9413,908.5827 C1537.9164,910.8051 1538.9658,913.0906 1540.0913,915.4144 C1549.095,934.0044 1562.97,955.0419 1582.7,965.8069 C1604.04,977.4469 3310.31,964.3569 3332.7,973.8069 C3355.7,983.5169 3371.7835,998.2589 3386.4335,1016.1089 " fill="none" id="AuthService-to-MFA" style="stroke:#181818;stroke-width:1.0;"/><polygon fill="#181818" points="3390.24,1020.7469,3387.6222,1011.2523,3387.0679,1016.8819,3381.4383,1016.3276,3390.24,1020.7469" style="stroke:#181818;stroke-width:1.0;"/><text fill="#000000" font-family="sans-serif" font-size="13" lengthAdjust="spacing" textLength="88" x="3361.28" y="986.8738">Validate TOTP</text></g><!--link AuthService to PostgreSQL--><g id="link_AuthService_PostgreSQL"><path d="M1534.7421,903.2515 C1534.7957,903.3828 1534.8496,903.5143 1534.9038,903.6462 C1535.1205,904.1737 1535.3418,904.7063 1535.5676,905.2436 C1536.0193,906.3183 1536.4892,907.4119 1536.9777,908.5213 C1537.9546,910.7402 1539.0056,913.0223 1540.1325,915.3431 C1549.1475,933.9094 1563.02,954.9469 1582.7,965.8069 C1610.48,981.1369 2128.55,954.4669 2153.7,973.8069 C2217.59,1022.9469 2171.31,1074.1769 2202.7,1148.4069 C2234.05,1222.5269 2233.32,1251.7369 2293.7,1304.9469 C2333.89,1340.3669 2352.57,1339.6069 2404.7,1351.9469 C2418.13,1355.1269 2518.67,1350.4569 2528.7,1359.9469 C2555.29,1385.1069 2560.55,1425.7494 2559.035,1460.5394 C2558.6563,1469.2369 2557.8541,1477.5686 2556.8559,1485.2012 C2556.8247,1485.4397 2557.585,1479.73 2557.5535,1479.9671 " fill="none" id="AuthService-to-PostgreSQL" style="stroke:#181818;stroke-width:1.0;"/><polygon fill="#181818" points="2556.7617,1485.9147,2561.9144,1477.5212,2557.4215,1480.9584,2553.9843,1476.4655,2556.7617,1485.9147" style="stroke:#181818;stroke-width:1.0;"/><text fill="#000000" font-family="sans-serif" font-size="13" lengthAdjust="spacing" textLength="80" x="2203.7" y="1144.4738">User Lookup</text></g><!--link AuthService to Cache--><g id="link_AuthService_Cache"><path d="M1127.628,973.3124 C1126.2604,973.3175 1124.9053,973.3225 1123.5631,973.3275 C1080.6131,973.4863 1050.8875,973.5894 1047.7,973.8069 C873.52,985.7869 828.4,984.1669 657.7,1020.8069 C601.7,1032.8269 534.7,1001.9769 534.7,1059.2569 C23.7,2111.3869 23.7,2111.3869 534.7,1696.6469 C534.7,1763.0269 594.3,1760.1669 656.7,1782.7969 C816.625,1840.7819 1197.2625,1871.8019 1539.0925,1888.3331 C1710.0075,1896.5988 1871.2206,1901.2422 1990.2919,1903.823 C2049.8275,1905.1134 2098.8277,1905.8881 2133.2373,1906.3421 C2150.4422,1906.5691 2163.9994,1906.7159 2173.4021,1906.8069 C2175.7528,1906.8297 2171.8441,1906.7958 2173.6675,1906.8119 " fill="none" id="AuthService-to-Cache" style="stroke:#181818;stroke-width:1.0;"/><polygon fill="#181818" points="2179.6673,1906.8651,2170.7031,1902.7855,2174.6675,1906.8208,2170.6322,1910.7852,2179.6673,1906.8651" style="stroke:#181818;stroke-width:1.0;"/><text fill="#000000" font-family="sans-serif" font-size="13" lengthAdjust="spacing" textLength="89" x="535.7" y="1348.0138">Session Store</text></g><!--link AuthzService to PostgreSQL--><g id="link_AuthzService_PostgreSQL"><path d="M1093.3462,1003.6868 C1095.3495,1003.6909 1097.3576,1003.694 1099.3702,1003.696 C1103.3956,1003.7 1107.4395,1003.6998 1111.5011,1003.6955 C1127.7473,1003.6784 1144.2764,1003.5965 1161.033,1003.461 C1228.0594,1002.9191 1298.7256,1001.52 1369.49,999.9819 C1652.5475,993.8294 1937.175,985.4519 1996.7,1020.8069 C2053.65,1054.6369 2035.95,1093.9769 2073.7,1148.4069 C2124.29,1221.3369 2125.42,1253.4369 2197.7,1304.9469 C2249.1,1341.5769 2269.71,1340.0969 2331.7,1351.9469 C2342.46,1354.0069 2520.65,1352.5169 2528.7,1359.9469 C2555.59,1384.7869 2560.855,1425.4244 2559.2675,1460.2919 C2558.8706,1469.0088 2558.0455,1477.365 2557.0229,1485.0236 C2556.9589,1485.5023 2556.8943,1485.9782 2556.8289,1486.4514 C2556.7962,1486.6879 2557.5984,1480.9822 2557.5653,1481.2173 " fill="none" id="AuthzService-to-PostgreSQL" style="stroke:#181818;stroke-width:1.0;"/><polygon fill="#181818" points="2556.7302,1487.159,2561.9439,1478.8033,2557.4261,1482.2076,2554.0218,1477.6898,2556.7302,1487.159" style="stroke:#181818;stroke-width:1.0;"/><text fill="#000000" font-family="sans-serif" font-size="13" lengthAdjust="spacing" textLength="113" x="2074.7" y="1144.4738">Permission Check</text></g><!--link AuthzService to Cache--><g id="link_AuthzService_Cache"><path d="M723.5331,896.2354 C723.4738,896.3463 723.4141,896.4577 723.3541,896.5695 C723.2342,896.793 723.1131,897.0181 722.9907,897.2448 C722.7461,897.6981 722.4965,898.1578 722.2422,898.6233 C721.7335,899.5545 721.2056,900.5094 720.6588,901.4856 C718.4716,905.3905 715.9819,909.6363 713.21,914.0644 C702.1225,931.7769 686.52,952.4069 667.7,965.8069 C555.33,1045.8369 371.7,921.2969 371.7,1059.2569 C23.7,2111.3869 23.7,2111.3869 371.7,1696.6469 C371.7,1797.8669 822.4075,1850.4269 1274.8763,1877.6881 C1501.1106,1891.3188 1727.7853,1898.6247 1898.782,1902.5261 C1984.2804,1904.4768 2055.8593,1905.5764 2106.5038,1906.1898 C2131.8261,1906.4966 2151.9149,1906.6818 2165.8932,1906.7911 C2169.3878,1906.8184 2172.5004,1906.841 2175.2175,1906.8595 C2176.576,1906.8688 2177.8357,1906.8771 2178.9947,1906.8844 C2179.5742,1906.8881 2174.1287,1906.8549 2174.6577,1906.8582 " fill="none" id="AuthzService-to-Cache" style="stroke:#181818;stroke-width:1.0;"/><polygon fill="#181818" points="2180.6576,1906.8947,2171.6821,1902.8399,2175.6577,1906.8643,2171.6333,1910.8398,2180.6576,1906.8947" style="stroke:#181818;stroke-width:1.0;"/><text fill="#000000" font-family="sans-serif" font-size="13" lengthAdjust="spacing" textLength="121" x="372.7" y="1348.0138">Cache Permissions</text></g><!--link DocService to CryptoService--><g id="link_DocService_CryptoService"><path d="M1978.7437,1107.7747 C1978.858,1108.5284 1978.9747,1109.2763 1979.0937,1110.0182 C1979.3317,1111.502 1979.5791,1112.9618 1979.8361,1114.3962 C1980.3501,1117.265 1980.9026,1120.0321 1981.4958,1122.6864 C1983.8684,1133.3036 1986.8913,1142.1156 1990.7,1148.4069 C1994.41,1154.5369 2000.49,1150.5969 2004.7,1156.4069 C2007.8838,1160.7981 2010.5869,1165.5795 2012.8794,1170.5886 C2013.0227,1170.9017 2013.1644,1171.2156 2013.3045,1171.5304 C2013.3745,1171.6878 2011.0332,1166.3512 2011.1024,1166.509 " fill="none" id="DocService-to-CryptoService" style="stroke:#181818;stroke-width:1.0;"/><polygon fill="#181818" points="2013.5134,1172.0033,2013.5598,1162.1545,2011.5043,1167.4247,2006.2341,1165.3692,2013.5134,1172.0033" style="stroke:#181818;stroke-width:1.0;"/><text fill="#000000" font-family="sans-serif" font-size="13" lengthAdjust="spacing" textLength="102" x="1982.54" y="1064.8238">Encrypt/Decrypt</text></g><!--link DocService to PostgreSQL--><g id="link_DocService_PostgreSQL"><path d="M1989.0519,881.5355 C1989.1889,881.5679 1989.3275,881.6007 1989.4676,881.634 C1990.028,881.7671 1990.613,881.9071 1991.2218,882.054 C1992.4395,882.3479 1993.7525,882.6694 1995.1556,883.019 C1997.9617,883.7182 2001.1276,884.5296 2004.6095,885.4564 C2018.5372,889.1634 2037.5206,894.715 2058.7537,902.3031 C2101.22,917.4794 2152.685,940.8019 2190.7,973.8069 C2342.46,1105.5769 2265.48,1250.0269 2438.7,1351.9469 C2456.01,1362.1269 2514.28,1345.9769 2528.7,1359.9469 C2554.985,1385.4269 2560.24,1426.0744 2558.7988,1460.7869 C2558.6186,1465.1259 2558.3338,1469.3723 2557.9724,1473.4846 C2557.7917,1475.5408 2557.5918,1477.5635 2557.3763,1479.5476 C2557.2685,1480.5396 2557.1568,1481.522 2557.0417,1482.4941 C2556.9841,1482.9801 2556.9257,1483.4636 2556.8664,1483.9444 C2556.8368,1484.1848 2557.5548,1478.4713 2557.5248,1478.7103 " fill="none" id="DocService-to-PostgreSQL" style="stroke:#181818;stroke-width:1.0;"/><polygon fill="#181818" points="2556.7769,1484.6636,2561.8675,1476.2323,2557.4001,1479.7025,2553.9299,1475.2352,2556.7769,1484.6636" style="stroke:#181818;stroke-width:1.0;"/><text fill="#000000" font-family="sans-serif" font-size="13" lengthAdjust="spacing" textLength="102" x="2298.77" y="1144.4738">Metadata CRUD</text></g><!--link DocService to ObjectStore--><g id="link_DocService_ObjectStore"><path d="M1989.0465,882.3267 C1989.184,882.3715 1989.3231,882.4167 1989.4637,882.4626 C1990.0263,882.6458 1990.6139,882.8377 1991.226,883.0382 C1992.45,883.4391 1993.7718,883.874 1995.1862,884.3423 C1998.0152,885.2788 2001.2152,886.3485 2004.7472,887.5447 C2018.875,892.3294 2038.3138,899.1381 2060.56,907.5469 C2105.0525,924.3644 2160.775,947.5819 2207.7,973.8069 C2238.82,991.1969 2244.41,999.1069 2272.7,1020.8069 C2334.51,1068.2269 2353.94,1075.9869 2408.7,1131.4069 C2496.65,1220.4069 2471.67,1296.2069 2583.7,1351.9469 C2600.72,1360.4169 2911.67,1347.1369 2925.7,1359.9469 C2952.71,1384.6169 2957.735,1425.2519 2955.8737,1460.1606 C2955.4084,1468.8878 2954.5127,1477.2571 2953.4226,1484.9296 C2953.2863,1485.8886 2953.147,1486.8368 2953.0051,1487.7734 C2952.9341,1488.2418 2953.7878,1482.7789 2953.7156,1483.2414 " fill="none" id="DocService-to-ObjectStore" style="stroke:#181818;stroke-width:1.0;"/><polygon fill="#181818" points="2952.7904,1489.1696,2958.1304,1480.8941,2953.5614,1484.2294,2950.2261,1479.6605,2952.7904,1489.1696" style="stroke:#181818;stroke-width:1.0;"/><text fill="#000000" font-family="sans-serif" font-size="13" lengthAdjust="spacing" textLength="130" x="2424.71" y="1144.4738">Store/Retrieve Blobs</text></g><!--link DocService to Cache--><g id="link_DocService_Cache"><path d="M1572.1002,999.213 C1567.5872,999.159 1563.055,999.1013 1558.5046,999.0402 C1540.3029,998.7957 1521.8102,998.4962 1503.0955,998.1577 C1428.2367,996.8036 1349.8256,994.8256 1272.2775,993.2494 C962.085,986.9444 665.7,987.0669 665.7,1059.2569 C23.7,2111.3869 23.7,2111.3869 665.7,1696.6469 C665.7,1781.7269 1043.48,1834.2219 1422.7363,1865.4856 C1612.3644,1881.1175 1802.3616,1891.4416 1945.6898,1897.877 C2017.354,1901.0948 2077.3509,1903.3404 2119.8008,1904.7912 C2141.0258,1905.5166 2157.864,1906.0433 2169.5806,1906.3936 C2172.5097,1906.4811 2175.1187,1906.5576 2177.3961,1906.6235 C2178.5349,1906.6564 2173.5931,1906.5161 2174.5646,1906.5438 " fill="none" id="DocService-to-Cache" style="stroke:#181818;stroke-width:1.0;"/><polygon fill="#181818" points="2180.5622,1906.7143,2171.6795,1902.4601,2175.5642,1906.5722,2171.4521,1910.4569,2180.5622,1906.7143" style="stroke:#181818;stroke-width:1.0;"/><text fill="#000000" font-family="sans-serif" font-size="13" lengthAdjust="spacing" textLength="83" x="666.7" y="1348.0138">Search Index</text></g><!--link CryptoService to KMS--><g id="link_CryptoService_KMS"><path d="M2033.436,1255.4245 C2033.8449,1255.4192 2034.2676,1255.4138 2034.7042,1255.4083 C2035.5772,1255.3972 2036.5054,1255.3857 2037.4877,1255.3737 C2045.3466,1255.2782 2056.6761,1255.1574 2071.0492,1255.0486 C2099.7954,1254.8309 2140.7162,1254.6613 2190.3955,1254.8381 C2289.7541,1255.1919 2424.1469,1256.9319 2566.2462,1262.4469 C2850.445,1273.4769 3165.47,1299.6069 3292.7,1359.9469 C3353.48,1388.7769 3402.3348,1443.1888 3432.5948,1482.5788 " fill="none" id="CryptoService-to-KMS" style="stroke:#181818;stroke-width:1.0;"/><polygon fill="#181818" points="3436.25,1487.3369,3433.9392,1477.7629,3433.204,1483.3718,3427.5951,1482.6366,3436.25,1487.3369" style="stroke:#181818;stroke-width:1.0;"/><text fill="#000000" font-family="sans-serif" font-size="13" lengthAdjust="spacing" textLength="97" x="3259.52" y="1348.0138">Key Operations</text></g><!--link CryptoService to ObjectStore--><g id="link_CryptoService_ObjectStore"><path d="M2032.8608,1259.2719 C2033.0118,1259.3397 2033.1648,1259.4084 2033.3198,1259.4778 C2038.2785,1261.7008 2045.2473,1264.7788 2053.8903,1268.4789 C2071.1763,1275.8791 2095.1587,1285.7675 2123.15,1296.2806 C2179.1325,1317.3069 2251.15,1340.8319 2317.7,1351.9469 C2334.36,1354.7369 2913.17,1348.6269 2925.7,1359.9469 C2952.835,1384.4819 2957.8625,1425.1144 2955.9713,1460.0556 C2955.4984,1468.7909 2954.5932,1477.1705 2953.4929,1484.854 C2953.3553,1485.8144 2953.2147,1486.764 2953.0716,1487.702 C2953,1488.171 2952.9277,1488.6371 2952.8549,1489.1003 C2952.8185,1489.3319 2953.727,1483.6376 2953.6903,1483.8677 " fill="none" id="CryptoService-to-ObjectStore" style="stroke:#181818;stroke-width:1.0;"/><polygon fill="#181818" points="2952.7453,1489.7928,2958.1129,1481.5351,2953.5328,1484.8552,2950.2128,1480.2751,2952.7453,1489.7928" style="stroke:#181818;stroke-width:1.0;"/><text fill="#000000" font-family="sans-serif" font-size="13" lengthAdjust="spacing" textLength="119" x="2318.7" y="1348.0138">Encrypted Storage</text></g><!--link AuditService to AuditDB--><g id="link_AuditService_AuditDB"><path d="M1125.2426,1256.6324 C1125.4488,1256.6583 1125.6586,1256.6847 1125.8719,1256.7114 C1126.2985,1256.765 1126.7393,1256.8203 1127.1941,1256.8772 C1128.1037,1256.9912 1129.0695,1257.112 1130.0901,1257.2394 C1138.2548,1258.2587 1149.9315,1259.7014 1164.5017,1261.4628 C1193.6422,1264.9856 1234.3569,1269.7831 1281.6988,1275.0169 C1376.3825,1285.4844 1497.575,1297.6969 1605.7,1304.9469 C1628.61,1306.4869 3240.83,1344.3869 3257.7,1359.9469 C3284.59,1384.7519 3289.6125,1425.3894 3287.78,1460.2656 C3287.3219,1468.9847 3286.4353,1477.3437 3285.3549,1485.0052 C3285.2198,1485.9629 3285.0817,1486.9097 3284.9411,1487.8449 C3284.8708,1488.3125 3285.7186,1482.848 3285.6471,1483.3098 " fill="none" id="AuditService-to-AuditDB" style="stroke:#181818;stroke-width:1.0;"/><polygon fill="#181818" points="3284.7282,1489.239,3290.0593,1480.9577,3285.4939,1484.298,3282.1536,1479.7326,3284.7282,1489.239" style="stroke:#181818;stroke-width:1.0;"/><text fill="#000000" font-family="sans-serif" font-size="13" lengthAdjust="spacing" textLength="103" x="3141.12" y="1348.0138">Immutable Logs</text></g><!--link AuditService to NotifyService--><g id="link_AuditService_NotifyService"><path d="M1125.3157,1256.4124 C1125.7799,1256.4604 1126.2617,1256.5104 1126.7607,1256.5624 C1128.7567,1256.7704 1131.0286,1257.0106 1133.5572,1257.2833 C1143.6717,1258.3739 1157.8944,1259.983 1175.0031,1262.1211 C1209.2206,1266.3972 1254.9825,1272.7888 1302.5125,1281.3781 C1397.5725,1298.5569 1499.705,1324.5269 1530.7,1359.9469 C1554.79,1387.4769 1559.77,1428.1569 1558.615,1462.3731 C1558.4706,1466.6502 1558.2304,1470.8262 1557.9196,1474.8629 C1557.8808,1475.3675 1557.8408,1475.8699 1557.7999,1476.3701 C1557.7794,1476.6202 1558.2634,1470.891 1558.2424,1471.1399 " fill="none" id="AuditService-to-NotifyService" style="stroke:#181818;stroke-width:1.0;"/><polygon fill="#181818" points="1557.7376,1477.1186,1562.4806,1468.4871,1558.1582,1472.1364,1554.5089,1467.814,1557.7376,1477.1186" style="stroke:#181818;stroke-width:1.0;"/><text fill="#000000" font-family="sans-serif" font-size="13" lengthAdjust="spacing" textLength="37" x="1522.86" y="1348.0138">Alerts</text></g><!--link NotifyService to Notifications--><g id="link_NotifyService_Notifications"><path d="M1557.7103,1542.329 C1557.8202,1542.5055 1557.9311,1542.6831 1558.0431,1542.8617 C1558.4911,1543.5763 1558.9558,1544.3077 1559.4371,1545.0537 C1561.3622,1548.0378 1563.5513,1551.2563 1565.985,1554.5719 C1575.72,1567.8344 1589.37,1582.6519 1605.7,1590.2469 C1772.23,1667.6969 3076.81,1613.4969 3257.7,1645.2469 C3291.32,1651.1469 3322.0841,1660.7185 3350.8341,1671.2185 " fill="none" id="NotifyService-to-Notifications" style="stroke:#181818;stroke-width:1.0;"/><polygon fill="#181818" points="3356.47,1673.2769,3349.3884,1666.4321,3351.7734,1671.5616,3346.6439,1673.9466,3356.47,1673.2769" style="stroke:#181818;stroke-width:1.0;"/><text fill="#000000" font-family="sans-serif" font-size="13" lengthAdjust="spacing" textLength="68" x="1711.91" y="1611.3138">Email/SMS</text></g><!--link Monitor to Gateway--><g id="link_Monitor_Gateway"><path d="M2337.6828,376.0665 C2337.1571,376.1019 2336.6065,376.139 2336.0311,376.1779 C2334.8804,376.2555 2333.6308,376.3401 2332.2844,376.4315 C2329.5916,376.6143 2326.5115,376.8245 2323.0607,377.0617 C2309.2575,378.0102 2289.5223,379.3898 2264.9089,381.1727 C2215.6822,384.7384 2146.9431,389.9175 2067.1237,396.4881 C1907.485,409.6294 1703.525,428.3369 1522.7,450.8369 C1290.57,479.7119 1030.835,520.5819 828.0138,554.4381 C726.6031,571.3663 639.4209,586.5409 577.032,597.5861 C545.8376,603.1087 520.8414,607.5989 503.3642,610.7597 C494.6256,612.3401 493.6693,612.5109 488.8552,613.3895 " fill="none" id="Monitor-to-Gateway" style="stroke:#181818;stroke-width:1.0;"/><polygon fill="#181818" points="482.9527,614.4667,492.5246,616.7859,487.8715,613.569,491.0883,608.9159,482.9527,614.4667" style="stroke:#181818;stroke-width:1.0;"/><text fill="#000000" font-family="sans-serif" font-size="13" lengthAdjust="spacing" textLength="93" x="1523.7" y="463.9038">Collect Metrics</text></g><!--link Monitor to AuthService--><g id="link_Monitor_AuthService"><path d="M2337.3138,375.9084 C2337.1118,375.9187 2336.9064,375.9292 2336.6975,375.9399 C2336.2798,375.9615 2335.8483,375.984 2335.4032,376.0076 C2334.5131,376.0547 2333.5685,376.106 2332.5708,376.1618 C2324.5892,376.608 2313.2088,377.3391 2299.0981,378.4963 C2270.8769,380.8106 2231.735,384.8294 2187.0225,391.6819 C2097.5975,405.3869 1985.89,430.4269 1894.7,475.8369 C1739,553.3669 1739.05,629.5569 1596.7,729.5169 C1590.84,733.6269 1587.4,732.1069 1582.7,737.5169 C1561.035,762.4219 1547.13,796.7594 1538.595,825.2119 C1537.5281,828.7684 1536.5452,832.233 1535.6414,835.5758 C1535.4155,836.4115 1535.1945,837.2395 1534.9784,838.0595 C1534.9244,838.2645 1536.3907,832.6647 1536.3372,832.8687 " fill="none" id="Monitor-to-AuthService" style="stroke:#181818;stroke-width:1.0;"/><polygon fill="#181818" points="1534.8173,838.673,1540.9667,830.9799,1536.0839,833.8361,1533.2277,828.9532,1534.8173,838.673" style="stroke:#181818;stroke-width:1.0;"/><text fill="#000000" font-family="sans-serif" font-size="13" lengthAdjust="spacing" textLength="93" x="1895.7" y="621.5438">Collect Metrics</text></g><!--link Monitor to DocService--><g id="link_Monitor_DocService"><path d="M2337.617,376.3019 C2337.3119,376.3347 2336.9988,376.3687 2336.6778,376.4039 C2331.5425,376.9675 2324.3988,377.8488 2315.725,379.167 C2298.3775,381.8034 2274.91,386.1875 2249.15,393.2731 C2197.63,407.4444 2136.94,432.4219 2097.7,475.8369 C2035.825,544.2919 2006.5475,643.7194 1992.7525,726.5419 C1989.3038,747.2475 1986.8227,766.9153 1985.0418,784.8019 C1984.8192,787.0377 1984.6075,789.2457 1984.4063,791.4244 C1984.3057,792.5138 1984.2076,793.5958 1984.1122,794.6704 C1984.0644,795.2076 1984.5381,789.7657 1984.4916,790.2992 " fill="none" id="Monitor-to-DocService" style="stroke:#181818;stroke-width:1.0;"/><polygon fill="#181818" points="1983.9708,796.2765,1988.7369,787.6576,1984.4048,791.2954,1980.7671,786.9633,1983.9708,796.2765" style="stroke:#181818;stroke-width:1.0;"/><text fill="#000000" font-family="sans-serif" font-size="13" lengthAdjust="spacing" textLength="93" x="2098.7" y="621.5438">Collect Metrics</text></g><!--link Monitor to PostgreSQL--><g id="link_Monitor_PostgreSQL"><path d="M2337.4165,377.8823 C2337.3104,377.9147 2337.2035,377.9475 2337.0957,377.9807 C2336.8802,378.047 2336.6611,378.1147 2336.4387,378.1838 C2334.6589,378.7365 2332.6602,379.3785 2330.4761,380.1123 C2321.7397,383.0478 2310.0369,387.4538 2297.5138,393.5006 C2272.4675,405.5944 2244.14,424.2519 2229.7,450.8369 C2175.97,549.7569 2210.9,593.1369 2229.7,704.1269 C2252.24,837.1769 2246.79,884.3369 2329.7,990.8069 C2395.45,1075.2469 2432.57,1080.6969 2530.7,1123.4069 C2544.54,1129.4269 2554.37,1119.5369 2563.7,1131.4069 C2577.16,1148.5169 2573.5725,1245.7869 2566.54,1339.4731 C2564.7819,1362.8947 2562.8084,1386.0923 2560.8322,1407.7574 C2559.8441,1418.5899 2558.8553,1429.0393 2557.8924,1438.9421 C2557.6517,1441.4178 2557.4126,1443.8593 2557.1755,1446.2641 C2557.0569,1447.4665 2557.5314,1442.689 2557.414,1443.8728 " fill="none" id="Monitor-to-PostgreSQL" style="stroke:#181818;stroke-width:1.0;"/><polygon fill="#181818" points="2556.8214,1449.8434,2561.6907,1441.2824,2557.3152,1444.8679,2553.7298,1440.4924,2556.8214,1449.8434" style="stroke:#181818;stroke-width:1.0;"/><text fill="#000000" font-family="sans-serif" font-size="13" lengthAdjust="spacing" textLength="112" x="2330.7" y="986.8738">Database Metrics</text></g><!--link Monitor to ObjectStore--><g id="link_Monitor_ObjectStore"><path d="M2337.4774,381.4382 C2337.1134,381.7108 2336.7393,381.9924 2336.3555,382.2827 C2335.5879,382.8633 2334.7816,383.4788 2333.9398,384.1283 C2327.2059,389.3241 2318.2044,396.6925 2308.6237,405.7256 C2289.4625,423.7919 2267.985,448.5169 2257.7,475.8369 C2221.95,570.7869 2226.59,607.5469 2257.7,704.1269 C2263.3,721.5269 2272.51,721.7169 2281.7,737.5169 C2337.89,834.0269 2296.79,899.5569 2386.7,965.8069 C2408.71,982.0269 2423.83,960.4669 2447.7,973.8069 C2526.47,1017.8169 2526.57,1055.7169 2575.7,1131.4069 C2636.92,1225.7269 2599.76,1300.3969 2699.7,1351.9469 C2722.03,1363.4669 2907.25,1342.8969 2925.7,1359.9469 C2952.56,1384.7819 2957.5825,1425.4194 2955.7575,1460.2881 C2955.3012,1469.0053 2954.417,1477.362 2953.3391,1485.021 C2953.2043,1485.9784 2953.0665,1486.9249 2952.9262,1487.8598 C2952.856,1488.3272 2953.7024,1482.8623 2953.631,1483.3239 " fill="none" id="Monitor-to-ObjectStore" style="stroke:#181818;stroke-width:1.0;"/><polygon fill="#181818" points="2952.7138,1489.2534,2958.0425,1480.9706,2953.4781,1484.3122,2950.1366,1479.7477,2952.7138,1489.2534" style="stroke:#181818;stroke-width:1.0;"/><text fill="#000000" font-family="sans-serif" font-size="13" lengthAdjust="spacing" textLength="101" x="2475.45" y="986.8738">Storage Metrics</text></g><!--link Backup to PostgreSQL--><g id="link_Backup_PostgreSQL"><path d="M2802.6212,385.922 C2802.5078,386.0577 2802.3933,386.1943 2802.2777,386.3318 C2802.0466,386.6068 2801.8113,386.8854 2801.5718,387.1672 C2801.0929,387.731 2800.5974,388.3081 2800.0859,388.8969 C2798.0402,391.2521 2795.7387,393.7941 2793.2175,396.4156 C2783.1325,406.9019 2769.53,418.6619 2754.7,424.8369 C2662.4,463.2469 2362.91,392.4769 2307.7,475.8369 C2251.67,560.4269 2250.9,620.0569 2307.7,704.1269 C2318.83,720.6069 2376.33,723.7769 2390.7,737.5169 C2471.3,814.5569 2403.52,901.6369 2494.7,965.8069 C2512.21,978.1269 2575.66,958.5669 2590.7,973.8069 C2633.585,1017.2769 2623.5825,1153.5394 2602.6125,1279.8294 C2592.1275,1342.9744 2578.9006,1403.6263 2568.1719,1448.9394 C2565.4897,1460.2677 2562.9636,1470.6373 2560.6756,1479.8475 C2559.5316,1484.4526 2558.447,1488.7679 2557.4323,1492.7682 C2557.3054,1493.2682 2558.6584,1487.9484 2558.5338,1488.4386 " fill="none" id="Backup-to-PostgreSQL" style="stroke:#181818;stroke-width:1.0;"/><polygon fill="#181818" points="2557.055,1494.2535,2563.1498,1486.517,2558.2873,1489.4078,2555.3966,1484.5453,2557.055,1494.2535" style="stroke:#181818;stroke-width:1.0;"/><text fill="#000000" font-family="sans-serif" font-size="13" lengthAdjust="spacing" textLength="47" x="2603.57" y="986.8738">Backup</text></g><!--link Backup to AuditDB--><g id="link_Backup_AuditDB"><path d="M3285.332,486.3279 C3286.1969,487.4773 3287.0312,488.6216 3287.8356,489.761 C3291.0533,494.3186 3293.7933,498.7985 3296.1049,503.2189 C3300.7281,512.0599 3303.6377,520.6633 3305.2286,529.1753 C3308.4103,546.1994 3306.3169,562.8581 3302.1063,580.3219 C3293.685,615.2494 3276.795,653.3969 3276.7,704.1269 C3276.48,823.9869 3275.92,853.9469 3275.7,973.8069 C3275.475,1095.5819 3275.72,1232.4569 3276.0238,1339.4794 C3276.0997,1366.235 3276.1793,1391.1248 3276.2562,1413.4465 C3276.261,1414.8416 3276.2449,1410.2267 3276.2497,1411.6016 " fill="none" id="Backup-to-AuditDB" style="stroke:#181818;stroke-width:1.0;"/><polygon fill="#181818" points="3276.2705,1417.6016,3280.2392,1408.5877,3276.2531,1412.6016,3272.2393,1408.6155,3276.2705,1417.6016" style="stroke:#181818;stroke-width:1.0;"/><text fill="#000000" font-family="sans-serif" font-size="13" lengthAdjust="spacing" textLength="47" x="3276.7" y="986.8738">Backup</text></g><!--link Backup to ObjectStore--><g id="link_Backup_ObjectStore"><path d="M2802.6931,385.5016 C2802.6364,385.5677 2802.5794,385.6342 2802.5222,385.7008 C2802.4076,385.8341 2802.292,385.9682 2802.1754,386.1033 C2801.9421,386.3735 2801.7047,386.6472 2801.4631,386.9242 C2800.9799,387.4784 2800.4802,388.0459 2799.9646,388.6254 C2797.9023,390.943 2795.5856,393.45 2793.0525,396.0444 C2782.92,406.4219 2769.325,418.1969 2754.7,424.8369 C2675.1,460.9469 2422.36,410.1469 2364.7,475.8369 C2297.77,552.0869 2302.22,624.1769 2364.7,704.1269 C2374.15,716.2169 2485.87,729.0969 2498.7,737.5169 C2609.31,810.0869 2630.05,851.1869 2679.7,973.8069 C2743.2,1130.6369 2599.59,1236.9569 2723.7,1351.9469 C2740.18,1367.2169 2909.24,1344.6669 2925.7,1359.9469 C2952.51,1384.8369 2957.5325,1425.4744 2955.72,1460.3294 C2955.2669,1469.0431 2954.3866,1477.3955 2953.3127,1485.05 C2953.1785,1486.0068 2953.0412,1486.9527 2952.9014,1487.8871 C2952.8664,1488.1207 2953.7326,1482.4216 2953.6973,1482.6537 " fill="none" id="Backup-to-ObjectStore" style="stroke:#181818;stroke-width:1.0;"/><polygon fill="#181818" points="2952.796,1488.5857,2958.1026,1480.2887,2953.5471,1483.6424,2950.1934,1479.0869,2952.796,1488.5857" style="stroke:#181818;stroke-width:1.0;"/><text fill="#000000" font-family="sans-serif" font-size="13" lengthAdjust="spacing" textLength="47" x="2686.38" y="986.8738">Backup</text></g><!--link Auditors to Gateway--><g id="link_Auditors_Gateway"><path d="M3356.89,397.8469 C3333.48,408.0969 3304.2,419.2169 3276.7,424.8369 C2907.92,500.1769 1958.95,446.5369 1583.7,475.8369 C1337.985,495.0169 1063.13,529.6569 848.52,559.6981 C741.215,574.7188 648.9713,588.5897 582.9619,598.8036 C549.9572,603.9105 523.5111,608.1032 505.0202,611.0683 C495.7748,612.5508 494.4402,612.7619 489.3469,613.5914 " fill="none" id="Auditors-to-Gateway" style="stroke:#181818;stroke-width:1.0;"/><polygon fill="#181818" points="483.425,614.5559,492.9509,617.0571,488.3599,613.7521,491.6649,609.1612,483.425,614.5559" style="stroke:#181818;stroke-width:1.0;"/><text fill="#000000" font-family="sans-serif" font-size="13" lengthAdjust="spacing" textLength="86" x="3060.85" y="463.9038">Audit Queries</text></g><!--link Gateway to GMN112--><g id="link_Gateway_GMN112"><path d="M483.4202,615.1899 C483.7367,615.1252 484.0616,615.0588 484.3948,614.9907 C485.0613,614.8547 485.761,614.712 486.4938,614.5627 C492.3556,613.3686 500.3281,611.7555 510.2413,609.7745 C530.0675,605.8123 557.6563,600.3784 591.6475,593.8813 C659.63,580.8869 753.2225,563.6394 861.545,545.4069 C1078.19,508.9419 1353.755,468.5369 1601.2,450.3369 C1693.06,443.5769 3171.97,420.7569 3259.2,450.3369 C3318.44,470.4169 3374.21,513.8369 3414.44,551.3269 " fill="none" id="Gateway-GMN112" style="stroke:#181818;stroke-width:1.0;stroke-dasharray:7.0,7.0;"/></g><!--link CryptoService to GMN115--><g id="link_CryptoService_GMN115"><path d="M2035.7973,1254.5469 C2039.2631,1254.5469 2042.7289,1254.5469 2046.1947,1254.5469 C2053.1263,1254.5469 2060.0578,1254.5469 2066.9894,1254.5469 C2080.8525,1254.5469 2094.7156,1254.5469 2108.5788,1254.5469 C2136.305,1254.5469 2164.0313,1254.5469 2191.7575,1254.5469 C2247.21,1254.5469 2302.6626,1254.5469 2358.1152,1254.5469 C2469.0203,1254.5469 2579.9256,1254.5469 2690.8313,1254.5469 C2912.6425,1254.5469 3134.455,1254.5469 3356.27,1254.5469 " fill="none" id="CryptoService-GMN115" style="stroke:#181818;stroke-width:1.0;stroke-dasharray:7.0,7.0;"/></g><!--link AuditDB to GMN118--><g id="link_AuditDB_GMN118"><path d="M3284.8479,1540.8184 C3285.7949,1542.18 3286.8176,1543.6174 3287.9124,1545.1133 C3290.102,1548.105 3292.5797,1551.3306 3295.3163,1554.6519 C3306.2625,1567.9369 3321.35,1582.7519 3338.7,1590.2469 C3366.97,1602.4569 3585.84,1590.7169 3615.7,1598.2469 C3654.58,1608.0569 3694.66,1626.6269 3728.08,1644.8669 " fill="none" id="AuditDB-GMN118" style="stroke:#181818;stroke-width:1.0;stroke-dasharray:7.0,7.0;"/></g><!--link PostgreSQL to GMN121--><g id="link_PostgreSQL_GMN121"><path d="M2556.8303,1542.6978 C2556.8855,1542.7871 2556.941,1542.8767 2556.9968,1542.9665 C2557.4429,1543.6851 2557.9058,1544.4205 2558.3853,1545.1704 C2560.303,1548.1702 2562.4853,1551.4034 2564.9137,1554.7306 C2574.6275,1568.0394 2588.28,1582.8519 2604.7,1590.2469 C2649.43,1610.3969 3442.2,1579.9069 3487.7,1598.2469 C3511.99,1608.0369 3533.87,1626.6069 3551.08,1644.8469 " fill="none" id="PostgreSQL-GMN121" style="stroke:#181818;stroke-width:1.0;stroke-dasharray:7.0,7.0;"/></g><!--SRC=[ZLZlRkEu4V-kfvZwW3tl0gxRthK5_E40HROJtzeRd-LiK21VQ9bns9L9bvAyvnm2tBFSe_L9EaEA-cFAtW810dD-Cvp_CzIVjlnPI0whIRGEFztE9v2aBCk281TvoY7cIQ4vp6JEqrJik4muZ5LIxBdCuJChqXm6S2TsBuCvF_8KubEMyps4EdaHEKzoP0w2xs7oQywrP2c4IQvq5Z3w1xs9tC93ndNs9FiX2i-pOOWeb96zxm7BB16-c-C5-QtcN3fEUy-J3BTx8KMMQqPo3OyvSap_GhNLLySL5bj1EBmkKlj3AXZQOszo9EHZHowtNBVqjlTbGPAgOekAb-TFSZ4DOQdLKI07YbtVhvTM816i3ZTfmHtZHtw21PDinyc3JpBc-YZGf_sFYtXu5o_UeqcFCU0l64BuIhud5kDf8vOeLcoaD4ihXVPCfCDu4J_9JoeNpo9XkL2oki3mDYbjhmO7bdn1fT2nDk1dCRRcz-2t003_leUfLfWI6BuvEw6h02e1IyqpP3INM6gluGSZ0K1ZQZ2vmmJhFV8DX0UCXTEul-8Ohk5d1CVBq3eJGOWvPrseZS3_I44kSHzZycor4jio08RQmMOI19PAvnJ0VXqEU9YzhrFeOOQCRyxWS3c3MvRph-paszmalhCr8_9JstgRYRxz3LvKvbQ1vFdm9SyFLXKdrl8199YtIfAolHMIO2xsM6ZQOEd0_Ex0ylyKFADmfc9BjM8Ogby-GtI_Yk6EoMrQ2gS37pPNR0itBAL2iZWwSGS6__RDY4-5HXlJ5FgFuRGCU3XjUR-6GvdHMKSOBg9wpMmlVUa5eiXVqAREoY6QAzMEI4IQRuaL6qNjO1z6BU4Q_UV7DTnooVK5UiopZ6op6LiYtYuQexHulM3BwnLZLZTX11EvmwdGeKDubRhaUY-iafCZIulQa6urNPl1FbfNOLDP15nHzU6GKlwvDFK1O_LLVWFo6IUCvzGpjpCSPosZkwsPo4IV3hx78pfLL-oe6I-xTio_ZQcdIvSTKRnSVRgzdZKu1C-p1O-kg3vNEuXKclAaEsU9ViUo5tw9-AXD__A9lnHSd_uFhtzZtfskA1zYIkHNF6QcAen5Tc1vqct2v4Z_biKc5RMHRytUDMOvytkLELrIxk5afQsgrQVCR2yrncx1DYoZqQgoVATv_ClyIIwrs3FqpxYa6eDhG6LjXc4n5zfLwfqf_zuviHht2vupkj13r9MTURIoX38lIhNgPORpxPEixegHd-FCkz_y6wDfVg8us__jcK7ufbJ2u2PL6r-V6o79DP5PKV8hMfdanecrGwtAGzHdjjyN-2DjReRZ6r-DYjlNW38UeXScf4Ug5qyJkolQHGnppkQ5sOgs8XlEv631zqgVh6uMucdc1iMuAv8qPMvIp4FCsBpdivfcDyCD-DUEP9x9PyrmtIxCQk-dzHdz7MvXalPg8NUzUhNsjw0Q1k-UvFq6a_N8S7_3DQfSvWozguWnPRL8CkZZ6hxdECCBV3nqzfeTYUzFvX-xw6lD4aF_cN7i1bqGqox8aYlTw0OzKHp826mRw0aqTiKJTSHUPWmfwLtDgCZLdfciDfYiQxug8VE1a8ErsFDQi0-yvMgmujKwr8pa6prig1l051VIBB2DOJ3ugTooOGHtw_KoRX2gLRgYbOyi8fRBSaKAIZ54Szlh2D-NyPgMwA2MTG7Wv5qW1-xCQ1nEaJOLAVeve1zjfYZbJ096zXa719djPW6zPp7UvY7K4jXSz4RGNWazu6iRMUrRBM1ZWndLpwhxm_czZJ4x0ZlxgBK4GLCb4mpS8aTkZ-H0BquFqnW48nlhkLAOKnxGDf0Hk8vXEgwzy_MYmCQM5xtmv8iFTsBj_yRi28A6FmoojHkDeEpjmtBTEOUtz7332gBLm_WSsPmW8slNS4MjWX-vdHkUAfKlwXOO16q52KTFy95vbjyVQ5StTlcmjWBrp2hd73cv4VCg2N3IZA0QGJO7F6Hxiy7qeyw4pcsVLyZgpOzwk0y5L0vrrmrSWpqh8BlPGTbZMwXsgLn3jahW6h0LNJUHEv5-T6dyE2IQPdjeKBPRJxXFhftlqzgtbVIW-cJKzfbT2wY21RzQv1OO9lXAHPMbmcBMjFo1UdRYi65_-D3ykh3Y6RRuJ9ZHYF977puWvh-__m7hUGmv5Pgq3-0-7Vprpp-yB-dcQq5ANmVCbCFCXG8Rmt2sh13bDuAZRItKo2p1V0iuA1mc9-3oMUd4FDJEsBGgI7HrQXJba61LrSUHq4c1LcyqPr_ecBuXaUdd3cZLat53uv4qni8NQSFuS18F_lRtVmnkeqLvCfqjqVmV_pBumOn5shYSmWzIeCOm-mpa1ELgkAHEv96dU8YMkllS9NP0YmI-OErhPRzndLkmKJd2o8GoesmCJQnnGpdG2j6CMrtg_SVxrS85mzg_q-pmWXScj4hMNepvWMcAfsYjMoNrduCJTZ1SIcZxhTLViprUFZXefPulArrNYT6xAaBtKQjMl14FXj77572XLry7gVaQdBalOVtLFAuiKr9oCtenfp2fAglg1MXZ5w16PYSLKmPAfgVAWFy1]--></g></svg>